<?xml version="1.0" encoding="UTF-8"?>
<svg version="1.1" xmlns="http://www.w3.org/2000/svg" width="1280" height="448">
<path d="M0 0 C0.83169205 -0.00637985 1.66338409 -0.0127597 2.52027893 -0.01933289 C3.8733036 -0.02100212 3.8733036 -0.02100212 5.25366211 -0.02270508 C6.18391708 -0.02603348 7.11417206 -0.02936188 8.07261658 -0.03279114 C10.0472667 -0.03786221 12.02192541 -0.04019941 13.99658203 -0.04003906 C16.99453253 -0.04220992 19.99210566 -0.06032014 22.98999023 -0.0793457 C24.91121294 -0.08228285 26.83243739 -0.08426549 28.75366211 -0.08520508 C29.64150894 -0.09239059 30.52935577 -0.09957611 31.44410706 -0.10697937 C42.1638018 -0.0683495 52.25883054 2.21971359 60.46069336 9.54760742 C69.22972565 18.83914682 72.57511894 28.29250682 72.26147461 40.95776367 C71.72156369 46.83199449 70.30787279 52.02075061 67.15600586 57.02026367 C66.76413086 57.72151367 66.37225586 58.42276367 65.96850586 59.14526367 C67.27739082 62.48220115 69.40332376 65.31576922 71.40600586 68.27026367 C78.68449542 79.80970234 79.8026231 92.33055297 77.31225586 105.65698242 C75.25340462 112.58785663 71.88930188 117.88943474 66.96850586 123.14526367 C66.44514648 123.70987305 65.92178711 124.27448242 65.38256836 124.85620117 C57.08553088 132.82945182 46.49417214 134.91333179 35.37866211 134.80932617 C33.65733315 134.81650162 33.65733315 134.81650162 31.90122986 134.82382202 C29.49875501 134.82719825 27.09623276 134.8181572 24.69384766 134.79711914 C21.01548932 134.77014991 17.34013449 134.79703637 13.66186523 134.82885742 C11.31745748 134.8255563 8.97305158 134.81915624 6.62866211 134.80932617 C5.53280289 134.81944733 4.43694366 134.82956848 3.30787659 134.83999634 C2.28588669 134.82423553 1.26389679 134.80847473 0.2109375 134.79223633 C-0.68330429 134.78825836 -1.57754608 134.7842804 -2.49888611 134.78018188 C-6.43106427 133.7943951 -7.71837102 132.4944825 -10.03149414 129.14526367 C-10.76897823 125.18459271 -10.70399019 121.27722741 -10.66259766 117.25830078 C-10.66975296 116.05455307 -10.67690826 114.85080536 -10.6842804 113.61058044 C-10.69827726 110.31675717 -10.68987615 107.02450741 -10.6701901 103.73081279 C-10.65378299 100.28135306 -10.66261916 96.83194389 -10.66770935 93.38246155 C-10.67222745 87.59126855 -10.65637702 81.80039885 -10.62841797 76.00927734 C-10.59635183 69.31588954 -10.59638833 62.62308426 -10.61363274 55.92965502 C-10.62949994 49.48657873 -10.62276414 43.04371583 -10.60569572 36.60064888 C-10.59882691 33.86025874 -10.59985575 31.12003974 -10.60724068 28.37965202 C-10.61632889 24.55381963 -10.59236335 20.72858533 -10.56494141 16.90283203 C-10.57146729 15.76557678 -10.57799316 14.62832153 -10.5847168 13.456604 C-10.57199234 12.41497604 -10.55926788 11.37334808 -10.54615784 10.30015564 C-10.54335092 9.39591826 -10.54054399 8.49168089 -10.53765202 7.56004238 C-9.87177747 4.38328716 -8.49160615 3.19099749 -6.03149414 1.14526367 C-3.76599343 0.01251331 -2.51481068 0.01309014 0 0 Z M15.96850586 27.14526367 C15.96850586 34.73526367 15.96850586 42.32526367 15.96850586 50.14526367 C20.73288086 50.23807617 20.73288086 50.23807617 25.59350586 50.33276367 C26.58302246 50.36007568 27.57253906 50.3873877 28.59204102 50.41552734 C33.81606804 50.4646313 37.46436834 50.10288562 41.96850586 47.14526367 C45.18552035 43.49931392 45.48041724 39.99509686 45.33178711 35.30151367 C44.78923963 32.08123187 43.30653316 30.34575996 40.96850586 28.14526367 C38.41127356 26.86664752 36.60113484 27.03189758 33.74194336 27.04760742 C32.34854736 27.05135376 32.34854736 27.05135376 30.92700195 27.05517578 C29.74444824 27.06427979 28.56189453 27.07338379 27.34350586 27.08276367 C23.58975586 27.10338867 19.83600586 27.12401367 15.96850586 27.14526367 Z M15.96850586 76.14526367 C15.96850586 86.70526367 15.96850586 97.26526367 15.96850586 108.14526367 C20.13475586 108.22776367 24.30100586 108.31026367 28.59350586 108.39526367 C29.89626465 108.43167969 31.19902344 108.4680957 32.54125977 108.50561523 C41.08414352 108.61992338 41.08414352 108.61992338 47.96850586 104.14526367 C50.486653 101.66438298 50.92766619 100.45064141 51.40209961 96.90307617 C51.6954211 89.38257936 51.6954211 89.38257936 49.28100586 82.45776367 C45.17326602 78.35002383 41.29355274 76.29786403 35.49487305 76.03173828 C34.14377441 76.03959351 34.14377441 76.03959351 32.76538086 76.04760742 C31.88205078 76.05010498 30.9987207 76.05260254 30.08862305 76.05517578 C28.97648437 76.06427979 27.8643457 76.07338379 26.71850586 76.08276367 C21.39725586 76.11370117 21.39725586 76.11370117 15.96850586 76.14526367 Z " fill="#443930" transform="translate(400.031494140625,272.854736328125)"/>
<path d="M0 0 C0.86527817 -0.00960754 1.73055634 -0.01921509 2.62205505 -0.02911377 C4.0312899 -0.03548859 4.0312899 -0.03548859 5.46899414 -0.04199219 C6.43889786 -0.04769226 7.40880157 -0.05339233 8.40809631 -0.05926514 C10.46850491 -0.06872797 12.52892873 -0.07525419 14.58935547 -0.07910156 C17.71032122 -0.08873194 20.83060706 -0.11971147 23.95141602 -0.15136719 C25.9572715 -0.15790494 27.96313168 -0.16315237 29.96899414 -0.16699219 C30.89026596 -0.17933899 31.81153778 -0.19168579 32.76072693 -0.20440674 C45.53211095 -0.16151714 55.13157313 3.86926381 64.56665039 12.34863281 C72.35407902 20.46204682 74.0067614 30.56600351 74.06665039 41.28613281 C74.08727539 42.18589844 74.10790039 43.08566406 74.12915039 44.01269531 C74.20320935 56.89895392 69.82235374 65.05884954 61.06665039 74.16113281 C59.33227539 75.91113281 59.33227539 75.91113281 57.81665039 77.16113281 C57.15665039 77.16113281 56.49665039 77.16113281 55.81665039 77.16113281 C59.98900731 86.26339749 64.31358872 95.25062798 69.00415039 104.09863281 C69.64066528 105.30531616 69.64066528 105.30531616 70.29003906 106.53637695 C72.02777809 109.82278519 73.77919624 113.094356 75.59790039 116.33691406 C77.72081603 120.22302908 78.79682629 122.54658582 78.94165039 127.03613281 C77.54768556 130.90825734 76.27576432 131.97004987 72.81665039 134.16113281 C69.22290039 134.69238281 69.22290039 134.69238281 65.31665039 134.66113281 C64.02758789 134.67144531 62.73852539 134.68175781 61.41040039 134.69238281 C57.18627196 134.06794644 55.88981666 133.06052243 52.81665039 130.16113281 C51.01489258 127.31469727 51.01489258 127.31469727 49.36352539 124.02441406 C49.06217682 123.43160141 48.76082825 122.83878876 48.4503479 122.22801208 C47.8100505 120.96543047 47.17483675 119.70025967 46.54437256 118.43273926 C45.55859861 116.45749909 44.55309135 114.49350718 43.54174805 112.53125 C40.65569343 106.9129627 37.82770191 101.28937431 35.29321289 95.50097656 C34.92873047 94.70844482 34.56424805 93.91591309 34.1887207 93.09936523 C33.54786866 91.69291155 32.94688323 90.26722657 32.39770508 88.82250977 C31.49172544 86.61596985 31.49172544 86.61596985 28.81665039 84.16113281 C24.47435161 83.29615439 20.23642909 83.13064605 15.81665039 83.16113281 C15.82775345 83.72632126 15.83885651 84.2915097 15.85029602 84.87382507 C15.96101052 90.76232075 16.03636723 96.65052028 16.09130859 102.53979492 C16.11643548 104.73685721 16.15054285 106.93383605 16.19384766 109.13061523 C16.25457801 112.29073686 16.28287872 115.44975239 16.30493164 118.61035156 C16.33073807 119.59073898 16.35654449 120.5711264 16.38313293 121.58122253 C16.38503582 126.21971535 16.33914964 128.44496589 13.5402832 132.28125 C10.937733 134.0775602 9.83514128 134.79342534 6.75024414 134.79003906 C6.01741211 134.79197266 5.28458008 134.79390625 4.52954102 134.79589844 C3.77866211 134.77205078 3.0277832 134.74820313 2.25415039 134.72363281 C1.4994043 134.73458984 0.7446582 134.74554688 -0.03295898 134.75683594 C-3.43966006 134.71181346 -5.66204013 134.56385174 -8.39745331 132.45070648 C-10.54185025 129.70152402 -10.68558418 128.41196701 -10.69128418 124.96154785 C-10.70256348 123.91006058 -10.71384277 122.8585733 -10.72546387 121.77522278 C-10.71736694 120.62704575 -10.70927002 119.47886871 -10.70092773 118.29589844 C-10.70793701 117.08254318 -10.71494629 115.86918793 -10.72216797 114.61906433 C-10.73675699 111.29440798 -10.73333805 107.97074733 -10.72065163 104.64614677 C-10.71051963 101.16598045 -10.71991784 97.68585648 -10.72619629 94.20568848 C-10.73347216 88.36149462 -10.72388676 82.51750299 -10.70483398 76.67333984 C-10.68306511 69.91807234 -10.69011654 63.16328774 -10.71213961 56.40803194 C-10.73029551 50.60662088 -10.73285108 44.80535514 -10.72238493 39.00392485 C-10.71615095 35.53963017 -10.71531146 32.07556242 -10.72853088 28.61128235 C-10.74223814 24.74945322 -10.72323646 20.88816436 -10.70092773 17.02636719 C-10.71307312 15.30410164 -10.71307312 15.30410164 -10.72546387 13.54704285 C-10.70854492 11.96981194 -10.70854492 11.96981194 -10.69128418 10.36071777 C-10.68977608 9.44780724 -10.68826797 8.5348967 -10.68671417 7.5943222 C-10.02626948 4.40183086 -8.65612195 3.21368157 -6.18334961 1.16113281 C-3.8853622 0.01213911 -2.55625954 0.0229117 0 0 Z M15.81665039 27.16113281 C15.81665039 36.73113281 15.81665039 46.30113281 15.81665039 56.16113281 C21.57102539 56.31582031 21.57102539 56.31582031 27.44165039 56.47363281 C28.63999512 56.51915283 29.83833984 56.56467285 31.07299805 56.61157227 C37.76075621 56.78947397 37.76075621 56.78947397 43.50415039 53.78222656 C47.56169613 49.18321779 48.22600775 45.36789088 48.06665039 39.37207031 C47.5776695 35.04764553 45.74899896 32.24953124 42.97290039 29.00878906 C38.01957272 26.10913066 33.12179839 26.74170752 27.50415039 26.91113281 C23.64727539 26.99363281 19.79040039 27.07613281 15.81665039 27.16113281 Z " fill="#433930" transform="translate(626.183349609375,272.8388671875)"/>
<path d="M0 0 C0.76256607 -0.00428513 1.52513214 -0.00857025 2.31080627 -0.01298523 C3.92716483 -0.01872295 5.5435492 -0.01923289 7.15991211 -0.01489258 C9.58950233 -0.0117694 12.01782917 -0.0350676 14.44726562 -0.06054688 C30.0394192 -0.12569612 42.34402571 2.542775 55.37890625 11.48828125 C69.93492374 26.04429874 72.39522665 41.61538061 72.46707153 61.37916565 C72.46557831 63.25758452 72.46056668 65.13600369 72.45214844 67.0144043 C72.44141096 69.86203228 72.45211044 72.70903147 72.46484375 75.55664062 C72.47980944 92.31967395 72.09435585 108.67743772 59.953125 121.7109375 C51.71763436 129.14296564 42.73510251 134.33805175 31.46459961 134.4777832 C30.55693344 134.49061844 29.64926727 134.50345367 28.71409607 134.51667786 C27.26233727 134.52775826 27.26233727 134.52775826 25.78125 134.5390625 C24.77679337 134.54713425 23.77233673 134.55520599 22.73744202 134.56352234 C20.61851713 134.57732282 18.49957039 134.58806293 16.38061523 134.59594727 C14.21095279 134.60751315 12.04131979 134.62803675 9.87182617 134.6574707 C6.73727074 134.69999328 3.60355742 134.71629084 0.46875 134.7265625 C-0.50111343 134.74407059 -1.47097687 134.76157867 -2.4702301 134.77961731 C-9.188457 134.75788782 -9.188457 134.75788782 -12.38842773 132.39916992 C-14.57881921 129.16272249 -14.93598164 127.37944993 -14.94903564 123.50028992 C-14.95474579 122.48665375 -14.96045593 121.47301758 -14.96633911 120.42866516 C-14.96745697 119.31227158 -14.96857483 118.19587799 -14.96972656 117.0456543 C-14.97469147 115.87321167 -14.97965637 114.70076904 -14.98477173 113.49279785 C-14.9968929 110.27160304 -15.00434196 107.05044454 -15.00878239 103.82923102 C-15.01171261 101.81671667 -15.01581735 99.80420803 -15.02028656 97.79169655 C-15.03396392 91.49498638 -15.04362901 85.19828925 -15.04748845 78.90156525 C-15.05196788 71.63315828 -15.06950922 64.36493949 -15.09848905 57.09658974 C-15.12011056 51.47867945 -15.130193 45.86082208 -15.13152957 40.24287063 C-15.13257741 36.88750943 -15.13848027 33.53232506 -15.15634918 30.17700768 C-15.17336866 26.4325567 -15.17153911 22.68856556 -15.16503906 18.9440918 C-15.17425385 17.8337709 -15.18346863 16.72345001 -15.19296265 15.57948303 C-15.14185925 6.20057826 -15.14185925 6.20057826 -11.80859375 2.30078125 C-8.3041563 -0.36694092 -4.22516401 -0.00530398 0 0 Z M12.19140625 27.30078125 C12.19140625 54.03078125 12.19140625 80.76078125 12.19140625 108.30078125 C28.27710573 109.5730663 28.27710573 109.5730663 39.87890625 102.98828125 C45.36957491 96.60723388 45.64790491 91.15451733 45.625 83.05859375 C45.63024185 81.97625458 45.6354837 80.89391541 45.6408844 79.77877808 C45.64729404 77.49429175 45.64598135 75.20977237 45.63745117 72.92529297 C45.62895167 69.4443837 45.65770257 65.96512192 45.68945312 62.484375 C45.69106565 60.25911507 45.69048663 58.03385226 45.6875 55.80859375 C45.69873398 54.7750174 45.70996796 53.74144104 45.72154236 52.67654419 C45.64992492 45.18673624 44.21415325 39.7501983 39.2265625 34.05859375 C38.57558594 33.51976562 37.92460938 32.9809375 37.25390625 32.42578125 C36.60550781 31.87148438 35.95710937 31.3171875 35.2890625 30.74609375 C27.55643248 25.41821087 22.6693947 27.30078125 12.19140625 27.30078125 Z " fill="#433931" transform="translate(745.80859375,272.69921875)"/>
<path d="M0 0 C8.31572256 7.86715661 14.19537197 18.9902864 14.76544189 30.5305481 C14.7722699 31.56992523 14.7790979 32.60930237 14.78613281 33.68017578 C14.79574036 34.86555939 14.8053479 36.05094299 14.81524658 37.27224731 C14.81949646 38.54623383 14.82374634 39.82022034 14.828125 41.1328125 C14.83236607 42.11481943 14.83236607 42.11481943 14.83669281 43.11666489 C14.85165134 46.58526762 14.86090026 50.05382916 14.86523438 53.52246094 C14.87069607 57.07610294 14.8946843 60.62935735 14.92320633 64.18287849 C14.94199006 66.94040971 14.94704671 69.69785078 14.94857025 72.45544052 C14.95300609 74.3933636 14.97157831 76.3312381 14.99053955 78.26907349 C14.95402293 92.9226549 11.06572964 104.75577597 0.97265625 115.546875 C-9.03371907 124.67082455 -21.18173811 128.19532756 -34.5625 127.625 C-46.94102242 126.29872974 -57.33352812 121.46895081 -65.703125 112.07421875 C-72.80225905 102.77961177 -76.45593867 93.50933295 -76.53613281 81.78076172 C-76.54574036 80.63872284 -76.5553479 79.49668396 -76.56524658 78.32003784 C-76.56949646 77.09809723 -76.57374634 75.87615662 -76.578125 74.6171875 C-76.58382507 73.34457062 -76.58952515 72.07195374 -76.59539795 70.76077271 C-76.60483246 68.06932001 -76.61173696 65.37797835 -76.61523438 62.68652344 C-76.6206947 59.27088516 -76.64468493 55.85565039 -76.67320633 52.44013786 C-76.6965429 49.14501934 -76.69829658 45.849877 -76.703125 42.5546875 C-76.7154718 41.34489227 -76.7278186 40.13509705 -76.74053955 38.88864136 C-76.70884702 26.6286301 -74.39282354 16.81188009 -67.375 6.6875 C-66.75625 5.78 -66.1375 4.8725 -65.5 3.9375 C-47.91184482 -14.68525254 -19.81042351 -16.10299076 0 0 Z M-45.03303528 21.43174744 C-50.0086367 28.15807021 -50.23937477 34.00304143 -50.13671875 42.19140625 C-50.14008743 43.46926498 -50.14345612 44.74712372 -50.14692688 46.06370544 C-50.14662889 48.7552364 -50.13461527 51.44350956 -50.10229492 54.13452148 C-50.06247218 57.56335106 -50.07184616 60.9899222 -50.09652996 64.4188242 C-50.1142119 67.71813807 -50.09270674 71.01712679 -50.07421875 74.31640625 C-50.08120285 75.53743546 -50.08818695 76.75846466 -50.09538269 78.01649475 C-49.97841555 85.11005083 -49.25044981 90.30257708 -44.375 95.6875 C-38.55047064 100.2306329 -33.615146 101.52064484 -26.375 100.6875 C-20.59057117 98.88308815 -16.66797825 95.82067198 -13.375 90.6875 C-11.20946051 84.18157688 -11.08063037 77.6000122 -11.109375 70.80859375 C-11.10746155 69.79708755 -11.1055481 68.78558136 -11.10357666 67.74342346 C-11.10222342 65.6180903 -11.10585927 63.49274864 -11.11425781 61.36743164 C-11.12498068 58.13083198 -11.11432718 54.89478588 -11.1015625 51.65820312 C-11.10288403 49.58333212 -11.10544629 47.50846146 -11.109375 45.43359375 C-11.10532654 44.4750499 -11.10127808 43.51650604 -11.09710693 42.52891541 C-11.15389222 34.32031202 -11.99118139 27.26772275 -17.375 20.6875 C-26.09788506 14.10083169 -37.03007422 13.0126598 -45.03303528 21.43174744 Z " fill="#433930" transform="translate(574.375,282.3125)"/>
<path d="M0 0 C1.11246094 -0.01675781 2.22492188 -0.03351563 3.37109375 -0.05078125 C6.93292803 0.35466623 8.74997786 1.11506207 11.5625 3.3125 C14.32988754 7.15340608 13.84019848 11.58808301 13.81787109 16.11669922 C13.82149155 17.00497406 13.825112 17.8932489 13.82884216 18.80844116 C13.83573094 20.73563485 13.83824257 22.66284803 13.83689499 24.59005356 C13.83592971 27.64180442 13.84887229 30.69320309 13.86587524 33.74490356 C13.9121473 42.42089103 13.9367541 51.09684261 13.94335938 59.77294922 C13.94837545 65.08154552 13.97263046 70.38977422 14.00868607 75.698246 C14.01848184 77.71959348 14.02081723 79.74099154 14.01551437 81.7623558 C14.00843988 84.59180706 14.02573407 87.42016386 14.04833984 90.24951172 C14.04016739 91.08192383 14.03199493 91.91433594 14.02357483 92.77197266 C14.0989974 98.08573245 15.07396972 101.07515453 18.5625 105.3125 C22.53888503 108.80689897 26.1241489 109.68947033 31.4375 109.58203125 C35.17149158 109.10841835 37.73035664 107.75009664 40.5625 105.3125 C44.44482479 99.80814206 45.12864903 94.61684339 45.01318359 88.03833008 C45.01423347 86.70263222 45.01423347 86.70263222 45.01530457 85.33995056 C45.01459105 83.42043134 45.00495383 81.50089843 44.98722458 79.58146095 C44.96058743 76.54208763 44.96066421 73.5037494 44.96792603 70.46427917 C44.98354806 61.82831328 44.94910208 53.19271399 44.90234375 44.55688477 C44.8755124 39.26309728 44.8776148 33.9699326 44.89680862 28.67612267 C44.89789067 26.66227218 44.88743217 24.64838098 44.86518478 22.63465309 C44.8341913 19.82189118 44.83966688 17.01133693 44.85302734 14.19848633 C44.83452225 13.36876312 44.81601715 12.53903992 44.79695129 11.68417358 C44.87442585 6.20606648 44.87442585 6.20606648 46.82364273 3.67471886 C50.66395015 0.28969607 53.59341204 -0.31890164 58.625 -0.1875 C59.81222656 -0.1771875 60.99945312 -0.166875 62.22265625 -0.15625 C65.7647903 0.34089162 67.71783087 1.18291284 70.5625 3.3125 C72.26585203 6.71920405 71.72819908 10.61196003 71.73950195 14.36108398 C71.74607315 15.29955673 71.75264435 16.23802948 71.75941467 17.2049408 C71.77918433 20.32282589 71.79082239 23.44066259 71.80078125 26.55859375 C71.80485678 27.62422106 71.8089323 28.68984837 71.81313133 29.78776741 C71.83401407 35.43492566 71.84830262 41.0820595 71.85766602 46.72924805 C71.86869636 52.54628577 71.90305101 58.36293735 71.94283772 64.17983913 C71.96907324 68.66419656 71.97736433 73.14846329 71.98094749 77.6328907 C71.98580057 79.77575329 71.99737778 81.91861217 72.01598549 84.06139946 C72.14563572 99.98980505 71.15571285 113.05768626 59.75 125.25 C51.13615814 133.30811013 41.1264191 137.22884755 29.36328125 137.34375 C15.35213631 136.68050054 5.46397733 131.63008749 -4.1875 121.625 C-11.81639125 112.52355533 -13.583201 101.73497218 -13.59863281 90.26538086 C-13.60359772 89.37520767 -13.60856262 88.48503448 -13.61367798 87.56788635 C-13.62822526 84.63769751 -13.63508716 81.7075627 -13.640625 78.77734375 C-13.64638009 76.73523457 -13.65213778 74.6931254 -13.65789795 72.65101624 C-13.66838502 68.37663523 -13.6742435 64.10227291 -13.67773438 59.82788086 C-13.6832315 54.35121743 -13.70729517 48.87480105 -13.73570633 43.39821529 C-13.75432259 39.18346937 -13.75953765 34.96878328 -13.76107025 30.75399971 C-13.76409673 28.73458052 -13.77212509 26.71516238 -13.78525543 24.69578362 C-13.80230374 21.87373794 -13.80043928 19.05230083 -13.79394531 16.23022461 C-13.8031601 15.39735931 -13.81237488 14.56449402 -13.8218689 13.70639038 C-13.78846516 9.07411399 -13.40852205 6.09513627 -10.4375 2.3125 C-7.15169313 -0.06737325 -3.97528941 0.01378713 0 0 Z " fill="#433930" transform="translate(1075.4375,272.6875)"/>
<path d="M0 0 C0.90298828 -0.020625 1.80597656 -0.04125 2.73632812 -0.0625 C11.71305606 -0.11526548 11.71305606 -0.11526548 15.1875 3.25 C19.38271533 10.75341664 21.50241442 19.28926223 23.96875 27.47265625 C24.42369756 28.96674832 24.87914827 30.46068726 25.33506775 31.95448303 C26.54427948 35.92186005 27.74631215 39.89137414 28.94630051 43.86154938 C30.18409908 47.95462178 31.42649667 52.04629836 32.66821289 56.13818359 C34.14486931 61.00568286 35.62055101 65.87347177 37.0927887 70.74230957 C39.50717351 78.7251648 41.93495383 86.70328694 44.40353394 94.66960144 C45.56211864 98.4087664 46.71186597 102.1506088 47.85986328 105.89303589 C48.36577771 107.53413011 48.87596306 109.1739144 49.390625 110.81228638 C50.08335828 113.01988433 50.76041366 115.23168879 51.43359375 117.4453125 C51.98551392 119.22446045 51.98551392 119.22446045 52.54858398 121.03955078 C53.43206398 125.47889427 53.14320254 128.75920359 50.6875 132.58984375 C46.94767188 135.07332336 43.58252063 134.8721768 39.1875 134.8125 C38.38054687 134.83634766 37.57359375 134.86019531 36.7421875 134.88476562 C35.96101563 134.88283203 35.17984375 134.88089844 34.375 134.87890625 C33.66730469 134.87963135 32.95960938 134.88035645 32.23046875 134.88110352 C29.03412014 133.89370376 27.99180664 132.00358476 26.1875 129.25 C24.9230957 126.11547852 24.9230957 126.11547852 23.86328125 122.62890625 C23.67154831 122.00652573 23.47981537 121.3841452 23.28227234 120.74290466 C22.88140425 119.43428924 22.48587315 118.12402807 22.09545898 116.81225586 C21.50174404 114.81835709 20.89206417 112.8299136 20.27929688 110.84179688 C18.59361644 105.30810861 17.14205143 99.97730856 16.1875 94.25 C5.9575 94.25 -4.2725 94.25 -14.8125 94.25 C-15.8025 98.21 -16.7925 102.17 -17.8125 106.25 C-19.0403602 110.63182791 -20.38755194 114.97083219 -21.75 119.3125 C-22.08451172 120.42560547 -22.41902344 121.53871094 -22.76367188 122.68554688 C-23.09818359 123.74966797 -23.43269531 124.81378906 -23.77734375 125.91015625 C-24.0724585 126.86543213 -24.36757324 127.82070801 -24.67163086 128.80493164 C-25.99558038 131.64237107 -27.09711364 132.72491999 -29.8125 134.25 C-32.73659628 134.54356085 -35.39644937 134.66955765 -38.3125 134.625 C-39.07175781 134.63660156 -39.83101562 134.64820313 -40.61328125 134.66015625 C-43.74152734 134.64372063 -46.37840125 134.42995866 -49.28125 133.2265625 C-51.69905955 130.10561446 -51.94187873 127.08150515 -51.8125 123.25 C-50.73828625 118.17503142 -49.1630395 113.27250495 -47.58984375 108.3359375 C-47.1315951 106.85748357 -46.67479422 105.37858022 -46.21934509 103.89926147 C-44.99945982 99.95044071 -43.76069883 96.00778938 -42.51784515 92.06614685 C-41.23665927 87.9929781 -39.97153047 83.91483438 -38.70556641 79.83691406 C-37.18463456 74.94026993 -35.66249853 70.04402589 -34.13269043 65.15014648 C-31.14452946 55.58547475 -28.2177924 46.00635021 -25.37109375 36.3984375 C-25.0477153 35.31182831 -24.72433685 34.22521912 -24.39115906 33.10568237 C-22.60575618 27.10729585 -22.60575618 27.10729585 -20.84298706 21.10223389 C-20.07061898 18.45529511 -19.28315658 15.81330339 -18.4921875 13.171875 C-18.27642563 12.41490326 -18.06066376 11.65793152 -17.83836365 10.87802124 C-16.56758911 6.69257556 -15.25029606 4.00263791 -11.8125 1.25 C-8.19771286 -0.55739357 -3.98017454 0.02243932 0 0 Z M0.1875 39.25 C-1.15268305 43.51871471 -2.48347109 47.79030064 -3.8125 52.0625 C-4.1940625 53.27744141 -4.575625 54.49238281 -4.96875 55.74414062 C-5.3296875 56.90751953 -5.690625 58.07089844 -6.0625 59.26953125 C-6.39765625 60.34307861 -6.7328125 61.41662598 -7.078125 62.52270508 C-7.94250379 65.26206379 -7.94250379 65.26206379 -7.8125 68.25 C-2.2025 68.25 3.4075 68.25 9.1875 68.25 C6.83782288 58.48028986 4.07172375 48.87167924 1.1875 39.25 C0.8575 39.25 0.5275 39.25 0.1875 39.25 Z " fill="#433930" transform="translate(990.8125,272.75)"/>
<path d="M0 0 C1.24501785 -0.00960754 2.49003571 -0.01921509 3.77278137 -0.02911377 C5.13847674 -0.03396208 6.50417423 -0.03824083 7.86987305 -0.04199219 C9.26751203 -0.04774443 10.66515098 -0.05350215 12.06278992 -0.05926514 C14.99580249 -0.0697762 17.92878765 -0.07561786 20.86181641 -0.07910156 C24.61454332 -0.08458029 28.3669063 -0.10859411 32.11951923 -0.13707352 C35.00806219 -0.15572843 37.89651809 -0.16090705 40.7851162 -0.16243744 C42.16817396 -0.16545912 43.55123036 -0.17347137 44.9342289 -0.18662262 C46.87274588 -0.20373737 48.81141302 -0.19995021 50.75 -0.1953125 C52.40307915 -0.20078094 52.40307915 -0.20078094 54.08955383 -0.20635986 C57.49487984 0.213649 59.33359637 1.1184908 62.0690918 3.16113281 C64.56418038 6.90376569 64.40021839 9.06981973 64.4440918 13.53613281 C64.47245117 14.84324219 64.50081055 16.15035156 64.5300293 17.49707031 C64.00503762 21.67030926 63.06709265 23.27136304 60.0690918 26.16113281 C57.28847205 27.08800606 55.64857321 27.28306678 52.78125 27.2746582 C51.92058426 27.27458267 51.05991852 27.27450714 50.173172 27.27442932 C49.24808334 27.26926804 48.32299469 27.26410675 47.36987305 27.25878906 C46.41968796 27.25737411 45.46950287 27.25595917 44.49052429 27.25450134 C41.4541815 27.24890157 38.41791232 27.23634913 35.3815918 27.22363281 C33.32365015 27.21861778 31.26570735 27.21405488 29.20776367 27.20996094 C24.16148851 27.19978289 19.11537259 27.18020737 14.0690918 27.16113281 C14.0690918 34.75113281 14.0690918 42.34113281 14.0690918 50.16113281 C18.22245117 50.10892578 18.22245117 50.10892578 22.4597168 50.05566406 C25.14378834 50.03226255 27.82784849 50.01404936 30.51196289 49.99633789 C32.37627252 49.98125868 34.24054671 49.9607922 36.10473633 49.93481445 C38.78565213 49.89839285 41.46609859 49.88139791 44.1472168 49.86816406 C45.39586517 49.84493828 45.39586517 49.84493828 46.66973877 49.82124329 C50.1592717 49.82023022 52.44739154 49.82953907 55.56420898 51.49194336 C58.65110749 54.9158767 58.23357659 58.71193359 58.2565918 63.09863281 C58.27077148 64.32453125 58.28495117 65.55042969 58.29956055 66.81347656 C58.08272654 69.96308246 57.85211032 71.60803984 56.0690918 74.16113281 C52.13604708 76.78316263 48.80284111 76.41261808 44.24487305 76.35644531 C43.38347214 76.35361542 42.52207123 76.35078552 41.63456726 76.34786987 C38.88343411 76.33667519 36.13262655 76.31157202 33.3815918 76.28613281 C31.51636212 76.27610209 29.65112735 76.2669764 27.78588867 76.25878906 C23.2133967 76.23843974 18.6416087 76.19929012 14.0690918 76.16113281 C14.0690918 86.72113281 14.0690918 97.28113281 14.0690918 108.16113281 C17.33170898 108.103125 20.59432617 108.04511719 23.95581055 107.98535156 C27.11976695 107.946345 30.28369644 107.91599227 33.44775391 107.88647461 C35.6448162 107.86134773 37.84179504 107.82724035 40.03857422 107.78393555 C43.19869584 107.7232052 46.35771137 107.69490448 49.51831055 107.67285156 C50.98889168 107.63414192 50.98889168 107.63414192 52.48918152 107.59465027 C57.13794139 107.59274317 59.35102027 107.63322008 63.18701172 110.45336914 C65.65155051 113.99912082 65.80957776 116.98824001 65.6940918 121.16113281 C65.71342773 121.85980469 65.73276367 122.55847656 65.75268555 123.27832031 C65.71757757 126.99976601 65.26007524 128.91798762 62.94923401 131.85997009 C59.44108023 134.6628986 57.76634916 134.78862938 53.32275391 134.79223633 C52.33643227 134.80296928 52.33643227 134.80296928 51.33018494 134.81391907 C49.16821687 134.83075525 47.00833745 134.81143988 44.84643555 134.79003906 C43.3385857 134.79086815 41.83073595 134.79332905 40.32289124 134.79734802 C37.16794523 134.80020236 34.0137106 134.78554008 30.85888672 134.75805664 C26.81780632 134.72394395 22.77799509 134.73000455 18.7368536 134.74871922 C15.62522322 134.75929347 12.5138876 134.75034827 9.40228462 134.7353344 C7.91236814 134.73015714 6.42242083 134.73062888 4.93250847 134.73687935 C2.8496784 134.74233839 0.76865878 134.72194073 -1.31396484 134.69458008 C-2.49801407 134.6883815 -3.68206329 134.68218292 -4.9019928 134.67579651 C-8.62577377 134.04306346 -9.59257733 133.0710493 -11.9309082 130.16113281 C-12.43427277 127.72794342 -12.43427277 127.72794342 -12.43884277 124.96154785 C-12.45012207 123.91006058 -12.46140137 122.8585733 -12.47302246 121.77522278 C-12.46492554 120.62704575 -12.45682861 119.47886871 -12.44848633 118.29589844 C-12.45549561 117.08254318 -12.46250488 115.86918793 -12.46972656 114.61906433 C-12.48431558 111.29440798 -12.48089664 107.97074733 -12.46821022 104.64614677 C-12.45807823 101.16598045 -12.46747644 97.68585648 -12.47375488 94.20568848 C-12.48103075 88.36149462 -12.47144535 82.51750299 -12.45239258 76.67333984 C-12.43062371 69.91807234 -12.43767514 63.16328774 -12.4596982 56.40803194 C-12.4778541 50.60662088 -12.48040967 44.80535514 -12.46994352 39.00392485 C-12.46370954 35.53963017 -12.46287005 32.07556242 -12.47608948 28.61128235 C-12.48979674 24.74945322 -12.47079505 20.88816436 -12.44848633 17.02636719 C-12.46063171 15.30410164 -12.46063171 15.30410164 -12.47302246 13.54704285 C-12.45610352 11.96981194 -12.45610352 11.96981194 -12.43884277 10.36071777 C-12.43733467 9.44780724 -12.43582657 8.5348967 -12.43427277 7.5943222 C-11.77382808 4.40183086 -10.40368055 3.21368157 -7.9309082 1.16113281 C-5.20979753 -0.19942253 -3.04628496 0.01891487 0 0 Z " fill="#443930" transform="translate(855.930908203125,272.8388671875)"/>
<path d="M0 0 C3.96 0 7.92 0 12 0 C12 22.77 12 45.54 12 69 C7.38 69 2.76 69 -2 69 C-2.20753906 68.00742188 -2.41507813 67.01484375 -2.62890625 65.9921875 C-5.46565168 53.19432704 -9.97220704 39.05401968 -20 30 C-22.93464305 28.47702145 -25.76746506 27.63965356 -29 27 C-29.74121094 26.82082031 -30.48242188 26.64164063 -31.24609375 26.45703125 C-34.98548018 25.83645223 -38.6524761 25.73682698 -42.4375 25.6875 C-43.17548828 25.65849609 -43.91347656 25.62949219 -44.67382812 25.59960938 C-49.93490534 25.5388147 -52.80674589 26.56516704 -57 30 C-60.44598529 33.71803675 -61.28328838 36.55852337 -61.4375 41.5 C-61.22789615 46.04347175 -60.9309178 49.35855667 -58 53 C-49.9713325 57.8490574 -40.02014382 59.57400801 -31.00732422 61.84643555 C-17.03777297 65.39310078 -5.99621314 70.45876948 2 83 C7.14418371 92.34626401 8.1063897 102.840791 5.84765625 113.20703125 C2.32203262 124.82371739 -4.30024677 133.94085517 -14.91015625 139.96875 C-30.56669419 147.69459302 -51.11074322 144.89692671 -67.265625 139.67578125 C-75.01997484 136.99065003 -82.18833132 133.61752541 -89 129 C-88.41372717 125.06561484 -87.22416523 122.22069169 -85.1875 118.8125 C-84.68605469 117.95269531 -84.18460938 117.09289062 -83.66796875 116.20703125 C-81.82323198 113.76610321 -80.99529915 112.6802704 -78 112 C-75.61101399 112.92888147 -73.54869377 113.91102448 -71.3125 115.125 C-57.73995569 121.91127215 -41.48313866 125.79666756 -26.3671875 122.41015625 C-20.77517518 120.10318539 -17.45371516 115.37962293 -15 110 C-13.17634475 103.77811739 -13.86151757 98.94942381 -16.50390625 93.10546875 C-21.78060288 85.67951709 -28.79318738 84.18805253 -37.25 81.875 C-38.42691406 81.54113281 -39.60382812 81.20726562 -40.81640625 80.86328125 C-43.12862424 80.20742409 -45.44199739 79.55562368 -47.7565918 78.90820312 C-50.70685792 78.0820842 -53.65542968 77.25274568 -56.59765625 76.3984375 C-57.35312744 76.18106934 -58.10859863 75.96370117 -58.88696289 75.73974609 C-67.73434934 72.64239417 -74.64920979 66.04613136 -78.875 57.8125 C-83.01908891 49.09893557 -83.49519174 38.90030822 -81.12890625 29.5625 C-76.98082487 18.8998908 -70.37342217 11.847105 -60 7 C-54.55787178 5.08348129 -49.69845648 4.64907951 -44 4.6875 C-43.17201904 4.69023926 -42.34403809 4.69297852 -41.4909668 4.69580078 C-32.15145894 4.85189283 -23.3738976 6.67721959 -14.4375 9.375 C-11.01382817 10.26336616 -11.01382817 10.26336616 -7.8125 9.0625 C-5.0774037 7.05676272 -4.43952049 6.13207539 -2.875 3.3125 C-1.92625 2.219375 -0.9775 1.12625 0 0 Z " fill="#443930" transform="translate(765,97)"/>
<path d="M0 0 C10.2216159 8.06885748 18.9323826 17.73554076 21 31 C21.13366567 34.08006961 21.11639211 37.15582118 21.09765625 40.23828125 C21.0962413 41.11904831 21.09482635 41.99981537 21.09336853 42.90727234 C21.08778937 45.70905003 21.07524071 48.51074662 21.0625 51.3125 C21.05748231 53.21679572 21.05291987 55.12109269 21.04882812 57.02539062 C21.03782677 61.68362481 21.02057649 66.34179867 21 71 C18.06698088 72.46650956 15.43845139 72.16538474 12.16357422 72.20532227 C11.46102509 72.21522186 10.75847595 72.22512146 10.03463745 72.23532104 C7.70802197 72.2669568 5.38138606 72.29170159 3.0546875 72.31640625 C1.44328271 72.33697399 -0.16811666 72.35797042 -1.7795105 72.37937927 C-6.02422706 72.43461854 -10.26899247 72.48401961 -14.51379395 72.53222656 C-18.84387568 72.58242806 -23.17388635 72.63812117 -27.50390625 72.69335938 C-36.00254411 72.80096363 -44.50124135 72.90240354 -53 73 C-53.04413627 75.385622 -53.07623457 77.77041431 -53.1015625 80.15625 C-53.11517822 80.8255957 -53.12879395 81.49494141 -53.14282227 82.18457031 C-53.20931355 90.5522433 -50.47550611 97.36636753 -44.76171875 103.46875 C-37.46086731 109.81450114 -29.21972046 112.32516389 -19.6875 111.875 C-11.81823114 111.09992717 -4.84668836 108.85958243 1.875 104.6875 C5 103 5 103 7.421875 103.06640625 C10.95455513 104.34566466 12.19723076 106.22217213 14.375 109.25 C15.43847656 110.68085938 15.43847656 110.68085938 16.5234375 112.140625 C18 115 18 115 18.00390625 117.66796875 C15.29601109 123.95829331 5.73144099 126.72975651 -0.28515625 129.140625 C-14.52842489 133.64928558 -31.16923645 134.4462811 -45.0859375 128.55078125 C-49.55255338 126.17377521 -53.29050369 123.42700962 -57 120 C-57.61230469 119.47792969 -58.22460938 118.95585937 -58.85546875 118.41796875 C-68.44457893 109.71791514 -73.38080859 98.01978382 -74.1706543 85.23846436 C-74.41884033 78.52250188 -74.42702787 71.80906651 -74.39111328 65.08935547 C-74.37503772 61.50840145 -74.39101744 57.92857589 -74.41015625 54.34765625 C-74.43879778 25.10299938 -74.43879778 25.10299938 -65 12 C-64.54753906 11.36449219 -64.09507812 10.72898437 -63.62890625 10.07421875 C-49.08900115 -8.50226057 -19.63805694 -13.04178062 0 0 Z M-49 24 C-53.01842729 30.2042751 -54.16331887 35.85718832 -54.125 43.125 C-54.12886719 43.86621094 -54.13273438 44.60742188 -54.13671875 45.37109375 C-54.46746658 48.98229969 -54.46746658 48.98229969 -53 52 C-51.35355712 52.10389938 -49.70268268 52.13852583 -48.05297852 52.14526367 C-46.47112511 52.15483345 -46.47112511 52.15483345 -44.85731506 52.16459656 C-43.70944016 52.16570938 -42.56156525 52.1668222 -41.37890625 52.16796875 C-39.62355812 52.17296135 -39.62355812 52.17296135 -37.83274841 52.17805481 C-35.35196324 52.18312909 -32.87117122 52.18546298 -30.39038086 52.18530273 C-26.58240581 52.18748857 -22.77472057 52.20563751 -18.96679688 52.22460938 C-16.562501 52.22754324 -14.15820373 52.22952808 -11.75390625 52.23046875 C-10.03513023 52.24124702 -10.03513023 52.24124702 -8.28163147 52.25224304 C-7.22391037 52.24916641 -6.16618927 52.24608978 -5.07641602 52.24291992 C-4.14233414 52.24434494 -3.20825226 52.24576996 -2.24586487 52.24723816 C0.20229708 52.2146933 0.20229708 52.2146933 2 50 C3.14731872 40.58304638 1.72339593 31.51709043 -3.75 23.6875 C-8.07462629 18.38876234 -13.21634724 14.40792793 -20 13 C-32.58019668 12.00354878 -40.43570788 14.52533038 -49 24 Z " fill="#433930" transform="translate(1034,108)"/>
<path d="M0 0 C0.69867187 -0.01933594 1.39734375 -0.03867187 2.1171875 -0.05859375 C5.80962966 -0.02375939 7.68102683 0.35303406 10.51147461 2.76635742 C13.09051996 5.72898295 14.81833835 8.54707768 16.62890625 12.02734375 C16.94528549 12.62752823 17.26166473 13.22771271 17.58763123 13.84608459 C18.58801678 15.74711826 19.57587927 17.65429186 20.5625 19.5625 C21.55474192 21.4659697 22.54966665 23.36796398 23.54808044 25.26820374 C24.45344028 26.99366426 25.35109665 28.72316044 26.24829102 30.45288086 C28.01584347 33.65369048 29.93051272 36.61450151 32 39.625 C32.42297363 38.82392822 32.84594727 38.02285645 33.28173828 37.19750977 C34.87703304 34.18177989 36.47665115 31.16842383 38.07910156 28.15649414 C38.76732825 26.86084797 39.45389825 25.5643202 40.13867188 24.2668457 C50.78579139 4.10113907 50.78579139 4.10113907 56 0.625 C59.3984375 0.2890625 59.3984375 0.2890625 63.375 0.25 C65.33566406 0.20746094 65.33566406 0.20746094 67.3359375 0.1640625 C71.5944541 0.69978207 73.20099322 1.38570001 76 4.625 C77.43450949 9.33997694 77.15031154 12.36968446 74.90429688 16.76000977 C74.56462891 17.37545654 74.22496094 17.99090332 73.875 18.625 C73.52244141 19.296521 73.16988281 19.96804199 72.80664062 20.65991211 C67.00424111 31.58099669 60.79890404 42.30916063 54.61816406 53.01953125 C53.43870665 55.06744034 52.27938201 57.12538752 51.125 59.1875 C50.48820312 60.30253906 49.85140625 61.41757812 49.1953125 62.56640625 C47.51310186 66.87088641 48.27110379 69.95652618 50.10058594 74.14428711 C50.55723633 74.9719458 51.01388672 75.79960449 51.484375 76.65234375 C52.00153076 77.59875732 52.51868652 78.5451709 53.05151367 79.52026367 C53.8922644 81.02617065 53.8922644 81.02617065 54.75 82.5625 C55.61105347 84.12931519 55.61105347 84.12931519 56.48950195 85.7277832 C61.20007046 94.27085232 66.00064396 102.76526824 70.86035156 111.22436523 C71.37436523 112.12356689 71.88837891 113.02276855 72.41796875 113.94921875 C73.09508911 115.1261731 73.09508911 115.1261731 73.78588867 116.3269043 C76.52695375 121.51525048 77.59377158 124.78117088 76 130.625 C73.1602093 133.59218318 71.502421 134.55072907 67.40625 135.15625 C66.1171875 135.1459375 64.828125 135.135625 63.5 135.125 C62.2109375 135.1353125 60.921875 135.145625 59.59375 135.15625 C55.37897902 134.5331969 54.07574476 133.50352742 51 130.625 C49.2265625 127.92700195 49.2265625 127.92700195 47.625 124.86328125 C47.03203125 123.74373047 46.4390625 122.62417969 45.828125 121.47070312 C45.22484375 120.30474609 44.6215625 119.13878906 44 117.9375 C42.79209313 115.64170265 41.58376748 113.34612559 40.375 111.05078125 C39.80394531 109.95846191 39.23289062 108.86614258 38.64453125 107.74072266 C36.49368836 103.66574389 34.26601535 99.63686531 32 95.625 C31.64808594 96.24842285 31.29617188 96.8718457 30.93359375 97.51416016 C30.43988281 98.38862793 29.94617187 99.2630957 29.4375 100.1640625 C28.89150146 101.13126221 28.34550293 102.09846191 27.78295898 103.0949707 C26.59126423 105.20373029 25.39805933 107.31163717 24.20336914 109.41870117 C21.60747656 113.99800413 19.01433076 118.57665822 16.49609375 123.19921875 C16.14095703 123.84358887 15.78582031 124.48795898 15.41992188 125.15185547 C14.5007102 126.82260949 13.5917656 128.49900071 12.68359375 130.17578125 C10.85820867 132.83127185 10.05566876 133.71045125 7 134.625 C3.72265625 134.92578125 3.72265625 134.92578125 0.0625 134.9375 C-1.14277344 134.95425781 -2.34804687 134.97101563 -3.58984375 134.98828125 C-7.2339895 134.60007328 -9.10096822 133.81929477 -12 131.625 C-13.6669624 128.29107519 -13.60679187 125.21369976 -13 121.625 C-11.28358086 117.40852969 -9.06310572 113.51429541 -6.8125 109.5625 C-5.87422363 107.86722168 -5.87422363 107.86722168 -4.91699219 106.13769531 C-2.96836411 102.61989814 -0.98794913 99.12069172 1 95.625 C1.62922363 94.51721191 2.25844727 93.40942383 2.90673828 92.26806641 C3.51630371 91.1960498 4.12586914 90.1240332 4.75390625 89.01953125 C5.34212158 87.9838501 5.93033691 86.94816895 6.53637695 85.88110352 C7.65404107 83.9204541 8.77856964 81.96369714 9.91088867 80.01147461 C10.41982666 79.12596924 10.92876465 78.24046387 11.453125 77.328125 C11.89817383 76.56145508 12.34322266 75.79478516 12.80175781 75.00488281 C15.63871696 69.68201627 15.63871696 69.68201627 15.14819336 63.92211914 C14.63393799 63.01067139 14.11968262 62.09922363 13.58984375 61.16015625 C13.01782227 60.1232666 12.44580078 59.08637695 11.85644531 58.01806641 C11.22319336 56.91897949 10.58994141 55.81989258 9.9375 54.6875 C8.98568848 52.98086182 8.98568848 52.98086182 8.01464844 51.23974609 C6.36099715 48.27538868 4.68374344 45.32514343 2.99945068 42.37811279 C1.40012778 39.57277834 -0.17986279 36.75661618 -1.76171875 33.94140625 C-4.4236157 29.20975382 -7.10379501 24.48901038 -9.80175781 19.77783203 C-12.35775522 15.18557753 -14.43083197 10.99812424 -13 5.625 C-9.27813505 0.64099973 -5.96293057 -0.16502575 0 0 Z " fill="#443930" transform="translate(1181,272.375)"/>
<path d="M0 0 C12.25849862 -0.55821943 23.66422978 3.48719984 32.83203125 11.40234375 C43.3011078 21.26032213 49.42089069 31.51815682 49.89892578 46.18481445 C49.90545484 47.67007072 49.90633461 49.15535974 49.90234375 50.640625 C49.90330048 51.42882126 49.9042572 52.21701752 49.90524292 53.02909851 C49.90592004 54.68386923 49.90409857 56.33864267 49.89990234 57.9934082 C49.89451146 60.53668073 49.89988142 63.07977953 49.90625 65.62304688 C49.90558984 67.23307331 49.90430996 68.84309963 49.90234375 70.453125 C49.90436798 71.21659744 49.90639221 71.98006989 49.90847778 72.76667786 C49.88450667 78.09986833 49.88450667 78.09986833 48.76953125 79.21484375 C46.4689929 79.3092771 44.16550952 79.33226503 41.86303711 79.32836914 C41.14112686 79.32851517 40.41921661 79.32866119 39.6754303 79.32881165 C37.27838178 79.32811244 34.88141002 79.3203197 32.484375 79.3125 C30.82670636 79.31063585 29.16903718 79.30921193 27.5113678 79.30821228 C23.13998911 79.30438687 18.76864344 79.2945564 14.39727783 79.2835083 C9.93998664 79.27329467 5.48269014 79.26871476 1.02539062 79.26367188 C-7.72657768 79.25293415 -16.47851911 79.23585746 -25.23046875 79.21484375 C-25.24572817 81.1301834 -25.25659898 83.04555833 -25.265625 84.9609375 C-25.27215088 86.02755615 -25.27867676 87.0941748 -25.28540039 88.19311523 C-25.11315156 97.66833179 -20.850993 105.72680765 -14.05078125 112.33203125 C-2.55462398 121.60055943 11.96635081 126.42369946 26.76953125 125.21484375 C36.4015793 123.74006622 36.4015793 123.74006622 45.578125 120.58984375 C48.76953125 119.21484375 48.76953125 119.21484375 51.20703125 119.52734375 C51.72265625 119.75421875 52.23828125 119.98109375 52.76953125 120.21484375 C48.63676825 129.62947947 36.78481233 133.62881309 27.76953125 137.21484375 C12.3010718 142.79685453 -4.72450544 141.33155094 -19.62109375 134.70703125 C-30.69015758 128.72751185 -37.86806784 120.0023341 -42.23046875 108.21484375 C-44.73059649 99.3706493 -45.68762757 91.0660597 -45.6640625 81.8984375 C-45.66930435 80.68011734 -45.6745462 79.46179718 -45.6799469 78.20655823 C-45.68632273 75.65114092 -45.68508833 73.09569408 -45.67651367 70.5402832 C-45.66798224 66.65848105 -45.69686567 62.77814264 -45.72851562 58.89648438 C-45.73012758 56.39713585 -45.72955021 53.89778476 -45.7265625 51.3984375 C-45.73779648 50.25434921 -45.74903046 49.11026093 -45.76060486 47.9315033 C-45.6404766 33.86695397 -40.82101382 23.43793424 -31.35546875 13.18359375 C-22.51648026 4.78655469 -11.90797755 1.14700309 0 0 Z M-19.57421875 30.06640625 C-25.97970176 38.37540543 -26.80100122 46.94525927 -26.23046875 57.21484375 C-25.90046875 57.87484375 -25.57046875 58.53484375 -25.23046875 59.21484375 C-17.55835673 59.2401098 -9.88625535 59.25767498 -2.21411133 59.26977539 C0.39819744 59.27481752 3.01050336 59.281651 5.62280273 59.2902832 C9.36833393 59.30235411 13.11382797 59.3080731 16.859375 59.3125 C18.62340919 59.32024193 18.62340919 59.32024193 20.42308044 59.32814026 C21.50412552 59.32821579 22.58517059 59.32829132 23.69897461 59.32836914 C24.6560582 59.33058975 25.61314178 59.33281036 26.59922791 59.33509827 C28.74870749 59.45796874 28.74870749 59.45796874 29.76953125 58.21484375 C30.60980518 46.64385852 29.95994543 38.21563106 22.51953125 28.90234375 C17.70305263 23.70261844 11.82459858 20.82545584 4.796875 19.9765625 C-4.97695539 19.6294545 -12.99075497 22.80840724 -19.57421875 30.06640625 Z " fill="#433931" transform="translate(526.23046875,100.78515625)"/>
<path d="M0 0 C12.21 0 24.42 0 37 0 C37.01458252 2.73458496 37.02916504 5.46916992 37.04418945 8.28662109 C37.09464859 17.34712956 37.16126353 26.4074682 37.23571491 35.46780968 C37.28033911 40.95817964 37.31961273 46.44847676 37.34643555 51.93896484 C37.37254785 57.24295639 37.41300617 62.54666642 37.46318626 67.85048294 C37.47980147 69.86851103 37.49134889 71.88658776 37.49761391 73.90467453 C37.50731335 76.74322396 37.53544176 79.58106176 37.56762695 82.41943359 C37.56619186 83.24374878 37.56475677 84.06806396 37.5632782 84.9173584 C37.70639169 93.91005845 39.75641746 101.72799607 46.03125 108.30859375 C51.62721368 113.11623715 58.28929989 115.43033687 65.66015625 115.265625 C74.1228046 114.30492369 79.83991492 110.99942081 85.34375 104.609375 C89.50467063 98.05396231 90.44365838 92.15183959 90.41650391 84.57055664 C90.42508926 83.66391266 90.43367462 82.75726868 90.44252014 81.82315063 C90.46744253 78.85207189 90.47194542 75.88132967 90.4765625 72.91015625 C90.49088035 70.8388925 90.50663877 68.76763824 90.52377319 66.69639587 C90.5655138 61.26351803 90.59059071 55.83069917 90.61126709 50.39770508 C90.64717456 41.67713623 90.70791647 32.95671233 90.76975632 24.2362957 C90.7888961 21.18667009 90.80058677 18.13708349 90.81118774 15.0874176 C90.82139251 13.23283806 90.8317498 11.37825934 90.84228516 9.52368164 C90.84332748 8.67022659 90.84436981 7.81677155 90.84544373 6.93745422 C90.88656652 1.11343348 90.88656652 1.11343348 92 0 C93.33043625 -0.0983721 94.66593344 -0.13078592 96 -0.1328125 C96.804375 -0.13410156 97.60875 -0.13539062 98.4375 -0.13671875 C99.283125 -0.13285156 100.12875 -0.12898438 101 -0.125 C102.2684375 -0.13080078 102.2684375 -0.13080078 103.5625 -0.13671875 C104.366875 -0.13542969 105.17125 -0.13414063 106 -0.1328125 C106.7425 -0.13168457 107.485 -0.13055664 108.25 -0.12939453 C110 0 110 0 111 1 C111.11124114 3.82783815 111.15740025 6.63147412 111.16113281 9.46020508 C111.16858017 10.79213394 111.16858017 10.79213394 111.17617798 12.15097046 C111.19085398 15.10716515 111.19761437 18.06330601 111.203125 21.01953125 C111.20887671 23.07443748 111.21463444 25.12934369 111.22039795 27.18424988 C111.23092658 31.50621796 111.23675549 35.82816737 111.24023438 40.15014648 C111.2456905 45.66325812 111.26964845 51.17611918 111.29820633 56.68915272 C111.31693107 60.94193716 111.32204376 65.19466281 111.32357025 69.44748497 C111.32658058 71.47786501 111.33455379 73.50824441 111.34775543 75.53858376 C111.4431011 91.34464444 111.00891758 107.98078348 99.69140625 120.43359375 C87.99858681 131.26227873 76.95803436 136.10980299 61 136 C48.12472407 135.32793889 36.67541974 128.88445073 28.0546875 119.54296875 C21.11935153 110.95950161 17.50157686 101.28876652 17.65942383 90.26733398 C17.65876671 89.03641273 17.65876671 89.03641273 17.65809631 87.78062439 C17.66016533 85.10219467 17.68340577 82.42441239 17.70703125 79.74609375 C17.71263394 77.8756596 17.71690086 76.00522102 17.71989441 74.13478088 C17.73129019 69.23733131 17.76071149 64.34015318 17.79400635 59.44281006 C17.82482136 54.435218 17.83842408 49.42758163 17.85351562 44.41992188 C17.88558675 34.61314345 17.9383111 24.80663688 18 15 C12.06 15 6.12 15 0 15 C0 10.05 0 5.1 0 0 Z " fill="#433930" transform="translate(20,105)"/>
<path d="M0 0 C11.30772385 8.64167514 17.85318411 18.57271761 20.3278656 32.54972839 C21.14130524 38.95742165 20.97078576 45.39384991 20.91015625 51.83984375 C20.90386578 53.36478795 20.89863242 54.88973683 20.89439392 56.41468811 C20.88119342 60.40326663 20.85682133 64.39168723 20.82904053 68.38018799 C20.78567317 74.75743026 20.75593923 81.13471111 20.7329998 87.51205635 C20.72293439 89.71642907 20.70587124 91.92066342 20.68800354 94.12498474 C20.64063687 102.10390337 20.95748687 109.93239533 21.75 117.875 C27.03 116.555 32.31 115.235 37.75 113.875 C37.75 116.515 37.75 119.155 37.75 121.875 C33.23067743 123.44548548 28.70999341 125.01196237 24.18798828 126.57470703 C22.64919359 127.10712935 21.11077973 127.64065366 19.57275391 128.17529297 C17.36459471 128.94266744 15.15510546 129.70609507 12.9453125 130.46875 C12.25567413 130.70936157 11.56603577 130.94997314 10.85549927 131.19787598 C5.97774341 132.875 5.97774341 132.875 3.75 132.875 C1.14689394 125.75984344 0.60290104 118.92727111 0.6081543 111.4362793 C0.60467987 110.62226654 0.60120544 109.80825378 0.59762573 108.96957397 C0.59030998 107.21268575 0.5849425 105.45578853 0.58133507 103.69888878 C0.57411854 100.91049756 0.55841409 98.12227717 0.53999329 95.3339386 C0.48776408 87.40957972 0.43957256 79.48531839 0.42407227 71.56079102 C0.41394993 66.70254823 0.38452358 61.84474277 0.34275246 56.98667336 C0.33050378 55.14448171 0.3253099 53.30222818 0.32755089 51.45999718 C0.33767886 40.41860552 0.08609195 31.52367433 -6.125 22 C-11.9911747 16.1338253 -17.88920335 13.81077174 -26.0625 13.5 C-33.29216952 13.6345472 -38.4253658 15.56393565 -44 20.125 C-50.68320758 28.29336482 -52.38416629 34.47451422 -52.45532227 44.88793945 C-52.47017166 46.23502739 -52.47017166 46.23502739 -52.48532104 47.60932922 C-52.51683363 50.56895335 -52.54165292 53.52859352 -52.56640625 56.48828125 C-52.58698462 58.54380198 -52.60798133 60.59931857 -52.62937927 62.65483093 C-52.68450871 68.05852901 -52.7339582 73.4622647 -52.78222656 78.86602783 C-52.83250829 84.38272438 -52.88815951 89.89936648 -52.94335938 95.41601562 C-53.05082928 106.23563053 -53.15229899 117.05529278 -53.25 127.875 C-56.41071549 129.45535774 -59.78274504 129.10075346 -63.25 129.125 C-63.98734375 129.145625 -64.7246875 129.16625 -65.484375 129.1875 C-67.625 129.203125 -67.625 129.203125 -71.25 128.875 C-73.79486934 125.05769598 -73.53110005 121.97791789 -73.50878906 117.55493164 C-73.5122937 116.70570129 -73.51579834 115.85647095 -73.51940918 114.98150635 C-73.52822978 112.16597374 -73.52237147 109.35069157 -73.515625 106.53515625 C-73.51697268 104.57278902 -73.51891407 102.61042212 -73.52142334 100.64805603 C-73.52437597 96.52632482 -73.52007664 92.40468015 -73.51074219 88.28295898 C-73.49941505 83.02777387 -73.50586319 77.77279458 -73.51788712 72.51761723 C-73.5251598 68.45869943 -73.52279195 64.3998293 -73.51763153 60.34090996 C-73.51630642 58.4054404 -73.5179024 56.46996637 -73.52259064 54.53450203 C-73.55844558 35.55066324 -72.60526931 19.56852426 -58.7265625 5.1328125 C-42.64245521 -9.53061654 -18.48717151 -12.04941995 0 0 Z " fill="#433931" transform="translate(243.25,109.125)"/>
<path d="M0 0 C3.10367497 -0.14515677 6.20648027 -0.23400853 9.3125 -0.3125 C10.19357422 -0.35439453 11.07464844 -0.39628906 11.98242188 -0.43945312 C13.25375977 -0.46362305 13.25375977 -0.46362305 14.55078125 -0.48828125 C15.33106689 -0.51446533 16.11135254 -0.54064941 16.9152832 -0.56762695 C19 0 19 0 20.49171448 2.17481995 C22.00047522 5.00089015 23.13786076 7.75569506 24.21728516 10.77050781 C24.62846588 11.91070374 25.03964661 13.05089966 25.46328735 14.22564697 C25.90079315 15.45571472 26.33829895 16.68578247 26.7890625 17.953125 C27.25599256 19.25389087 27.72339927 20.55448573 28.19125366 21.85491943 C29.4254512 25.28940829 30.65329138 28.7261362 31.87976074 32.16339111 C33.09454108 35.56467658 34.31501852 38.96391478 35.53515625 42.36328125 C37.44068597 47.67410942 39.3430581 52.98605722 41.24316406 58.29882812 C45.14448198 69.20555649 49.07175065 80.10294681 53 91 C53.66 91 54.32 91 55 91 C55.42708252 89.78868408 55.85416504 88.57736816 56.29418945 87.3293457 C64.29035146 64.66694154 72.31367531 42.03148993 81.01708984 19.62915039 C82.08420599 16.77476047 83.0521041 13.89593601 84 11 C82.75283203 10.94392578 82.75283203 10.94392578 81.48046875 10.88671875 C80.39378906 10.82097656 79.30710937 10.75523438 78.1875 10.6875 C76.56908203 10.60048828 76.56908203 10.60048828 74.91796875 10.51171875 C72 10 72 10 70.09765625 8.65234375 C69 7 69 7 69.25 3.875 C70 1 70 1 71 0 C72.49340194 -0.09830562 73.99140377 -0.12798451 75.48803711 -0.12939453 C76.44250229 -0.13254669 77.39696747 -0.13569885 78.38035583 -0.13894653 C79.41886185 -0.1369223 80.45736786 -0.13489807 81.52734375 -0.1328125 C83.11622154 -0.13424759 83.11622154 -0.13424759 84.73719788 -0.13571167 C86.98259541 -0.1363937 89.2279949 -0.13453784 91.47338867 -0.13037109 C94.919153 -0.12502845 98.36478666 -0.13031262 101.81054688 -0.13671875 C103.98697946 -0.13605787 106.16341195 -0.1347765 108.33984375 -0.1328125 C109.37632553 -0.13483673 110.41280731 -0.13686096 111.48069763 -0.13894653 C112.43831497 -0.13579437 113.39593231 -0.13264221 114.38256836 -0.12939453 C115.22782578 -0.12859894 116.07308319 -0.12780334 116.94395447 -0.12698364 C119 0 119 0 121 1 C121.8125 3.3125 121.8125 3.3125 122 6 C120.9296875 8.15234375 120.9296875 8.15234375 119 10 C115.86328125 10.390625 115.86328125 10.390625 112.3125 10.25 C110.54326172 10.19585937 110.54326172 10.19585937 108.73828125 10.140625 C107.83464844 10.09421875 106.93101562 10.0478125 106 10 C105.83129395 10.66354492 105.66258789 11.32708984 105.48876953 12.01074219 C103.67270857 18.93288235 101.42014768 25.56606858 98.875 32.25 C97.97987894 34.63340491 97.08681734 37.01758385 96.1953125 39.40234375 C95.95047119 40.05696091 95.70562988 40.71157806 95.45336914 41.3860321 C91.80584939 51.16566494 88.29017331 60.99365172 84.75 70.8125 C77.25878865 91.57599508 69.66129417 112.29872179 62 133 C56.72 133 51.44 133 46 133 C42.91132738 124.66863807 39.82808452 116.33527969 36.75 108 C36.51681438 107.36857716 36.28362877 106.73715431 36.04337692 106.08659744 C27.73670925 83.5878126 19.59738534 61.03346931 11.57519531 38.43164062 C11.18083282 37.32164703 10.78647034 36.21165344 10.38015747 35.06802368 C9.62186766 32.93274085 8.86488112 30.79699464 8.10934448 28.66073608 C6.48549916 24.08652586 4.83686233 19.52934554 3.06982422 15.00830078 C2.78014267 14.26346939 2.49046112 13.518638 2.19200134 12.75123596 C1.43728593 10.82876612 0.66747771 8.91223935 -0.10375977 6.99633789 C-0.98514147 4.0496755 -1.14587113 2.79972356 0 0 Z " fill="#433930" transform="translate(352,104)"/>
<path d="M0 0 C0.66 0.33 1.32 0.66 2 1 C2 12.88 2 24.76 2 37 C10.33953769 37.69496147 18.30881217 38.18237919 26.625 38.1875 C27.67945313 38.19974609 28.73390625 38.21199219 29.8203125 38.22460938 C35.68227422 38.23549173 41.05532085 37.81418127 46.75927734 36.4309082 C49.21783391 35.95810886 51.50230866 35.9303904 54 36 C55.07363176 38.63527797 55.09734103 39.74691332 54.0625 42.4375 C49.22182164 48.45167614 42.28752506 51.14249499 34.875 52.625 C26.7630355 53.41002882 18.70485348 53.02675609 10.58984375 52.4921875 C9.8563269 52.44505615 9.12281006 52.3979248 8.36706543 52.34936523 C6.57795877 52.2342211 4.78896686 52.11729616 3 52 C3.03817432 61.60632564 3.09770543 71.21221988 3.18390274 80.8182354 C3.22327709 85.27955389 3.25551449 89.74067798 3.27099609 94.20214844 C3.28622928 98.514216 3.32079149 102.82574872 3.36830902 107.13757706 C3.38305454 108.7760056 3.39103706 110.41451054 3.39188385 112.05300522 C3.40260308 122.40162725 4.15674395 130.82333849 9.75 139.8125 C15.97432661 145.86392865 23.0568569 148.94994095 31.75 149.375 C38.20592315 149.25654269 44.46962556 147.10174043 50.0078125 143.8046875 C52.81522027 142.67071495 54.17543312 142.93313573 57 144 C59.2734375 146.328125 59.2734375 146.328125 61.375 149.25 C62.08398438 150.20390625 62.79296875 151.1578125 63.5234375 152.140625 C65 155 65 155 65.1875 157.59765625 C63.3605739 161.29357583 60.20902319 162.5192293 56.625 164.1875 C55.53614502 164.70957031 55.53614502 164.70957031 54.42529297 165.2421875 C42.26061879 170.86286457 28.91238737 171.65644895 16 168 C2.91635034 162.99393431 -6.57228259 154.42572669 -13 142 C-15.97583325 134.90631632 -17.15339709 128.13764573 -17.11352539 120.45581055 C-17.11367142 119.71380905 -17.11381744 118.97180756 -17.1139679 118.20732117 C-17.11327404 115.7670901 -17.1055064 113.3269364 -17.09765625 110.88671875 C-17.0957902 109.18992657 -17.09436718 107.49313385 -17.09336853 105.79634094 C-17.0895581 101.3395335 -17.07974043 96.88275887 -17.06866455 92.42596436 C-17.0584187 87.87447554 -17.05386412 83.32298141 -17.04882812 78.77148438 C-17.03811681 69.84764187 -17.02105813 60.92382367 -17 52 C-19.5627992 52.31018604 -22.1252211 52.62306891 -24.6875 52.9375 C-25.40873047 53.02451172 -26.12996094 53.11152344 -26.87304688 53.20117188 C-30.62010584 53.66313805 -34.30792911 54.19167679 -38 55 C-38.6171875 53.21484375 -38.6171875 53.21484375 -39 51 C-35.24809833 44.12151361 -30.06990002 40.61162385 -22.640625 38.25 C-20.77466092 37.77358364 -18.88842488 37.37768498 -17 37 C-16.55542452 35.33520672 -16.12001791 33.66796651 -15.6875 32 C-15.26017578 30.36611328 -15.26017578 30.36611328 -14.82421875 28.69921875 C-14.23451088 26.05252042 -13.80805946 23.63021644 -13.51953125 20.95703125 C-12.61179106 13.3053048 -11.47453262 8.51010334 -5.3125 3.5 C-3.57131689 2.2895277 -1.80939703 1.10591329 0 0 Z " fill="#433A31" transform="translate(891,72)"/>
<path d="M0 0 C3.80282055 3.33906195 7.32537819 6.65332182 7.80078125 11.859375 C7.91732581 16.79105002 7.98269526 20.34735834 5.875 24.875 C2.6887989 28.14731465 0.77562542 29.15869945 -3.8046875 29.34765625 C-8.11130183 29.18791536 -11.488852 28.91043947 -14.5625 25.6875 C-17.01310487 21.1947244 -17.23957164 19.3030513 -16.4375 14.25 C-14.26175584 11.55894802 -12.52684144 9.79467072 -9.4375 8.25 C-14.69938885 7.93428667 -17.99214669 8.35085653 -22.4375 11.25 C-28.73466395 17.54716395 -30.75635777 24.26832453 -30.8631134 33.02461243 C-30.86010727 33.9948082 -30.85710114 34.96500397 -30.85400391 35.96459961 C-30.86258926 37.00779358 -30.87117462 38.05098755 -30.88002014 39.12579346 C-30.90498373 42.55137987 -30.90944935 45.97667487 -30.9140625 49.40234375 C-30.92837704 51.78748963 -30.94413486 54.17262725 -30.96127319 56.55775452 C-31.0030491 62.81920743 -31.02810222 69.08060906 -31.04876709 75.34216309 C-31.08464839 85.38924691 -31.14540613 95.43620467 -31.20725632 105.4831562 C-31.22640333 108.99812408 -31.23808959 112.51305805 -31.24868774 116.02806091 C-31.25889263 118.16576209 -31.26924994 120.30346254 -31.27978516 122.44116211 C-31.28134865 123.91771019 -31.28134865 123.91771019 -31.28294373 125.42408752 C-31.28839706 126.31421539 -31.2938504 127.20434326 -31.29946899 128.1214447 C-31.30202509 128.89918715 -31.30458118 129.67692961 -31.30721474 130.47824001 C-31.4375 132.25 -31.4375 132.25 -32.4375 133.25 C-33.76793625 133.3483721 -35.10343344 133.38078592 -36.4375 133.3828125 C-37.241875 133.38410156 -38.04625 133.38539063 -38.875 133.38671875 C-39.720625 133.38285156 -40.56625 133.37898437 -41.4375 133.375 C-42.7059375 133.38080078 -42.7059375 133.38080078 -44 133.38671875 C-44.804375 133.38542969 -45.60875 133.38414062 -46.4375 133.3828125 C-47.18 133.38168457 -47.9225 133.38055664 -48.6875 133.37939453 C-50.4375 133.25 -50.4375 133.25 -51.4375 132.25 C-51.5431921 130.75158201 -51.57988811 129.2482376 -51.58898926 127.74612427 C-51.59733292 126.77304321 -51.60567657 125.79996216 -51.61427307 124.7973938 C-51.6205497 123.18282791 -51.6205497 123.18282791 -51.62695312 121.53564453 C-51.63524643 120.4089032 -51.64353973 119.28216187 -51.65208435 118.12127686 C-51.66953081 115.6652787 -51.68468488 113.20926346 -51.69786072 110.75323868 C-51.71881419 106.87091884 -51.74584349 102.98868463 -51.77453613 99.10641479 C-51.83435779 90.86264224 -51.88648486 82.61883108 -51.9375 74.375 C-51.99658521 64.83289456 -52.0589254 55.29083554 -52.12937927 45.748806 C-52.1560195 41.91597576 -52.17679659 38.08314149 -52.1973877 34.25027466 C-52.21398785 31.9078959 -52.23085944 29.56551905 -52.24804688 27.22314453 C-52.25223129 26.15081573 -52.25641571 25.07848694 -52.26072693 23.97366333 C-52.26907059 22.99494263 -52.27741425 22.01622192 -52.28601074 21.00784302 C-52.29116447 20.15648333 -52.29631821 19.30512363 -52.30162811 18.42796516 C-52.35530388 16.06901233 -52.35530388 16.06901233 -53.4375 13.25 C-58.3875 12.92 -63.3375 12.59 -68.4375 12.25 C-68.4375 8.29 -68.4375 4.33 -68.4375 0.25 C-56.2275 0.25 -44.0175 0.25 -31.4375 0.25 C-30.9425 4.705 -30.9425 4.705 -30.4375 9.25 C-30.06238281 8.70730469 -29.68726563 8.16460937 -29.30078125 7.60546875 C-25.85335456 2.78601833 -23.10728123 -0.83255469 -17.125 -2.328125 C-11.17210422 -3.2625912 -5.3726388 -2.73516157 0 0 Z " fill="#009FE3" transform="translate(656.4375,103.75)"/>
<path d="M0 0 C-0.10338684 1.35249596 -0.10338684 1.35249596 -0.2088623 2.73231506 C-1.11009052 15.53038223 -1.19241157 28.31960549 -1.26036072 41.14498711 C-1.28164886 45.13331925 -1.30850401 49.12159359 -1.33703613 53.10987854 C-1.40666731 62.99406955 -1.46651452 72.87831717 -1.52606201 82.76257324 C-1.57278898 90.49182157 -1.62186402 98.22104154 -1.67754889 105.95023113 C-1.71040403 110.55383134 -1.73574862 115.15744028 -1.7598877 119.76109314 C-1.7764778 122.15249841 -1.79334849 124.54390176 -1.81054688 126.93530273 C-1.81473129 128.03284378 -1.81891571 129.13038483 -1.82322693 130.26118469 C-1.83574242 131.75562607 -1.83574242 131.75562607 -1.84851074 133.28025818 C-1.85366447 134.14863029 -1.85881821 135.01700239 -1.86412811 135.9116888 C-2 138 -2 138 -3 140 C-9.27 140 -15.54 140 -22 140 C-22.01030746 138.6035173 -22.02061493 137.20703461 -22.03123474 135.76823425 C-22.12885958 122.62760583 -22.23158323 109.48702592 -22.33933926 96.34647655 C-22.3946419 89.59029557 -22.44811904 82.8341093 -22.49731445 76.07788086 C-22.54476814 69.56155368 -22.59728814 63.04527889 -22.65294075 56.52901649 C-22.67336992 54.03906901 -22.69208206 51.54910684 -22.70907402 49.05913353 C-22.73310546 45.57997692 -22.76316195 42.10092188 -22.79467773 38.62182617 C-22.8004332 37.58532928 -22.80618866 36.5488324 -22.81211853 35.48092651 C-22.82680176 34.06116264 -22.82680176 34.06116264 -22.84178162 32.61271667 C-22.84823417 31.78955554 -22.85468672 30.96639441 -22.8613348 30.11828899 C-22.92254468 27.80972708 -22.92254468 27.80972708 -24 25 C-26.84412317 23.15006148 -29.40490751 22.67015522 -32.75 22.375 C-33.54921875 22.30023438 -34.3484375 22.22546875 -35.171875 22.1484375 C-35.77515625 22.09945312 -36.3784375 22.05046875 -37 22 C-37 19.69 -37 17.38 -37 15 C-35.78183594 14.75765625 -34.56367188 14.5153125 -33.30859375 14.265625 C-31.6847636 13.92771815 -30.0610729 13.58914071 -28.4375 13.25 C-27.63763672 13.09273437 -26.83777344 12.93546875 -26.01367188 12.7734375 C-17.92557049 11.05677925 -12.4394866 8.31670401 -7.65234375 1.390625 C-5.21993219 -0.65651097 -3.08223342 -0.09247999 0 0 Z " fill="#433A31" transform="translate(326,97)"/>
<path d="M0 0 C6.27 0 12.54 0 19 0 C20.00044722 3.00134167 20.1280168 4.98855195 20.13371277 8.12402344 C20.13797775 9.18399536 20.14224274 10.24396729 20.14663696 11.33605957 C20.14618378 12.49875366 20.14573059 13.66144775 20.14526367 14.859375 C20.14862228 16.08394409 20.1519809 17.30851318 20.15544128 18.57019043 C20.16332063 21.92963014 20.16661923 25.28900806 20.16725707 28.64845276 C20.1682064 31.45177352 20.17188486 34.25508835 20.17542917 37.05840683 C20.18357208 43.67045136 20.1860135 50.28248228 20.18530273 56.89453125 C20.18470152 63.71953447 20.19526238 70.54445875 20.2110464 77.36944199 C20.22411088 83.22682951 20.22948711 89.08419119 20.22884732 94.94159317 C20.22859208 98.44103012 20.23145821 101.94039688 20.24202538 105.43981934 C20.25348173 109.34011947 20.24896625 113.24031075 20.24291992 117.140625 C20.24853943 118.30331909 20.25415894 119.46601318 20.25994873 120.66394043 C20.25575424 121.72391235 20.25155975 122.78388428 20.24723816 123.87597656 C20.24778293 124.79848206 20.24832769 125.72098755 20.24888897 126.67144775 C20 129 20 129 18 132 C15.06616664 132.24817926 12.36367315 132.32643881 9.4375 132.25 C8.24737305 132.24226563 8.24737305 132.24226563 7.03320312 132.234375 C1.15404491 132.15404491 1.15404491 132.15404491 0 131 C-0.09619441 129.30441297 -0.12187659 127.6047916 -0.12025452 125.90647888 C-0.12162918 124.80285004 -0.12300385 123.69922119 -0.12442017 122.56214905 C-0.12082489 121.34079758 -0.11722961 120.11944611 -0.11352539 118.86108398 C-0.11367142 117.58322021 -0.11381744 116.30535645 -0.1139679 114.98876953 C-0.11425585 111.47446409 -0.1083594 107.9601925 -0.10139394 104.44589496 C-0.09516012 100.77700644 -0.09455658 97.10811723 -0.09336853 93.43922424 C-0.0902553 86.48709565 -0.08204202 79.5349827 -0.07201904 72.58286101 C-0.06085766 64.6700522 -0.05534739 56.75724266 -0.05032361 48.84442794 C-0.0398594 32.56294253 -0.02205965 16.28147388 0 0 Z " fill="#433A31" transform="translate(806,105)"/>
<path d="M0 0 C0.66 0.33 1.32 0.66 2 1 C2 12.88 2 24.76 2 37 C10.33953769 37.69496147 18.30881217 38.18237919 26.625 38.1875 C27.67945313 38.19974609 28.73390625 38.21199219 29.8203125 38.22460938 C35.68227422 38.23549173 41.05532085 37.81418127 46.75927734 36.4309082 C49.21783391 35.95810886 51.50230866 35.9303904 54 36 C55.07363176 38.63527797 55.09734103 39.74691332 54.0625 42.4375 C49.22182164 48.45167614 42.28752506 51.14249499 34.875 52.625 C24.24464051 53.65374447 13.62173537 52.73253347 3 52 C3 57.28 3 62.56 3 68 C-3.95776959 66.63125844 -10.38603107 64.5466871 -17 62 C-17 58.7 -17 55.4 -17 52 C-19.5627992 52.31018604 -22.1252211 52.62306891 -24.6875 52.9375 C-25.40873047 53.02451172 -26.12996094 53.11152344 -26.87304688 53.20117188 C-30.62010584 53.66313805 -34.30792911 54.19167679 -38 55 C-38.6171875 53.21484375 -38.6171875 53.21484375 -39 51 C-35.24809833 44.12151361 -30.06990002 40.61162385 -22.640625 38.25 C-20.77466092 37.77358364 -18.88842488 37.37768498 -17 37 C-16.55542452 35.33520672 -16.12001791 33.66796651 -15.6875 32 C-15.26017578 30.36611328 -15.26017578 30.36611328 -14.82421875 28.69921875 C-14.23451088 26.05252042 -13.80805946 23.63021644 -13.51953125 20.95703125 C-12.61179106 13.3053048 -11.47453262 8.51010334 -5.3125 3.5 C-3.57131689 2.2895277 -1.80939703 1.10591329 0 0 Z " fill="#009FE2" transform="translate(891,72)"/>
<path d="M0 0 C11.87448338 6.58194218 20.28321077 13.12366596 27 25 C33.7699009 35.15485136 44.69727913 38.96254504 56 42 C67.67521573 43.95406242 79.85832564 43.27361662 90.80859375 38.375 C94 37 94 37 96.4375 37.3125 C96.953125 37.539375 97.46875 37.76625 98 38 C93.867237 47.41463572 82.01528108 51.41396934 73 55 C57.53154055 60.58201078 40.50596331 59.11670719 25.609375 52.4921875 C13.37180086 45.88143765 6.21618492 35.93983189 1.96484375 22.80078125 C-0.01794047 15.15553417 -0.34769279 7.86815905 0 0 Z " fill="#009EE2" transform="translate(481,183)"/>
<path d="M0 0 C3.96 0 7.92 0 12 0 C12 22.77 12 45.54 12 69 C7.38 69 2.76 69 -2 69 C-2.20753906 68.00742188 -2.41507813 67.01484375 -2.62890625 65.9921875 C-5.45567474 53.23933759 -9.70716774 41.79578621 -18.8125 32.0625 C-20.55473973 29.03650468 -19.88974593 27.32117145 -19 24 C-15.06371933 12.53166669 -15.06371933 12.53166669 -11 9.515625 C-8.9375 8.625 -8.9375 8.625 -6.85546875 7.8984375 C-4.49052545 6.75330706 -3.96812455 5.54134209 -2.75 3.25 C-1.8425 2.1775 -0.935 1.105 0 0 Z " fill="#009EE2" transform="translate(765,97)"/>
<path d="M0 0 C12.21 0 24.42 0 37 0 C39.91288525 47.4332796 39.91288525 47.4332796 33.02734375 57.328125 C28.98056831 61.72487415 24.38897557 65.37890004 19 68 C18.67 68 18.34 68 18 68 C18 50.51 18 33.02 18 15 C12.06 15 6.12 15 0 15 C0 10.05 0 5.1 0 0 Z " fill="#009EE2" transform="translate(20,105)"/>
<path d="M0 0 C0.33 0 0.66 0 1 0 C1.02312376 10.28304538 1.04091525 20.56608462 1.05181217 30.84915066 C1.05704093 35.6234828 1.06413844 40.39779721 1.07543945 45.17211914 C1.0862686 49.77566262 1.09227689 54.37918899 1.09487724 58.98274422 C1.09673144 60.74309623 1.10035196 62.50344726 1.10573006 64.26379204 C1.11294086 66.72072277 1.11399093 69.17758195 1.11352539 71.63452148 C1.11712067 72.36963455 1.12071594 73.10474762 1.12442017 73.86213684 C1.11405216 78.88594784 1.11405216 78.88594784 0 80 C-1.33043625 80.0983721 -2.66593344 80.13078592 -4 80.1328125 C-4.804375 80.13410156 -5.60875 80.13539063 -6.4375 80.13671875 C-7.283125 80.13285156 -8.12875 80.12898438 -9 80.125 C-9.845625 80.12886719 -10.69125 80.13273437 -11.5625 80.13671875 C-12.366875 80.13542969 -13.17125 80.13414062 -14 80.1328125 C-14.7425 80.13168457 -15.485 80.13055664 -16.25 80.12939453 C-18 80 -18 80 -19 79 C-19.16159033 77.30169919 -19.25448865 75.59680928 -19.31982422 73.89208984 C-19.38265091 72.25305191 -19.38265091 72.25305191 -19.44674683 70.5809021 C-19.59766569 65.51959468 -19.70461234 60.45833511 -19.78955078 55.39550781 C-19.83824985 52.73649036 -19.92740431 50.08798839 -20.03564453 47.4296875 C-21.01162402 23.00266492 -21.01162402 23.00266492 -14.5798645 14.97207642 C-12.40360828 12.65857983 -10.1335257 10.54530909 -7.69586182 8.51055908 C-5.25047021 6.33236953 -3.23331405 3.85262274 -1.17037964 1.31674194 C-0.78415436 0.8822171 -0.39792908 0.44769226 0 0 Z " fill="#433A31" transform="translate(624,157)"/>
<path d="M0 0 C0.95446518 -0.00315216 1.90893036 -0.00630432 2.89231873 -0.009552 C3.93082474 -0.00752777 4.96933075 -0.00550354 6.03930664 -0.00341797 C7.62818443 -0.00485306 7.62818443 -0.00485306 9.24916077 -0.00631714 C11.4945583 -0.00699917 13.73995779 -0.00514331 15.98535156 -0.00097656 C19.43111589 0.00436608 22.87674955 -0.00091809 26.32250977 -0.00732422 C28.49894235 -0.00666334 30.67537485 -0.00538197 32.85180664 -0.00341797 C33.88828842 -0.0054422 34.9247702 -0.00746643 35.99266052 -0.009552 C36.95027786 -0.00639984 37.9078952 -0.00324768 38.89453125 0 C39.73978867 0.00079559 40.58504608 0.00159119 41.45591736 0.00241089 C43.51196289 0.12939453 43.51196289 0.12939453 45.51196289 1.12939453 C46.32446289 3.44189453 46.32446289 3.44189453 46.51196289 6.12939453 C45.44165039 8.28173828 45.44165039 8.28173828 43.51196289 10.12939453 C40.37524414 10.52001953 40.37524414 10.52001953 36.82446289 10.37939453 C35.05522461 10.32525391 35.05522461 10.32525391 33.25024414 10.27001953 C32.34661133 10.22361328 31.44297852 10.17720703 30.51196289 10.12939453 C30.34978271 10.77046143 30.18760254 11.41152832 30.02050781 12.07202148 C28.03589861 19.65226714 25.52489128 26.96501053 22.82446289 34.31689453 C22.20087891 36.03102539 22.20087891 36.03102539 21.56469727 37.77978516 C20.55103468 40.56444444 19.53340265 43.3475807 18.51196289 46.12939453 C14.47879939 43.47253311 10.53580722 40.73220745 6.63696289 37.87939453 C5.18676758 36.81978516 5.18676758 36.81978516 3.70727539 35.73876953 C2.98282227 35.20767578 2.25836914 34.67658203 1.51196289 34.12939453 C3.02669508 26.14262481 5.67998841 18.72816575 8.51196289 11.12939453 C7.26479492 11.07332031 7.26479492 11.07332031 5.99243164 11.01611328 C4.90575195 10.95037109 3.81907227 10.88462891 2.69946289 10.81689453 C1.62051758 10.75888672 0.54157227 10.70087891 -0.57006836 10.64111328 C-3.48803711 10.12939453 -3.48803711 10.12939453 -5.39038086 8.78173828 C-6.48803711 7.12939453 -6.48803711 7.12939453 -6.23803711 4.00439453 C-5.09699234 -0.36961041 -4.26210219 0.00401546 0 0 Z " fill="#009EE2" transform="translate(427.488037109375,103.87060546875)"/>
<path d="M0 0 C0.02505615 0.66418945 0.0501123 1.32837891 0.07592773 2.01269531 C0.70526701 19.02724992 0.70526701 19.02724992 2 36 C7.28 34.68 12.56 33.36 18 32 C18 34.64 18 37.28 18 40 C13.48067743 41.57048548 8.95999341 43.13696237 4.43798828 44.69970703 C2.89919359 45.23212935 1.36077973 45.76565366 -0.17724609 46.30029297 C-2.38540529 47.06766744 -4.59489454 47.83109507 -6.8046875 48.59375 C-7.49432587 48.83436157 -8.18396423 49.07497314 -8.89450073 49.32287598 C-13.77225659 51 -13.77225659 51 -16 51 C-18.43580984 44.34211977 -19.12904908 38.03604337 -19.09765625 30.97265625 C-19.09443359 29.68681641 -19.09121094 28.40097656 -19.08789062 27.07617188 C-19.07953802 25.73828055 -19.07107311 24.40038993 -19.0625 23.0625 C-19.05747659 21.69726726 -19.05291517 20.33203274 -19.04882812 18.96679688 C-19.03708851 15.64448543 -19.02066679 12.32226592 -19 9 C-16.40011448 7.49212623 -13.79559803 5.99354539 -11.1875 4.5 C-10.44951172 4.07074219 -9.71152344 3.64148438 -8.95117188 3.19921875 C-8.23896484 2.79316406 -7.52675781 2.38710937 -6.79296875 1.96875 C-6.1383667 1.59169922 -5.48376465 1.21464844 -4.80932617 0.82617188 C-3 0 -3 0 0 0 Z " fill="#009EE2" transform="translate(263,191)"/>
<path d="M0 0 C-0.66 15.51 -1.32 31.02 -2 47 C-8.6 47 -15.2 47 -22 47 C-22.4375 37.6875 -22.4375 37.6875 -22.56811523 34.7644043 C-22.60622314 34.00039307 -22.64433105 33.23638184 -22.68359375 32.44921875 C-22.72025146 31.66893311 -22.75690918 30.88864746 -22.79467773 30.0847168 C-22.94125263 27.80670899 -22.94125263 27.80670899 -24 25 C-26.84412317 23.15006148 -29.40490751 22.67015522 -32.75 22.375 C-33.54921875 22.30023438 -34.3484375 22.22546875 -35.171875 22.1484375 C-35.77515625 22.09945312 -36.3784375 22.05046875 -37 22 C-37 19.69 -37 17.38 -37 15 C-35.78183594 14.75765625 -34.56367188 14.5153125 -33.30859375 14.265625 C-31.6847636 13.92771815 -30.0610729 13.58914071 -28.4375 13.25 C-27.63763672 13.09273437 -26.83777344 12.93546875 -26.01367188 12.7734375 C-17.92557049 11.05677925 -12.4394866 8.31670401 -7.65234375 1.390625 C-6 0 -6 0 0 0 Z " fill="#009FE3" transform="translate(326,97)"/>
<path d="M0 0 C2.31 0 4.62 0 7 0 C7 18.81 7 37.62 7 57 C4.33333333 57 1.66666667 57 -1 57 C-2.2375 57.37125 -3.475 57.7425 -4.75 58.125 C-9.0650254 59.22351379 -11.84158904 58.77117504 -16 57 C-19.64475001 54.61206034 -22.37256597 52.09792918 -24 48 C-24.44144952 44.38604938 -24.37025652 40.76324973 -24.375 37.125 C-24.39949219 36.14402344 -24.42398437 35.16304688 -24.44921875 34.15234375 C-24.47379452 28.08212763 -24.02621093 24.62241401 -20 20 C-15.34055162 15.68148686 -11.45549507 15.60429726 -5.390625 15.76171875 C-3 16 -3 16 -1 17 C-0.67 11.39 -0.34 5.78 0 0 Z M-15 25 C-17.7566365 29.13495474 -17.44158553 32.51199499 -17.5 37.375 C-17.54125 38.22578125 -17.5825 39.0765625 -17.625 39.953125 C-17.72341073 44.61990116 -17.72341073 44.61990116 -15.75634766 48.71142578 C-12.88649276 51.25273301 -11.22925076 51.9920948 -7.375 52.125 C-3.24495552 50.74831851 -2.25388327 49.69694773 0 46 C0.5947503 42.98460139 0.60480146 40.06561191 0.5625 37 C0.58634766 36.2059375 0.61019531 35.411875 0.63476562 34.59375 C0.62390752 30.25050748 0.40528097 28.51109325 -2.37890625 25 C-7.25974858 21.27572091 -10.09799936 21.29037789 -15 25 Z " fill="#433930" transform="translate(310,274)"/>
<path d="M0 0 C3.08787263 1.23848129 5.60308365 2.67926925 8 5 C8.9375 8.3125 8.9375 8.3125 8 12 C5.94579502 14.95037373 3.51427082 17.44001516 1 20 C-2.65783945 24.09821815 -6.03403693 28.33804745 -9.29296875 32.7578125 C-11.3348458 35.43982034 -13.47542015 38.02861714 -15.625 40.625 C-18.00851492 43.50757584 -20.3195773 46.33337974 -22.3125 49.5 C-24.05031133 52.0745353 -25.2575207 53.5480992 -28 55 C-31.25 55.1875 -31.25 55.1875 -34 55 C-35.1875 53.4375 -35.1875 53.4375 -36 51 C-34.36337416 46.09012249 -31.93420509 42.26793468 -29 38 C-27.1137246 34.79333182 -25.30288897 31.5689401 -23.5546875 28.28515625 C-20.98816407 23.48098552 -18.42042271 19.24604198 -15 15 C-13.96898053 12.68020619 -12.97063483 10.34570085 -12 8 C-8.88652068 1.89418841 -7.27569734 -0.80841082 0 0 Z " fill="#009FE3" transform="translate(1027,26)"/>
<path d="M0 0 C4.55725586 2.19724836 6.84024215 4.46886537 9 9 C9.2110186 11.71510593 9.28721867 14.1195076 9.1875 16.8125 C9.0946875 20.3703125 9.0946875 20.3703125 9 24 C-1.89 24.495 -1.89 24.495 -13 25 C-12.56736428 30.75101135 -12.56736428 30.75101135 -9.9375 33.4375 C-5.92710805 35.57068721 -3.30694432 34.9551691 1 34 C1.99 33.814375 2.98 33.62875 4 33.4375 C4.66 33.293125 5.32 33.14875 6 33 C8 36 8 36 7.9375 38.0625 C7 40 7 40 4.875 41.1875 C-1.32981875 42.94103573 -7.04267907 43.89424498 -13 41 C-16.3555154 37.97858354 -19.80963261 34.41254565 -20.17700195 29.75683594 C-20.24336323 26.75445089 -20.2849327 23.75299769 -20.3125 20.75 C-20.34150391 19.71230469 -20.37050781 18.67460937 -20.40039062 17.60546875 C-20.45199332 11.38932812 -20.1758314 7.71714288 -16 3 C-11.49597957 -1.09456403 -5.75025959 -0.7599462 0 0 Z M-12 9 C-13.54335239 11.93971885 -14 13.66843858 -14 17 C-8.39 17 -2.78 17 3 17 C2.14656246 10.74720055 2.14656246 10.74720055 -2 7 C-6.28365385 5.35244083 -8.48166372 6.14729491 -12 9 Z " fill="#443930" transform="translate(346,290)"/>
<path d="M0 0 C3.70910097 1.78586343 5.54021301 3.36223095 7.9375 6.6875 C9.34591214 11.07843196 9.21096443 14.5652519 8 19 C5.78166365 22.59523477 3.8375706 24.36639196 0 26 C-4.14271157 26.87993686 -7.57986058 26.78393602 -11.328125 24.71484375 C-14.82658642 21.95256936 -17.37200411 19.48961176 -18.1875 15 C-18.2857565 10.77497048 -17.17208316 7.64349433 -15 4 C-10.40335272 -0.26831533 -6.02857173 -1.05878141 0 0 Z " fill="#443A31" transform="translate(820,56)"/>
<path d="M0 0 C6.27 0 12.54 0 19 0 C19 8.25 19 16.5 19 25 C12.73 25 6.46 25 0 25 C0 16.75 0 8.5 0 0 Z " fill="#009FE3" transform="translate(304,56)"/>
</svg>
