<?xml version="1.0" encoding="UTF-8"?>
<svg version="1.1" xmlns="http://www.w3.org/2000/svg" width="1280" height="646">
<path d="M0 0 C116.49 0 232.98 0 353 0 C353 23.43 353 46.86 353 71 C259.94 71 166.88 71 71 71 C71 233.69 71 396.38 71 564 C164.06 564 257.12 564 353 564 C353 587.43 353 610.86 353 635 C351.24510682 636.75489318 348.78066083 636.12547804 346.3980484 636.12584114 C345.1740022 636.12844889 343.94995601 636.13105664 342.6888175 636.13374341 C341.3129306 636.13158088 339.93704384 636.12932421 338.56115723 636.12698364 C337.11320154 636.12813449 335.66524614 636.12972177 334.21729136 636.13171089 C330.21952106 636.13590923 326.22177444 636.13381126 322.22400403 636.13072467 C317.91993879 636.12847283 313.61587777 636.1319491 309.31181335 636.13470459 C300.87268748 636.13916361 292.43357048 636.13818524 283.99444425 636.13529195 C277.13902105 636.13303843 270.28360034 636.13272517 263.42817688 636.13381577 C261.96758551 636.13404561 261.96758551 636.13404561 260.47748724 636.13428011 C258.4997075 636.13459982 256.52192776 636.13492403 254.54414803 636.1352527 C235.9753285 636.13810788 217.4065139 636.13481988 198.83769518 636.12945233 C182.88642322 636.12498426 166.93515854 636.12576018 150.98388672 636.13037109 C132.4839184 636.13571619 113.98395441 636.13783318 95.48398542 636.13475883 C93.51326466 636.13444026 91.54254389 636.13412589 89.57182312 636.13381577 C88.60205612 636.13366149 87.63228911 636.13350721 86.63313523 636.13334826 C79.78173367 636.13248291 72.93033485 636.13394637 66.07893372 636.13629532 C57.73541613 636.1390928 49.39190796 636.13835615 41.04839146 636.13301457 C36.78709464 636.13037686 32.52581355 636.12937367 28.26451683 636.13266373 C24.36996996 636.13562526 20.47545351 636.13403629 16.58090943 636.12868617 C15.16572258 636.12756137 13.7505332 636.12815455 12.33534795 636.13056196 C10.42421755 636.13356574 8.51308003 636.12991267 6.6019516 636.12584114 C5.5366187 636.12567879 4.47128581 636.12551644 3.3736701 636.12534916 C1 636 1 636 0 635 C-0.09694093 633.60413722 -0.12447399 632.20338784 -0.1241985 630.80416292 C-0.12644579 629.8916957 -0.12869308 628.97922849 -0.13100848 628.03911075 C-0.12838146 627.02297841 -0.12575445 626.00684607 -0.12304783 624.95992184 C-0.12420167 623.8866507 -0.12535552 622.81337957 -0.12654433 621.70758507 C-0.12921958 618.06260493 -0.12468141 614.41766778 -0.12025452 610.77268982 C-0.12069003 608.15257843 -0.12156458 605.53246708 -0.12284368 602.91235596 C-0.12492325 597.19070275 -0.12326375 591.46905992 -0.11920547 585.74740791 C-0.1131876 577.2394287 -0.11286807 568.73145608 -0.11374746 560.22347513 C-0.11506356 545.91393441 -0.11171164 531.60439831 -0.10573006 517.29485893 C-0.09981981 503.1197552 -0.09596548 488.94465338 -0.09487724 474.76954842 C-0.0948085 473.88928695 -0.09473976 473.00902549 -0.09466894 472.10208943 C-0.09433062 467.63196987 -0.09402923 463.16185031 -0.09374207 458.69173075 C-0.09163978 427.00224953 -0.0848972 395.31277082 -0.07543945 363.62329102 C-0.06626005 332.83097344 -0.05919088 302.03865656 -0.05493164 271.24633789 C-0.054661 269.31113948 -0.05439029 267.37594108 -0.05411953 265.44074267 C-0.05193086 249.71729336 -0.04988824 233.99384403 -0.04788104 218.27039469 C-0.0384878 145.51359408 -0.01841892 72.75680002 0 0 Z " fill="#212121" transform="translate(5,5)"/>
<path d="M0 0 C69.96 0 139.92 0 212 0 C212 116.49 212 232.98 212 353 C188.57 353 165.14 353 141 353 C141 259.94 141 166.88 141 71 C117.9 71 94.8 71 71 71 C71 164.06 71 257.12 71 353 C47.57 353 24.14 353 0 353 C0 236.51 0 120.02 0 0 Z " fill="#212121" transform="translate(146,146)"/>
<path d="M0 0 C14.19 0 28.38 0 43 0 C48.62420432 13.49809037 48.62420432 13.49809037 50.27319336 18.2512207 C50.64806381 19.32567947 51.02293427 20.40013824 51.40916443 21.50715637 C51.7987886 22.63530258 52.18841278 23.76344879 52.58984375 24.92578125 C53.24191132 26.79741543 53.89398121 28.6690488 54.54615879 30.54064465 C55.45367542 33.14781226 56.35791569 35.7561109 57.26208496 38.36444092 C65.67760516 62.63682102 74.31964578 86.81901325 83 111 C83.33 74.37 83.66 37.74 84 0 C93.24 0 102.48 0 112 0 C112 47.19 112 94.38 112 143 C97.48 143 82.96 143 68 143 C64.8288084 135.38914016 61.8176818 127.9194901 59.171875 120.140625 C58.81973938 119.11725037 58.46760376 118.09387573 58.10479736 117.03948975 C56.98286139 113.77757277 55.8659757 110.51396041 54.75 107.25 C46.02254585 81.76453733 36.9942937 56.39565281 28 31 C27.67 67.96 27.34 104.92 27 143 C18.09 143 9.18 143 0 143 C0 95.81 0 48.62 0 0 Z " fill="#212121" transform="translate(633,169)"/>
<path d="M0 0 C73.59910913 0 73.59910913 0 86 12 C96.7561302 24.97209221 97.93150236 39.83325898 97 56 C95.42774828 68.01839874 90.04364152 78.00523443 81 86 C80.34 86.66 79.68 87.32 79 88 C79.22550537 88.6742955 79.45101074 89.348591 79.68334961 90.0433197 C81.80396732 96.38517015 83.92315663 102.72749586 86.04072571 109.07036495 C87.12954661 112.33159982 88.21892714 115.59264554 89.30957031 118.85327148 C90.5621957 122.59824565 91.81241644 126.3440203 93.0625 130.08984375 C93.45622803 131.26586655 93.84995605 132.44188934 94.25561523 133.65354919 C94.61598877 134.73459427 94.9763623 135.81563934 95.34765625 136.92944336 C95.66742432 137.88652695 95.98719238 138.84361053 96.31665039 139.82969666 C97 142 97 142 97 143 C87.1 143 77.2 143 67 143 C63.62405771 135.12280133 63.62405771 135.12280133 62.55786133 131.67285156 C62.3178389 130.90225403 62.07781647 130.13165649 61.83052063 129.33770752 C61.58351913 128.53017029 61.33651764 127.72263306 61.08203125 126.890625 C60.81992355 126.0419989 60.55781586 125.1933728 60.2877655 124.31903076 C59.73884283 122.53798186 59.191859 120.75633434 58.64672852 118.97412109 C57.81022496 116.242571 56.96507374 113.51379888 56.11914062 110.78515625 C55.58541773 109.04963893 55.05219678 107.31396714 54.51953125 105.578125 C54.26645706 104.76249084 54.01338287 103.94685669 53.75263977 103.10650635 C52.80091383 99.97769354 52 97.28993988 52 94 C43.75 94 35.5 94 27 94 C27 110.17 27 126.34 27 143 C18.09 143 9.18 143 0 143 C0 95.81 0 48.62 0 0 Z M27 24 C27 39.18 27 54.36 27 70 C34.2084375 70.12375 34.2084375 70.12375 41.5625 70.25 C43.06498291 70.28641602 44.56746582 70.32283203 46.11547852 70.36035156 C55.79900914 70.5089168 55.79900914 70.5089168 64 66 C70.20419779 58.88903484 69.55970018 48.83526711 69 40 C67.93451926 34.95463534 65.8117127 30.51078801 62 27 C54.77793975 23.38334442 47.32788001 23.64353791 39.4375 23.8125 C33.2809375 23.9053125 33.2809375 23.9053125 27 24 Z " fill="#212121" transform="translate(872,169)"/>
<path d="M0 0 C11.88 0 23.76 0 36 0 C39.37500694 10.12502081 39.37500694 10.12502081 40.29399109 13.67007446 C40.50532181 14.47906189 40.71665253 15.28804932 40.93438721 16.12155151 C41.15415222 16.97556549 41.37391724 17.82957947 41.6003418 18.70947266 C41.96211266 20.09978699 41.96211266 20.09978699 42.33119202 21.51818848 C43.12348445 24.56605586 43.91137942 27.61504129 44.69921875 30.6640625 C45.25842782 32.81902824 45.81790661 34.97392399 46.37763977 37.12875366 C47.85194819 42.80753612 49.32250602 48.48728334 50.79229736 54.16723633 C52.25959651 59.83475056 53.73054978 65.50131604 55.20117188 71.16796875 C57.71996136 80.8749727 60.23338459 90.58335499 62.74432182 100.29239273 C64.15690133 105.75164935 65.57466395 111.20949962 67.00070858 116.66525459 C67.77229823 119.61767806 68.54145374 122.57073255 69.31028175 125.52387619 C69.81545508 127.4599107 70.32437425 129.39496659 70.8334198 131.32998657 C71.2712957 133.01395035 71.2712957 133.01395035 71.71801758 134.73193359 C71.96844315 135.68796478 72.21886871 136.64399597 72.47688293 137.6289978 C73 140 73 140 73 143 C64.09 143 55.18 143 46 143 C44.74543927 139.23631782 43.62141304 135.71388505 42.7109375 131.890625 C42.49179688 130.97152344 42.27265625 130.05242187 42.046875 129.10546875 C41.82515625 128.16316406 41.6034375 127.22085938 41.375 126.25 C41.14554688 125.29222656 40.91609375 124.33445312 40.6796875 123.34765625 C39 116.25897507 39 116.25897507 39 114 C25.14 114 11.28 114 -3 114 C-3.33 116.64 -3.66 119.28 -4 122 C-4.36314862 123.79886327 -4.75681198 125.59204913 -5.19140625 127.375 C-5.39193604 128.20773437 -5.59246582 129.04046875 -5.79907227 129.8984375 C-6.05100342 130.92195312 -6.30293457 131.94546875 -6.5625 133 C-7.366875 136.3 -8.17125 139.6 -9 143 C-17.91 143 -26.82 143 -36 143 C-33.7499532 130.62474258 -33.7499532 130.62474258 -32.64749146 126.29167175 C-32.39809814 125.30391251 -32.14870483 124.31615326 -31.89175415 123.29846191 C-31.62470673 122.25661743 -31.3576593 121.21477295 -31.08251953 120.14135742 C-30.79604553 119.0113179 -30.50957153 117.88127838 -30.2144165 116.71699524 C-29.27420289 113.01221332 -28.32863253 109.30882297 -27.3828125 105.60546875 C-26.72237833 103.00920766 -26.06219955 100.41288281 -25.40231323 97.81648254 C-24.02126349 92.38505557 -22.63730869 86.95437553 -21.25146484 81.52416992 C-19.65866405 75.28293761 -18.06991145 69.04068619 -16.4834739 62.79783362 C-14.94667537 56.75052522 -13.40749647 50.70382531 -11.86709213 44.65743446 C-11.21676509 42.10412899 -10.56694738 39.55069374 -9.91766739 36.99712181 C-9.0059283 33.41316097 -8.09146363 29.8299061 -7.17626953 26.24682617 C-6.91327057 25.21105438 -6.65027161 24.17528259 -6.37930298 23.10812378 C-4.39444831 15.35481461 -2.20122027 7.70427096 0 0 Z M18 27 C16.50466786 30.52033308 15.44236739 33.95233064 14.57958984 37.67651367 C14.31947113 38.79084274 14.05935242 39.90517181 13.79135132 41.05326843 C13.38029648 42.84254509 13.38029648 42.84254509 12.9609375 44.66796875 C12.67521881 45.89912918 12.38950012 47.13028961 12.09512329 48.39875793 C11.49315613 50.99645972 10.89271605 53.59445584 10.29492188 56.19311523 C9.52800005 59.52651497 8.75559312 62.85861352 7.98134422 66.19031811 C7.24297385 69.36981338 6.50827179 72.55015466 5.7734375 75.73046875 C5.35630997 77.52885445 5.35630997 77.52885445 4.93075562 79.36357117 C4.67694122 80.46844376 4.42312683 81.57331635 4.16162109 82.71166992 C3.9367099 83.68698166 3.71179871 84.6622934 3.48007202 85.66716003 C2.9328117 87.92953764 2.9328117 87.92953764 3 90 C12.9 90 22.8 90 33 90 C32.38905814 85.11246508 31.81627275 80.75368765 30.69311523 76.04296875 C30.43292099 74.94243164 30.17272675 73.84189453 29.90464783 72.70800781 C29.48585106 70.96535645 29.48585106 70.96535645 29.05859375 69.1875 C28.77146011 67.97803711 28.48432648 66.76857422 28.18849182 65.52246094 C27.43037755 62.33249572 26.66861672 59.14343152 25.9050293 55.95477295 C25.12433607 52.69063953 24.34851592 49.42534854 23.57226562 46.16015625 C22.05263145 39.77236955 20.52817833 33.38574771 19 27 C18.67 27 18.34 27 18 27 Z " fill="#212121" transform="translate(1016,169)"/>
<path d="M0 0 C14.004375 -0.020625 28.00875 -0.04125 42.4375 -0.0625 C49.08024048 -0.07615601 49.08024048 -0.07615601 55.85717773 -0.09008789 C61.24816895 -0.09460449 61.24816895 -0.09460449 63.76869202 -0.09544373 C65.53615063 -0.09698337 67.30360816 -0.10050871 69.07106018 -0.10557556 C71.74197221 -0.11285229 74.41281984 -0.11390744 77.08374023 -0.11352539 C77.87645293 -0.1171235 78.66916563 -0.12072161 79.48589993 -0.12442875 C84.88597366 -0.11402634 84.88597366 -0.11402634 86 1 C86 8.59 86 16.18 86 24 C66.86 24 47.72 24 28 24 C28 35.55 28 47.1 28 59 C43.18 59 58.36 59 74 59 C74 66.92 74 74.84 74 83 C58.82 83 43.64 83 28 83 C28 94.88 28 106.76 28 119 C47.14 119 66.28 119 86 119 C86 126.92 86 134.84 86 143 C57.62 143 29.24 143 0 143 C0 95.81 0 48.62 0 0 Z " fill="#212121" transform="translate(532,169)"/>
<path d="M0 0 C28.05 0 56.1 0 85 0 C85 7.92 85 15.84 85 24 C66.19 24 47.38 24 28 24 C28 35.55 28 47.1 28 59 C43.18 59 58.36 59 74 59 C74 66.92 74 74.84 74 83 C58.82 83 43.64 83 28 83 C28 94.88 28 106.76 28 119 C46.81 119 65.62 119 85 119 C85 126.92 85 134.84 85 143 C56.95 143 28.9 143 0 143 C0 95.81 0 48.62 0 0 Z " fill="#212121" transform="translate(1190,169)"/>
<path d="M0 0 C1.91601445 0.00502721 3.83203018 0.00958794 5.74804688 0.01367188 C10.3945897 0.02371628 15.04095043 0.04330819 19.6875 0.0625 C19.6875 7.9825 19.6875 15.9025 19.6875 24.0625 C15.62115234 24.13597656 15.62115234 24.13597656 11.47265625 24.2109375 C8.8214813 24.2650836 6.1703902 24.3223373 3.51928711 24.37988281 C1.6892736 24.41795768 -0.14080927 24.45284638 -1.97094727 24.484375 C-4.61499685 24.53049633 -7.25857758 24.58840831 -9.90234375 24.6484375 C-10.70896957 24.65998871 -11.5155954 24.67153992 -12.34666443 24.68344116 C-20.92992328 24.90205446 -28.92267846 25.864199 -35.3125 32.0625 C-46.44451889 47.41700881 -42.16899253 80.95701739 -39.41113281 98.77978516 C-38.29389276 105.49417881 -37.04258701 109.23327943 -32.3125 114.0625 C-25.2518268 117.71892005 -18.85109753 118.22584514 -11.07421875 118.37890625 C-10.19345169 118.39968735 -9.31268463 118.42046844 -8.40522766 118.44187927 C-5.60356121 118.50703937 -2.80180443 118.56610321 0 118.625 C1.90430606 118.66821715 3.80860312 118.71183244 5.71289062 118.75585938 C10.37100268 118.86343233 15.02918747 118.96275481 19.6875 119.0625 C19.6875 126.9825 19.6875 134.9025 19.6875 143.0625 C13.53496193 143.10875968 7.38304306 143.14847906 1.23046875 143.17236328 C-0.85646627 143.18233476 -2.94338765 143.19591681 -5.03027344 143.21337891 C-41.78854216 143.51294294 -41.78854216 143.51294294 -55.5703125 132.2109375 C-67.83206042 119.31221566 -69.45676662 99.61287378 -69.48046875 82.6796875 C-69.48379715 81.82174591 -69.48712555 80.96380432 -69.49055481 80.0798645 C-69.49557872 78.27655567 -69.49796455 76.4732377 -69.49780273 74.66992188 C-69.49997814 71.96468091 -69.51815251 69.25985608 -69.53710938 66.5546875 C-69.6013024 47.24087408 -69.10526365 26.16487959 -55.3125 11.0625 C-40.25899269 -2.33773194 -18.72317173 -0.08607235 0 0 Z " fill="#212121" transform="translate(497.3125,168.9375)"/>
<path d="M0 0 C7.92 0 15.84 0 24 0 C24.88558594 1.95292969 25.77117188 3.90585937 26.68359375 5.91796875 C33.56600442 21.08672791 40.47680376 36.24199406 47.4375 51.375 C52.90688224 63.26716039 58.37190569 75.16126514 63.81765747 87.06427002 C64.51435025 88.5868314 65.21134408 90.10925508 65.90866089 91.63153076 C66.87484351 93.74094965 67.83991943 95.85087135 68.8046875 97.9609375 C69.62428955 99.75217041 69.62428955 99.75217041 70.46044922 101.57958984 C72.01553099 105.03450511 73.50753346 108.51757808 75 112 C75.33 75.04 75.66 38.08 76 0 C80.95 0 85.9 0 91 0 C91 43.23 91 86.46 91 131 C83.41 131 75.82 131 68 131 C59.17533993 112.29799198 50.38486944 93.5827329 41.74609375 74.79394531 C38.44780774 67.62398936 35.13666621 60.45995005 31.82855225 53.29452515 C29.91923556 49.15873742 28.0104127 45.0227218 26.1015625 40.88671875 C25.44873304 39.47224816 24.79590103 38.05777875 24.14306641 36.64331055 C21.42871094 30.76220703 18.71435547 24.88110352 16 19 C15.67 55.96 15.34 92.92 15 131 C10.05 131 5.1 131 0 131 C0 87.77 0 44.54 0 0 Z " fill="#212121" transform="translate(658,345)"/>
<path d="M0 0 C7.92 0 15.84 0 24 0 C33.53300606 20.13080255 42.92479688 40.31617027 52.10394287 60.61070251 C56.27997968 69.83784873 60.50138628 79.04432396 64.71923828 88.25241089 C65.69211339 90.37643277 66.66443122 92.50070911 67.63671875 94.625 C67.91839401 95.2392836 68.20006927 95.8535672 68.49028015 96.48646545 C70.69716507 101.30898724 72.84562182 106.1526491 75 111 C75.33 74.37 75.66 37.74 76 0 C80.95 0 85.9 0 91 0 C91 43.23 91 86.46 91 131 C83.74 131 76.48 131 69 131 C63.66989586 120.41652634 58.46915535 109.79055236 53.4375 99.0625 C52.92851166 97.97974792 52.92851166 97.97974792 52.40924072 96.87512207 C46.75541484 84.84407415 41.20942368 72.76600759 35.75170898 60.64477539 C29.30676093 46.36160676 22.62912809 32.20527447 16 18 C15.67 55.29 15.34 92.58 15 131 C10.05 131 5.1 131 0 131 C0 87.77 0 44.54 0 0 Z " fill="#212121" transform="translate(433,345)"/>
<path d="M0 0 C31.68 0 63.36 0 96 0 C96 7.92 96 15.84 96 24 C84.78 24 73.56 24 62 24 C62 63.27 62 102.54 62 143 C53.09 143 44.18 143 35 143 C35 103.73 35 64.46 35 24 C23.45 24 11.9 24 0 24 C0 16.08 0 8.16 0 0 Z " fill="#212121" transform="translate(760,169)"/>
<path d="M0 0 C8.91 0 17.82 0 27 0 C27 39.27 27 78.54 27 119 C42.84 119 58.68 119 75 119 C75 126.92 75 134.84 75 143 C50.25 143 25.5 143 0 143 C0 95.81 0 48.62 0 0 Z " fill="#212121" transform="translate(1103,169)"/>
<path d="M0 0 C5.94 0 11.88 0 18 0 C27.57606673 27.98853159 37.041486 56.01111333 46.35083008 84.08959961 C47.10869159 86.37229787 47.86674468 88.65493253 48.625 90.9375 C48.98845016 92.03328873 49.35190033 93.12907745 49.72636414 94.2580719 C51.55224201 99.74081738 53.41380066 105.20781822 55.33984375 110.65625 C55.71351074 111.71465088 56.08717773 112.77305176 56.47216797 113.86352539 C57.180169 115.85959368 57.89372138 117.8537048 58.61376953 119.84545898 C58.92813965 120.73048096 59.24250977 121.61550293 59.56640625 122.52734375 C59.84427979 123.29812256 60.12215332 124.06890137 60.40844727 124.86303711 C61 127 61 127 61 131 C56.38 131 51.76 131 47 131 C44.21244401 124.45996479 41.90444059 117.83204641 39.75 111.0625 C39.34467041 109.80119263 39.34467041 109.80119263 38.93115234 108.5144043 C38.55531006 107.31811401 38.55531006 107.31811401 38.171875 106.09765625 C37.9459668 105.38101807 37.72005859 104.66437988 37.48730469 103.92602539 C37 102 37 102 37 99 C18.52 99 0.04 99 -19 99 C-19.66 101.97 -20.32 104.94 -21 108 C-21.53446684 109.89394139 -22.0943697 111.78109237 -22.69140625 113.65625 C-22.99626953 114.6153125 -23.30113281 115.574375 -23.61523438 116.5625 C-23.92783203 117.531875 -24.24042969 118.50125 -24.5625 119.5 C-24.87896484 120.5003125 -25.19542969 121.500625 -25.52148438 122.53125 C-27.86953671 129.86953671 -27.86953671 129.86953671 -29 131 C-31.35313555 131.07271741 -33.70833668 131.08370868 -36.0625 131.0625 C-37.35285156 131.05347656 -38.64320313 131.04445313 -39.97265625 131.03515625 C-41.47119141 131.01775391 -41.47119141 131.01775391 -43 131 C-42.38786962 124.13067416 -40.11340961 117.93202892 -37.87109375 111.44140625 C-37.2246342 109.54473223 -36.57817698 107.64805742 -35.93181705 105.75134945 C-35.24419755 103.73732715 -34.55358658 101.72435402 -33.86206055 99.71166992 C-32.42738821 95.53574646 -31.00076391 91.35710599 -29.57617188 87.17773438 C-29.33824228 86.47972403 -29.10031269 85.78171368 -28.85517311 85.0625515 C-28.37306444 83.64809113 -27.89099165 82.23361854 -27.40895462 80.81913376 C-26.68158634 78.68551783 -25.95344408 76.55216722 -25.22518921 74.41885376 C-20.41317594 60.31564367 -15.70204633 46.17927605 -11.01754761 32.03323364 C-7.46577149 21.30832281 -3.85168046 10.62130066 0 0 Z M8 16 C5.42350446 23.81414334 2.85011266 31.62929918 0.28059578 39.44573975 C-0.91283326 43.07581442 -2.10729851 46.70554103 -3.30419922 50.33447266 C-4.46083524 53.84145593 -5.61466125 57.34935254 -6.76660538 60.85787964 C-7.20494293 62.19131869 -7.64426474 63.52443464 -8.08462143 64.85720825 C-8.70474926 66.7346567 -9.3209443 68.61340275 -9.93701172 70.4921875 C-10.28786835 71.55808105 -10.63872498 72.62397461 -11.00021362 73.72216797 C-12.13509957 77.44292832 -13.0565388 81.22615518 -14 85 C1.18 85 16.36 85 32 85 C29.03845204 74.93073692 26.07596533 64.92342118 22.79296875 54.96484375 C22.23758171 53.26963341 22.23758171 53.26963341 21.67097473 51.54017639 C20.51222553 48.00515509 19.34994036 44.471309 18.1875 40.9375 C17.39103918 38.50984332 16.59481351 36.08210948 15.79882812 33.65429688 C13.86859204 27.76864007 11.93546848 21.8839381 10 16 C9.34 16 8.68 16 8 16 Z " fill="#212121" transform="translate(582,345)"/>
<path d="M0 0 C25.41 0 50.82 0 77 0 C77 4.29 77 8.58 77 13 C56.54 13 36.08 13 15 13 C15 27.85 15 42.7 15 58 C31.83 58 48.66 58 66 58 C66 62.29 66 66.58 66 71 C49.17 71 32.34 71 15 71 C15 86.18 15 101.36 15 117 C35.46 117 55.92 117 77 117 C77 121.62 77 126.24 77 131 C51.59 131 26.18 131 0 131 C0 87.77 0 44.54 0 0 Z " fill="#212121" transform="translate(867,345)"/>
<path d="M0 0 C2.20962631 0.01507226 4.41926255 0.02875617 6.62890625 0.04101562 C12.00285239 0.07382376 17.376315 0.12546658 22.75 0.1875 C22.75 4.4775 22.75 8.7675 22.75 13.1875 C21.50500732 13.1968457 20.26001465 13.20619141 18.97729492 13.21582031 C14.31206852 13.25600711 9.64748186 13.32184299 4.98266602 13.39501953 C2.97233361 13.42306393 0.96189433 13.44435979 -1.04858398 13.45849609 C-18.73230964 13.21658403 -18.73230964 13.21658403 -34.3125 20.625 C-39.08583227 26.93811687 -38.91305816 33.53830733 -38.25 41.1875 C-36.93796267 44.7438993 -36.93796267 44.7438993 -35.25 47.1875 C-35.25 47.8475 -35.25 48.5075 -35.25 49.1875 C-25.3444321 54.25595406 -14.83756853 57.15488172 -4.15039062 60.09960938 C6.52168312 63.14791438 15.40819782 66.69202989 21.75 76.1875 C27.38117565 87.09790281 26.649016 101.02852087 23.0390625 112.43359375 C20.08182621 119.39259474 14.50855996 124.55722462 7.625 127.54296875 C-2.11806754 130.72555095 -11.79106587 131.34900638 -21.9765625 131.28515625 C-22.85025482 131.2837413 -23.72394714 131.28232635 -24.62411499 131.28086853 C-27.37444703 131.27533674 -30.12469318 131.26279774 -32.875 131.25 C-34.75650923 131.24497616 -36.63801975 131.24041481 -38.51953125 131.23632812 C-43.09638652 131.22538979 -47.67317877 131.20817362 -52.25 131.1875 C-52.25 126.5675 -52.25 121.9475 -52.25 117.1875 C-50.92871094 117.17291748 -49.60742188 117.15833496 -48.24609375 117.14331055 C-43.31825441 117.08509812 -38.39086106 117.00786683 -33.46337891 116.92504883 C-31.33552316 116.89190718 -29.20758177 116.86384213 -27.07958984 116.84106445 C-24.01102392 116.80732028 -20.94323518 116.75499432 -17.875 116.69921875 C-16.46045532 116.68963387 -16.46045532 116.68963387 -15.01733398 116.67985535 C-6.22880581 116.48663552 0.36674162 114.41877604 6.75 108.1875 C10.64296539 101.55856942 9.95271628 94.59391728 8.3203125 87.3515625 C7.86181508 85.61178461 7.31895052 83.89435157 6.75 82.1875 C4.88810832 81.06364677 4.88810832 81.06364677 2.75 80.1875 C1.63367188 79.56746094 0.51734375 78.94742188 -0.6328125 78.30859375 C-7.59360609 74.82819696 -15.32156488 73.25631714 -22.80859375 71.27539062 C-33.98933162 68.21787493 -43.49017098 65.07304382 -50.25 55.1875 C-55.63019784 45.55873265 -55.81324823 32.33956316 -53.49609375 21.73828125 C-50.63336046 13.50932634 -46.75604424 9.23413762 -39.46875 4.6171875 C-26.70764229 -1.05097442 -13.69379703 -0.16285069 0 0 Z " fill="#212121" transform="translate(1013.25,344.8125)"/>
<path d="M0 0 C29.7 0 59.4 0 90 0 C90 4.29 90 8.58 90 13 C77.79 13 65.58 13 53 13 C53.00523682 16.53904053 53.01047363 20.07808105 53.01586914 23.72436523 C53.03240207 35.38720847 53.04352086 47.05005335 53.05181217 58.71290493 C53.056975 65.78753187 53.06401744 72.86214774 53.07543945 79.93676758 C53.08644681 86.75778878 53.09227618 93.57879844 53.09487724 100.39982796 C53.09673205 103.00866948 53.1003537 105.61751033 53.10573006 108.22634697 C53.11293643 111.86632552 53.11399111 115.50625575 53.11352539 119.14624023 C53.11712067 120.23668137 53.12071594 121.3271225 53.12442017 122.4506073 C53.1230455 123.43643799 53.12167084 124.42226868 53.12025452 125.43797302 C53.12117631 126.29984946 53.1220981 127.1617259 53.12304783 128.04971981 C53 130 53 130 52 131 C47.38 131 42.76 131 38 131 C38 92.06 38 53.12 38 13 C25.46 13 12.92 13 0 13 C0 8.71 0 4.42 0 0 Z " fill="#212121" transform="translate(763,345)"/>
</svg>
