<?xml version="1.0" encoding="UTF-8"?>
<svg version="1.1" xmlns="http://www.w3.org/2000/svg" width="1383" height="720">
<path d="M0 0 C0.33 -6.6 0.66 -13.2 1 -20 C1.99 -20 2.98 -20 4 -20 C4 110.35 4 240.7 4 375 C3.01 375 2.02 375 1 375 C0.67 355.86 0.34 336.72 0 317 C-3.63 320.96 -7.26 324.92 -11 329 C-39.38394687 356.45838339 -76.6101575 376.78611739 -117.0390625 376.1484375 C-160.10303771 373.98955748 -196.33460868 353.68338437 -227.66796875 325.11328125 C-229.75034736 323.22623463 -231.86503064 321.38941767 -234 319.5625 C-241.59023773 312.93829253 -248.47065366 305.65690414 -255 298 C-255.84820312 297.0409375 -256.69640625 296.081875 -257.5703125 295.09375 C-286.96627248 261.70066256 -316.26954385 222.64509865 -314 176 C-311.74955801 146.51920992 -300.40315715 119.34418688 -281 97 C-280.30390625 96.19433594 -279.6078125 95.38867188 -278.890625 94.55859375 C-263.78492652 77.44415877 -244.57807974 59.42316143 -224 49 C-223.34 49.33 -222.68 49.66 -222 50 C-222.85271484 50.90878906 -222.85271484 50.90878906 -223.72265625 51.8359375 C-239.28539754 68.7237202 -249.92414917 88.70359264 -256.3125 110.6875 C-256.55500488 111.51773682 -256.79750977 112.34797363 -257.04736328 113.20336914 C-260.34296565 125.108296 -261.36540599 136.7994388 -261.3125 149.125 C-261.30976578 150.14030289 -261.30976578 150.14030289 -261.30697632 151.17611694 C-261.25645609 162.36313803 -260.52365245 173.09090455 -258 184 C-257.75854248 185.08498779 -257.75854248 185.08498779 -257.51220703 186.19189453 C-247.9099823 228.09670426 -220.33432983 265.41157322 -184.04150391 288.23144531 C-179.45436186 290.99996214 -174.75982632 293.54243785 -170 296 C-169.32211426 296.35191406 -168.64422852 296.70382812 -167.94580078 297.06640625 C-129.48889575 316.76273748 -85.47418516 320.45433153 -44.234375 307.7265625 C-30.62020665 303.33211575 -17.81824681 297.70739034 -5.30859375 290.78515625 C-2 289 -2 289 1 288 C0.67 285.69 0.34 283.38 0 281 C-0.50112305 281.29132813 -1.00224609 281.58265625 -1.51855469 281.8828125 C-40.74765067 304.51293046 -84.89025334 315.83236253 -130 306 C-130.74185547 305.83902832 -131.48371094 305.67805664 -132.24804688 305.51220703 C-156.47159728 300.00637385 -179.43337409 288.51358554 -198 272 C-198.825 271.29488281 -199.65 270.58976562 -200.5 269.86328125 C-205.27695495 265.70583765 -209.74134486 261.3107698 -214.0625 256.6875 C-214.54009766 256.18371826 -215.01769531 255.67993652 -215.50976562 255.16088867 C-217.96367745 252.47994523 -219.29277322 250.54369276 -220 247 C-219.51345947 247.25168945 -219.02691895 247.50337891 -218.52563477 247.76269531 C-198.59077193 257.95313006 -175.60671135 265.09897947 -153 260 C-148.34615861 257.45704962 -146.06704682 253.61725626 -143.74487305 248.97949219 C-140.88909755 243.57606559 -137.36840448 238.79368328 -133.69140625 233.92578125 C-133.04594849 233.06102173 -132.40049072 232.19626221 -131.73547363 231.30529785 C-130.16240109 229.19937519 -128.58389804 227.09778523 -127 225 C-127.59975647 224.99413376 -128.19951294 224.98826752 -128.81744385 224.98222351 C-135.11296744 224.91782175 -141.40800171 224.83328716 -147.703125 224.73754883 C-150.04615794 224.70448703 -152.38926694 224.67639806 -154.73242188 224.65356445 C-158.11881646 224.61967166 -161.50452562 224.56734035 -164.890625 224.51171875 C-166.43825531 224.50213387 -166.43825531 224.50213387 -168.01715088 224.49235535 C-182.44324449 224.20684042 -194.86551052 220.24582493 -205.375 210.125 C-213.96138716 200.98158456 -219.00944316 190.78830947 -219.5 178 C-218.90977587 163.56806805 -212.27141828 152.51754512 -202.03125 142.75 C-193.29546186 135.22378253 -182.94811439 131.8589758 -171.45361328 131.88647461 C-170.39296661 131.88655014 -169.33231995 131.88662567 -168.23953247 131.88670349 C-166.54701859 131.89444542 -166.54701859 131.89444542 -164.8203125 131.90234375 C-163.06846146 131.90446617 -163.06846146 131.90446617 -161.28121948 131.90663147 C-157.56245326 131.91221502 -153.84374793 131.92476456 -150.125 131.9375 C-147.5989592 131.94251712 -145.07291746 131.94707966 -142.546875 131.95117188 C-136.36454118 131.96132683 -130.1823385 131.98090561 -124 132 C-127.96 120.12 -131.92 108.24 -136 96 C-142.8468069 95.9075103 -149.69139313 95.82807055 -156.53833008 95.78027344 C-158.86099648 95.76032119 -161.18361373 95.73314951 -163.50610352 95.69824219 C-176.61672098 95.50631065 -188.57297121 95.46178784 -201 100 C-202.63533691 100.58309937 -202.63533691 100.58309937 -204.30371094 101.17797852 C-226.31655646 109.36104698 -240.57370729 126.30254997 -250.14746094 147.03320312 C-251.56698092 150.30801785 -252.78458417 153.64455752 -254 157 C-254.33 157 -254.66 157 -255 157 C-256.16143524 121.10718402 -247.58064984 89.97094934 -225.20458984 61.53759766 C-224.19206004 60.24515488 -223.21125975 58.92794286 -222.23828125 57.60546875 C-207.17087133 38.36320974 -177.51470185 32.27117272 -154.5708313 29.27658081 C-147.09183011 28.4719585 -139.57475884 28.55330322 -132.0625 28.625 C-131.18814301 28.62965271 -130.31378601 28.63430542 -129.41293335 28.63909912 C-116.75709218 28.71796431 -104.35301926 28.9888501 -92 32 C-91.16629883 32.19867676 -90.33259766 32.39735352 -89.47363281 32.60205078 C-54.3490223 41.23130272 -25.09992689 59.20285291 0 85 C0.31114957 81.47533853 0.36233153 79.56273218 -1.58203125 76.54296875 C-7.33782264 70.46461112 -13.39786913 65.13890827 -20 60 C-21.46373047 58.79537109 -21.46373047 58.79537109 -22.95703125 57.56640625 C-59.04582344 28.46839897 -106.70600488 18.73542034 -152.05078125 23.27734375 C-177.06867899 26.12931189 -198.84403868 34.53297192 -220 48 C-220 44.48160571 -219.60591368 44.21548519 -217.24609375 41.8125 C-216.64692139 41.20180664 -216.04774902 40.59111328 -215.43041992 39.96191406 C-214.77275635 39.31448242 -214.11509277 38.66705078 -213.4375 38 C-212.75856689 37.32936523 -212.07963379 36.65873047 -211.38012695 35.96777344 C-157.50994293 -16.15463068 -67.14967433 -40.2898046 0 0 Z M-108 95 C-106.76724632 101.1637684 -105.66695254 106.49918738 -103.72509766 112.33886719 C-103.50689865 113.00058929 -103.28869965 113.6623114 -103.06388855 114.34408569 C-102.35265303 116.49683833 -101.6333325 118.64679508 -100.9140625 120.796875 C-100.41024355 122.31826444 -99.90703043 123.83985462 -99.40438843 125.3616333 C-98.08586349 129.34940005 -96.7608525 133.33497736 -95.43389893 137.31994629 C-93.31661981 143.68057036 -91.2075344 150.0439033 -89.10181808 156.40836334 C-88.37348204 158.60574402 -87.64128496 160.80180801 -86.90859985 162.9977417 C-76.37814327 194.67317653 -76.37814327 194.67317653 -82 207 C-84.60965364 211.15962975 -87.49640399 215.06239157 -90.46533203 218.97070312 C-92.67326629 221.89026239 -94.83177521 224.84540496 -96.99609375 227.79736328 C-100.64200068 232.76582497 -104.31054441 237.71762853 -107.97705078 242.67089844 C-109.29225497 244.44788829 -110.60688476 246.22530345 -111.92089844 248.00317383 C-113.1610629 249.68110931 -114.40255319 251.35806586 -115.64550781 253.03393555 C-116.20206055 253.78715088 -116.75861328 254.54036621 -117.33203125 255.31640625 C-117.82421143 255.98099854 -118.3163916 256.64559082 -118.82348633 257.33032227 C-120.06242083 259.00015955 -120.06242083 259.00015955 -121 261 C-114.67089829 261.40912219 -108.34523761 261.68715252 -102.00585938 261.87890625 C-99.85547617 261.95888451 -97.70595011 262.06772906 -95.55859375 262.20703125 C-83.72822994 263.31936072 -83.72822994 263.31936072 -72.90594482 259.52798462 C-69.20709583 255.81485841 -66.58877565 251.53224455 -64.08935547 246.95269775 C-62.68961678 244.44363008 -61.02019312 242.2143674 -59.2578125 239.94921875 C-58.21282456 238.52917326 -57.16854365 237.10860718 -56.125 235.6875 C-54.94012359 234.07680863 -53.75522717 232.46613198 -52.5703125 230.85546875 C-51.98024414 230.05286621 -51.39017578 229.25026367 -50.78222656 228.42333984 C-47.85769254 224.44677482 -44.92864567 220.47353729 -42 216.5 C-40.83331112 214.91668304 -39.66664447 213.33334969 -38.5 211.75 C-31.5 202.25 -31.5 202.25 -29.74853516 199.87304688 C-28.58670685 198.29625671 -27.4249227 196.71943401 -26.26318359 195.14257812 C-23.27285893 191.08386073 -20.2816727 187.02578257 -17.2890625 182.96875 C-16.67546875 182.13666016 -16.061875 181.30457031 -15.4296875 180.44726562 C-14.27633378 178.88324808 -13.12271425 177.3194265 -11.96875 175.75585938 C-10.91516878 174.32690804 -9.870033 172.89167883 -8.83474731 171.44941711 C-7 169 -7 169 -4.95016479 166.65507507 C1.3565258 159.06870994 2.09380827 153.2526222 1.78125 143.58203125 C1.76628818 142.23015224 1.75491983 140.87822919 1.74694824 139.52629089 C1.71671944 136.00539719 1.6384311 132.48723684 1.54931641 128.96740723 C1.46677714 125.36080896 1.43079361 121.75375929 1.390625 118.14648438 C1.30539136 111.09655277 1.16925853 104.04845685 1 97 C-1.89076533 99.81647921 -4.58112932 102.56478148 -6.91015625 105.86328125 C-7.67283813 106.93340454 -7.67283813 106.93340454 -8.45092773 108.02514648 C-8.98274658 108.77997314 -9.51456543 109.5347998 -10.0625 110.3125 C-11.22014073 111.93576189 -12.3790197 113.55814135 -13.5390625 115.1796875 C-14.40966309 116.39736816 -14.40966309 116.39736816 -15.29785156 117.63964844 C-17.79845279 121.1072062 -20.36161957 124.52567183 -22.9375 127.9375 C-29.21466227 136.26023147 -35.39401197 144.65379893 -41.56469727 153.05566406 C-42.57951548 154.43038974 -43.62203207 155.78487005 -44.68334961 157.12402344 C-46.19149236 158.89085504 -46.19149236 158.89085504 -46 161 C-48 160 -48 160 -48.99305725 157.5461731 C-49.34089767 156.45601898 -49.6887381 155.36586487 -50.04711914 154.24267578 C-50.44415543 153.01114777 -50.84119171 151.77961975 -51.2502594 150.51077271 C-51.67871305 149.15566821 -52.10700814 147.80051357 -52.53515625 146.4453125 C-52.97764029 145.06365957 -53.42080006 143.68222287 -53.86460876 142.30099487 C-55.03320448 138.65789766 -56.19267809 135.01195922 -57.35028076 131.36535645 C-58.52828616 127.65982331 -59.71462608 123.95696222 -60.90039062 120.25390625 C-62.98503722 113.74068932 -65.06219037 107.22513104 -67.13392639 100.70779419 C-67.74372668 98.80124298 -68.36700759 96.89897723 -69 95 C-81.87 95 -94.74 95 -108 95 Z " fill="#000000" transform="translate(413,181)"/>
<path d="M0 0 C13.7671875 -0.0928125 13.7671875 -0.0928125 27.8125 -0.1875 C32.12598511 -0.22846802 32.12598511 -0.22846802 36.52661133 -0.27026367 C38.83674705 -0.27903544 41.14688744 -0.28667774 43.45703125 -0.29296875 C44.63148804 -0.30831665 45.80594482 -0.32366455 47.01599121 -0.33947754 C58.86625659 -0.3431943 68.59255942 2.41444154 78.625 8.625 C85.4531159 15.4531159 88.86991458 23.54451116 89.0625 33.1015625 C88.72625858 42.07500542 86.44315664 48.79169745 80.75 55.75 C73.98613112 61.28407453 68.61350607 64.3811744 60 66 C68.12562221 77.11694384 76.34326322 88.15340232 84.75585938 99.05541992 C85.71782227 100.30802612 85.71782227 100.30802612 86.69921875 101.5859375 C87.26471436 102.3186084 87.83020996 103.0512793 88.4128418 103.80615234 C90.09282986 106.12831397 91.55949029 108.5234868 93 111 C78.45142857 112.65362637 78.45142857 112.65362637 73.359375 109.21875 C71.46791868 106.87969715 69.81175308 104.49305212 68.23730469 101.93115234 C66.24753613 98.82557435 64.00114554 95.91645331 61.7878418 92.96801758 C60.01669497 90.60563161 58.26740605 88.2290969 56.52734375 85.84375 C55.94581543 85.07264893 55.36428711 84.30154785 54.76513672 83.50708008 C53 81 53 81 51.34814453 77.9987793 C48.61073157 73.36153122 46.80642833 70.49219783 41.46069336 69.03564453 C37.29935335 68.57312513 33.18322499 68.68275548 29 68.8125 C21.575 68.9053125 21.575 68.9053125 14 69 C14 82.86 14 96.72 14 111 C9.38 111 4.76 111 0 111 C0 74.37 0 37.74 0 0 Z M14 13 C14 27.19 14 41.38 14 56 C20.579375 56.061875 27.15875 56.12375 33.9375 56.1875 C35.99605225 56.21481201 38.05460449 56.24212402 40.17553711 56.27026367 C41.83446672 56.27903773 43.49340286 56.28667948 45.15234375 56.29296875 C46.41117371 56.3159906 46.41117371 56.3159906 47.69543457 56.33947754 C56.67507882 56.34339365 63.78976396 54.12515551 70.3359375 47.87890625 C74.67086831 42.98430128 75.5800188 37.81929551 75.33984375 31.48828125 C74.50598741 25.38291928 71.91680379 21.42539611 67.125 17.625 C60.77474404 13.02299264 54.57359284 12.71845811 47.0078125 12.8046875 C46.16855225 12.80670166 45.32929199 12.80871582 44.46459961 12.81079102 C41.35134356 12.8211976 38.23816587 12.84911993 35.125 12.875 C28.15375 12.91625 21.1825 12.9575 14 13 Z " fill="#000000" transform="translate(902,303)"/>
<path d="M0 0 C13 0 13 0 16.2890625 2.5703125 C17.49414062 4.265625 17.49414062 4.265625 18.625 6.125 C19.52229417 7.42006375 20.42076544 8.71431259 21.3203125 10.0078125 C21.76149414 10.67329102 22.20267578 11.33876953 22.65722656 12.02441406 C24.77787023 15.14445926 27.14053417 18.05911971 29.5 21 C30.42186694 22.17085732 31.34243963 23.34273481 32.26171875 24.515625 C34.05478524 26.79782527 35.849118 29.07902056 37.64453125 31.359375 C43.38825396 38.6572815 49.10084038 45.97877243 54.796875 53.31396484 C57.52795316 56.82910253 60.26304944 60.34067096 63.01953125 63.8359375 C63.49326172 64.43664062 63.96699219 65.03734375 64.45507812 65.65625 C65.70435365 67.23806649 66.95559952 68.81832631 68.20703125 70.3984375 C72.20199112 75.54998015 76.08856617 80.7847549 80 86 C80.33 57.62 80.66 29.24 81 0 C85.29 0 89.58 0 94 0 C94 36.63 94 73.26 94 111 C82 111 82 111 78.44140625 107.84375 C77.44293599 106.42233523 76.48473136 104.97202314 75.5625 103.5 C74.47296943 101.92506114 73.38044382 100.35219062 72.28515625 98.78125 C71.74262207 97.97945313 71.20008789 97.17765625 70.64111328 96.3515625 C68.12002317 92.73907515 65.32013539 89.38059858 62.5 86 C58.04909859 80.58534969 53.73306919 75.08640425 49.5 69.5 C44.68436564 63.14501895 39.73104987 56.92442299 34.67944336 50.75585938 C27.53970707 42.02141144 20.76889943 33.02519924 14 24 C13.67 52.71 13.34 81.42 13 111 C8.71 111 4.42 111 0 111 C0 74.37 0 37.74 0 0 Z " fill="#000000" transform="translate(562,303)"/>
<path d="M0 0 C26.73 0 53.46 0 81 0 C81 3.96 81 7.92 81 12 C58.89 12 36.78 12 14 12 C14 24.21 14 36.42 14 49 C33.8 49 53.6 49 74 49 C74 52.96 74 56.92 74 61 C54.2 61 34.4 61 14 61 C14 73.54 14 86.08 14 99 C36.44 99 58.88 99 82 99 C82 102.96 82 106.92 82 111 C54.94 111 27.88 111 0 111 C0 74.37 0 37.74 0 0 Z " fill="#000000" transform="translate(810,303)"/>
<path d="M0 0 C26.4 0 52.8 0 80 0 C80 3.96 80 7.92 80 12 C57.89 12 35.78 12 13 12 C13 24.21 13 36.42 13 49 C32.8 49 52.6 49 73 49 C73 52.96 73 56.92 73 61 C53.2 61 33.4 61 13 61 C13 73.54 13 86.08 13 99 C35.44 99 57.88 99 81 99 C81 102.96 81 106.92 81 111 C54.27 111 27.54 111 0 111 C0 74.37 0 37.74 0 0 Z " fill="#000000" transform="translate(1214,303)"/>
<path d="M0 0 C1.66015625 1.74609375 1.66015625 1.74609375 1.66015625 5.74609375 C0.34765625 7.88671875 0.34765625 7.88671875 -1.33984375 9.99609375 C-1.89671875 10.7025 -2.45359375 11.40890625 -3.02734375 12.13671875 C-3.46046875 12.6678125 -3.89359375 13.19890625 -4.33984375 13.74609375 C-5.28859375 13.18921875 -6.23734375 12.63234375 -7.21484375 12.05859375 C-10.22390839 10.34695982 -13.26248427 8.70682792 -16.33984375 7.12109375 C-17.12359375 6.71632813 -17.90734375 6.3115625 -18.71484375 5.89453125 C-27.60052799 2.0070444 -38.07161927 0.91818849 -47.4609375 3.65625 C-52.55883447 6.01203894 -55.9338913 8.51576233 -58.33984375 13.74609375 C-59.70375324 18.65616793 -59.4739637 22.30075203 -57.4453125 26.8984375 C-51.71560027 36.47495299 -35.51697501 38.19870977 -25.46484375 40.80859375 C-13.9766389 43.84958915 -2.72764909 47.40288679 3.72265625 58.18359375 C7.00282661 65.63231395 6.92820525 74.70223402 4.9609375 82.52734375 C1.36382264 91.39112046 -4.72186106 96.89550574 -13.33984375 100.74609375 C-14.05527344 101.06707031 -14.77070312 101.38804687 -15.5078125 101.71875 C-29.83206385 107.01946264 -47.36517163 104.1662006 -60.98046875 98.1328125 C-67.10553089 94.97938439 -72.35642712 91.49772356 -77.33984375 86.74609375 C-76.74700754 83.35417012 -75.57241186 81.53531805 -73.27734375 78.99609375 C-72.72949219 78.3825 -72.18164062 77.76890625 -71.6171875 77.13671875 C-71.19566406 76.6778125 -70.77414062 76.21890625 -70.33984375 75.74609375 C-67.15411535 77.21867301 -64.47338784 79.04051695 -61.65234375 81.12109375 C-51.19172453 88.49874455 -40.18352061 91.90383364 -27.33984375 90.74609375 C-20.79851474 89.53962385 -15.90250327 87.64260641 -11.33984375 82.74609375 C-8.50678419 77.99386481 -7.84449153 74.24956328 -8.7109375 68.88671875 C-10.18053839 63.88459895 -13.2677214 61.37308819 -17.6328125 58.8203125 C-24.77468799 55.36057197 -32.70853529 53.84643807 -40.3671875 51.921875 C-53.06263926 48.59213791 -64.47300082 44.64375323 -71.42578125 32.9140625 C-74.85983841 25.43159851 -74.49374945 16.0886373 -71.83984375 8.43359375 C-68.16230159 0.51273371 -61.89705803 -4.74146639 -54.01953125 -8.28515625 C-35.95952469 -14.81413821 -15.44638815 -10.8752619 0 0 Z " fill="#000000" transform="translate(1075.33984375,312.25390625)"/>
<path d="M0 0 C4.29 0 8.58 0 13 0 C13.01458252 2.05766602 13.02916504 4.11533203 13.04418945 6.23535156 C13.09479942 13.0766655 13.16143882 19.9177581 13.23571491 26.75885391 C13.28021312 30.90171569 13.31951283 35.04448377 13.34643555 39.1875 C13.37267574 43.19477514 13.41321965 47.20168561 13.46318626 51.2087326 C13.47971634 52.7282834 13.49131604 54.24789707 13.49761391 55.76752472 C13.55711541 68.81956785 14.27731055 81.71085411 23.59765625 91.71484375 C31.13883481 98.74067981 39.8857482 100.17539165 50 100 C58.78206677 98.90357227 65.80349907 96.1083061 71.4921875 89.18359375 C78.41979422 79.03813421 78.46514113 67.87649242 78.51171875 56.0546875 C78.52859333 54.43228827 78.54674724 52.80990189 78.56611633 51.18753052 C78.6133212 46.94950377 78.64332037 42.71152914 78.66955566 38.47332764 C78.69951139 34.13575958 78.74598955 29.79837066 78.79101562 25.4609375 C78.87671243 16.9740322 78.94267583 8.48714441 79 0 C83.62 0 88.24 0 93 0 C93.04546843 8.62431135 93.08203991 17.24852705 93.10362434 25.87292671 C93.11399195 29.87903478 93.1280201 33.88505547 93.15087891 37.89111328 C93.17286126 41.76853144 93.18462118 45.6458664 93.18975449 49.52334213 C93.19340528 50.9910602 93.20053183 52.45877453 93.21146011 53.92645645 C93.33799212 71.65021946 92.38097335 88.49209274 79.44921875 101.80859375 C67.47931932 112.51850377 53.82824729 114.04333907 38.36181641 113.21142578 C27.25596521 112.2172489 17.87312272 107.31187127 10.25 99.3125 C2.9772713 90.4873559 -0.34635943 79.4295045 -0.22705078 68.11523438 C-0.22734283 67.3727948 -0.22763489 66.63035522 -0.22793579 65.86541748 C-0.22655612 63.44140426 -0.21106017 61.0177087 -0.1953125 58.59375 C-0.19157751 56.90124682 -0.18873283 55.20874147 -0.18673706 53.51623535 C-0.17913888 49.0840853 -0.15952358 44.65206849 -0.1373291 40.2199707 C-0.11678806 35.68833213 -0.10771776 31.15667181 -0.09765625 26.625 C-0.07627374 17.74994179 -0.04218438 8.87498202 0 0 Z " fill="#000000" transform="translate(456,303)"/>
<path d="M0 0 C4.95 0 9.9 0 15 0 C23.70248996 20.53503081 32.31466433 41.10359878 40.75 61.75 C41.13508728 62.69234497 41.52017456 63.63468994 41.91693115 64.60559082 C43.02356504 67.31485217 44.12929066 70.02448126 45.234375 72.734375 C45.55671112 73.52469116 45.87904724 74.31500732 46.21115112 75.12927246 C48.49726709 80.74363529 50.75408946 86.36944119 53 92 C56.33759892 85.51509584 59.36704407 78.98018479 62.1171875 72.2265625 C62.49168533 71.31604126 62.86618317 70.40552002 63.25202942 69.46740723 C64.46304747 66.52130557 65.6689862 63.57315323 66.875 60.625 C68.13877559 57.54769459 69.40393384 54.47096001 70.66917419 51.39425659 C71.52357009 49.316407 72.37754249 47.23838322 73.23109436 45.16018677 C77.35006594 35.13459879 81.51281376 25.12749151 85.6875 15.125 C86.33513996 13.57243517 86.98276417 12.01986377 87.63037109 10.46728516 C89.08600574 6.97780971 90.54301885 3.48891451 92 0 C96.95 0 101.9 0 107 0 C105.06579367 6.02268507 102.90247616 11.8167575 100.359375 17.60546875 C99.82633003 18.83248505 99.82633003 18.83248505 99.28251648 20.08428955 C98.51168284 21.85805471 97.7392239 23.63111427 96.96530151 25.40353394 C94.84978896 30.2496689 92.74758618 35.10157388 90.64453125 39.953125 C90.19694962 40.9850145 89.74936798 42.01690399 89.28822327 43.08006287 C83.61444754 56.17491846 78.02637246 69.30625452 72.4375 82.4375 C71.92932739 83.63055756 71.42115479 84.82361511 70.89758301 86.05282593 C69.4505279 89.45027369 68.00434683 92.84809175 66.55859375 96.24609375 C66.1260881 97.26189514 65.69358246 98.27769653 65.24797058 99.32427979 C64.84830582 100.26455017 64.44864105 101.20482056 64.03686523 102.17358398 C63.69002182 102.98907211 63.34317841 103.80456024 62.98582458 104.64476013 C61.9641592 107.08562748 60.98272202 109.54319496 60 112 C55.71 112 51.42 112 47 112 C38.80779721 93.8986657 31.00955823 75.64764894 23.31591797 57.32983398 C19.33512873 47.85900549 15.32760313 38.40216043 11.22265625 28.984375 C10.84638092 28.12024994 10.47010559 27.25612488 10.08242798 26.36581421 C8.30393395 22.28484603 6.51854416 18.20707386 4.72363281 14.13330078 C4.0929434 12.69049768 3.46240065 11.24763045 2.83203125 9.8046875 C2.54240005 9.15377136 2.25276886 8.50285522 1.95436096 7.83221436 C0.73397997 5.02707691 0 3.09811988 0 0 Z " fill="#000000" transform="translate(696,303)"/>
<path d="M0 0 C29.04 0 58.08 0 88 0 C88 4.29 88 8.58 88 13 C75.79 13 63.58 13 51 13 C51 45.34 51 77.68 51 111 C46.38 111 41.76 111 37 111 C37 78.66 37 46.32 37 13 C24.79 13 12.58 13 0 13 C0 8.71 0 4.42 0 0 Z " fill="#000000" transform="translate(1117,303)"/>
<path d="M0 0 C4.62 0 9.24 0 14 0 C14 36.63 14 73.26 14 111 C9.38 111 4.76 111 0 111 C0 74.37 0 37.74 0 0 Z " fill="#212121" transform="translate(1093,303)"/>
<path d="M0 0 C4.29 0 8.58 0 13 0 C13 36.63 13 73.26 13 111 C8.71 111 4.42 111 0 111 C0 74.37 0 37.74 0 0 Z " fill="#212121" transform="translate(670,303)"/>
<path d="M0 0 C5.754375 -0.12375 5.754375 -0.12375 11.625 -0.25 C12.82334473 -0.28641602 14.02168945 -0.32283203 15.25634766 -0.36035156 C21.48173196 -0.42516665 25.34118569 -0.30282518 30 4 C32.69346914 8.04020371 32.55014255 11.25710439 32 16 C30.37599816 19.63467079 29.33886956 20.77408696 26 23 C25.01 23 24.02 23 23 23 C25.89209423 27.38286445 28.79077768 31.74925233 31.875 36 C34 39 34 39 34 40 C30.83984375 40.3984375 30.83984375 40.3984375 27 40 C24.78035365 37.85585182 23.26819119 36.1165181 21.5625 33.625 C20.89444336 32.72007812 20.89444336 32.72007812 20.21289062 31.796875 C17 27.35509073 17 27.35509073 17 25 C13.37 25 9.74 25 6 25 C6 29.95 6 34.9 6 40 C4.02 40 2.04 40 0 40 C0 26.8 0 13.6 0 0 Z M6 5 C6 9.95 6 14.9 6 20 C15.95408381 20.45961467 15.95408381 20.45961467 25 17 C27.30260759 14.18401813 27.30260759 14.18401813 26.875 11 C26.24612385 8.01955342 26.24612385 8.01955342 24.4609375 6.32421875 C20.95211049 4.43613564 17.62405278 4.67902998 13.75 4.8125 C12.63238281 4.83280273 12.63238281 4.83280273 11.4921875 4.85351562 C9.66114584 4.88872796 7.83047831 4.94253149 6 5 Z " fill="#000000" transform="translate(724,235)"/>
<path d="M0 0 C3.691875 -0.061875 7.38375 -0.12375 11.1875 -0.1875 C12.3427417 -0.21481201 13.4979834 -0.24212402 14.68823242 -0.27026367 C15.60967041 -0.27775635 16.5311084 -0.28524902 17.48046875 -0.29296875 C18.41785889 -0.3086792 19.35524902 -0.32438965 20.32104492 -0.34057617 C23.51683982 0.06570596 25.36497901 1.18943517 28 3 C28.5775 3.391875 29.155 3.78375 29.75 4.1875 C31.8203792 7.18954984 32.1144484 10.44536719 32 14 C30.5098254 18.15680284 28.88659227 20.81379185 25 23 C24.01 23 23.02 23 22 23 C22.33322266 23.4439209 22.66644531 23.8878418 23.00976562 24.34521484 C24.51145718 26.35149576 26.00579094 28.36314112 27.5 30.375 C28.02464844 31.07367188 28.54929687 31.77234375 29.08984375 32.4921875 C29.83427734 33.49765625 29.83427734 33.49765625 30.59375 34.5234375 C31.05458984 35.14138184 31.51542969 35.75932617 31.99023438 36.39599609 C33 38 33 38 33 40 C30.296875 40.33203125 30.296875 40.33203125 27 40 C24.515625 37.69921875 24.515625 37.69921875 22.25 34.6875 C21.49203125 33.70136719 20.7340625 32.71523438 19.953125 31.69921875 C18.59778614 29.82614045 17.28246946 27.92370419 16 26 C13.3443272 25.41651248 13.3443272 25.41651248 10.375 25.3125 C8.60125 25.209375 6.8275 25.10625 5 25 C5 29.95 5 34.9 5 40 C3.35 40 1.7 40 0 40 C0 26.8 0 13.6 0 0 Z M5 5 C5 9.95 5 14.9 5 20 C7.041875 20.04125 9.08375 20.0825 11.1875 20.125 C12.33605469 20.14820313 13.48460937 20.17140625 14.66796875 20.1953125 C18.68235891 19.96000241 21.5152147 19.02398986 24.8125 16.75 C26.66343998 14.02229897 26.52370515 12.20769407 26 9 C23.90020229 6.72895665 22.21011295 5.20147932 19.08935547 4.68188477 C16.94177429 4.60693393 14.83391845 4.6502558 12.6875 4.75 C11.94693359 4.76804688 11.20636719 4.78609375 10.44335938 4.8046875 C8.6283429 4.85152663 6.81399834 4.92326211 5 5 Z " fill="#000000" transform="translate(529,235)"/>
<path d="M0 0 C1.5 2.1875 1.5 2.1875 2 4 C0.68 4.99 -0.64 5.98 -2 7 C-2.47308594 6.69964844 -2.94617188 6.39929688 -3.43359375 6.08984375 C-8.15242933 3.37628333 -11.55036771 2.46452397 -16.953125 3.38671875 C-20.70708935 4.51147524 -23.07287352 6.49505174 -25.109375 9.80078125 C-27.24097869 15.06434649 -26.57508403 21.21084967 -24.875 26.5 C-22.47321278 29.70238295 -20.80613179 30.7312894 -17 32 C-11.94238133 32.56195763 -7.5996197 32.37399727 -3 30 C-2.67 27.03 -2.34 24.06 -2 21 C-5.96 21 -9.92 21 -14 21 C-14 19.35 -14 17.7 -14 16 C-8.39 16 -2.78 16 3 16 C3.12375 18.7225 3.2475 21.445 3.375 24.25 C3.42962402 25.10110352 3.48424805 25.95220703 3.54052734 26.82910156 C3.58869607 29.01585796 3.53517011 30.87445567 3 33 C-2.80663592 38.08680502 -8.27480318 38.35602277 -15.69921875 38.2734375 C-21.09299544 37.82661576 -24.86460589 36.30665379 -28.55859375 32.31640625 C-33.32076772 26.04328756 -33.76118946 19.7405463 -33 12 C-30.97932233 5.14124267 -26.83233342 1.23552783 -20.75 -2.3125 C-13.4057826 -4.14855435 -6.73026161 -3.3651308 0 0 Z " fill="#000000" transform="translate(597,237)"/>
<path d="M0 0 C9.57 0 19.14 0 29 0 C29 1.65 29 3.3 29 5 C21.08 5 13.16 5 5 5 C5 8.96 5 12.92 5 17 C12.26 17 19.52 17 27 17 C27 18.65 27 20.3 27 22 C19.74 22 12.48 22 5 22 C5 26.29 5 30.58 5 35 C12.92 35 20.84 35 29 35 C29 36.65 29 38.3 29 40 C19.43 40 9.86 40 0 40 C0 26.8 0 13.6 0 0 Z " fill="#000000" transform="translate(495,235)"/>
<path d="M0 0 C1.65 0 3.3 0 5 0 C9.70653213 9.17642299 14.19832358 18.43895105 18.5 27.8125 C18.94520996 28.7730127 19.39041992 29.73352539 19.84912109 30.72314453 C20.4652124 32.07641846 20.4652124 32.07641846 21.09375 33.45703125 C21.46177734 34.26116455 21.82980469 35.06529785 22.20898438 35.89379883 C23 38 23 38 23 41 C21.02 41 19.04 41 17 41 C16.32880451 39.5437455 15.66318193 38.08492133 15 36.625 C14.62875 35.81289063 14.2575 35.00078125 13.875 34.1640625 C13 32 13 32 13 30 C3.1 30.495 3.1 30.495 -7 31 C-8.65 34.3 -10.3 37.6 -12 41 C-13.65 41 -15.3 41 -17 41 C-16.41365531 35.70468836 -14.63691473 31.51841882 -12.40234375 26.7578125 C-12.04862198 25.98944061 -11.69490021 25.22106873 -11.33045959 24.42941284 C-10.20623967 21.99141319 -9.0720501 19.55820691 -7.9375 17.125 C-7.17055958 15.46645289 -6.40427635 13.80760172 -5.63867188 12.1484375 C-3.7667042 8.09539882 -1.88578523 4.04662702 0 0 Z M2 8 C-0.31 13.61 -2.62 19.22 -5 25 C-0.05 25 4.9 25 10 25 C8.11994266 18.98381653 5.93937169 13.57467045 3 8 C2.67 8 2.34 8 2 8 Z " fill="#000000" transform="translate(698,234)"/>
<path d="M0 0 C-0.33 1.65 -0.66 3.3 -1 5 C-3.6595047 4.54408491 -5.8751879 4.0607194 -8.3125 2.875 C-12.19286899 1.61162405 -14.99773303 2.26625106 -19 3 C-20.35618499 4.12534105 -20.35618499 4.12534105 -20.0625 7.0625 C-20.041875 8.031875 -20.02125 9.00125 -20 10 C-14.89857392 12.26730048 -9.7471375 14.16297067 -4.453125 15.9375 C-1.94817129 17.0224481 -0.64261486 17.83949064 1 20 C2.03345419 24.50290755 2.34823663 26.91432109 0.9375 31.3125 C-1.5229513 34.72538406 -2.97619708 35.70663478 -7 37 C-14.01955457 37.88152546 -21.16748602 37.39473146 -27 33 C-27.7421875 30.859375 -27.7421875 30.859375 -28 29 C-26.4375 27.75 -26.4375 27.75 -24 27 C-22.32160549 27.98729089 -20.64613488 28.98099937 -19.00390625 30.02734375 C-15.53202896 31.71252396 -11.74799223 31.80625414 -8 31 C-6.18815935 29.75607176 -6.18815935 29.75607176 -5 28 C-4.74951364 24.87450983 -4.74951364 24.87450983 -5 22 C-5.71285156 21.81824219 -6.42570313 21.63648438 -7.16015625 21.44921875 C-22.54819943 17.41063407 -22.54819943 17.41063407 -26 13 C-27.53214888 9.93570224 -27.22938548 7.3834358 -27 4 C-25.54852612 0.24324407 -24.33735063 -0.80817317 -20.8125 -2.8125 C-12.56664476 -5.38088114 -7.54415024 -3.77207512 0 0 Z " fill="#000000" transform="translate(800,238)"/>
<path d="M0 0 C3.320625 -0.0825 6.64125 -0.165 10.0625 -0.25 C11.09511963 -0.28641602 12.12773926 -0.32283203 13.19165039 -0.36035156 C19.34717015 -0.43397792 23.05178202 0.24119431 28 4 C30.80674191 7.92323593 30.63653408 12.35894139 30 17 C28.03168935 21.251551 25.82063129 23.86191659 21.34765625 25.54296875 C15.97065827 26.58973874 10.44424063 26.15554973 5 26 C5 30.62 5 35.24 5 40 C3.35 40 1.7 40 0 40 C0 26.8 0 13.6 0 0 Z M5 5 C5 10.28 5 15.56 5 21 C13.66579273 21.78369064 13.66579273 21.78369064 21.75 19.3125 C24.09416961 17.17532005 24.09416961 17.17532005 25.0625 14.5625 C24.98123508 11.23063813 23.99594755 9.63750213 22 7 C18.2632157 4.50881047 16.25548181 4.7934774 11.8125 4.875 C9.564375 4.91625 7.31625 4.9575 5 5 Z " fill="#000000" transform="translate(654,235)"/>
<path d="M0 0 C-0.33 1.32 -0.66 2.64 -1 4 C-2.75 4.6875 -2.75 4.6875 -5 5 C-5.556875 4.54625 -6.11375 4.0925 -6.6875 3.625 C-10.20459629 1.15352693 -13.7550253 0.88187896 -18 1 C-22.69330005 2.59395096 -25.52591886 4.69326617 -28 9 C-29.36194169 14.09629793 -29.59032577 18.55535955 -27.4375 23.4375 C-25.25780711 27.11991631 -23.16230199 28.7192917 -19 30 C-14.14515701 30.539427 -11.40987817 30.50290666 -7.25 27.9375 C-4 26 -4 26 -1.5625 26.25 C-1.046875 26.4975 -0.53125 26.745 0 27 C0 28.32 0 29.64 0 31 C-6.96111771 36.41420266 -13.40778416 36.89375295 -22 36 C-27.72887401 33.91677309 -31.09729534 30.34097657 -34 25 C-36.03150819 18.90547543 -35.82436137 11.66705149 -33.9375 5.5625 C-24.54938339 -6.85404133 -12.98746628 -7.73721395 0 0 Z " fill="#000000" transform="translate(491,239)"/>
<path d="M0 0 C2.31 0 4.62 0 7 0 C8.98 5.61 10.96 11.22 13 17 C14.4025 15.123125 15.805 13.24625 17.25 11.3125 C18.82629061 9.20305227 20.40948456 7.09874306 22 5 C22.680625 4.05125 23.36125 3.1025 24.0625 2.125 C26 0 26 0 29.75 -0.3125 C30.8225 -0.209375 31.895 -0.10625 33 0 C28.90383599 6.46762739 24.3879452 12.59288829 19.74829102 18.67578125 C17.07948935 22.18318465 14.48777727 25.712488 12.0234375 29.3671875 C11.54608154 30.06118652 11.06872559 30.75518555 10.5769043 31.47021484 C9.67110066 32.79350625 8.78346057 34.12947216 7.91723633 35.47900391 C6.66796875 37.28125 6.66796875 37.28125 4 40 C0.17578125 40.40625 0.17578125 40.40625 -3 40 C-1.00603048 36.30746386 0.88429779 33.00415596 3.6875 29.875 C6.09480754 26.88213117 6.62714466 25.7186243 7 22 C6.5146124 19.36330348 6.5146124 19.36330348 5.56640625 16.69921875 C5.24736328 15.72275391 4.92832031 14.74628906 4.59960938 13.74023438 C4.25736328 12.73283203 3.91511719 11.72542969 3.5625 10.6875 C3.05493164 9.14739258 3.05493164 9.14739258 2.53710938 7.57617188 C1.70191917 5.04707478 0.85594472 2.52213301 0 0 Z " fill="#000000" transform="translate(607,235)"/>
<path d="M0 0 C1.65 0 3.3 0 5 0 C5 13.2 5 26.4 5 40 C3.35 40 1.7 40 0 40 C0 26.8 0 13.6 0 0 Z " fill="#212121" transform="translate(762,235)"/>
<path d="M0 0 C-13.94906137 14.25732792 -13.94906137 14.25732792 -21.515625 15.64453125 C-24.41245339 15.62736994 -27.14271578 15.46334339 -30 15 C-29.27683594 14.28457031 -28.55367187 13.56914062 -27.80859375 12.83203125 C-26.02889151 11.03747753 -24.28612285 9.20486855 -22.59765625 7.32421875 C-15.41554739 -0.14561713 -10.18950799 -1.33876747 0 0 Z " fill="#000000" transform="translate(1278,279)"/>
</svg>
