<?xml version="1.0" encoding="UTF-8"?>
<svg version="1.1" xmlns="http://www.w3.org/2000/svg" width="3000" height="2000">
<path d="M0 0 C83.49 0 166.98 0 253 0 C253 394.02 253 788.04 253 1194 C169.51 1194 86.02 1194 0 1194 C0 799.98 0 405.96 0 0 Z " fill="#212121" transform="translate(1165,403)"/>
<path d="M0 0 C83.16 0 166.32 0 252 0 C252 394.02 252 788.04 252 1194 C168.84 1194 85.68 1194 0 1194 C0 799.98 0 405.96 0 0 Z " fill="#212121" transform="translate(346,403)"/>
<path d="M0 0 C83.49 0 166.98 0 253 0 C253 268.29 253 536.58 253 813 C169.51 813 86.02 813 0 813 C0 544.71 0 276.42 0 0 Z " fill="#212121" transform="translate(1992,784)"/>
<path d="M0 0 C83.49 0 166.98 0 253 0 C253 268.29 253 536.58 253 813 C169.51 813 86.02 813 0 813 C0 544.71 0 276.42 0 0 Z " fill="#212121" transform="translate(1575,784)"/>
<path d="M0 0 C83.49 0 166.98 0 253 0 C253 268.29 253 536.58 253 813 C169.51 813 86.02 813 0 813 C0 544.71 0 276.42 0 0 Z " fill="#212121" transform="translate(755,403)"/>
<path d="M0 0 C218.46 0 436.92 0 662 0 C662 78.54 662 157.08 662 238 C443.54 238 225.08 238 0 238 C0 159.46 0 80.92 0 0 Z " fill="#212121" transform="translate(1992,403)"/>
<path d="M0 0 C83.49 0 166.98 0 253 0 C253 78.54 253 157.08 253 238 C169.51 238 86.02 238 0 238 C0 159.46 0 80.92 0 0 Z " fill="#212121" transform="translate(1575,403)"/>
</svg>
