<?xml version="1.0" encoding="UTF-8"?>
<svg version="1.1" xmlns="http://www.w3.org/2000/svg" width="1836" height="700">
<path d="M0 0 C13.53 0 27.06 0 41 0 C41.25523437 6.28998047 41.25523437 6.28998047 41.515625 12.70703125 C42.84620359 44.56003944 44.36222319 76.30988511 48 108 C48.1147467 109.01670776 48.1147467 109.01670776 48.23181152 110.05395508 C58.3495491 199.35662086 93.23274092 278.04165055 146.42724609 349.87402344 C148.14340697 352.19385096 149.84761903 354.5221769 151.55078125 356.8515625 C157.81973121 365.41236855 164.16880163 373.89802372 170.67236328 382.28222656 C173.29611781 385.67699245 175.89593201 389.09012643 178.5 392.5 C186.27653363 402.67390405 194.07950277 412.82634018 201.9375 422.9375 C202.82429443 424.08037476 202.82429443 424.08037476 203.72900391 425.24633789 C206.56238277 428.89208684 209.41027304 432.52355091 212.3046875 436.12109375 C212.81394775 436.75732666 213.32320801 437.39355957 213.84790039 438.04907227 C214.79715183 439.23251143 215.75175777 440.41168338 216.71264648 441.58569336 C218.94567151 444.37601305 220.28445414 446.51328926 221 450 C214.38624722 450.43443823 207.7762024 450.72998943 201.15136719 450.93383789 C198.90387646 451.01885279 196.65731315 451.13453035 194.41308594 451.2824707 C176.2815531 452.44691803 176.2815531 452.44691803 170.81564331 448.37121582 C167.08080604 444.39539617 164.4608017 439.91420714 162.04368591 435.05018616 C160.6151613 432.24403409 158.86386891 429.70300701 157.0625 427.125 C156.43472656 426.17496094 155.80695313 425.22492188 155.16015625 424.24609375 C146.89395639 411.82437208 138.34256836 399.59222095 129.81152344 387.35180664 C125.93651246 381.79048295 122.07987954 376.21748256 118.25 370.625 C111.58361178 360.89909829 104.75822064 351.28545863 97.92578125 341.67578125 C52.99579025 278.40248345 14.44895241 196.7514166 17 117 C16.34 117 15.68 117 15 117 C14.91363281 118.27488281 14.82726562 119.54976563 14.73828125 120.86328125 C9.85879049 185.89447924 -12.89950264 258.03886636 -53.3203125 309.6796875 C-55.15808184 311.97401127 -55.15808184 311.97401127 -56 315 C-55.030625 314.48050781 -54.06125 313.96101563 -53.0625 313.42578125 C-24.19464612 298.2735223 6.39490841 296.6257577 37.60546875 306.09375 C50.23644246 310.64766988 61.94707749 317.09021918 72 326 C73.28003906 327.11761719 73.28003906 327.11761719 74.5859375 328.2578125 C77.08782505 330.47419937 79.55075467 332.72570077 82 335 C82.59296875 335.53882813 83.1859375 336.07765625 83.796875 336.6328125 C101.12976758 353.05779165 113.70501107 375.47695019 127.02294922 395.08886719 C129.76134401 399.12105037 132.50329758 403.15080922 135.24511719 407.18066406 C136.65934744 409.26018558 138.07276574 411.34025953 139.48535156 413.42089844 C142.85647768 418.3855353 146.23353944 423.34579331 149.63287354 428.29115295 C151.22780145 430.61214291 152.81937889 432.93542059 154.41070557 435.25888062 C155.54381287 436.91026547 156.68177954 438.55831266 157.81982422 440.20629883 C158.49932129 441.19911865 159.17881836 442.19193848 159.87890625 443.21484375 C160.4829126 444.09261475 161.08691895 444.97038574 161.70922852 445.87475586 C163 448 163 448 163 450 C157.87772237 450.32320225 152.76144152 450.55796968 147.63134766 450.71411133 C145.89038738 450.77920754 144.1501306 450.86773109 142.41162109 450.98071289 C130.86300415 451.71201499 130.86300415 451.71201499 126 450 C121.95134511 446.11179744 120.14548019 442.19564035 118 437 C116.93763328 435.03021384 115.85788044 433.06955175 114.75 431.125 C114.04230469 429.80435547 114.04230469 429.80435547 113.3203125 428.45703125 C111.60695914 425.26857188 109.81073033 422.13395635 108 419 C107.113125 419.78375 106.22625 420.5675 105.3125 421.375 C64.2289937 456.3082808 17.48393513 464.94923497 -35.28125 460.75 C-85.55760016 456.21187103 -134.43980295 439.61058774 -170.6015625 403.39453125 C-171.9954836 402.00288038 -173.40492426 400.62582949 -174.8515625 399.2890625 C-185.23388179 389.54706246 -192.96436244 377.13666764 -199.95458984 364.83105469 C-200.95637896 363.07640304 -201.98734658 361.3385077 -203.01953125 359.6015625 C-213.22149914 341.97861502 -219.05054488 321.86805407 -223 302 C-223.15162598 301.24734863 -223.30325195 300.49469727 -223.45947266 299.71923828 C-228.15987837 275.78462468 -228.28724632 251.65698881 -228.20278788 227.3689301 C-228.19009006 223.08624642 -228.1890953 218.80355837 -228.18673706 214.52085876 C-228.18057724 206.45029914 -228.16424279 198.37979519 -228.14403808 190.30925983 C-228.12150546 181.10455639 -228.11064248 171.89984996 -228.10064721 162.6951257 C-228.07987013 143.79671829 -228.04439012 124.89836571 -228 106 C-235.26 106 -242.52 106 -250 106 C-250 103.03 -250 100.06 -250 97 C-199.51 97 -149.02 97 -97 97 C-97 99.97 -97 102.94 -97 106 C-103.93 106 -110.86 106 -118 106 C-117.93856131 131.98440159 -117.86148315 157.96870524 -117.76428509 183.95299911 C-117.71952689 196.02090322 -117.68006752 208.08877913 -117.65356445 220.15673828 C-117.63042116 230.6884906 -117.59684491 241.22015216 -117.55129844 251.75183225 C-117.52758387 257.31616335 -117.50871391 262.88040579 -117.50238609 268.44478607 C-117.43965982 317.10580886 -116.54128672 367.75133051 -84 407 C-83.35417969 407.81082031 -82.70835937 408.62164063 -82.04296875 409.45703125 C-66.1520097 428.55963677 -42.14919747 438.02032858 -18 441 C-17.19433594 441.11085938 -16.38867188 441.22171875 -15.55859375 441.3359375 C19.41558567 445.38615546 55.76268932 437.75343593 83.71240234 415.64550781 C91.48891296 409.45100788 91.48891296 409.45100788 98 402 C67.39740632 351.59714179 67.39740632 351.59714179 16.88671875 324.578125 C-13.30319573 318.53197163 -45.12133834 325.18918548 -70.72265625 342.140625 C-79.37821094 348.16537305 -86.72234125 355.41044159 -94 363 C-94.99800908 364.00198697 -95.9975487 365.00245733 -97 366 C-99.34884554 360.24302563 -100.75707724 354.82422278 -101.6875 348.6875 C-101.81705078 347.89021484 -101.94660156 347.09292969 -102.08007812 346.27148438 C-102.57582365 343.15274663 -103 340.16262215 -103 337 C-101.60382776 335.80814565 -100.19939791 334.62478696 -98.7578125 333.48828125 C-95.44913727 330.68693622 -92.79120107 327.30310088 -90 324 C-89.20851563 323.09636719 -88.41703125 322.19273437 -87.6015625 321.26171875 C-23.88699012 248.12120776 -2.9202265 154.06675153 0 0 Z " fill="#212121" transform="translate(372,111)"/>
<path d="M0 0 C8.58 0 17.16 0 26 0 C26.01981934 3.14821289 26.03963867 6.29642578 26.06005859 9.54003906 C26.12714162 19.97353132 26.20477813 30.40692616 26.28752708 40.84030533 C26.33734774 47.16239503 26.38367859 53.48446916 26.421875 59.80664062 C26.45890808 65.91457091 26.50531592 72.02236628 26.55806351 78.13018036 C26.57651206 80.45358652 26.5916547 82.7770215 26.60334396 85.1004715 C26.62037065 88.36952864 26.64944358 91.63828317 26.68115234 94.90722656 C26.68331253 95.85526154 26.68547272 96.80329651 26.68769836 97.78005981 C26.84081407 110.23940975 28.25835439 122.76428777 37.5625 131.875 C47.55097242 139.91126623 61.71093661 140.86559871 74 140 C82.96324932 138.70479362 91.45513853 136.61448766 98 130 C98.7425 129.278125 99.485 128.55625 100.25 127.8125 C106.35298509 118.00413111 107.13907697 107.60946166 107.20532227 96.38305664 C107.21522186 95.3384024 107.22512146 94.29374817 107.23532104 93.21743774 C107.26678226 89.78169991 107.29163245 86.34594827 107.31640625 82.91015625 C107.33698906 80.52119091 107.35798588 78.1322291 107.37937927 75.74327087 C107.43446282 69.46828073 107.48393242 63.19325847 107.53222656 56.91821289 C107.58254195 50.50989945 107.63817554 44.10163241 107.69335938 37.69335938 C107.80077311 25.12894449 107.90176342 12.56448999 108 0 C115.92 0 123.84 0 132 0 C132.06793429 14.76961087 132.12310756 29.53912352 132.15543652 44.30885601 C132.17085184 51.16795668 132.19183812 58.0269528 132.22631836 64.88598633 C132.25961383 71.51254337 132.27688296 78.13902082 132.28463173 84.76566505 C132.2901498 87.2864534 132.30092489 89.80723622 132.31719017 92.32797813 C132.44236151 112.54122965 132.12636567 130.26747705 117.44921875 145.8671875 C98.83222392 162.07911602 74.33291508 162.13060204 51 161 C35.85480651 159.4408614 22.40852515 153.20775118 12 142 C2.00786963 129.5313718 -0.33921693 116.02011756 -0.22705078 100.35644531 C-0.22734283 99.26229309 -0.22763489 98.16814087 -0.22793579 97.04083252 C-0.22655655 93.46984572 -0.21106219 89.89907477 -0.1953125 86.328125 C-0.19157737 83.83420933 -0.18873276 81.34029218 -0.18673706 78.84637451 C-0.17914002 72.31656771 -0.1595256 65.78685139 -0.1373291 59.25708008 C-0.11568781 52.58025877 -0.10771723 45.90340912 -0.09765625 39.2265625 C-0.07627573 26.15099573 -0.04112594 13.07551959 0 0 Z " fill="#212121" transform="translate(743,208)"/>
<path d="M0 0 C82.76205752 0 82.76205752 0 98.0625 14.3125 C107.75505523 24.88783442 110.07885518 38.05291919 110 52 C109.00479835 65.71166713 103.35025231 76.94618587 93 86 C82.98841768 93.82763024 70.71020471 96.16955917 58.32421875 96.09765625 C57.09330505 96.09614563 57.09330505 96.09614563 55.83752441 96.09460449 C52.78750195 96.08939319 49.7374995 96.07543197 46.6875 96.0625 C39.860625 96.041875 33.03375 96.02125 26 96 C26 116.79 26 137.58 26 159 C17.42 159 8.84 159 0 159 C0 106.53 0 54.06 0 0 Z M26 18 C26 37.8 26 57.6 26 78 C33.5178125 78.12375 33.5178125 78.12375 41.1875 78.25 C42.73977295 78.28641602 44.2920459 78.32283203 45.89135742 78.36035156 C55.77785848 78.43831189 66.27869476 77.85655278 74.5625 71.75 C80.7726277 64.74370209 83.563391 55.58140532 83.24609375 46.23046875 C82.30938933 37.74065565 80.36726213 30.00466178 74 24 C61.33015746 14.5330483 39.51098673 18 26 18 Z " fill="#212121" transform="translate(743,402)"/>
<path d="M0 0 C0.69416016 0.29060303 1.38832031 0.58120605 2.10351562 0.88061523 C4.49935153 2.04808214 6.17205862 3.05107574 8 5 C8.98726859 8.81019253 8.75971844 12.40923146 8.5 16.3125 C8.46390625 17.33923828 8.4278125 18.36597656 8.390625 19.42382812 C8.29651459 21.95304545 8.16524592 24.4745974 8 27 C7.03513672 26.32904297 7.03513672 26.32904297 6.05078125 25.64453125 C-11.32415922 14.01992771 -30.98483361 10.10991801 -51.6015625 13.6875 C-66.49828356 16.837927 -78.04458565 23.86614467 -86.4375 36.51171875 C-96.33773365 52.27784084 -98.71292803 71.22506318 -95.26953125 89.45703125 C-91.59891437 104.24437352 -84.27812588 117.83260766 -71 126 C-53.92440351 135.97739361 -34.84725535 137.00712048 -15.92578125 132.22265625 C-5.92999763 129.17818882 2.36221551 123.75852299 11 118 C11 125.59 11 133.18 11 141 C-12.10688631 154.72686316 -38.75363518 159.75989745 -65.4375 153.5 C-85.20221539 148.21064213 -103.07057786 135.61122252 -113.8125 118.1875 C-124.61516893 98.51848959 -128.00087768 72.92044044 -122.3125 51.0625 C-121.5949431 48.69155149 -120.8278416 46.33472975 -120 44 C-119.62617187 42.91847656 -119.25234375 41.83695312 -118.8671875 40.72265625 C-116.20547496 33.73345743 -112.63718122 27.84810506 -108 22 C-107.34257813 21.16597656 -106.68515625 20.33195312 -106.0078125 19.47265625 C-81.75532855 -9.35492998 -33.08184071 -17.1771096 0 0 Z " fill="#212121" transform="translate(1378,408)"/>
<path d="M0 0 C24.75 0 49.5 0 75 0 C75 2.97 75 5.94 75 9 C67.41 9 59.82 9 52 9 C52.00444122 10.87824966 52.00888245 12.75649933 52.01345825 14.69166565 C52.05417243 32.47631482 52.08418525 50.26095444 52.10362434 68.04563999 C52.11388398 77.18677724 52.12784108 86.32787942 52.15087891 95.46899414 C52.1709772 103.44762621 52.18375489 111.42623284 52.18817699 119.40488952 C52.19075692 123.61930396 52.19670614 127.83364572 52.21146011 132.04803658 C52.28598081 154.19779837 52.05164773 176.2275091 48.25 198.125 C48.08153564 199.10597656 47.91307129 200.08695313 47.73950195 201.09765625 C44.27950317 220.25788115 37.97819849 237.7618589 29 255 C28.01 255 27.02 255 26 255 C24.19886926 252.78413521 22.59129678 250.60886347 21 248.25 C20.12525791 246.98419673 19.25026424 245.71856727 18.375 244.453125 C17.96765625 243.84791016 17.5603125 243.24269531 17.140625 242.61914062 C15.95246832 240.86371599 15.95246832 240.86371599 14.125 238.921875 C12.42937044 236.02517451 13.17987582 234.18096707 14 231 C14.59418198 229.01136392 15.22094935 227.0322572 15.875 225.0625 C24.33986442 197.70503963 23.29385593 168.77619684 23.20278788 140.43967009 C23.19007928 135.80065751 23.18909448 131.16164083 23.18673706 126.52261353 C23.18058029 117.78279404 23.16425018 109.04302603 23.14403808 100.30322897 C23.12149569 90.33426192 23.11064008 80.36529209 23.10064721 70.3963058 C23.07987707 49.93084128 23.04440272 29.46542574 23 9 C15.41 9 7.82 9 0 9 C0 6.03 0 3.06 0 0 Z " fill="#212121" transform="translate(503,208)"/>
<path d="M0 0 C8.70531999 6.70544918 14.02469621 16.24745568 16 27 C16.36059174 30.05970741 16.54565107 33.11066767 16.6875 36.1875 C16.73455078 36.96802734 16.78160156 37.74855469 16.83007812 38.55273438 C17.04728423 42.7508654 16.84852912 45.7573544 16 50 C-10.07 50 -36.14 50 -63 50 C-60.80274959 68.66029327 -60.80274959 68.66029327 -50.28125 83.4765625 C-39.06269117 90.70958069 -24.94393006 91.8161901 -12.03125 89.30859375 C-3.75439627 87.29826037 5.50460887 84.52690088 11.671875 78.31640625 C13 77 13 77 15 77 C16.51301849 93.97942967 16.51301849 93.97942967 13.16015625 98.45703125 C10.48384024 100.05943846 7.97216087 101.05828593 5 102 C4.07703125 102.37769531 3.1540625 102.75539063 2.203125 103.14453125 C-7.98024593 107.21500296 -17.3825058 108.34291178 -28.3125 108.3125 C-29.45912109 108.32861328 -30.60574219 108.34472656 -31.78710938 108.36132812 C-47.30771895 108.37011172 -61.03240951 104.06251882 -72.4375 93.1875 C-84.84914978 79.81027617 -88.31730576 63.82465117 -88 46 C-87.30210019 29.32178074 -81.43140119 14.76109739 -69.25 3.1875 C-49.86512881 -12.53913674 -20.83159587 -13.32253224 0 0 Z M-54 15 C-57.82987435 20.54131685 -62 28.09424508 -62 35 C-43.85 35 -25.7 35 -7 35 C-7.96536953 25.34630467 -8.70415383 18.76056997 -15.6875 12.125 C-21.3217219 7.6197131 -27.61340207 5.37046145 -34.8984375 5.71875 C-42.57923309 6.74666316 -48.89056127 9.00196322 -54 15 Z " fill="#212121" transform="translate(1623,455)"/>
<path d="M0 0 C9.01169215 7.91847048 12.73181648 18.53677783 14.3828125 30.09375 C14.3828125 36.03375 14.3828125 41.97375 14.3828125 48.09375 C-12.0171875 48.09375 -38.4171875 48.09375 -65.6171875 48.09375 C-62.83557425 68.19511659 -62.83557425 68.19511659 -51.0234375 82.46875 C-47.42540299 84.89859149 -43.83194371 86.16311952 -39.6171875 87.09375 C-38.85921875 87.27550781 -38.10125 87.45726562 -37.3203125 87.64453125 C-22.11394946 90.17160025 -6.68573643 87.25411109 6.3828125 79.09375 C7.72321907 77.76752763 9.05820299 76.43575045 10.3828125 75.09375 C11.0428125 75.09375 11.7028125 75.09375 12.3828125 75.09375 C13.89885395 92.10710402 13.89885395 92.10710402 10.5078125 96.55078125 C7.84592113 98.12712005 5.32295606 99.13921024 2.3828125 100.09375 C1.54492188 100.47144531 0.70703125 100.84914063 -0.15625 101.23828125 C-16.20243136 108.4463278 -39.13699417 109.30533564 -55.68359375 103.41796875 C-70.56979984 96.69836307 -80.32621605 87.7882053 -86.68359375 72.53515625 C-92.24088536 56.61499236 -92.04114214 35.07849825 -85.0703125 19.67578125 C-77.51387477 4.88054367 -67.43338941 -3.51484163 -51.6171875 -8.90625 C-34.18352024 -14.07976486 -14.66751861 -10.68320758 0 0 Z M-58.12109375 15.94140625 C-61.98625771 21.56031624 -62.70529973 26.08349484 -64.6171875 33.09375 C-46.1371875 33.09375 -27.6571875 33.09375 -8.6171875 33.09375 C-10.92654152 19.15542203 -10.92654152 19.15542203 -19.4296875 8.59375 C-32.89472793 -0.34925997 -48.38469952 3.97955048 -58.12109375 15.94140625 Z " fill="#212121" transform="translate(1688.6171875,262.90625)"/>
<path d="M0 0 C8.06457144 7.55315959 11.34958297 16.53499783 13.125 27.1875 C13.125 33.7875 13.125 40.3875 13.125 47.1875 C-13.275 47.1875 -39.675 47.1875 -66.875 47.1875 C-64.1330827 66.27380865 -64.1330827 66.27380865 -52.8671875 81.01171875 C-40.24918553 88.45881403 -25.48573081 88.96199528 -11.5 85.5625 C-4.36336025 83.69362704 2.53987199 80.8753047 7.76171875 75.50390625 C9.125 74.1875 9.125 74.1875 11.125 74.1875 C12.471625 90.97875 12.471625 90.97875 9.6484375 95.609375 C7.19368697 97.31942593 4.96650685 98.23660204 2.125 99.1875 C0.89523437 99.65027344 -0.33453125 100.11304688 -1.6015625 100.58984375 C-11.73528515 104.26414674 -20.79084654 105.38887728 -31.5 105.4375 C-32.61246094 105.458125 -33.72492188 105.47875 -34.87109375 105.5 C-50.87610218 105.57452856 -65.00939223 100.77827378 -76.6875 89.60546875 C-89.41991705 75.53160062 -91.71680384 57.78481401 -91.02294922 39.59960938 C-90.01395153 23.14928399 -82.93623921 10.43570978 -70.94140625 -0.58984375 C-51.11150022 -16.79182518 -19.73887113 -15.54922014 0 0 Z M-57.37890625 12.06640625 C-61.71746382 18.21741607 -63.82348026 25.0071809 -65.875 32.1875 C-47.395 32.1875 -28.915 32.1875 -9.875 32.1875 C-12.02858581 17.81071177 -12.02858581 17.81071177 -20.82421875 7.44140625 C-32.51605169 0.29268554 -48.08087799 1.69810136 -57.37890625 12.06640625 Z " fill="#212121" transform="translate(1268.875,263.8125)"/>
<path d="M0 0 C4.58313395 4.44247511 7.05838061 8.83967967 7.24050903 15.24580383 C7.24628502 16.95724101 7.24103954 18.6687372 7.22705078 20.38012695 C7.22734283 21.31719986 7.22763489 22.25427277 7.22793579 23.21974182 C7.22654524 26.30934997 7.21099685 29.39871535 7.1953125 32.48828125 C7.1915814 34.63347746 7.18873488 36.77867538 7.18673706 38.9238739 C7.17910829 44.56438926 7.15946621 50.20480129 7.1373291 55.84527588 C7.11685444 61.60321658 7.10773187 67.361174 7.09765625 73.11914062 C7.07621966 84.41281307 7.04104359 95.70638177 7 107 C-0.92 107 -8.84 107 -17 107 C-17.01458252 104.3906958 -17.02916504 101.7813916 -17.04418945 99.09301758 C-17.09452822 90.4715212 -17.16112209 81.85020556 -17.23571491 73.2288866 C-17.28044088 68.00180923 -17.31969219 62.77481019 -17.34643555 57.54760742 C-17.37244617 52.50298274 -17.4128329 47.45865919 -17.46318626 42.41422081 C-17.47987011 40.4897505 -17.49137493 38.56522809 -17.49761391 36.64069557 C-17.50723843 33.94479434 -17.53527791 31.24966614 -17.56762695 28.55395508 C-17.56619186 27.75841721 -17.56475677 26.96287933 -17.5632782 26.14323425 C-17.64050754 21.59191374 -18.16904184 18.61377256 -21 15 C-27.7645532 10.1433977 -34.93614247 10.49715174 -43 11 C-52.61595928 12.61966423 -62.68864727 16.31686723 -69 24 C-69.49798282 26.92312455 -69.69262754 29.26838777 -69.65942383 32.18676758 C-69.67514938 33.40218231 -69.67514938 33.40218231 -69.69119263 34.64215088 C-69.71990466 37.31000237 -69.7136559 39.97655317 -69.70703125 42.64453125 C-69.72014867 44.4982821 -69.73545303 46.35201866 -69.75285339 48.20573425 C-69.7927113 53.07688941 -69.80289435 57.94767073 -69.80688477 62.81896973 C-69.8162147 67.79284003 -69.85362738 72.76649054 -69.88867188 77.74023438 C-69.95325612 87.49353105 -69.98389313 97.24650266 -70 107 C-77.92 107 -85.84 107 -94 107 C-94 70.04 -94 33.08 -94 -5 C-91.11734851 -5.96088383 -89.32337729 -6.11670941 -86.33203125 -6.09765625 C-85.43935547 -6.09443359 -84.54667969 -6.09121094 -83.62695312 -6.08789062 C-82.23379883 -6.07532227 -82.23379883 -6.07532227 -80.8125 -6.0625 C-79.87212891 -6.05798828 -78.93175781 -6.05347656 -77.96289062 -6.04882812 C-75.64189992 -6.03704645 -73.32094193 -6.01911114 -71 -6 C-71 -2.04 -71 1.92 -71 6 C-69.47375 4.948125 -67.9475 3.89625 -66.375 2.8125 C-48.28746943 -8.65764134 -18.04233394 -14.8608551 0 0 Z " fill="#212121" transform="translate(996,260)"/>
<path d="M0 0 C4.51403766 3.91216597 7.71860955 7.46689448 8.39199829 13.52880859 C8.41521813 14.9018462 8.42237162 16.27521611 8.41650391 17.6484375 C8.42508926 18.40191467 8.43367462 19.15539185 8.44252014 19.93170166 C8.46753537 22.41289692 8.47195559 24.89369027 8.4765625 27.375 C8.49087919 29.10466729 8.50663741 30.83432319 8.52377319 32.56396484 C8.56559623 37.1125258 8.59060932 41.66101622 8.61126709 46.2097168 C8.64709822 53.48996614 8.70819172 60.77004102 8.76975632 68.05010986 C8.78879921 70.5898841 8.80056366 73.12961181 8.81118774 75.66943359 C8.82140307 77.23014422 8.83176125 78.79085392 8.84228516 80.3515625 C8.84332748 81.0550885 8.84436981 81.7586145 8.84544373 82.48345947 C8.87560389 86.11125635 9.14449643 89.47081472 10 93 C11.8746679 93.05460198 13.74980905 93.09306244 15.625 93.125 C16.66914062 93.14820313 17.71328125 93.17140625 18.7890625 93.1953125 C22.17280007 92.98948905 24.84457052 92.20342205 28 91 C28.13536022 93.08153935 28.23215465 95.16561206 28.3125 97.25 C28.37050781 98.41015625 28.42851563 99.5703125 28.48828125 100.765625 C28 104 28 104 25.85546875 106.296875 C18.04169697 110.95734627 9.79654877 110.71971763 1 110 C-4.43234554 108.53500885 -7.83350489 105.62795439 -11 101 C-11.66 100.34 -12.32 99.68 -13 99 C-13.76570312 99.68835938 -13.76570312 99.68835938 -14.546875 100.390625 C-26.04315926 110.09316278 -38.15225553 111.10251093 -52.69384766 110.22753906 C-57.35178035 109.767959 -61.06010771 108.47782289 -65 106 C-66.0828125 105.34644531 -66.0828125 105.34644531 -67.1875 104.6796875 C-73.06000126 100.72870319 -76.76461477 95.70615568 -79 89 C-79.14961464 86.09114618 -79.23118311 83.22206142 -79.25 80.3125 C-79.270625 79.53455078 -79.29125 78.75660156 -79.3125 77.95507812 C-79.36455755 70.15295328 -77.40504642 63.50780849 -71.89599609 57.76928711 C-63.84528093 50.2565994 -53.08137977 47.32325972 -42.875 43.9375 C-27.73213896 39.90321516 -27.73213896 39.90321516 -16.4375 30.3125 C-15.83013963 25.71391433 -15.67644061 21.48625073 -17 17 C-24.5069808 10.0048588 -35.95537089 11.57891199 -45.55029297 11.86376953 C-55.12628696 12.39629939 -63.5303227 15.7057548 -72 20 C-72.16225719 17.24763726 -72.2809328 14.50482524 -72.375 11.75 C-72.42527344 10.97269531 -72.47554687 10.19539063 -72.52734375 9.39453125 C-72.58550734 7.12615124 -72.54241295 5.20506322 -72 3 C-56.30047324 -11.35252594 -17.64380622 -11.31866814 0 0 Z M-18.6875 49.625 C-26.15056915 53.95542284 -34.35539808 57.03409104 -42.4375 60 C-48.5089697 62.43657666 -53.28765411 65.69451802 -56 71.8125 C-57.82892401 77.7536631 -57.08051592 82.91614788 -54.25 88.375 C-50.72968264 92.48203692 -47.36101333 94.37662636 -42 95 C-33.12428932 95.59171405 -26.77951579 93.85748922 -20 87.9375 C-17.09433775 85.27039794 -17.09433775 85.27039794 -15 82 C-14.91341431 79.44637396 -14.88437484 76.9204558 -14.90234375 74.3671875 C-14.9037587 73.61535187 -14.90517365 72.86351624 -14.90663147 72.08889771 C-14.91223535 69.6842249 -14.92478843 67.27964473 -14.9375 64.875 C-14.9425145 63.24609509 -14.9470775 61.61718873 -14.95117188 59.98828125 C-14.96220603 55.99215173 -14.97947321 51.99609158 -15 48 C-16.38080902 47.91376344 -16.38080902 47.91376344 -18.6875 49.625 Z " fill="#212121" transform="translate(939,453)"/>
<path d="M0 0 C8.25 0 16.5 0 25 0 C27.4375301 5.48444274 29.7417129 10.77731036 31.8125 16.375 C32.06303131 17.05012131 32.31356262 17.72524261 32.57168579 18.42082214 C33.38409236 20.61279616 34.19216204 22.80633859 35 25 C35.56934398 26.53952663 36.13884525 28.07899509 36.70849609 29.6184082 C41.22633838 41.84200027 45.69064684 54.08519752 50.12890625 66.33789062 C52.38686385 72.57112435 54.65231266 78.79989953 57 85 C59.09748099 81.85377851 60.21032735 79.0050855 61.51171875 75.45703125 C61.75687729 74.7925145 62.00203583 74.12799774 62.25462341 73.44334412 C62.78839465 71.99535973 63.32041187 70.54672784 63.85089111 69.09753418 C64.99013522 65.98591086 66.13826574 62.87759175 67.28594971 59.76907349 C67.89635062 58.11564204 68.5063269 56.46205378 69.11590576 54.80831909 C72.42724227 45.82819648 75.77488473 36.86175165 79.13296509 27.89901733 C80.11059336 25.28846986 81.08597452 22.67709008 82.0612793 20.06567383 C82.66831593 18.44477137 83.27548705 16.82391927 83.8828125 15.203125 C84.1541954 14.47532333 84.42557831 13.74752167 84.70518494 12.99766541 C84.96376785 12.30910965 85.22235077 11.62055389 85.48876953 10.91113281 C85.81967087 10.02690643 85.81967087 10.02690643 86.15725708 9.12481689 C87.37401815 6.05698398 88.69994061 3.03347191 90 0 C96.93 0 103.86 0 111 0 C109.87504268 6.74974394 109.87504268 6.74974394 108.67163086 9.79418945 C108.40240311 10.48382278 108.13317535 11.17345612 107.85578918 11.88398743 C107.41477119 12.98748787 107.41477119 12.98748787 106.96484375 14.11328125 C106.49947456 15.29853645 106.49947456 15.29853645 106.02470398 16.50773621 C105.00102846 19.11148447 103.96925519 21.71194402 102.9375 24.3125 C102.21668043 26.1416889 101.49647539 27.97112007 100.77685547 29.80078125 C99.27622207 33.61500506 97.77292178 37.42816278 96.26806641 41.24072266 C94.07423019 46.80454842 91.89904795 52.37550693 89.73046875 57.94921875 C89.38706955 58.83173309 89.04367035 59.71424744 88.68986511 60.62350464 C88.00579173 62.38168303 87.32174502 64.13987181 86.63772583 65.89807129 C80.5126676 81.63477355 74.30557231 97.33459379 68 113 C59.42 113 50.84 113 42 113 C40.86046875 109.99390625 39.7209375 106.9878125 38.546875 103.890625 C28.89953449 78.45603793 19.19445589 53.04449312 9.41308594 27.66113281 C9.00539978 26.60296356 8.59771362 25.54479431 8.17767334 24.45455933 C7.42012794 22.48869073 6.66222273 20.52296072 5.90386963 18.55740356 C5.23874319 16.83185087 4.57535347 15.10562729 3.9140625 13.37860107 C3.31171174 11.81114571 2.70248965 10.24631109 2.0859375 8.68438721 C0.90319654 5.64696403 0 3.29046985 0 0 Z " fill="#212121" transform="translate(1065,254)"/>
<path d="M0 0 C1 1 1 1 1.11352539 2.76586914 C1.10567017 3.88916626 1.10567017 3.88916626 1.09765625 5.03515625 C1.09282227 6.24848633 1.09282227 6.24848633 1.08789062 7.48632812 C1.07532227 8.7615332 1.07532227 8.7615332 1.0625 10.0625 C1.05798828 10.91650391 1.05347656 11.77050781 1.04882812 12.65039062 C1.03700373 14.76695663 1.01906769 16.88348685 1 19 C0.29617188 18.67386719 -0.40765625 18.34773438 -1.1328125 18.01171875 C-14.41181273 12.13498105 -28.62703455 8.23722473 -42.796875 13.02734375 C-46.08696784 14.47988474 -47.93174449 16.06441153 -50 19 C-51.17750166 23.04766194 -51.28018051 25.20615521 -49.875 29.1875 C-46.53221397 34.20167904 -42.52673343 36.44340177 -36.921875 38.40234375 C-35.76042969 38.81806641 -34.59898438 39.23378906 -33.40234375 39.66210938 C-32.19707031 40.08298828 -30.99179688 40.50386719 -29.75 40.9375 C-2.5755626 50.46180173 -2.5755626 50.46180173 3.4375 62.25 C7.20538228 70.69816656 7.61703853 81.69814229 4.5 90.5 C0.32865277 99.17815245 -7.06797091 104.76793337 -16 108 C-33.16100512 113.09080332 -54.58248575 111.77453256 -70.375 103.3125 C-73.69668246 101.30331754 -73.69668246 101.30331754 -75 100 C-75.08651611 98.58429877 -75.10704904 97.164405 -75.09765625 95.74609375 C-75.09443359 94.89208984 -75.09121094 94.03808594 -75.08789062 93.15820312 C-75.07951172 92.26037109 -75.07113281 91.36253906 -75.0625 90.4375 C-75.05798828 89.53580078 -75.05347656 88.63410156 -75.04882812 87.70507812 C-75.03700225 85.46998686 -75.0205222 83.23502563 -75 81 C-74.16339844 81.53109375 -73.32679687 82.0621875 -72.46484375 82.609375 C-59.45214821 90.61253261 -45.58440559 95.36382754 -30.109375 92.45703125 C-25.44752069 91.22341191 -21.97229596 90.00613804 -19 86 C-17.27008193 82.54016386 -17.65729513 78.78952496 -18 75 C-19.91897282 69.72282475 -24.2511603 67.53895552 -29 65 C-33.91206301 62.93770351 -38.95047331 61.23184796 -43.98046875 59.48242188 C-55.91187899 55.1995459 -65.48647688 49.97389085 -71.875 38.6875 C-74.6105188 29.72107727 -74.92810801 20.51740169 -71.03125 11.84375 C-66.31198356 3.55314679 -59.01910526 -2.07686979 -50 -5 C-33.60442486 -9.44152577 -15.22245355 -7.50974375 0 0 Z " fill="#212121" transform="translate(1181,453)"/>
<path d="M0 0 C1 1 1 1 1.11352539 2.76586914 C1.10567017 3.88916626 1.10567017 3.88916626 1.09765625 5.03515625 C1.09282227 6.24848633 1.09282227 6.24848633 1.08789062 7.48632812 C1.07532227 8.7615332 1.07532227 8.7615332 1.0625 10.0625 C1.05798828 10.91650391 1.05347656 11.77050781 1.04882812 12.65039062 C1.03700373 14.76695663 1.01906769 16.88348685 1 19 C-0.43279297 18.38511719 -0.43279297 18.38511719 -1.89453125 17.7578125 C-15.20050885 12.1631163 -28.57118869 8.2368072 -42.796875 13.0234375 C-46.04976393 14.46532089 -47.92598126 16.1231353 -50 19 C-51.34738945 22.87374468 -51.09692877 24.68767397 -49.875 28.625 C-45.67671578 36.18191159 -38.76260378 37.70808069 -31 40.3125 C-4.28000509 49.65903969 -4.28000509 49.65903969 4.1484375 62.7890625 C7.60695816 69.99166974 7.11409093 80.4922167 5.23828125 88.08203125 C1.98607972 96.65601711 -3.05506555 101.58897239 -11 106 C-27.18603425 112.7944617 -48.80453865 112.46161629 -65 106 C-72.52820513 102.47179487 -72.52820513 102.47179487 -75 100 C-75.08651611 98.58429877 -75.10704904 97.164405 -75.09765625 95.74609375 C-75.09443359 94.89208984 -75.09121094 94.03808594 -75.08789062 93.15820312 C-75.07951172 92.26037109 -75.07113281 91.36253906 -75.0625 90.4375 C-75.05798828 89.53580078 -75.05347656 88.63410156 -75.04882812 87.70507812 C-75.03700225 85.46998686 -75.0205222 83.23502563 -75 81 C-74.27296875 81.45890625 -73.5459375 81.9178125 -72.796875 82.390625 C-59.63837147 90.42068613 -45.61668689 95.28782589 -30.0703125 92.46875 C-25.43168977 91.20241976 -21.96534095 89.99676389 -19 86 C-17.12363523 82.24727046 -17.49540057 78.08725542 -18 74 C-22.12648803 65.74702394 -32.87673518 63.45975784 -41.0859375 60.53515625 C-53.50549794 56.09611926 -65.31371703 51.13599877 -71.625 38.83203125 C-74.69063488 31.37875571 -74.18868234 21.57671414 -72.19140625 13.88671875 C-68.21963285 5.04986652 -61.20223351 -0.3863141 -52.375 -3.9375 C-35.48881525 -9.74151736 -16.01024981 -7.89838991 0 0 Z " fill="#212121" transform="translate(1450,259)"/>
<path d="M0 0 C0 9.57 0 19.14 0 29 C10.56 29 21.12 29 32 29 C32 34.61 32 40.22 32 46 C21.44 46 10.88 46 0 46 C0.06168936 58.85275707 0.06168936 58.85275707 0.16015625 71.70507812 C0.20848646 76.94800145 0.25253267 82.19071323 0.27099609 87.43383789 C0.28615382 91.66160117 0.32058307 95.88881061 0.36830902 100.11632729 C0.38313205 101.72818497 0.39104155 103.34012173 0.39188385 104.95204735 C0.39425262 107.21236401 0.4213215 109.47114897 0.45410156 111.73120117 C0.46298401 113.01693527 0.47186646 114.30266937 0.48101807 115.62736511 C1.08792874 119.57141016 2.17157875 121.23092341 5 124 C12.98043319 126.6601444 21.35456135 125.49623682 28.87890625 122.0703125 C29.57886719 121.71710938 30.27882813 121.36390625 31 121 C32.32 120.34 33.64 119.68 35 119 C35 124.94 35 130.88 35 137 C25.48489386 141.95306895 17.92918789 144.36035557 7.1875 144.375 C6.25357422 144.39949219 5.31964844 144.42398438 4.35742188 144.44921875 C-3.66658381 144.48262891 -10.0918034 142.46386308 -16.875 138.1875 C-22.52483379 132.37149463 -24.152203 126.24718386 -24.11352539 118.31567383 C-24.11367142 117.5349501 -24.11381744 116.75422638 -24.1139679 115.94984436 C-24.11327114 113.36887841 -24.10548982 110.7879846 -24.09765625 108.20703125 C-24.09579123 106.41769958 -24.09436772 104.6283674 -24.09336853 102.83903503 C-24.08954999 98.12902416 -24.07972533 93.41904411 -24.06866455 88.70904541 C-24.05843621 83.90303972 -24.05386786 79.09702906 -24.04882812 74.29101562 C-24.03810249 64.86066136 -24.02051102 55.43033807 -24 46 C-29.28 46 -34.56 46 -40 46 C-40 41.38 -40 36.76 -40 32 C-34.99247279 30.86192563 -30.07234019 29.84539003 -25 29 C-24.67 22.4 -24.34 15.8 -24 9 C-20.5652649 7.4933799 -17.12751016 5.99448582 -13.6875 4.5 C-12.71103516 4.07074219 -11.73457031 3.64148438 -10.72851562 3.19921875 C-9.79072266 2.79316406 -8.85292969 2.38710938 -7.88671875 1.96875 C-7.02264404 1.59169922 -6.15856934 1.21464844 -5.26831055 0.82617188 C-3 0 -3 0 0 0 Z " fill="#212121" transform="translate(1495,419)"/>
<path d="M0 0 C0 9.57 0 19.14 0 29 C10.89 29 21.78 29 33 29 C33 34.61 33 40.22 33 46 C22.11 46 11.22 46 0 46 C0.09078431 58.67497598 0.09078431 58.67497598 0.20898438 71.34960938 C0.26328715 76.52007284 0.3143979 81.69042838 0.34643555 86.86108398 C0.37247016 91.03042164 0.41287344 95.19939641 0.46318626 99.36850929 C0.47985396 100.95804132 0.49136886 102.54763612 0.49761391 104.13724327 C0.50725634 106.36621394 0.53531548 108.59425648 0.56762695 110.82299805 C0.58428154 112.72495186 0.58428154 112.72495186 0.60127258 114.66532898 C1.02877415 118.24064643 1.86751648 120.13296132 4 123 C8.82757872 126.44827051 15.37666617 125.54231922 21 125 C24.53064507 124.00333321 27.72977091 122.65017085 31 121 C32.32 120.34 33.64 119.68 35 119 C35 124.94 35 130.88 35 137 C25.48489386 141.95306895 17.92918789 144.36035557 7.1875 144.375 C6.25357422 144.39949219 5.31964844 144.42398438 4.35742188 144.44921875 C-5.11077765 144.4886422 -12.68760961 141.90760246 -19.52734375 135.26953125 C-25.30719214 126.36212564 -24.38967444 116.21789959 -24.29296875 106.05859375 C-24.28736515 104.32268136 -24.28309867 102.58676419 -24.28010559 100.85084534 C-24.26871691 96.30848821 -24.23930203 91.76642435 -24.20599365 87.22418213 C-24.17516307 82.57853155 -24.16157264 77.93283303 -24.14648438 73.28710938 C-24.11442584 64.19125746 -24.06170759 55.09569914 -24 46 C-28.95 46 -33.9 46 -39 46 C-39.09765625 35.16015625 -39.09765625 35.16015625 -39 32 C-36.35391698 29.35391698 -28.25416342 29.47390729 -25 29 C-24.67 22.4 -24.34 15.8 -24 9 C-20.5652649 7.4933799 -17.12751016 5.99448582 -13.6875 4.5 C-12.71103516 4.07074219 -11.73457031 3.64148438 -10.72851562 3.19921875 C-9.79072266 2.79316406 -8.85292969 2.38710937 -7.88671875 1.96875 C-7.02264404 1.59169922 -6.15856934 1.21464844 -5.26831055 0.82617188 C-3 0 -3 0 0 0 Z " fill="#212121" transform="translate(1558,225)"/>
<path d="M0 0 C2.65303732 2.58171912 2.53734494 3.40496439 2.66796875 7.0078125 C2.63473514 8.94200834 2.57510876 10.87589044 2.4921875 12.80859375 C2.46962891 13.79666016 2.44707031 14.78472656 2.42382812 15.80273438 C2.36486738 18.24370934 2.28263798 20.68164243 2.1796875 23.12109375 C1.49390625 22.8065625 0.808125 22.49203125 0.1015625 22.16796875 C-7.76235664 19.35041483 -17.99012343 18.92181874 -25.8203125 22.12109375 C-31.68573555 25.19663214 -35.52546551 28.27681473 -38.8203125 34.12109375 C-39.20790183 36.89978969 -39.38564849 39.28315096 -39.36621094 42.05419922 C-39.37654861 42.82560745 -39.38688629 43.59701569 -39.39753723 44.39179993 C-39.42687378 46.92417575 -39.42846241 49.45574915 -39.4296875 51.98828125 C-39.44467539 53.75092078 -39.46140382 55.51354629 -39.47979736 57.27615356 C-39.52341497 61.90226907 -39.54345753 66.52819515 -39.55853271 71.15447998 C-39.57812399 75.88044408 -39.62009173 80.60620421 -39.66015625 85.33203125 C-39.73539804 94.59502361 -39.78365649 103.85786824 -39.8203125 113.12109375 C-48.0703125 113.12109375 -56.3203125 113.12109375 -64.8203125 113.12109375 C-64.8203125 76.16109375 -64.8203125 39.20109375 -64.8203125 1.12109375 C-61.61043834 0.31862521 -59.48397728 0.00174466 -56.2734375 0.0234375 C-55.42910156 0.02666016 -54.58476563 0.02988281 -53.71484375 0.03320312 C-52.84214844 0.04158203 -51.96945312 0.04996094 -51.0703125 0.05859375 C-50.18214844 0.06310547 -49.29398438 0.06761719 -48.37890625 0.07226562 C-46.19267934 0.08401953 -44.00648722 0.10195409 -41.8203125 0.12109375 C-41.3253125 7.05109375 -41.3253125 7.05109375 -40.8203125 14.12109375 C-40.0365625 13.08984375 -39.2528125 12.05859375 -38.4453125 10.99609375 C-28.89498048 -0.18754921 -13.92092546 -4.33823854 0 0 Z " fill="#212121" transform="translate(1365.8203125,253.87890625)"/>
<path d="M0 0 C0 6.93 0 13.86 0 21 C-1.711875 20.484375 -3.42375 19.96875 -5.1875 19.4375 C-14.93250937 17.03855188 -23.98098765 17.5181861 -32.8359375 22.46484375 C-36.76364553 25.25110595 -39.84414408 28.68828816 -42 33 C-42.12209616 35.47072509 -42.18562086 37.91517208 -42.20532227 40.38720703 C-42.22017166 41.52881287 -42.22017166 41.52881287 -42.23532104 42.69348145 C-42.26696678 45.21489324 -42.29170557 47.73632388 -42.31640625 50.2578125 C-42.33697313 52.00373836 -42.35796953 53.74965922 -42.37937927 55.49557495 C-42.43462746 60.09539742 -42.4840246 64.69526503 -42.53222656 69.29516602 C-42.58242155 73.98718289 -42.63811805 78.67913405 -42.69335938 83.37109375 C-42.80097456 92.58067517 -42.9019038 101.79031227 -43 111 C-50.92 111 -58.84 111 -67 111 C-67 74.04 -67 37.08 -67 -1 C-64.11734851 -1.96088383 -62.32337729 -2.11670941 -59.33203125 -2.09765625 C-58.43935547 -2.09443359 -57.54667969 -2.09121094 -56.62695312 -2.08789062 C-55.23379883 -2.07532227 -55.23379883 -2.07532227 -53.8125 -2.0625 C-52.87212891 -2.05798828 -51.93175781 -2.05347656 -50.96289062 -2.04882812 C-48.64189992 -2.03704645 -46.32094193 -2.01911114 -44 -2 C-43.67 2.29 -43.34 6.58 -43 11 C-42.01 9.948125 -41.02 8.89625 -40 7.8125 C-28.71510313 -3.3595479 -14.55089664 -7.27544832 0 0 Z " fill="#212121" transform="translate(1046,450)"/>
<path d="M0 0 C7.92 0 15.84 0 24 0 C24 37.29 24 74.58 24 113 C16.08 113 8.16 113 0 113 C0 75.71 0 38.42 0 0 Z " fill="#212121" transform="translate(1414,448)"/>
<path d="M0 0 C7.92 0 15.84 0 24 0 C24 37.29 24 74.58 24 113 C16.08 113 8.16 113 0 113 C0 75.71 0 38.42 0 0 Z " fill="#212121" transform="translate(1059,448)"/>
<path d="M0 0 C7.92 0 15.84 0 24 0 C24 37.29 24 74.58 24 113 C16.08 113 8.16 113 0 113 C0 75.71 0 38.42 0 0 Z " fill="#212121" transform="translate(1477,254)"/>
<path d="M0 0 C7.92 0 15.84 0 24 0 C24 37.29 24 74.58 24 113 C16.08 113 8.16 113 0 113 C0 75.71 0 38.42 0 0 Z " fill="#212121" transform="translate(1028,254)"/>
<path d="M0 0 C1.5631897 0.00785522 1.5631897 0.00785522 3.15795898 0.01586914 C4.28266602 0.0190918 5.40737305 0.02231445 6.56616211 0.02563477 C7.75016602 0.03401367 8.93416992 0.04239258 10.15405273 0.05102539 C11.34192383 0.05553711 12.52979492 0.06004883 13.75366211 0.06469727 C16.69967499 0.07652864 19.64558954 0.09301252 22.59155273 0.11352539 C21.39642276 3.3183644 20.11697296 6.05114975 18.12280273 8.82836914 C17.63972656 9.50843018 17.15665039 10.18849121 16.65893555 10.88916016 C15.5932519 12.35904002 14.52478691 13.82690652 13.45385742 15.29296875 C10.83362548 18.89598045 8.33240392 22.45942383 6.13842773 26.34008789 C0.7962513 35.46206346 0.7962513 35.46206346 -3.3996582 36.7019043 C-8.15381104 37.29909039 -12.69476546 36.85040369 -17.40844727 36.11352539 C-16.82115431 31.37419736 -15.46859524 27.56165447 -13.50219727 23.21899414 C-13.2174353 22.5861702 -12.93267334 21.95334625 -12.63928223 21.30134583 C-12.04073406 19.97463172 -11.43883325 18.64942552 -10.83374023 17.32568359 C-9.90465473 15.29272685 -8.98579776 13.25538648 -8.06860352 11.21704102 C-3.06033673 0.14425307 -3.06033673 0.14425307 0 0 Z " fill="#212121" transform="translate(1657.408447265625,202.886474609375)"/>
<path d="M0 0 C1.5631897 0.00785522 1.5631897 0.00785522 3.15795898 0.01586914 C4.28266602 0.0190918 5.40737305 0.02231445 6.56616211 0.02563477 C7.75016602 0.03401367 8.93416992 0.04239258 10.15405273 0.05102539 C11.34192383 0.05553711 12.52979492 0.06004883 13.75366211 0.06469727 C16.69967499 0.07652864 19.64558954 0.09301252 22.59155273 0.11352539 C21.22380093 2.9886612 19.67423828 5.58243621 17.86889648 8.20336914 C17.33546631 8.98220459 16.80203613 9.76104004 16.25244141 10.56347656 C15.08709492 12.24554418 13.91653381 13.92400914 12.74121094 15.59912109 C10.07997594 19.40643275 7.49380771 23.158523 5.29467773 27.25415039 C3.38890764 30.68581193 1.62058433 33.52887268 -1.40844727 36.11352539 C-6.68165721 37.56060465 -12.07252988 36.87954053 -17.40844727 36.11352539 C-16.87795349 30.986775 -15.69742744 26.9940024 -13.50219727 22.34008789 C-13.2174353 21.73087494 -12.93267334 21.12166199 -12.63928223 20.49398804 C-11.73764488 18.57129179 -10.82304739 16.65508322 -9.90844727 14.73852539 C-9.29436031 13.43030954 -8.68107151 12.12171872 -8.06860352 10.81274414 C-3.04947371 0.14374103 -3.04947371 0.14374103 0 0 Z " fill="#212121" transform="translate(1594.408447265625,396.886474609375)"/>
<path d="M0 0 C7.92 0 15.84 0 24 0 C24 7.59 24 15.18 24 23 C16.08 23 8.16 23 0 23 C0 15.41 0 7.82 0 0 Z " fill="#212121" transform="translate(1414,410)"/>
<path d="M0 0 C7.92 0 15.84 0 24 0 C24 7.59 24 15.18 24 23 C16.08 23 8.16 23 0 23 C0 15.41 0 7.82 0 0 Z " fill="#212121" transform="translate(1059,410)"/>
<path d="M0 0 C7.92 0 15.84 0 24 0 C24 7.59 24 15.18 24 23 C16.08 23 8.16 23 0 23 C0 15.41 0 7.82 0 0 Z " fill="#212121" transform="translate(1477,216)"/>
<path d="M0 0 C7.92 0 15.84 0 24 0 C24 7.59 24 15.18 24 23 C16.08 23 8.16 23 0 23 C0 15.41 0 7.82 0 0 Z " fill="#212121" transform="translate(1028,216)"/>
</svg>
