<?xml version="1.0" encoding="UTF-8"?>
<svg version="1.1" xmlns="http://www.w3.org/2000/svg" width="4210" height="2975">
<path d="M0 0 C326.37 0 652.74 0 989 0 C989 326.37 989 652.74 989 989 C662.63 989 336.26 989 0 989 C0 662.63 0 336.26 0 0 Z M13 10 C16.79034353 14.42206745 20.50869522 18.65366259 24.61886597 22.73912048 C25.41672317 23.53825933 25.41672317 23.53825933 26.2306987 24.35354239 C27.99242231 26.11689748 29.75766694 27.87668267 31.52294922 29.63647461 C32.79496897 30.90821196 34.06676792 32.18017021 35.33836365 33.45233154 C38.77574628 36.89000008 42.2161947 40.32458524 45.65721655 43.75861049 C49.25847265 47.35359858 52.856881 50.95143487 56.45559692 54.54896545 C63.26388289 61.35414825 70.07471308 68.15677876 76.88646901 74.95848805 C84.64418415 82.70501051 92.39904657 90.45438608 100.15367484 98.20399845 C116.09928556 114.13916776 132.04846188 130.07076433 148 146 C151.32764294 144.41209351 153.71493319 142.63178158 156.4375 140.125 C157.75814453 138.9184375 157.75814453 138.9184375 159.10546875 137.6875 C161.09471417 135.84053529 163.07640327 133.98764429 165.05078125 132.125 C172.15821557 125.4442311 179.50527925 119.28573752 187.24707031 113.35449219 C188.97861086 112.01652743 190.69098081 110.65758953 192.3984375 109.2890625 C257.79436067 56.94603037 337.63349316 24.25975962 420 11 C420 10.67 420 10.34 420 10 C285.69 10 151.38 10 13 10 Z M570 10 C570 10.33 570 10.66 570 11 C571.40016357 11.25523437 571.40016357 11.25523437 572.82861328 11.515625 C671.8882485 29.68613373 766.78796983 73.31968054 838 146 C842.34765712 144.34324716 845.09435386 141.09008562 848.25 137.8125 C851.56266305 134.39207562 854.87867189 131.06206317 858.51269531 127.98092651 C864.01571603 123.18958841 869.1301974 118.00982708 874.28125 112.84814453 C875.39551024 111.73524181 876.50998256 110.62255138 877.62464905 109.51005554 C880.62847616 106.51075734 883.62916798 103.50834118 886.62913895 100.50518656 C889.77331115 97.35847159 892.91993483 94.21420952 896.06616211 91.06954956 C901.34001471 85.7975112 906.61176607 80.52337862 911.88232422 75.24804688 C917.98245113 69.142459 924.08619881 63.04050856 930.19180107 56.94039643 C935.43791857 51.6988078 940.68209638 46.45528451 945.92463875 41.21012008 C949.054518 38.07867934 952.185075 34.9479242 955.31738281 31.81891251 C958.25484094 28.88433046 961.18986612 25.94733713 964.12298393 23.00841713 C965.2025294 21.9275435 966.28293767 20.84753086 967.36424446 19.76841927 C968.83311526 18.30225724 970.29890893 16.83308879 971.76391602 15.36306763 C972.99828148 14.12813663 972.99828148 14.12813663 974.25758362 12.86825752 C976.1136747 11.30389583 976.1136747 11.30389583 976 10 C842.02 10 708.04 10 570 10 Z M10 13 C10 145.99 10 278.98 10 416 C10.33 416 10.66 416 11 416 C11.13462646 415.23896973 11.26925293 414.47793945 11.40795898 413.69384766 C19.04880885 371.08397757 31.06422172 330.44794716 49 291 C49.45874512 289.98615234 49.91749023 288.97230469 50.39013672 287.92773438 C71.82038691 240.91546065 102.03509911 193.77533837 139.34375 157.65234375 C141.75602278 155.24576029 143.87254889 152.65931389 146 150 C144.4047392 146.05989427 141.68476737 143.40765619 138.71702576 140.4697876 C137.90085214 139.64999235 137.90085214 139.64999235 137.06819016 138.81363559 C135.24346501 136.98327395 133.41167788 135.16014911 131.57983398 133.33691406 C130.27041076 132.02641798 128.9614206 130.71548907 127.65283203 129.40415955 C124.09765142 125.84412933 120.53624856 122.29038404 116.9735744 118.73785496 C113.25116165 115.02421681 109.5340129 111.30531666 105.81617737 107.58709717 C99.57429694 101.34615339 93.32855415 95.10909627 87.08032227 88.87451172 C79.84582549 81.65575765 72.61658596 74.43177293 65.3903231 67.204777 C58.4483858 60.26223048 51.50360091 53.32254024 44.55720711 46.38445282 C41.59590251 43.42668807 38.63545718 40.46806713 35.67565727 37.50879669 C32.19543149 34.02957162 28.71268019 30.5528946 25.2279129 27.07821846 C23.94547766 25.7987165 22.66390005 24.51835432 21.38321877 23.23709679 C19.64310882 21.49649999 17.89998072 19.75898555 16.1559906 18.02227783 C15.38616204 17.25012637 15.38616204 17.25012637 14.60078138 16.46237588 C12.63779885 14.05371836 12.63779885 14.05371836 10 13 Z M974.31137508 16.55954361 C973.52199089 17.35329706 973.52199089 17.35329706 972.71665955 18.16308594 C972.160442 18.71844906 971.60422445 19.27381218 971.03115183 19.84600449 C969.15241103 21.72308723 967.27728615 23.60374205 965.40209961 25.484375 C964.06228234 26.8244741 962.72224531 28.16435352 961.38200378 29.50402832 C957.73117594 33.15456801 954.08345006 36.80819339 950.43624949 40.46235657 C946.62900136 44.27583539 942.81894094 48.08650224 939.00917053 51.89746094 C931.78942672 59.12031891 924.57223686 66.3457233 917.35594803 73.57203293 C909.14280918 81.79633029 900.92684711 90.01780478 892.71063983 98.23903656 C875.80393702 115.15620568 858.90080493 132.07693884 842 149 C842.96024775 150.12704093 843.92144971 151.25326891 844.88305664 152.37915039 C845.41822403 153.00640518 845.95339142 153.63365997 846.504776 154.27992249 C848.07501756 156.08629879 849.71117279 157.78005368 851.4375 159.4375 C855.17088189 163.1221856 858.58497608 167.02120553 862 171 C862.88354655 172.00831053 863.76770766 173.01608274 864.65234375 174.0234375 C872.5262842 183.03674928 879.85775045 192.39929066 887 202 C887.54301758 202.72735352 888.08603516 203.45470703 888.64550781 204.20410156 C936.36684029 268.37128837 965.04420399 343.41968776 978 422 C978.33 422 978.66 422 979 422 C979 287.03 979 152.06 979 13 C976.9311074 13 975.69451734 15.18219012 974.31137508 16.55954361 Z M496 14 C497.48841888 21.31031232 499.57995944 28.31303098 501.8671875 35.41015625 C502.46036763 37.26862084 503.05354394 39.12708665 503.64657879 40.98559761 C504.28062789 42.97031365 504.91653009 44.95442736 505.552948 46.93838501 C507.59955029 53.31954574 509.6336264 59.70470347 511.66789818 66.0898037 C512.13870654 67.56749735 512.60964602 69.04514924 513.08071327 70.52276039 C517.88974735 85.60929999 522.61561942 100.72117228 527.32312775 115.83964157 C534.51618738 138.93783366 541.80066576 162.00529836 549.15498734 185.05263138 C556.97565025 209.56268383 564.69070562 234.10447101 572.34179688 258.66796875 C573.12103663 261.16928863 573.90033188 263.67059122 574.6796875 266.171875 C575.04829895 267.35495239 575.4169104 268.53802979 575.79669189 269.75695801 C579.15383175 280.51869567 582.56546289 291.26274198 586 302 C590.2692254 300.39026255 593.62389453 298.22596034 597.25 295.5 C631.16757898 270.78894213 671.25822847 257.13962476 712.7421875 252.578125 C714.16570526 252.40048363 714.16570526 252.40048363 715.61798096 252.21925354 C719 252 719 252 722.31021118 252.47419739 C729.71636927 253.12618775 734.34449778 251.91102123 740.17111206 247.14749146 C745.76617034 242.11547304 751.00127955 236.73765 756.20942497 231.3114841 C758.85794879 228.56849026 761.54970274 225.86857135 764.23693848 223.16358948 C769.30684756 218.04725972 774.33734044 212.89396009 779.35441637 207.72586924 C785.07308138 201.83890409 790.83496189 195.99503079 796.600667 190.15418708 C808.44880175 178.14972177 820.24215942 166.09293272 832 154 C831.04004624 152.87300095 830.0790954 151.74685114 829.11772156 150.62106323 C828.58269862 149.99384809 828.04767569 149.36663296 827.49643993 148.7204113 C825.91739622 146.90503295 824.27715037 145.2131933 822.51953125 143.5703125 C821.61847656 142.72605713 821.61847656 142.72605713 820.69921875 141.86474609 C820.07660156 141.29062988 819.45398437 140.71651367 818.8125 140.125 C818.1525 139.51350098 817.4925 138.90200195 816.8125 138.27197266 C811.38610189 133.28153032 805.77674208 128.58018782 800 124 C798.87260041 123.08207549 797.74636466 122.1627203 796.62109375 121.2421875 C711.23955663 51.67332486 605.61556723 15.96790495 496 14 Z M348 37 C346.3917334 37.51965332 346.3917334 37.51965332 344.75097656 38.04980469 C290.50988592 55.73113844 239.32732619 83.0225747 195 119 C194.07316406 119.74507812 193.14632812 120.49015625 192.19140625 121.2578125 C189.44259637 123.48398944 186.71735268 125.73553943 184 128 C183.1961084 128.66636475 183.1961084 128.66636475 182.37597656 129.34619141 C173.43201803 136.78248323 165.10169192 144.6560648 157 153 C158.3355685 155.94938755 159.81274863 158.08459791 162.05481148 160.41263962 C162.68552059 161.07199878 163.31622971 161.73135795 163.96605122 162.4106977 C165.00779651 163.48463165 165.00779651 163.48463165 166.07058716 164.58026123 C166.80769767 165.34730322 167.54480818 166.11434521 168.30425537 166.9046309 C170.7838482 169.48141773 173.27084399 172.05092233 175.75830078 174.62011719 C177.53618332 176.46290634 179.31391507 178.305841 181.09150696 180.14891052 C197.37963618 197.01524344 213.79149456 213.76116711 230.23709297 230.47384262 C232.44128452 232.71448186 234.64511477 234.95547577 236.84863281 237.19677734 C237.39625435 237.7537603 237.9438759 238.31074326 238.50809203 238.88460448 C247.33877121 247.87054226 256.09303231 256.9273666 264.81977047 266.01415333 C273.80721921 275.36921067 282.87107182 284.64501079 292.00863826 293.85351872 C297.12719656 299.01604261 302.20641763 304.20714888 307.20029068 309.49062347 C329.79861448 335.23915955 329.79861448 335.23915955 360.53402936 346.68936086 C369.15773354 346.87881736 377.58843039 345.83721835 386 344 C388.14024767 338.73459353 390.26149622 333.49106813 392.00439453 328.07788086 C392.34714417 327.01900162 392.6898938 325.96012238 393.04302979 324.86915588 C393.40265808 323.74573288 393.76228638 322.62230988 394.1328125 321.46484375 C394.52176697 320.25896103 394.91072144 319.05307831 395.3114624 317.81065369 C396.36681546 314.53765827 397.41752405 311.26318953 398.46718597 307.98836517 C399.35708368 305.21393327 400.2497282 302.44038783 401.14222145 299.66679001 C407.48991088 279.93617467 413.74830839 260.17798257 419.96588135 240.40597534 C426.43535447 219.84041006 433.05219412 199.32499125 439.7078476 178.8191452 C446.59158118 157.60922419 453.38659722 136.37443353 460.06787109 115.09963989 C464.62766751 100.58585892 469.24687111 86.0930342 473.9375 71.62109375 C474.18994476 70.84206821 474.44238953 70.06304268 474.70248413 69.26041031 C477.19741637 61.56277608 479.69645767 53.86649383 482.20381165 46.17289639 C483.12806905 43.33547103 484.05030574 40.49739126 484.97219849 37.65919685 C485.40108082 36.34071976 485.83096162 35.02256697 486.26193237 33.70477104 C488.39659437 27.17746946 490.45447502 20.6936396 492 14 C443.39827225 13.43552093 394.12134816 21.95765085 348 37 Z M153 156 C151.97302769 157.12172274 150.97962311 158.27419755 150 159.4375 C146.64613663 163.33430437 143.09520512 166.95241294 139.40625 170.53125 C94.8975824 216.19598689 53.55511294 281.77954822 38 344 C137.99 344 237.98 344 341 344 C336.33668044 338.50915044 336.33668044 338.50915044 331.43776226 333.31192112 C330.79593807 332.66748918 330.15411388 332.02305724 329.49284047 331.35909706 C328.806738 330.67522531 328.12063552 329.99135356 327.41374207 329.28675842 C326.6701981 328.54165447 325.92665414 327.79655052 325.16057855 327.02886766 C322.68257948 324.54689786 320.20104298 322.0684964 317.71948242 319.59008789 C315.93678413 317.80603389 314.1542985 316.02176736 312.37200928 314.23730469 C308.04301216 309.90422753 303.71168675 305.57349001 299.37919714 301.24390519 C295.86015691 297.72712655 292.34209784 294.20936918 288.82473183 290.69091606 C288.07287374 289.93882813 288.07287374 289.93882813 287.30582661 289.1715465 C286.28754231 288.15294247 285.26926025 287.1343362 284.25098041 286.11572772 C274.7168837 276.5787836 265.17973122 267.04490007 255.64152179 257.51206946 C247.4510866 249.32610985 239.26328829 241.13752044 231.07739258 232.94702148 C221.56854597 223.43283019 212.05808829 213.92025417 202.54503137 204.41027254 C201.53208193 203.39764165 200.51913458 202.38500867 199.50618935 201.37237358 C198.75859937 200.62501501 198.75859937 200.62501501 197.99590656 199.86255829 C194.47728043 196.34479703 190.95981893 192.82587378 187.44280052 189.3065052 C182.71822681 184.57884371 177.9910271 179.85382374 173.26200867 175.1306076 C171.52159966 173.3915272 169.78205279 171.65158353 168.04340553 169.91074181 C165.68167613 167.54630509 163.31692922 165.18492985 160.95133972 162.82435608 C160.25408364 162.12486928 159.55682756 161.42538247 158.8384425 160.7046991 C158.20965705 160.07852139 157.5808716 159.45234368 156.93303204 158.8071909 C156.38682915 158.26115037 155.84062627 157.71510984 155.27787179 157.15252262 C154.16304055 155.88837548 154.16304055 155.88837548 153 156 Z M832.30148888 158.44962215 C831.61751848 159.13413732 830.93354809 159.81865248 830.22885132 160.52391052 C829.44358566 161.30498169 828.65832001 162.08605286 827.84925842 162.89079285 C826.98683029 163.75884048 826.12440216 164.62688812 825.23583984 165.52124023 C824.32846573 166.426716 823.42109161 167.33219177 822.48622131 168.2651062 C819.99214459 170.75432366 817.50438198 173.24976608 815.01780653 175.74647403 C812.41990045 178.3531418 809.81674587 180.95455812 807.21426392 183.55665588 C802.84450355 187.92735367 798.47863925 192.30191287 794.11523438 196.67895508 C789.06300898 201.74691172 784.00557032 206.80961712 778.94510686 211.86934704 C774.08598177 216.72786278 769.22971586 221.58922528 764.37504959 226.45219612 C762.30485036 228.5259353 760.23379551 230.59881447 758.1620903 232.67104912 C755.27350188 235.56082422 752.38919007 238.45483052 749.50537109 241.34936523 C748.2056562 242.64840034 748.2056562 242.64840034 746.87968445 243.97367859 C746.10005844 244.75756958 745.32043243 245.54146057 744.5171814 246.34910583 C743.83396505 247.03399802 743.15074871 247.71889021 742.44682884 248.42453671 C740.8872669 249.76625295 740.8872669 249.76625295 741 251 C741.83845459 251.06469482 742.67690918 251.12938965 743.54077148 251.19604492 C768.76320565 253.19973642 793.01474071 256.54622404 817 265 C817.67788574 265.23299805 818.35577148 265.46599609 819.05419922 265.70605469 C844.20982174 274.39562174 867.22721504 287.40911964 888 304 C888.81162598 304.63808594 888.81162598 304.63808594 889.63964844 305.2890625 C897.15887504 311.23341069 904.01068388 317.81584972 910.8125 324.5625 C911.60116455 325.34181885 912.3898291 326.1211377 913.20239258 326.92407227 C917.20204272 330.94563599 920.62691991 334.88282049 923.85546875 339.55078125 C926.06213481 342.37201052 927.22865973 343.77367944 930.68676758 344.78833008 C933.68784723 344.98265547 936.50452995 344.8805191 939.5 344.625 C940.51320313 344.57988281 941.52640625 344.53476563 942.5703125 344.48828125 C945.05315251 344.37116615 947.52336886 344.20766386 950 344 C944.23487131 323.91485944 936.01926287 304.8140007 927 286 C926.64583008 285.2584668 926.29166016 284.51693359 925.92675781 283.75292969 C923.70185229 279.1237979 921.38243256 274.54989311 919 270 C918.5767041 269.18917969 918.1534082 268.37835937 917.71728516 267.54296875 C903.93690034 241.31312103 887.54950069 217.07076005 869 194 C867.86304687 192.57107422 867.86304687 192.57107422 866.703125 191.11328125 C861.88154638 185.12050357 856.8030407 179.4272761 851.57421875 173.79296875 C849.40208617 171.43625434 847.28099565 169.05123668 845.1875 166.625 C842.25556233 163.25609085 839.27199415 160.04371549 836 157 C833.88137682 156.78360739 833.88137682 156.78360739 832.30148888 158.44962215 Z M713.33203125 275.77734375 C711.4404401 277.7124247 709.53460194 279.63323524 707.6290741 281.55458069 C703.15612038 286.08111087 698.73413813 290.65416866 694.32873505 295.24636132 C689.30687367 300.47579705 684.22680895 305.64711575 679.14269602 310.81592929 C671.25552065 318.83848887 663.3987529 326.89006654 655.59301758 334.99194336 C654.81870392 335.7925116 654.04439026 336.59307983 653.24661255 337.41790771 C652.55045334 338.14289963 651.85429413 338.86789154 651.13703918 339.61485291 C650.52752316 340.24812469 649.91800714 340.88139647 649.29002094 341.5338583 C647.88990419 342.79964733 647.88990419 342.79964733 648 344 C737.76 344 827.52 344 920 344 C914.94103348 337.25471131 909.92837081 331.5791214 904 325.6875 C903.06518799 324.75760254 902.13037598 323.82770508 901.16723633 322.86962891 C894.1530593 315.97323061 887.00990871 309.69476001 879 304 C878.10764648 303.349104 878.10764648 303.349104 877.19726562 302.68505859 C844.05514532 278.55572493 805.9778559 263.35671883 765.3125 258.1875 C763.8908252 258.0013916 763.8908252 258.0013916 762.44042969 257.81152344 C760.50973077 257.5903315 758.57279553 257.41821739 756.63339233 257.29476929 C753.98156238 257.07963204 751.53519173 256.74881785 748.93063354 256.29293823 C732.17020552 254.05834133 724.1250617 264.39647312 713.33203125 275.77734375 Z M589 308 C590.35064678 315.92148184 592.57221587 323.43127153 595.0625 331.0625 C595.42666016 332.20138672 595.79082031 333.34027344 596.16601562 334.51367188 C597.42277247 339.6190611 597.42277247 339.6190611 600 344 C614.12745513 347.46074886 631.69485018 349.61303982 644.92964172 342.40427399 C659.5462457 332.62331184 671.55074114 318.70940385 683.32798076 305.75368059 C688.13350682 300.47694326 693.06884432 295.32887597 698.0147469 290.18407071 C705.68261284 282.20155473 713.28020794 274.15649519 720.77197266 266.00805664 C721.51015228 265.2074884 722.24833191 264.40692017 723.00888062 263.58209229 C724.00326141 262.49460442 724.00326141 262.49460442 725.01773071 261.38514709 C725.8871955 260.43523942 725.8871955 260.43523942 726.77422523 259.4661417 C728.10690263 258.19064202 728.10690263 258.19064202 728 257 C677.49252779 255.86567143 628.73618804 278.70023329 589 308 Z M579.9375 309.5625 C576.6234946 312.6111491 573.29524906 315.63283211 569.875 318.5625 C561.7199685 325.68777192 554.69584937 333.50272923 548 342 C547.20722656 342.98742188 546.41445312 343.97484375 545.59765625 344.9921875 C506.31879628 394.75782051 488.54010824 457.94555718 494.76928711 520.91796875 C500.48511299 569.43775904 520.06745218 615.00999525 552 652 C552.66902344 652.77988281 553.33804688 653.55976562 554.02734375 654.36328125 C564.0983224 665.82206702 574.88368628 676.7095358 587 686 C587.78632813 686.61875 588.57265625 687.2375 589.3828125 687.875 C592.82040749 690.90472623 592.82040749 690.90472623 597 692 C597 692.66 597 693.32 597 694 C596.36320312 693.72027344 595.72640625 693.44054688 595.0703125 693.15234375 C527.45265612 665.26230246 445.64125207 669.7664267 378.84082031 697.30224609 C337.42895188 715.04740703 298.39657806 741.54422825 269 776 C268.1646875 776.94746094 267.329375 777.89492187 266.46875 778.87109375 C240.21509571 808.89572748 221.54500544 843.96698563 210 882 C210.99 882.33 211.98 882.66 213 883 C213.31469238 882.10583374 213.31469238 882.10583374 213.63574219 881.19360352 C227.50743671 842.14693927 247.05536316 805.99014519 275.53125 775.65625 C277.51252002 773.52450377 279.39207027 771.36209906 281.25 769.125 C290.35688085 758.6705616 301.19111221 749.63586268 312.24511719 741.32226562 C314.00928297 739.99300548 315.75844573 738.64552714 317.5078125 737.296875 C327.50104584 729.68622454 338.09377642 723.21388739 349 717 C349.7626416 716.56300781 350.5252832 716.12601563 351.31103516 715.67578125 C416.31659647 678.82937632 496.84027862 670.41566364 568.74169922 689.44287109 C573.85969625 690.86334058 578.93661305 692.39639637 584 694 C585.3627002 694.43022461 585.3627002 694.43022461 586.75292969 694.86914062 C616.61941082 704.52317283 645.23347681 719.77671863 670 739 C670.87527344 739.67417969 671.75054688 740.34835937 672.65234375 741.04296875 C675.13314695 742.99303286 677.57104118 744.98574147 680 747 C680.49757813 747.40734375 680.99515625 747.8146875 681.5078125 748.234375 C695.5897466 759.79924841 708.92016274 772.49902001 720 787 C721.01203228 788.28463357 722.02513823 789.5684217 723.0390625 790.8515625 C742.8715191 816.13640237 758.16605241 843.95503373 769.08227539 874.16845703 C769.43539795 875.14411621 769.78852051 876.11977539 770.15234375 877.125 C770.6162854 878.42824219 770.6162854 878.42824219 771.08959961 879.7578125 C772.00234448 882.22119054 772.00234448 882.22119054 774 885 C775.2214605 880.72734689 774.70733069 878.11790801 773.296875 873.94140625 C772.89927979 872.76167236 772.50168457 871.58193848 772.09204102 870.36645508 C771.64642745 869.09785982 771.19903837 867.82988704 770.75 866.5625 C770.52480682 865.91783783 770.29961365 865.27317566 770.06759644 864.60897827 C759.55009797 834.65103997 742.55368087 807.12974359 722 783 C721.12406706 781.93957202 720.24911695 780.87833166 719.375 779.81640625 C708.16738887 766.32536803 695.87902807 753.74567408 682 743 C680.74538317 741.99338882 679.49293135 740.98407568 678.2421875 739.97265625 C676.91155676 738.89831558 675.58082813 737.82409614 674.25 736.75 C673.63560059 736.25395264 673.02120117 735.75790527 672.38818359 735.24682617 C668.35477264 732.01585401 664.22884043 728.97103148 660 726 C663.30643092 726.6320147 666.54233193 727.38220387 669.7890625 728.26953125 C680.89052848 731.22671134 691.94449582 733.67871886 703.3125 735.375 C704.41352051 735.54233643 705.51454102 735.70967285 706.64892578 735.88208008 C713.47570901 736.84600154 720.10871042 737.20084217 727 737 C726.67 735.68 726.34 734.36 726 733 C725.30777344 732.93530518 724.61554687 732.87061035 723.90234375 732.80395508 C658.90653382 726.56876745 597.49293483 700.42722862 554.89453125 649.359375 C552.16506951 645.97755355 549.56878821 642.50461813 547 639 C546.36288086 638.14607666 546.36288086 638.14607666 545.71289062 637.27490234 C514.94218714 595.99514241 498.79074412 546.71569498 498.75 495.3125 C498.74932526 494.54265778 498.74865051 493.77281555 498.74795532 492.97964478 C498.76664884 479.47331576 499.58852621 466.3145921 502 453 C502.16097168 452.10667969 502.32194336 451.21335937 502.48779297 450.29296875 C510.48307811 407.83577734 529.66374832 367.99620789 558.97265625 336.21484375 C560.77273272 334.24828622 562.4808807 332.23459198 564.1875 330.1875 C570.934758 322.42418433 578.88687554 315.30680619 587 309 C586.67 307.68 586.34 306.36 586 305 C583.81763706 305 581.38326521 308.22810047 579.9375 309.5625 Z M37 346 C25.9449394 381.73259082 18.4248961 417.71664512 15 455 C14.92797363 455.78117187 14.85594727 456.56234375 14.78173828 457.3671875 C13.73988302 469.26147143 14 481.02498683 14 493 C88.25 493 162.5 493 239 493 C234.78436113 488.7485028 234.78436113 488.7485028 230.2421875 485.16015625 C229.54416016 484.66193359 228.84613281 484.16371094 228.12695312 483.65039062 C227.38380859 483.12638672 226.64066406 482.60238281 225.875 482.0625 C224.25718457 480.90843183 222.64001796 479.75345368 221.0234375 478.59765625 C219.77771973 477.70844482 219.77771973 477.70844482 218.50683594 476.80126953 C214.47657304 473.90535215 210.48878174 470.95265428 206.5 468 C200.36024574 463.46194802 194.19653532 458.96020318 188 454.5 C180.99784758 449.45992181 174.04386744 444.35786615 167.10546875 439.23046875 C161.76142179 435.28584489 156.39081451 431.38041885 151 427.5 C140.80643537 420.15996467 130.70598373 412.69545394 120.60449219 405.22949219 C111.36195339 398.40034581 102.0961172 391.6079307 92.76928711 384.89428711 C86.52100458 380.39091603 80.32053202 375.82470905 74.12744141 371.24584961 C67.82140172 366.58941169 61.4699684 361.99852337 55.09936523 357.4309082 C50.49183089 354.11615391 45.98912297 350.71213694 41.62890625 347.07421875 C39.90779836 345.72473231 39.90779836 345.72473231 37 346 Z M943.9375 350.5 C943.36966797 350.92925781 942.80183594 351.35851563 942.21679688 351.80078125 C940.80958544 352.8650588 939.40458624 353.93226023 938 355 C938.64691703 359.00892523 940.75315439 362.06578155 942.875 365.4375 C952.17111265 380.62949478 959.99887721 396.22553049 966 413 C967.19475142 409.48339281 966.8049686 406.99834555 966.03125 403.3984375 C965.79317627 402.28057861 965.55510254 401.16271973 965.30981445 400.01098633 C965.04257568 398.81111084 964.77533691 397.61123535 964.5 396.375 C964.22953857 395.13838623 963.95907715 393.90177246 963.68041992 392.62768555 C960.17771799 376.90797478 956.23766331 361.23827725 951 346 C948.5893798 346 945.87079311 349.02848776 943.9375 350.5 Z M927.53515625 362.3515625 C926.82746094 362.86589844 926.11976563 363.38023437 925.390625 363.91015625 C924.62234375 364.47605469 923.8540625 365.04195312 923.0625 365.625 C921.86173828 366.50091797 921.86173828 366.50091797 920.63671875 367.39453125 C918.08687176 369.25726994 915.54262015 371.12741103 913 373 C912.20190918 373.58749023 911.40381836 374.17498047 910.58154297 374.78027344 C907.4235587 377.10624906 904.2666895 379.43372198 901.11181641 381.76391602 C892.0513572 388.45139781 882.91066325 395.02662299 873.77050781 401.60449219 C865.31406964 407.6923875 856.88111091 413.80868741 848.5 420 C838.64592179 427.27942622 828.71425666 434.44830324 818.77050781 441.60449219 C810.31406756 447.692389 801.88121879 453.80883123 793.5 460 C782.77456293 467.92054189 772.01419329 475.79495448 761.09375 483.4453125 C760.30242676 484.00009277 759.51110352 484.55487305 758.69580078 485.12646484 C757.17560438 486.18993066 755.65321804 487.25027443 754.12841797 488.30712891 C752.40167667 489.51374254 750.69804867 490.75333136 749 492 C749 492.33 749 492.66 749 493 C823.25 493 897.5 493 974 493 C974.11962078 476.25592953 974.11962078 476.25592953 972.4375 459.875 C972.26041504 458.74594238 972.08333008 457.61688477 971.90087891 456.45361328 C966.32854289 422.93114738 953.86447545 387.28431405 933 360 C930.41144451 360 929.61465932 360.83034238 927.53515625 362.3515625 Z M14 497 C13.99194536 500.03149952 13.98607557 503.06297732 13.98144531 506.09448242 C13.97895782 506.94632866 13.97647034 507.7981749 13.97390747 508.67583466 C13.96638876 515.2482795 14.20536367 521.76100611 14.75 528.3125 C14.88196777 529.93345581 14.88196777 529.93345581 15.01660156 531.5871582 C21.54541176 607.06171245 44.38091599 680.33195702 84 745 C84.51804199 745.85271484 85.03608398 746.70542969 85.56982422 747.58398438 C104.39806689 778.4785117 127.59119028 805.44686494 152 832 C155.24730397 830.54905481 157.63736413 828.74105018 160.28985596 826.38131714 C161.14095821 825.62562407 161.99206047 824.86993101 162.8689537 824.09133816 C163.79552906 823.2579495 164.72210442 822.42456083 165.67675781 821.56591797 C166.40415185 820.91386074 166.40415185 820.91386074 167.14624071 820.24863064 C180.75102219 808.04481835 194.07206433 795.53738121 207.25 782.875 C207.86456369 782.28493746 208.47912739 781.69487493 209.11231422 781.08693171 C251.9840591 739.85922569 278.21690737 703.42453436 290.47891235 643.90898132 C294.18799592 625.92611657 300.11269458 608.90171166 306.33718872 591.65684509 C308.88367344 584.57173953 311.27073284 577.43190293 313.66692924 570.29489231 C314.8016828 566.91758729 315.94427071 563.54294249 317.0859375 560.16796875 C318.35653742 556.40601263 319 554.00836871 319 550 C316.60122765 548.0158682 314.27691639 546.32732771 311.6875 544.625 C310.11451426 543.55409457 308.54295024 542.48109852 306.97265625 541.40625 C305.74119873 540.56900391 305.74119873 540.56900391 304.48486328 539.71484375 C300.46538456 536.94093743 296.54604946 534.03562518 292.625 531.125 C291.83577148 530.54129639 291.04654297 529.95759277 290.23339844 529.35620117 C288.62564721 528.16700618 287.01838882 526.9771446 285.41162109 525.78662109 C281.42370685 522.83222178 277.4310523 519.88427138 273.4375 516.9375 C272.75574707 516.43299316 272.07399414 515.92848633 271.37158203 515.40869141 C269.91925334 514.33671068 268.45540877 513.28020344 266.98202324 512.23735332 C264.67004143 510.5027189 262.53782746 508.73456678 260.37074471 506.83314991 C248.08855039 496.4891128 238.35367981 495.16688628 222.65966797 495.52416992 C220.37132987 495.5278455 218.08297648 495.52576174 215.79464722 495.51841736 C209.63750926 495.51471677 203.48372432 495.59065185 197.32735968 495.68187881 C190.87337507 495.76364795 184.41929696 495.7708214 177.96487427 495.78620911 C167.14959427 495.82190713 156.33567632 495.90286965 145.52099609 496.01928711 C134.3914998 496.13896747 123.26233574 496.2308115 112.13232422 496.28588867 C111.09994329 496.29101178 111.09994329 496.29101178 110.04670618 496.29623839 C106.59327514 496.31320624 103.13984177 496.32963387 99.68640685 496.34579313 C71.12345109 496.48014093 42.56177341 496.7097174 14 497 Z M727.64031589 507.5914731 C725.46362891 509.46057781 723.15668386 511.12023802 720.81640625 512.77734375 C719.39727698 513.82916518 717.97928228 514.88251935 716.5625 515.9375 C708.18679249 522.13971529 699.75373702 528.25828679 691.29541016 534.34716797 C687.23632527 537.26995086 683.18064807 540.1974511 679.125 543.125 C678.36952881 543.66970947 677.61405762 544.21441895 676.83569336 544.77563477 C676.12936768 545.28537842 675.42304199 545.79512207 674.6953125 546.3203125 C674.07672363 546.76648926 673.45813477 547.21266602 672.82080078 547.67236328 C670.86685094 549.09708563 668.93154008 550.54508063 667 552 C668.63878908 560.35375779 671.25911966 568.34979957 673.90185547 576.42700195 C674.40510628 577.97525563 674.90808448 579.52359794 675.41081238 581.07202148 C679.99265681 595.16422111 684.62743127 609.23938883 689.2735424 623.3105135 C692.70052207 633.69110766 696.10354584 644.07889991 699.4750737 654.47764045 C701.8559036 661.81376736 704.26459997 669.14039207 706.69353211 676.46073121 C708.13961257 680.82153775 709.57340896 685.18548391 710.97698593 689.56017494 C712.29968119 693.68090898 713.65690819 697.78868355 715.04001808 701.88951874 C715.53786231 703.38484446 716.02368198 704.88424444 716.49555397 706.38796806 C719.9115836 717.23805703 724.76143971 725.09947827 734 732 C737.89925492 733.29828003 740.99005369 733.37082551 745.0625 733 C746.0827124 732.95182129 747.1029248 732.90364258 748.15405273 732.85400391 C751.45063984 732.65960197 754.71649241 732.35043283 758 732 C759.10988281 731.88495117 760.21976563 731.76990234 761.36328125 731.65136719 C804.99654739 726.78225704 847.53431578 710.46329016 882 683 C882.87398437 682.31808594 883.74796875 681.63617187 884.6484375 680.93359375 C911.21089786 659.78488997 932.25086149 634.02844611 948 604 C948.4021875 603.23510254 948.804375 602.47020508 949.21875 601.68212891 C960.62484378 579.66747682 967.77663479 556.38501777 972 532 C972.12987305 531.28457031 972.25974609 530.56914063 972.39355469 529.83203125 C973.78608553 522.01513542 974.09403006 514.46387829 974.04296875 506.546875 C974.03986694 505.62567871 974.03676514 504.70448242 974.03356934 503.75537109 C974.02553754 501.50354785 974.01427585 499.25179085 974 497 C944.86163825 496.72565287 915.72340354 496.51357898 886.58400616 496.38721605 C883.13599873 496.37220938 879.68799385 496.35667733 876.23999023 496.34082031 C875.21043113 496.33609872 875.21043113 496.33609872 874.16007286 496.33128175 C863.07783105 496.2792083 851.9963439 496.18467489 840.91454829 496.07416645 C829.52505904 495.96154548 818.1361793 495.89610804 806.74611706 495.87093806 C800.35588291 495.85534617 793.96735442 495.81892604 787.57766914 495.73123932 C781.55167161 495.64922078 775.52806676 495.62477224 769.50156403 495.64270782 C767.30098102 495.63943134 765.10031032 495.61589296 762.90021324 495.5695343 C748.00518589 495.2713187 738.99480244 497.73597932 727.64031589 507.5914731 Z M978 569 C977.8548999 569.82274414 977.7097998 570.64548828 977.56030273 571.49316406 C968.32255736 623.41454708 952.61445669 671.82102656 929 719 C928.55688477 719.89412598 928.11376953 720.78825195 927.65722656 721.70947266 C917.30440673 742.511049 904.80134376 762.32301223 891 781 C890.22398437 782.05832031 889.44796875 783.11664062 888.6484375 784.20703125 C886.4585375 787.15914026 884.23865856 790.08471752 882 793 C881.58959473 793.53657227 881.17918945 794.07314453 880.75634766 794.62597656 C872.29806276 805.65575807 863.4270968 816.32773789 853.83984375 826.3984375 C852.8029541 827.48825928 852.8029541 827.48825928 851.74511719 828.60009766 C850.39516041 830.01060067 849.03794311 831.41419789 847.67285156 832.81005859 C846.75777832 833.76259521 846.75777832 833.76259521 845.82421875 834.734375 C845.00570435 835.57307129 845.00570435 835.57307129 844.1706543 836.42871094 C842.7012774 838.07438257 842.7012774 838.07438257 843 841 C844.65039473 842.94192997 846.30769124 844.7029915 848.11839294 846.48588562 C848.94425395 847.31664988 848.94425395 847.31664988 849.78679901 848.16419727 C851.64302254 850.02773361 853.50981813 851.88030902 855.37670898 853.7331543 C856.70575647 855.06299218 858.03415118 856.39348272 859.36193848 857.72457886 C862.97699048 861.34477758 866.60133155 864.95554571 870.22749591 868.56460929 C874.01308656 872.3352011 877.79060784 876.11386015 881.56910706 879.89155579 C887.91549556 886.23424838 894.26750144 892.5712696 900.62329102 898.90454102 C908.79350243 907.04586566 916.95441716 915.1964435 925.1124258 923.34999371 C932.11139913 930.34499336 939.11463211 937.33572382 946.11855054 944.32577157 C948.37706128 946.58017543 950.6349792 948.83517176 952.89282036 951.0902462 C956.43365234 954.62619953 959.97712118 958.15948936 963.52269745 961.69068527 C964.82770291 962.99115247 966.13185453 964.29247711 967.43511391 965.59469414 C969.2059749 967.36382049 970.97986148 969.12985365 972.75462341 970.89506531 C973.27698859 971.41829697 973.79935377 971.94152863 974.3375482 972.48061579 C976.32904572 974.92406722 976.32904572 974.92406722 979 976 C979 841.69 979 707.38 979 569 C978.67 569 978.34 569 978 569 Z M10 572 C10 704.99 10 837.98 10 975 C14.42206745 971.20965647 18.65366259 967.49130478 22.73912048 963.38113403 C23.27187971 962.84922923 23.80463894 962.31732443 24.35354239 961.7693013 C26.11689748 960.00757769 27.87668267 958.24233306 29.63647461 956.47705078 C30.90821196 955.20503103 32.18017021 953.93323208 33.45233154 952.66163635 C36.89000008 949.22425372 40.32458524 945.7838053 43.75861049 942.34278345 C47.35359858 938.74152735 50.95143487 935.143119 54.54896545 931.54440308 C61.35414825 924.73611711 68.15677876 917.92528692 74.95848805 911.11353099 C82.70501051 903.35581585 90.45438608 895.60095343 98.20399845 887.84632516 C114.13916776 871.90071444 130.07076433 855.95153812 146 840 C145.04616693 838.88486143 144.09200072 837.77000782 143.13769531 836.65527344 C142.60638 836.03440857 142.0750647 835.4135437 141.52764893 834.77386475 C139.6313447 832.57192741 137.69805403 830.40624301 135.75 828.25 C134.97914063 827.3940625 134.20828125 826.538125 133.4140625 825.65625 C131.81502897 823.89679563 130.20573124 822.14661092 128.5859375 820.40625 C122.52562449 813.86495977 116.98156936 807.05371544 111.54638672 799.99658203 C109.8681223 797.82972911 108.17182083 795.67784174 106.47265625 793.52734375 C99.93585811 785.23463875 93.69154465 776.9036045 88 768 C87.16710807 766.74103233 86.3323481 765.48329923 85.49609375 764.2265625 C46.96678499 706.02226918 22.7386885 640.6363176 11 572 C10.67 572 10.34 572 10 572 Z M967 574 C968 576 968 576 968 576 Z M966 577 C965.76925781 577.55236328 965.53851562 578.10472656 965.30078125 578.67382812 C953.26586834 607.38161444 939.35155993 633.9155996 917.95703125 656.890625 C916.17083919 658.81586196 914.49238076 660.79497572 912.8125 662.8125 C902.62635308 674.42051182 890.44591784 683.9560261 878 693 C877.41234863 693.43376953 876.82469727 693.86753906 876.21923828 694.31445312 C836.53504312 723.35559797 789.29157718 735.2554631 741 738 C745.62432301 743.55153557 750.5485616 748.68532596 755.66748047 753.78100586 C756.51691727 754.63058868 757.36635406 755.48017151 758.24153137 756.35549927 C760.55128322 758.66467735 762.86322545 760.97163402 765.17619467 763.27758861 C767.60031731 765.69542349 770.02157336 768.1161257 772.44314575 770.53651428 C777.02022386 775.11049497 781.59984313 779.68192244 786.18040001 784.25241905 C791.39887351 789.45968184 796.61447862 794.66981362 801.82985473 799.88017833 C812.55006675 810.58996199 823.27384317 821.29616999 834 832 C837.14142376 830.50444769 839.18552318 829.02126994 841.57421875 826.47265625 C842.56881104 825.41630981 842.56881104 825.41630981 843.58349609 824.33862305 C844.27781738 823.58750244 844.97213867 822.83638184 845.6875 822.0625 C846.40502441 821.29268799 847.12254883 820.52287598 847.86181641 819.72973633 C852.41206407 814.81343004 856.78408579 809.82181564 860.94921875 804.57421875 C863.13627562 801.82894164 865.40847769 799.16929108 867.6875 796.5 C912.57320697 742.63715163 969.28250801 649.90599105 967 577 C966.67 577 966.34 577 966 577 Z M487.37890625 684.60546875 C486.61771484 685.17007813 485.85652344 685.7346875 485.07226562 686.31640625 C484.24404297 686.93386719 483.41582031 687.55132813 482.5625 688.1875 C476.071448 693.00075936 469.5609848 697.78248906 463 702.5 C456.8032133 706.95986524 450.64015633 711.46249459 444.5 716 C438.35983731 720.53751011 432.19645339 725.03966576 426 729.5 C416.61219227 736.25983749 407.30303505 743.12417344 398 750 C387.9598876 757.42059673 377.90202492 764.81196039 367.76928711 772.10571289 C362.31893063 776.0339888 356.90316826 780.00712036 351.5 784 C344.6229644 789.08205078 337.70966917 794.11002797 330.76953125 799.10546875 C325.31916162 803.03392016 319.90325984 807.00705268 314.5 811 C307.6229644 816.08205078 300.70966917 821.11002797 293.76953125 826.10546875 C288.31916162 830.03392016 282.90325984 834.00705268 277.5 838 C270.62379195 843.08143923 263.7119472 848.10969023 256.77172852 853.10327148 C251.29622283 857.04867188 245.86179681 861.04707565 240.4375 865.0625 C231.72029549 871.51227568 222.88708802 877.78700377 214 884 C234.99295926 900.94704348 258.9293074 913.97992421 283 926 C284.27738037 926.64461182 284.27738037 926.64461182 285.58056641 927.30224609 C349.03797756 959.1716419 421.13379819 975 492 975 C492 878.31 492 781.62 492 682 C490.16609921 682 488.79755014 683.54854271 487.37890625 684.60546875 Z M495 682 C495 778.69 495 875.38 495 975 C589.09682837 975 682.79188852 946.3117903 761 894 C761.94133789 893.37319336 762.88267578 892.74638672 763.85253906 892.10058594 C764.7700293 891.47700195 765.68751953 890.85341797 766.6328125 890.2109375 C767.4695752 889.6442334 768.30633789 889.0775293 769.16845703 888.49365234 C769.77286621 888.00074707 770.37727539 887.5078418 771 887 C771 886.34 771 885.68 771 885 C769.55342849 883.68253288 769.55342849 883.68253288 767.625 882.3828125 C766.89547119 881.86468994 766.16594238 881.34656738 765.41430664 880.81274414 C764.61758545 880.25578857 763.82086426 879.69883301 763 879.125 C761.33114365 877.94005117 759.66319121 876.75382837 757.99609375 875.56640625 C757.15288574 874.96715332 756.30967773 874.36790039 755.44091797 873.75048828 C751.9411044 871.24061998 748.49809997 868.65924061 745.0625 866.0625 C736.89609434 859.90532984 728.6634253 853.84028577 720.42333984 847.78222656 C715.65399074 844.27464562 710.88909438 840.7610183 706.12353516 837.24829102 C702.17929 834.34134427 698.23372455 831.43622871 694.28515625 828.53515625 C685.31440641 821.94076398 676.38265197 815.29782277 667.48291016 808.60791016 C659.47993602 802.5975069 651.42450924 796.65982078 643.35888672 790.73388672 C638.60994177 787.24320083 633.86681682 783.74460989 629.12255859 780.24755859 C625.17863094 777.3408669 621.23339664 774.43598779 617.28515625 771.53515625 C608.31440641 764.94076398 599.38265197 758.29782277 590.48291016 751.60791016 C582.47993602 745.5975069 574.42450924 739.65982078 566.35888672 733.73388672 C561.60994177 730.24320083 556.86681682 726.74460989 552.12255859 723.24755859 C548.17863094 720.3408669 544.23339664 717.43598779 540.28515625 714.53515625 C531.1560232 707.82397408 522.06018495 701.07221586 513.02368164 694.23657227 C504.52506403 686.53381926 504.52506403 686.53381926 495 682 Z M726 730 C726 730.66 726 731.32 726 732 C726.66 731.67 727.32 731.34 728 731 C727.34 730.67 726.68 730.34 726 730 Z M257 734 C223.67 767.33 190.34 800.66 156 835 C160.60361498 840.51496772 160.60361498 840.51496772 165.625 845.25 C168.53078509 847.71551462 171.35042071 850.24617708 174.13037109 852.85302734 C184.72954124 862.75966759 196.36009284 871.36600293 208 880 C211.01442736 875.47835895 212.56014529 870.47934137 214.421875 865.390625 C214.65220177 864.76220955 214.88252853 864.1337941 215.1198349 863.48633575 C223.33468076 840.99857244 230.76568712 818.22774594 238.3279748 795.51486731 C240.05426922 790.33231389 241.78961996 785.15282423 243.52679372 779.97390914 C245.42194289 774.32273435 247.30883725 768.66882735 249.19246674 763.01380157 C249.98913854 760.62548052 250.78820399 758.23795653 251.58969879 755.85124969 C252.69744829 752.54996241 253.79575818 749.24568481 254.89160156 745.94042969 C255.22389267 744.95681961 255.55618378 743.97320953 255.89854431 742.95979309 C256.19259659 742.06642746 256.48664886 741.17306183 256.78961182 740.25262451 C257.17884008 739.08600847 257.17884008 739.08600847 257.57593155 737.89582443 C258.22615068 735.92590643 258.22615068 735.92590643 257 734 Z M729 738 C730.37563339 744.70077668 732.21763523 751.08795889 734.38891602 757.57080078 C734.72587997 758.58855591 735.06284393 759.60631104 735.41001892 760.65490723 C736.52005987 764.0032528 737.63669089 767.34935452 738.75390625 770.6953125 C739.5368339 773.04866409 740.31953982 775.40208946 741.10203552 777.75558472 C742.74412206 782.69077029 744.3896036 787.62480802 746.03735352 792.55810547 C748.12645146 798.81399669 750.20611329 805.07297611 752.28299046 811.33293343 C753.89947307 816.20094038 755.52167843 821.06702661 757.14542961 825.93261337 C757.91299678 828.23516359 758.67875473 830.53831789 759.44250679 832.84213638 C767.47184852 857.92047568 767.47184852 857.92047568 778 882 C786.12439974 875.81305648 794.1638385 869.55154486 802 863 C802.78213867 862.34741211 802.78213867 862.34741211 803.58007812 861.68164062 C813.38748143 853.47213774 822.73365106 844.81240629 832 836 C827.28041268 830.33901442 822.25212415 825.08030469 817.06054688 819.85180664 C816.18173355 818.96320953 815.30292023 818.07461243 814.3974762 817.15908813 C811.50774768 814.23960386 808.61407169 811.32409103 805.71875 808.41015625 C805.22473883 807.91284775 804.73072765 807.41553926 804.22174644 806.90316081 C799.55856562 802.209254 794.89336031 797.51736805 790.22330475 792.83030033 C784.26633847 786.85136782 778.31969909 780.8625544 772.38648748 774.86004549 C768.20230117 770.62866146 764.00672188 766.40879114 759.80250788 762.19730657 C757.29535615 759.68519991 754.79351558 757.16828816 752.30381775 754.63887215 C749.53210589 751.82351443 746.73702761 749.0321036 743.93945312 746.24243164 C743.11953384 745.40251175 742.29961456 744.56259186 741.45484924 743.69721985 C740.6895842 742.94164795 739.92431915 742.18607605 739.13586426 741.40760803 C738.47812263 740.74563447 737.82038101 740.08366091 737.14270782 739.40162754 C734.32415125 737.55790136 732.2985604 737.74374963 729 738 Z M144.18229377 846.55488151 C143.65895049 847.08336836 143.1356072 847.61185521 142.59640503 848.15635681 C142.03933306 848.71101437 141.48226109 849.26567192 140.90830815 849.83713728 C139.03026204 851.70951721 137.15949024 853.58900332 135.28857422 855.46850586 C133.94881722 856.8071907 132.60862758 858.14544267 131.26803589 859.48329163 C127.61904126 863.12742431 123.97635099 866.77780049 120.33485556 870.429425 C116.53177696 874.2412612 112.72345354 878.04785053 108.915802 881.8551178 C102.52167078 888.25018665 96.13143134 894.6491236 89.74365234 901.05053711 C82.34656999 908.46334937 74.94426973 915.87091777 67.53895175 923.27550215 C60.42982135 930.38402327 53.32354786 937.49539282 46.21887589 944.60836983 C43.18854335 947.64224313 40.15735373 950.67525636 37.12551498 953.70762444 C33.55931436 957.27482589 29.99566191 960.84455353 26.43400955 964.41629601 C25.12225816 965.73098075 23.8096465 967.04480775 22.49613953 968.35773849 C20.71164541 970.14174577 18.93023288 971.92877202 17.14962769 973.71665955 C16.62182296 974.24291567 16.09401823 974.7691718 15.55021942 975.31137508 C13.08774716 977.31408588 13.08774716 977.31408588 12 980 C72.06 980 132.12 980 194 980 C194.33 970.1 194.66 960.2 195 950 C196.56355511 933.97356017 199.05638789 918.48779835 202.41455078 902.76611328 C203.31362836 898.51817795 204.15857572 894.25967392 205 890 C196.88423196 883.15406194 196.88423196 883.15406194 188.5625 876.5625 C177.90783937 868.3591834 167.84742902 859.37305137 158.0078125 850.21875 C157.25588623 849.5237439 157.25588623 849.5237439 156.48876953 848.81469727 C155.0721022 847.50419868 153.66089968 846.18779985 152.25 844.87109375 C148.40724882 841.67547254 147.39318036 843.37490444 144.18229377 846.55488151 Z M836.1171875 844.72265625 C835.37726562 845.49480469 834.63734375 846.26695312 833.875 847.0625 C830.40205909 850.61298664 826.85847116 853.96008809 823.08984375 857.19140625 C820.7302808 859.23342054 818.42986585 861.33399528 816.125 863.4375 C807.07648785 871.58252985 797.33111057 878.86018382 787.66015625 886.2421875 C786.71088257 886.96704346 786.71088257 886.96704346 785.74243164 887.70654297 C784.19706261 888.85371477 782.60138203 889.93241198 781 891 C781.63180823 895.66092901 782.40738707 900.25736888 783.33984375 904.8671875 C788.40052302 930.18483481 790.45529811 953.74006791 792 980 C852.72 980 913.44 980 976 980 C972.20177169 975.56873364 968.47038698 971.32359247 964.35662842 967.22291565 C963.55476258 966.41765148 963.55476258 966.41765148 962.73669744 965.59611934 C960.96581128 963.81896215 959.1914311 962.04533785 957.41699219 960.27172852 C956.13838156 958.99012238 954.85997512 957.70831251 953.58175659 956.42631531 C950.12583825 952.96159988 946.66671706 949.50009968 943.20671749 946.03946042 C941.04556843 943.87759925 938.88513348 941.71502709 936.7249527 939.55219841 C929.19090453 932.00891619 921.65429505 924.46820409 914.11523438 916.92993164 C907.08165638 909.89695627 900.05369519 902.85840221 893.02830005 895.81725365 C886.99523558 889.77114204 880.958351 883.72886306 874.91843915 877.68959183 C871.31114134 874.08254952 867.7054289 870.47395586 864.10353851 866.86151314 C860.7229662 863.47130559 857.33768804 860.0858708 853.94864273 856.70413399 C852.70283072 855.45937304 851.45874155 854.21288516 850.216465 852.96459579 C848.52734495 851.26782723 846.83225564 849.57726329 845.13543701 847.88819885 C844.63953213 847.38715041 844.14362726 846.88610197 843.63269496 846.36987025 C840.13760077 842.553755 840.13760077 842.553755 836.1171875 844.72265625 Z M210 894 C202.81978167 923.30267654 200 949.35036013 200 980 C274.25 980 348.5 980 425 980 C425 979.67 425 979.34 425 979 C424.2786084 978.88519287 423.5572168 978.77038574 422.81396484 978.65209961 C393.57225096 973.9425962 365.12997901 967.3873438 337 958 C335.92411621 957.64180176 334.84823242 957.28360352 333.73974609 956.91455078 C290.53238755 942.35214473 250.08008459 920.87431654 212.61279297 895.03125 C211.17863583 893.91021563 211.17863583 893.91021563 210 894 Z M767.9375 900.0625 C706.70727558 941.58017074 635.36515894 969.1761753 562 979 C562 979.33 562 979.66 562 980 C635.92 980 709.84 980 786 980 C786.125281 964.31771162 786.125281 964.31771162 785.25 948.75 C785.16347168 947.80946777 785.07694336 946.86893555 784.98779297 945.89990234 C783.31852555 929.037236 780.19141819 912.40895634 776 896 C772.76478546 896 770.51740202 898.26856492 767.9375 900.0625 Z " fill="#212121" transform="translate(2816,845)"/>
<path d="M0 0 C383.18128655 0 383.18128655 0 418 7 C419.00836914 7.19932129 420.01673828 7.39864258 421.05566406 7.60400391 C467.54936768 16.99674434 513.60289009 36.11227549 550 67 C551.04781258 67.86372363 552.09601894 68.72696969 553.14453125 69.58984375 C566.28878019 80.51590701 578.56628199 92.43814642 589 106 C589.77214844 106.95519531 590.54429687 107.91039062 591.33984375 108.89453125 C638.48969711 168.11117172 655.02747391 248.44021488 646.6875 322.71875 C639.20332255 382.23578023 617.9145421 436.97393478 577.1875 481.58984375 C575.06733383 483.92581254 573.0030269 486.30326875 570.9375 488.6875 C567.86014566 492.15331721 564.63185938 495.23030467 561.08984375 498.21484375 C559.6764755 499.42215083 558.29371533 500.66607871 556.94140625 501.94140625 C542.92432112 515.13252796 526.70322664 525.56672692 510 535 C509.23252441 535.43795898 508.46504883 535.87591797 507.67431641 536.32714844 C494.32106161 543.88322023 480.35954933 549.64075883 466 555 C465.20271484 555.29890137 464.40542969 555.59780273 463.58398438 555.90576172 C444.38793848 562.98676084 424.2861265 567.51677478 404.125 570.8125 C402.94010986 571.007229 401.75521973 571.20195801 400.53442383 571.40258789 C380.83693885 574.44544133 361.27771627 575.29133354 341.36962891 575.22705078 C338.84384861 575.22643645 336.31806797 575.22670792 333.79228783 575.2277813 C327.77199389 575.22818327 321.75177705 575.21971905 315.73150238 575.20677864 C308.74832422 575.19222588 301.76517537 575.19078088 294.78198242 575.18920898 C276.39631213 575.17876146 258.01065511 575.15083893 239.625 575.125 C198.49875 575.08375 157.3725 575.0425 115 575 C115 711.29 115 847.58 115 988 C77.05 988 39.1 988 0 988 C0 661.96 0 335.92 0 0 Z M115 106 C115 226.12 115 346.24 115 470 C171.120625 470.061875 171.120625 470.061875 228.375 470.125 C240.14591309 470.14320801 251.91682617 470.16141602 264.04443359 470.18017578 C274.68586673 470.18686867 274.68586673 470.18686867 285.32730103 470.19088745 C290.03117803 470.19273495 294.73500892 470.20016612 299.43887329 470.21115112 C305.47163917 470.22504905 311.5043397 470.22894966 317.5371201 470.22614455 C319.73071067 470.22672958 321.92430395 470.23058761 324.11788058 470.23843026 C382.77426297 470.43810148 440.01105314 458.7335402 482.90234375 416.16796875 C509.68123825 388.08278671 524.4366648 350.36369974 528 312 C528.10957031 311.00355469 528.21914063 310.00710938 528.33203125 308.98046875 C532.91615869 261.36666512 522.99133367 209.02452887 492.4375 171.125 C490.97049348 169.40621302 489.49158424 167.69750206 488 166 C486.92298828 164.74123047 486.92298828 164.74123047 485.82421875 163.45703125 C453.40294258 126.31365091 405.16107032 109.4473168 357 106 C353.4954586 105.8770144 349.99637657 105.86851375 346.48994446 105.87974548 C345.49470764 105.87888947 344.49947083 105.87803345 343.47407532 105.87715149 C340.16149041 105.87550924 336.84895717 105.88099872 333.53637695 105.88647461 C331.11205897 105.88678123 328.68774091 105.88664697 326.26342297 105.88610935 C319.79155155 105.88588428 313.31969876 105.89166563 306.84783173 105.89871979 C300.76716556 105.90442929 294.68650385 105.9046837 288.60583496 105.90539551 C270.84138752 105.91063563 253.07694352 105.92459685 235.3125 105.9375 C195.609375 105.958125 155.90625 105.97875 115 106 Z " fill="#212121" transform="translate(481,846)"/>
<path d="M0 0 C1.08658401 -0.00705963 2.17316803 -0.01411926 3.29267883 -0.02139282 C48.31579329 -0.24759824 48.31579329 -0.24759824 68.18359375 3.203125 C69.39982422 3.40711914 70.61605469 3.61111328 71.86914062 3.82128906 C133.62091063 14.37964297 193.17418649 39.41637193 241.18359375 80.203125 C242.16070313 81.0075 243.1378125 81.811875 244.14453125 82.640625 C257.72355869 93.85955889 270.60911635 105.91655233 282.18359375 119.203125 C282.6233252 119.70344238 283.06305664 120.20375977 283.51611328 120.71923828 C295.21333905 134.06407903 305.50843671 148.34347145 315.18359375 163.203125 C315.84359375 164.193125 316.50359375 165.183125 317.18359375 166.203125 C317.18359375 167.193125 317.18359375 168.183125 317.18359375 169.203125 C315.19140625 170.97265625 315.19140625 170.97265625 312.30859375 173.015625 C311.19910932 173.81705997 310.09113076 174.62058226 308.984375 175.42578125 C308.3754541 175.86680176 307.7665332 176.30782227 307.13916016 176.76220703 C303.53434794 179.41833708 300.02139836 182.19288811 296.49609375 184.953125 C290.58272818 189.5686317 284.64920319 194.15534787 278.68359375 198.703125 C271.97911199 203.81565362 265.31428606 208.9771903 258.66357422 214.15942383 C252.19141746 219.20161934 245.70225839 224.22114256 239.18359375 229.203125 C238.46945312 229.78707031 237.7553125 230.37101562 237.01953125 230.97265625 C235.18359375 232.203125 235.18359375 232.203125 232.18359375 232.203125 C230.42981048 229.90548559 228.86428952 227.63041216 227.30859375 225.203125 C218.47088149 211.89884966 208.24363257 199.71398062 197.18359375 188.203125 C196.41015625 187.39681641 196.41015625 187.39681641 195.62109375 186.57421875 C188.53840958 179.23614934 181.24722951 172.47107716 173.18359375 166.203125 C172.20132812 165.41550781 171.2190625 164.62789062 170.20703125 163.81640625 C118.60365195 122.76734176 51.66076212 103.72562897 -13.81640625 110.44921875 C-58.30685368 115.6519668 -102.07881954 132.96995741 -130.70703125 168.71484375 C-153.1618022 198.19459441 -160.20209872 236.44998895 -155.50390625 272.65234375 C-151.50411235 300.52590751 -139.13204872 323.7312645 -119.81640625 344.203125 C-119.16671875 344.91726563 -118.51703125 345.63140625 -117.84765625 346.3671875 C-84.84182379 381.27720261 -32.87128976 402.47366031 9.7980957 422.68847656 C20.45555536 427.76268235 30.99208953 433.07989543 41.53076172 438.39526367 C49.62225186 442.46880276 57.75184697 446.44665338 65.93359375 450.3359375 C78.79272644 456.45528405 91.54939551 462.77504039 104.29003906 469.13623047 C106.88390926 470.43096889 109.4796424 471.721849 112.07714844 473.00927734 C128.73159005 481.26544811 145.10341916 489.86165829 161.18359375 499.203125 C162.73743388 500.0984639 164.29153784 500.99334513 165.84594727 501.88769531 C182.69674799 511.58340313 199.09581927 521.94287097 214.45654297 533.87304688 C217.06289973 535.88031739 219.72087001 537.81682945 222.37109375 539.765625 C228.87475221 544.64557497 235.04421425 549.87798682 241.18359375 555.203125 C241.96734375 555.8734375 242.75109375 556.54375 243.55859375 557.234375 C256.78735084 568.80953745 269.56883362 581.29295242 279.94189453 595.51708984 C281.2218443 597.25506332 282.53982813 598.95818127 283.8671875 600.66015625 C294.99905717 615.11497209 304.20033371 631.34683289 311.18359375 648.203125 C311.47041016 648.89486816 311.75722656 649.58661133 312.05273438 650.29931641 C337.92859981 713.93195935 334.48072223 790.41421006 308.08984375 853.26171875 C293.40034119 887.26144228 270.96184308 920.45974434 242.18359375 944.203125 C241.26707031 945.0075 240.35054687 945.811875 239.40625 946.640625 C224.89046842 959.3422213 208.88503962 969.62055997 192.18359375 979.203125 C191.52149902 979.58452637 190.8594043 979.96592773 190.17724609 980.35888672 C179.26996455 986.57973701 167.80876887 991.4899794 156.18359375 996.203125 C155.41595703 996.51636719 154.64832031 996.82960938 153.85742188 997.15234375 C116.83005227 1012.06750231 76.15718746 1019.18454896 36.37109375 1020.765625 C34.90446289 1020.83040039 34.90446289 1020.83040039 33.40820312 1020.89648438 C-59.14314004 1024.69996423 -152.81782188 996.87668605 -225.81640625 939.203125 C-226.62078125 938.57792969 -227.42515625 937.95273438 -228.25390625 937.30859375 C-248.0900033 921.70038277 -267.48023173 904.48794513 -283.81640625 885.203125 C-284.68523437 884.21183594 -285.5540625 883.22054687 -286.44921875 882.19921875 C-303.27896066 862.94879897 -318.0981033 842.13312656 -331.46826172 820.35498047 C-332.38721775 818.88817886 -333.33569702 817.43956203 -334.30908203 816.00830078 C-334.77685059 815.31075684 -335.24461914 814.61321289 -335.7265625 813.89453125 C-336.36476929 812.97136108 -336.36476929 812.97136108 -337.01586914 812.02954102 C-337.81640625 810.203125 -337.81640625 810.203125 -337.61645508 808.13012695 C-336.23474577 804.80213441 -333.2302694 802.96151492 -330.44140625 800.828125 C-329.77729736 800.30847168 -329.11318848 799.78881836 -328.42895508 799.25341797 C-322.40518071 794.57420507 -316.25335189 790.06642443 -310.09399414 785.56811523 C-304.44667724 781.43591828 -298.89020224 777.20234185 -293.37890625 772.890625 C-287.1672088 768.03189176 -280.93206831 763.21781835 -274.59082031 758.52832031 C-272.37044655 756.87006649 -270.16889613 755.18769439 -267.96484375 753.5078125 C-266.22812408 752.19757264 -264.49114419 750.88767762 -262.75390625 749.578125 C-261.91931885 748.93681641 -261.08473145 748.29550781 -260.22485352 747.63476562 C-259.43908936 747.04630859 -258.6533252 746.45785156 -257.84375 745.8515625 C-257.13984131 745.31708496 -256.43593262 744.78260742 -255.71069336 744.23193359 C-255.08557861 743.89242676 -254.46046387 743.55291992 -253.81640625 743.203125 C-250.10898425 744.43893233 -249.83145754 745.40415794 -247.87890625 748.703125 C-235.86713115 768.21592421 -221.59835266 786.72517213 -206.15234375 803.62109375 C-204.86880565 805.03985409 -203.59171961 806.46492372 -202.34570312 807.91674805 C-197.33713361 813.74708198 -191.99801919 819.20509315 -186.56640625 824.640625 C-185.68855469 825.53072266 -184.81070312 826.42082031 -183.90625 827.33789062 C-177.85690584 833.40052032 -171.50182616 838.8587153 -164.81640625 844.203125 C-162.98052188 845.78349969 -161.1466105 847.36617574 -159.31640625 848.953125 C-146.83850789 859.35946565 -132.95460372 868.2270076 -118.81640625 876.203125 C-118.12708008 876.59564453 -117.43775391 876.98816406 -116.72753906 877.39257812 C-84.61001629 895.51162763 -48.46653802 906.45531129 -11.81640625 910.203125 C-10.29853516 910.36941406 -10.29853516 910.36941406 -8.75 910.5390625 C45.91344182 915.50236887 107.28638747 905.0430596 151.18359375 870.203125 C153.85352437 867.92669655 156.45660704 865.60689596 159.01953125 863.2109375 C160.87484453 861.48958185 162.77080249 859.90655409 164.74609375 858.328125 C190.58187577 836.23490953 204.91053564 799.15928779 208.18359375 766.203125 C208.2936751 763.52014221 208.36956505 760.86235039 208.38671875 758.1796875 C208.3938237 757.44048569 208.40092865 756.70128387 208.4082489 755.93968201 C208.8338359 733.86326826 208.8338359 733.86326826 205.18359375 712.203125 C204.95784668 711.38424805 204.73209961 710.56537109 204.49951172 709.72167969 C199.6283993 692.66807529 192.38361529 677.04540515 181.18359375 663.203125 C180.74144531 662.6555957 180.29929687 662.10806641 179.84375 661.54394531 C168.8542856 648.04536878 156.29942392 637.31011484 142.18359375 627.203125 C141.6019043 626.78595215 141.02021484 626.3687793 140.42089844 625.93896484 C119.08674837 610.81437732 95.48001606 598.96172886 72.18359375 587.203125 C71.49511353 586.85511841 70.8066333 586.50711182 70.09729004 586.14855957 C54.92243471 578.47930458 39.72422581 570.86325912 24.36035156 563.57836914 C14.03006239 558.67593606 3.76032614 553.64990174 -6.51531982 548.63427734 C-15.91428541 544.04687021 -25.31834863 539.47211718 -34.74902344 534.95019531 C-93.770276 506.62476899 -93.770276 506.62476899 -117.81640625 492.203125 C-118.85071777 491.58663086 -119.8850293 490.97013672 -120.95068359 490.33496094 C-140.36746489 478.71749656 -159.10790109 466.30255981 -176.81640625 452.203125 C-177.74453125 451.46835938 -178.67265625 450.73359375 -179.62890625 449.9765625 C-197.80581628 435.36273995 -215.84583069 418.80138002 -229.58203125 399.88623047 C-230.88099804 398.11505225 -232.21947364 396.37945947 -233.56640625 394.64453125 C-240.69224372 385.36399688 -246.45293087 375.58922349 -251.81640625 365.203125 C-252.20038574 364.47174316 -252.58436523 363.74036133 -252.97998047 362.98681641 C-264.1935704 341.42516311 -271.07542505 318.1628239 -274.81640625 294.203125 C-274.9462793 293.37925293 -275.07615234 292.55538086 -275.20996094 291.70654297 C-284.5146297 228.95867166 -267.92659314 162.37652814 -230.34375 111.50390625 C-226.07822857 105.86262508 -221.49410768 100.50407794 -216.81640625 95.203125 C-216.3771582 94.70071289 -215.93791016 94.19830078 -215.48535156 93.68066406 C-162.96817109 33.84455851 -78.85981898 0.34304455 0 0 Z " fill="#212121" transform="translate(1541.81640625,829.796875)"/>
<path d="M0 0 C37.95 0 75.9 0 115 0 C115 291.06 115 582.12 115 882 C265.81 882 416.62 882 572 882 C572 916.98 572 951.96 572 988 C383.24 988 194.48 988 0 988 C0 661.96 0 335.92 0 0 Z " fill="#212121" transform="translate(2072,846)"/>
<path d="M0 0 C12 0 12 0 16.20703125 3 C17.44150305 4.30316365 18.64309115 5.63814867 19.8125 7 C20.7730127 8.03785645 20.7730127 8.03785645 21.75292969 9.09667969 C23.53623452 11.03703953 25.27434807 13.00840671 27 15 C27.69996094 15.78890625 28.39992188 16.5778125 29.12109375 17.390625 C30.18035303 18.59975549 31.22919594 19.8181189 32.265625 21.046875 C35.01926768 24.14782397 38.00105221 27.0212163 40.9519043 29.93237305 C44.20066345 33.15430605 47.22473979 36.49375961 50.19140625 39.97265625 C53.17528004 43.31743054 56.40619732 46.41335157 59.59375 49.5625 C62.24959753 52.25283906 64.70135432 55.06573525 67.15625 57.9375 C69.34796313 60.38924689 71.66067104 62.68885573 74 65 C76.93118191 67.89591958 79.76403174 70.80242571 82.4375 73.9375 C85.74008606 77.80222837 89.32396169 81.35348231 92.93969727 84.92016602 C96.24840315 88.20140901 99.36796656 91.58391837 102.3671875 95.1484375 C104.46962919 97.53254602 106.75230846 99.75230846 109 102 C109.33 69.33 109.66 36.66 110 3 C121.88 3 133.76 3 146 3 C146 60.42 146 117.84 146 177 C132 177 132 177 127.5625 173.5 C126.34130298 172.0273038 125.15290537 170.52674997 124 169 C122.84212186 167.65902755 121.67557756 166.32548342 120.5 165 C119.9328125 164.34 119.365625 163.68 118.78125 163 C116.29742572 160.21114467 113.63288563 157.62313017 110.97265625 155.00390625 C108.42662171 152.41753849 106.07978443 149.6846472 103.71484375 146.93359375 C102.03995701 145.04505403 100.30052413 143.26844352 98.5 141.5 C96.06610268 139.10946833 93.78644441 136.64953738 91.5625 134.0625 C89.14382221 131.25423653 86.64100317 128.60029407 84 126 C80.72797872 122.7784145 77.70683945 119.41407855 74.71484375 115.93359375 C73.03995701 114.04505403 71.30052413 112.26844352 69.5 110.5 C67.06610268 108.10946833 64.78644441 105.64953738 62.5625 103.0625 C60.14382221 100.25423653 57.64100317 97.60029407 55 95 C52.37959391 92.41990785 49.89676588 89.78896393 47.5 87 C43.85171543 82.83053192 39.91755309 78.91755309 36 75 C35.67 107.67 35.34 140.34 35 174 C23.45 174 11.9 174 0 174 C0 116.58 0 59.16 0 0 Z " fill="#212121" transform="translate(738,2026)"/>
<path d="M0 0 C93.31332357 0 93.31332357 0 113 18 C124.86122209 31.20956705 126.78013937 46.47493172 126.17919922 63.44775391 C125.34794433 75.28690734 119.17151052 86.54743293 111 95 C108.82257423 96.77627783 106.53629379 98.33532247 104.1875 99.875 C103.59001953 100.2771875 102.99253906 100.679375 102.37695312 101.09375 C100.92335709 102.07056653 99.46243318 103.03646423 98 104 C102.35015342 111.22983244 107.1480363 117.96451199 112.24536133 124.67626953 C116.42411427 130.19250703 120.43964047 135.80769513 124.40869141 141.47607422 C128.77786479 147.70977194 133.23394119 153.87802836 137.72436523 160.02490234 C138.23942627 160.73340332 138.7544873 161.4419043 139.28515625 162.171875 C139.96396851 163.1014502 139.96396851 163.1014502 140.65649414 164.04980469 C142.21174951 166.30736963 143.60999353 168.6378308 145 171 C139.3446215 171.32363503 133.6947167 171.55820576 128.03222656 171.71411133 C126.11102382 171.7791302 124.19045567 171.86759078 122.27148438 171.98071289 C106.84080237 172.86693449 106.84080237 172.86693449 102.20605469 169.82104492 C98.62857553 166.40313269 96.3684018 162.30295685 94 158 C92.91564915 156.46894541 91.80950299 154.95283143 90.671875 153.4609375 C89.69608428 152.10027055 88.72212679 150.73828706 87.75 149.375 C83.06227291 142.84402323 78.33395094 136.34508748 73.5625 129.875 C72.99563477 129.10591309 72.42876953 128.33682617 71.84472656 127.54443359 C71.29913086 126.80531738 70.75353516 126.06620117 70.19140625 125.3046875 C69.66562988 124.59151367 69.13985352 123.87833984 68.59814453 123.14355469 C67.49674636 121.66627453 66.38229728 120.19866529 65.25732422 118.73925781 C64.70705566 118.02350586 64.15678711 117.30775391 63.58984375 116.5703125 C63.09218506 115.93109863 62.59452637 115.29188477 62.08178711 114.63330078 C61 113 61 113 61 111 C52.75 111 44.5 111 36 111 C36 130.8 36 150.6 36 171 C24.12 171 12.24 171 0 171 C0 114.57 0 58.14 0 0 Z M36 32 C36 47.84 36 63.68 36 80 C40.929375 80.04125 45.85875 80.0825 50.9375 80.125 C52.47398193 80.14320801 54.01046387 80.16141602 55.59350586 80.18017578 C69.69282194 80.30686052 69.69282194 80.30686052 82 74 C87.35581254 68.64418746 89.56988569 63.01440025 90.375 55.5 C89.58349212 48.1125931 87.47125474 42.22808786 82 37 C75.73808279 33.17667677 70.37084808 31.85176165 63.05078125 31.90234375 C62.02325745 31.90385437 62.02325745 31.90385437 60.97497559 31.90539551 C58.42079998 31.91061993 55.86664828 31.92458121 53.3125 31.9375 C44.7428125 31.9684375 44.7428125 31.9684375 36 32 Z " fill="#212121" transform="translate(1623,2029)"/>
<path d="M0 0 C84.23331455 0 84.23331455 0 96.375 6.625 C97.03290527 6.97054932 97.69081055 7.31609863 98.36865234 7.67211914 C111.60877749 14.91895242 119.77295435 25.89527837 124.6875 39.96875 C128.60555742 54.11729067 126.33263331 69.68390477 119.9375 82.625 C114.61197005 91.99523623 107.37427997 98.79206668 98 104 C101.06495708 109.66416088 104.63344088 114.73213186 108.5 119.875 C113.09879981 126.05169593 117.64205113 132.25680508 122.0625 138.5625 C126.35236715 144.67775013 130.68684843 150.75828169 135.0625 156.8125 C135.88536499 157.95150757 135.88536499 157.95150757 136.72485352 159.11352539 C139.63963425 163.1542287 139.63963425 163.1542287 142.66967773 167.1081543 C144 169 144 169 144 171 C138.34471017 171.34852457 132.69576225 171.60111367 127.03222656 171.76904297 C125.11087143 171.83906884 123.19025253 171.93434143 121.27148438 172.05615234 C105.82632843 173.01144006 105.82632843 173.01144006 101.21511841 169.72973633 C98.0885177 166.4887516 95.97262779 162.74265863 93.93212891 158.75518799 C92.65698163 156.35410037 91.07757659 154.25762441 89.41796875 152.109375 C88.88494141 151.38919189 88.35191406 150.66900879 87.80273438 149.92700195 C87.26970703 149.20859131 86.73667969 148.49018066 86.1875 147.75 C80.88633216 140.58244033 75.63830475 133.37894032 70.43823242 126.13769531 C69.94299072 125.44901367 69.44774902 124.76033203 68.9375 124.05078125 C68.51339844 123.45950439 68.08929687 122.86822754 67.65234375 122.2590332 C65.13369792 118.81561862 62.55973535 115.41298047 60 112 C52.08 111.67 44.16 111.34 36 111 C36 130.8 36 150.6 36 171 C24.12 171 12.24 171 0 171 C0 114.57 0 58.14 0 0 Z M36 32 C36 47.84 36 63.68 36 80 C40.888125 80.061875 45.77625 80.12375 50.8125 80.1875 C52.33077393 80.21481201 53.84904785 80.24212402 55.41333008 80.27026367 C65.725451 80.33301491 75.82922131 80.08910189 83.6328125 72.546875 C89.11555519 66.34354327 89.36798269 60.25922946 89.26953125 52.2578125 C88.63801455 44.62469766 84.86910586 40.38910416 79.29296875 35.4453125 C73.90526494 32.04931521 68.08768316 31.71371379 61.87890625 31.8046875 C60.88691223 31.80770874 60.88691223 31.80770874 59.87487793 31.81079102 C57.43734664 31.82114503 54.99991532 31.84906639 52.5625 31.875 C44.3640625 31.936875 44.3640625 31.936875 36 32 Z " fill="#212121" transform="translate(3298,2029)"/>
<path d="M0 0 C11.88 0 23.76 0 36 0 C36.0093457 3.26414795 36.01869141 6.5282959 36.02832031 9.89135742 C36.06218448 20.71205132 36.11778593 31.53255641 36.18390274 42.35309887 C36.22330381 48.90948125 36.25552858 55.4657308 36.27099609 62.0222168 C36.28621098 68.3571791 36.32074279 74.69177602 36.36830902 81.02657509 C36.38307296 83.43567022 36.39103813 85.84481753 36.39188385 88.25395775 C36.03081719 111.36268178 36.03081719 111.36268178 47 131 C54.68611788 138.47838496 64.40919061 140.29586814 74.71679688 140.31689453 C84.53537383 140.13728642 92.84097363 136.78395209 100 130 C108.34520578 120.9357556 109.13685913 109.16103831 109.20532227 97.40478516 C109.21522186 96.35052338 109.22512146 95.2962616 109.23532104 94.21005249 C109.2668281 90.73641176 109.29165077 87.26275736 109.31640625 83.7890625 C109.33698509 81.37624767 109.35798181 78.96343637 109.37937927 76.55062866 C109.43450379 70.20822005 109.48395546 63.86577941 109.53222656 57.52331543 C109.58251188 51.04806681 109.63816122 44.57286453 109.69335938 38.09765625 C109.80082329 25.39847567 109.90179849 12.69925559 110 0 C121.88 0 133.76 0 146 0 C146.04538901 13.1359274 146.08199517 26.27180175 146.10362434 39.40779018 C146.11401116 45.50895058 146.12807594 51.61005401 146.15087891 57.71118164 C146.17279076 63.61157342 146.18460687 69.5119108 146.18975449 75.41234016 C146.1934176 77.65070513 146.20056952 79.88906751 146.21146011 82.12740898 C146.33332886 108.24057543 145.33241156 133.86707377 126.18359375 153.85546875 C109.92348572 169.82469828 91.75726275 174.30132115 69.38793945 174.31469727 C50.23310443 174.09791784 32.83326185 167.64083626 19 154 C0.60505631 133.74489346 -0.47192433 109.5040085 -0.29296875 83.49609375 C-0.28736065 81.07658656 -0.2830963 78.65707593 -0.28010559 76.23756409 C-0.26875239 69.92642504 -0.23936904 63.61549923 -0.20599365 57.30444336 C-0.17508541 50.84166344 -0.16155626 44.37884844 -0.14648438 37.91601562 C-0.11448868 25.27723588 -0.06180046 12.63866918 0 0 Z " fill="#212121" transform="translate(478,2029)"/>
<path d="M0 0 C38.28 0 76.56 0 116 0 C116 10.89 116 21.78 116 33 C89.6 33 63.2 33 36 33 C36 43.89 36 54.78 36 66 C55.14 66 74.28 66 94 66 C94 76.23 94 86.46 94 97 C74.86 97 55.72 97 36 97 C36 110.86 36 124.72 36 139 C63.39 139 90.78 139 119 139 C119 149.56 119 160.12 119 171 C79.73 171 40.46 171 0 171 C0 114.57 0 58.14 0 0 Z " fill="#212121" transform="translate(2465,2029)"/>
<path d="M0 0 C37.95 0 75.9 0 115 0 C115 10.89 115 21.78 115 33 C88.93 33 62.86 33 36 33 C36 43.89 36 54.78 36 66 C55.14 66 74.28 66 94 66 C94 76.23 94 86.46 94 97 C74.86 97 55.72 97 36 97 C36 110.86 36 124.72 36 139 C63.06 139 90.12 139 118 139 C118 149.56 118 160.12 118 171 C79.06 171 40.12 171 0 171 C0 114.57 0 58.14 0 0 Z " fill="#212121" transform="translate(1398,2029)"/>
<path d="M0 0 C4.0032721 -0.41585237 7.98164426 -0.1282454 12 0 C16.59275565 8.98016823 20.85922612 18.02822756 24.8125 27.3125 C25.94827381 29.95930103 27.08747743 32.60462262 28.2265625 35.25 C28.5260228 35.94640091 28.82548309 36.64280182 29.13401794 37.36030579 C32.93836522 46.19818555 36.81487439 55.00438481 40.6875 63.8125 C41.45543814 65.56012482 42.22334154 67.3077649 42.99121094 69.05541992 C44.93897712 73.48799986 46.88743093 77.92027719 48.83605957 82.35247803 C54.10111518 94.32847789 59.36341294 106.30568216 64.61669922 118.28684998 C66.54023405 122.67359733 68.46541543 127.05961021 70.39355469 131.44433594 C72.36932084 135.9376472 74.3411216 140.43267986 76.31027222 144.92889404 C77.05182102 146.62030067 77.79472401 148.31111435 78.53909302 150.00128174 C79.57014098 152.34299588 80.5961699 154.68685025 81.62109375 157.03125 C81.92026703 157.70759491 82.21944031 158.38393982 82.52767944 159.08078003 C84.67545625 164.0139274 86.28061704 168.84185111 88 174 C75.13 174 62.26 174 49 174 C44.545 163.605 44.545 163.605 40 153 C5.845 152.505 5.845 152.505 -29 152 C-29.33 153.65 -29.66 155.3 -30 157 C-30.48874602 158.3340574 -31.01976971 159.65346026 -31.59375 160.953125 C-31.90183594 161.654375 -32.20992187 162.355625 -32.52734375 163.078125 C-32.84832031 163.79484375 -33.16929687 164.5115625 -33.5 165.25 C-33.82097656 165.9821875 -34.14195312 166.714375 -34.47265625 167.46875 C-36.85781769 172.85781769 -36.85781769 172.85781769 -38 174 C-40.8116338 174.08861992 -43.59858255 174.11522355 -46.41015625 174.09765625 C-47.25219101 174.0962413 -48.09422577 174.09482635 -48.96177673 174.09336853 C-51.66205335 174.08775263 -54.36224828 174.07519748 -57.0625 174.0625 C-58.88867068 174.05748705 -60.71484266 174.05292379 -62.54101562 174.04882812 C-67.02737542 174.03777804 -71.51367384 174.02050279 -76 174 C-75.32362455 169.12720062 -73.37974987 164.99034842 -71.37890625 160.546875 C-70.82219742 159.29386093 -70.82219742 159.29386093 -70.25424194 158.01553345 C-69.45003383 156.20701495 -68.64350821 154.39952561 -67.83493042 152.59295654 C-66.54311299 149.70668413 -65.25718448 146.81785435 -63.97290039 143.92822266 C-62.63918152 140.92745931 -61.30513235 137.92684856 -59.96928406 134.92703247 C-55.59002745 125.0917968 -51.25945792 115.23551657 -46.9375 105.375 C-46.19285935 103.67737831 -45.44814882 101.97978727 -44.70336914 100.28222656 C-43.21330009 96.88584808 -41.72348922 93.48935656 -40.23388672 90.09277344 C-37.99172056 84.98061007 -35.74802564 79.86911869 -33.50390625 74.7578125 C-33.13168442 73.90997192 -32.75946259 73.06213135 -32.3759613 72.18859863 C-30.51277832 67.94484852 -28.64917716 63.70128269 -26.78491211 59.45800781 C-23.25439852 51.42094631 -19.72815803 43.38207652 -16.21459961 35.33758545 C-14.54669163 31.5194281 -12.87670166 27.70218304 -11.20654297 23.88500977 C-10.40764582 22.05750425 -9.60977959 20.22954769 -8.81298828 18.40112305 C-7.71123049 15.87305322 -6.6059957 13.34653055 -5.5 10.8203125 C-5.17378662 10.06924225 -4.84757324 9.318172 -4.51147461 8.54434204 C-3.17848691 5.50757514 -1.84486445 2.76729667 0 0 Z M5 68 C2.97272296 73.26088046 0.946405 78.52212904 -1.07910156 83.78369141 C-1.76537444 85.56601447 -2.45188973 87.34824421 -3.13867188 89.13037109 C-4.13738964 91.7220729 -5.1351748 94.31413227 -6.1328125 96.90625 C-6.42995148 97.67674683 -6.72709045 98.44724365 -7.03323364 99.24108887 C-10.07242787 107.14268763 -13.02700002 115.07200006 -16 123 C-1.81 123 12.38 123 27 123 C26.26239015 119.31195076 25.49897167 116.3958698 24.17407227 112.95019531 C23.80020889 111.97278381 23.42634552 110.99537231 23.04115295 109.98834229 C22.63698654 108.94547058 22.23282013 107.90259888 21.81640625 106.828125 C21.40083969 105.74996521 20.98527313 104.67180542 20.55711365 103.56097412 C19.67910493 101.28739083 18.79893235 99.01464214 17.91674805 96.74267578 C16.56331593 93.25210433 15.22178332 89.75711126 13.88085938 86.26171875 C13.02676299 84.05440825 12.17196937 81.8473674 11.31640625 79.640625 C10.91426407 78.58965637 10.51212189 77.53868774 10.09779358 76.45587158 C9.72077805 75.49106873 9.34376251 74.52626587 8.95532227 73.53222656 C8.62524673 72.67904846 8.2951712 71.82587036 7.95509338 70.94683838 C7.15911825 68.82704669 7.15911825 68.82704669 5 68 Z " fill="#212121" transform="translate(3110,2026)"/>
<path d="M0 0 C92.17226891 0 92.17226891 0 109 15 C109.68835937 15.57234375 110.37671875 16.1446875 111.0859375 16.734375 C120.03025663 24.75341973 125.13310259 36.50211618 126.21728516 48.38061523 C127.07597626 65.86717044 123.81122503 81.02900483 111.74609375 94.34765625 C95.58271121 109.64320617 76.25866084 111.47964034 55.1875 111.1875 C45.6896875 111.0946875 45.6896875 111.0946875 36 111 C36 130.8 36 150.6 36 171 C24.12 171 12.24 171 0 171 C0 114.57 0 58.14 0 0 Z M36 32 C36 47.84 36 63.68 36 80 C43.8271875 80.12375 43.8271875 80.12375 51.8125 80.25 C53.43518799 80.28641602 55.05787598 80.32283203 56.72973633 80.36035156 C65.82794812 80.42960319 74.85743926 80.26970662 82.19067383 74.18115234 C87.40904511 68.97193487 89.83449531 62.74926504 90.08984375 55.421875 C89.69310806 48.78926813 88.05357868 42.92987294 83.16796875 38.2421875 C76.74801634 33.16023664 70.92276123 31.6894582 62.7578125 31.8046875 C62.07581787 31.80670166 61.39382324 31.80871582 60.69116211 31.81079102 C58.16903862 31.82117243 55.64701181 31.84909442 53.125 31.875 C47.47375 31.91625 41.8225 31.9575 36 32 Z " fill="#212121" transform="translate(2840,2029)"/>
<path d="M0 0 C6.48845969 5.5391677 13.22232605 12.3608287 15.15234375 20.8984375 C7.15234375 26.8984375 -0.84765625 32.8984375 -8.84765625 38.8984375 C-11.49475496 36.32697018 -13.82368107 33.93063274 -16.03515625 30.9609375 C-20.81068088 25.13088061 -28.52208935 21.18362467 -35.84765625 19.8984375 C-42.60674562 19.33857317 -48.85155456 19.44490047 -54.84765625 22.8984375 C-59.34370071 26.72196889 -59.34370071 26.72196889 -61.05078125 32.10546875 C-61.06625 32.96527344 -61.08171875 33.82507812 -61.09765625 34.7109375 C-61.13632813 35.98904297 -61.13632813 35.98904297 -61.17578125 37.29296875 C-60.66849298 41.3210792 -58.97882532 44.01840236 -55.77587891 46.51025391 C-49.41083625 50.14612029 -42.92048709 53.2992675 -36.22265625 56.2734375 C-34.1020285 57.23252848 -31.98223768 58.19347213 -29.86328125 59.15625 C-28.83783203 59.62192383 -27.81238281 60.08759766 -26.75585938 60.56738281 C-8.21182784 69.0547955 9.22980385 77.9175233 17.15234375 97.8984375 C21.28365906 109.87326447 19.66388396 123.25286325 14.96875 134.8125 C9.85933223 145.08923262 2.41540563 152.17023851 -7.72265625 157.3359375 C-8.34575684 157.65393311 -8.96885742 157.97192871 -9.61083984 158.29956055 C-19.75033465 163.10064363 -30.03840811 164.43680603 -41.16015625 164.3359375 C-42.34569092 164.32763916 -43.53122559 164.31934082 -44.75268555 164.31079102 C-65.34170542 163.91444145 -82.46976598 156.14915767 -97.12890625 141.640625 C-101.64901768 136.80005791 -104.74069178 131.71987472 -107.84765625 125.8984375 C-104.97538637 123.64493507 -102.09935796 121.39627884 -99.22265625 119.1484375 C-98.41441406 118.51421875 -97.60617188 117.88 -96.7734375 117.2265625 C-94.47683842 115.43409493 -92.16885234 113.65891281 -89.84765625 111.8984375 C-89.24727539 111.44275391 -88.64689453 110.98707031 -88.02832031 110.51757812 C-86.44921875 109.3828125 -86.44921875 109.3828125 -83.84765625 107.8984375 C-80.0301903 109.17092615 -79.18409414 110.82775617 -76.78515625 114.0234375 C-70.00124985 122.47318199 -61.63516607 128.72801636 -50.84765625 130.8984375 C-47.7827643 131.19848695 -44.73875726 131.30352786 -41.66015625 131.3359375 C-40.91185547 131.34616943 -40.16355469 131.35640137 -39.39257812 131.36694336 C-33.69712348 131.27708789 -27.63166954 130.47770565 -23.28076172 126.44677734 C-18.99479681 121.40958524 -18.47659349 118.10364024 -18.5859375 111.65234375 C-18.97099358 107.60063429 -19.99902473 105.81489358 -22.84765625 102.8984375 C-31.108187 97.17807756 -40.40438041 93.27171951 -49.5234375 89.15380859 C-67.96130799 80.80325574 -89.02044526 70.99329648 -96.84765625 50.8984375 C-100.88350506 38.6533053 -99.34151343 25.46697363 -94.22265625 13.7734375 C-87.33380772 1.20063411 -75.27805185 -6.98581612 -61.80078125 -11.01171875 C-40.4688092 -16.29555975 -17.91266376 -13.21949672 0 0 Z " fill="#212121" transform="translate(3786.84765625,2039.1015625)"/>
<path d="M0 0 C6.70869896 5.6482917 12.27926239 11.72595526 14.75 20.25 C6.75 26.25 -1.25 32.25 -9.25 38.25 C-11.75265004 35.81686802 -14.10513691 33.43849311 -16.234375 30.66796875 C-21.46361627 24.39490606 -29.2447454 20.3936078 -37.25 19.25 C-45.32198678 18.55034143 -51.12377637 19.91778665 -58.125 23.875 C-61.22899228 27.34416785 -62.04490167 30.63908575 -62.25 35.25 C-61.81383763 39.18976171 -60.54550966 41.97744874 -57.70703125 44.765625 C-48.32215486 51.5841779 -36.57939377 55.94374184 -25.9921875 60.546875 C-8.85220794 68.0172007 7.51571211 76.39271514 15.6328125 94.30078125 C20.86391422 108.11015817 19.43733823 122.82194688 13.46875 136.19921875 C6.10200971 149.27518277 -5.91110022 157.12273409 -19.9375 161.75 C-42.0332973 166.93267916 -64.82290674 163.77894248 -84.25 152.25 C-94.48927663 145.33273587 -102.88274389 136.41605041 -108.25 125.25 C-104.60887451 122.21811795 -100.93912148 119.22317338 -97.25 116.25 C-96.71068848 115.81252441 -96.17137695 115.37504883 -95.61572266 114.92431641 C-94.02557429 113.6433238 -92.42165481 112.38199554 -90.8125 111.125 C-89.84441406 110.35929687 -88.87632813 109.59359375 -87.87890625 108.8046875 C-85.25 107.25 -85.25 107.25 -83.125 107.22265625 C-80.54618793 108.63563037 -79.38180344 110.41559125 -77.6875 112.8125 C-69.72707806 123.11682396 -59.14946002 129.31133185 -46.25 131.125 C-37.85607191 131.67213999 -30.13771428 130.12879762 -23.25 125.25 C-19.2378112 120.83659232 -18.87957915 116.50730496 -18.98828125 110.74609375 C-19.39733976 106.84477455 -20.54268696 105.08623271 -23.25 102.25 C-30.62727623 97.14950227 -38.79400754 93.55302578 -46.9375 89.875 C-89.18051469 70.51973311 -89.18051469 70.51973311 -97.5234375 48.57421875 C-101.24669538 36.66379703 -99.54289671 24.46707962 -94.625 13.1875 C-87.80726231 0.56301994 -75.67963795 -7.63447995 -62.203125 -11.66015625 C-40.39129033 -17.06285723 -18.13960901 -13.67362624 0 0 Z " fill="#212121" transform="translate(1960.25,2039.75)"/>
<path d="M0 0 C13.2 0 26.4 0 40 0 C42.63670332 5.27340665 45.09416356 10.42827895 47.29296875 15.87109375 C47.5964624 16.61454041 47.89995605 17.35798706 48.21264648 18.1239624 C48.86627116 19.7258468 49.51852535 21.32829097 50.16952515 22.9312439 C51.92942122 27.26411152 53.69981951 31.59268981 55.46875 35.921875 C55.83647018 36.82258224 56.20419037 37.72328949 56.58305359 38.65129089 C60.74764337 48.84531559 64.96544029 59.01717358 69.1875 69.1875 C69.90063788 70.90616733 70.61377273 72.62483591 71.3269043 74.34350586 C74.87759147 82.89859424 78.43404115 91.45126467 82 100 C85.06101416 94.06767197 87.70501837 88.05921814 90.203125 81.87109375 C90.59845428 80.89940247 90.99378357 79.92771118 91.40109253 78.92657471 C92.24797612 76.84398067 93.09342577 74.76080304 93.93756104 72.67709351 C95.2626187 69.4063523 96.5914448 66.13716617 97.92138672 62.8684082 C99.73282261 58.41595395 101.5430989 53.96303127 103.35253906 49.50976562 C106.91651409 40.74225065 110.49660944 31.98136512 114.08581543 23.22415161 C115.10839239 20.72803922 116.12894526 18.2311057 117.14941406 15.73413086 C117.76875679 14.22244292 118.38821587 12.71080264 119.0078125 11.19921875 C119.28398407 10.52231995 119.56015564 9.84542114 119.84469604 9.14801025 C121.12717287 6.02567263 122.48828769 3.02342462 124 0 C137.2 0 150.4 0 164 0 C163.08594653 4.57026734 161.68661906 8.36638081 159.81640625 12.578125 C159.32635353 13.69782684 159.32635353 13.69782684 158.82640076 14.84014893 C157.74311497 17.31218342 156.65280368 19.78105372 155.5625 22.25 C154.79446498 23.99914841 154.02689521 25.74850118 153.25976562 27.49804688 C151.24586497 32.08804845 149.22624354 36.67551031 147.2053833 41.26245117 C145.2883866 45.61614686 143.37652822 49.97209472 141.46484375 54.328125 C140.7206335 56.02376818 139.97641151 57.71940621 139.23217773 59.41503906 C138.86454315 60.25264771 138.49690857 61.09025635 138.11813354 61.95324707 C136.99085279 64.52083443 135.86283363 67.08809624 134.73461914 69.65527344 C129.6350074 81.260903 124.56014491 92.87711381 119.5 104.5 C113.41848976 118.46830976 107.31270125 132.42579167 101.1875 146.375 C100.80255371 147.2518042 100.41760742 148.1286084 100.02099609 149.03198242 C98.92446442 151.52927077 97.82756537 154.0263973 96.73046875 156.5234375 C96.25186653 157.61312332 96.25186653 157.61312332 95.76359558 158.724823 C93.52270391 163.82265142 91.26409529 168.91243366 89 174 C84.38 174 79.76 174 75 174 C54.67089846 127.69482427 54.67089846 127.69482427 53.54348755 125.12683105 C52.80152551 123.43680754 52.05956181 121.74678475 51.31759644 120.0567627 C49.46608636 115.83945402 47.61460596 111.62213233 45.76318359 107.40478516 C42.35012379 99.63026879 38.93683189 91.85585467 35.52250671 84.08189392 C15.94848392 39.51438081 15.94848392 39.51438081 8.60009766 22.64794922 C7.42868983 19.97733957 6.24611044 17.31335409 5.05224609 14.65283203 C4.72790085 13.92500015 4.4035556 13.19716827 4.06938171 12.44728088 C3.4399347 11.03538692 2.80617812 9.62540416 2.16755676 8.21763611 C0.87167519 5.30006513 0 3.23032295 0 0 Z " fill="#212121" transform="translate(1134,2029)"/>
<path d="M0 0 C47.85 0 95.7 0 145 0 C145 10.89 145 21.78 145 33 C126.85 33 108.7 33 90 33 C90 78.54 90 124.08 90 171 C78.12 171 66.24 171 54 171 C54 125.46 54 79.92 54 33 C36.18 33 18.36 33 0 33 C0 22.11 0 11.22 0 0 Z " fill="#212121" transform="translate(2221,2029)"/>
<path d="M0 0 C11.88 0 23.76 0 36 0 C36 56.43 36 112.86 36 171 C24.12 171 12.24 171 0 171 C0 114.57 0 58.14 0 0 Z " fill="#212121" transform="translate(3540,2029)"/>
<path d="M0 0 C11.88 0 23.76 0 36 0 C36 56.43 36 112.86 36 171 C24.12 171 12.24 171 0 171 C0 114.57 0 58.14 0 0 Z " fill="#212121" transform="translate(2086,2029)"/>
<path d="M0 0 C11.88 0 23.76 0 36 0 C36 56.43 36 112.86 36 171 C24.12 171 12.24 171 0 171 C0 114.57 0 58.14 0 0 Z " fill="#212121" transform="translate(999,2029)"/>
<path d="M0 0 C14.52 0 29.04 0 44 0 C44 7.8723756 44 7.8723756 41.47265625 10.578125 C40.66248047 11.4743457 40.66248047 11.4743457 39.8359375 12.38867188 C39.25070313 13.00291016 38.66546875 13.61714844 38.0625 14.25 C36.85423554 15.57700319 35.64720842 16.90513403 34.44140625 18.234375 C33.84859863 18.87826172 33.25579102 19.52214844 32.64501953 20.18554688 C30.50142434 22.54992791 28.49474037 25.0093709 26.5 27.5 C13.73809524 43.26190476 13.73809524 43.26190476 8 49 C6.07332493 49.08748207 4.14348139 49.10697334 2.21484375 49.09765625 C0.46010742 49.09282227 0.46010742 49.09282227 -1.33007812 49.08789062 C-3.17762695 49.07532227 -3.17762695 49.07532227 -5.0625 49.0625 C-6.91584961 49.05573242 -6.91584961 49.05573242 -8.80664062 49.04882812 C-11.87114117 49.03699608 -14.93554721 49.02051173 -18 49 C-17.39845117 45.63435853 -16.56486453 42.57783698 -15.32592773 39.39331055 C-14.98565048 38.51277512 -14.64537323 37.63223969 -14.29478455 36.72502136 C-13.92809158 35.7883815 -13.56139862 34.85174164 -13.18359375 33.88671875 C-12.80767593 32.91716751 -12.43175812 31.94761627 -12.04444885 30.94868469 C-10.84593802 27.86012889 -9.64179947 24.77380267 -8.4375 21.6875 C-7.62267458 19.59063943 -6.80821713 17.49363582 -5.99414062 15.39648438 C-4.00104089 10.26237324 -2.00034374 5.13131655 0 0 Z " fill="#212121" transform="translate(2526,1965)"/>
</svg>
