<svg xmlns="http://www.w3.org/2000/svg" version="1.1" width="288px" height="130px" viewBox="16 95 288 130">
<path d="M0 0 C95.04 0 190.08 0 288 0 C288 42.9 288 85.8 288 130 C192.96 130 97.92 130 0 130 C0 87.1 0 44.2 0 0 Z " fill="#5D5D5D" transform="translate(16,95)"/>
<path d="M0 0 C4.08998175 1.80720124 6.66247347 4.19069751 9 8 C9 10.31 9 12.62 9 15 C2.4 15 -4.2 15 -11 15 C-7.81926864 21.12977452 -7.81926864 21.12977452 -3.625 22.0625 C0.40678937 21.99298639 2.58843361 21.08022341 6 19 C6.66 20.32 7.32 21.64 8 23 C4.76153148 25.52758519 2.61713251 26.92285844 -1.5 27.4375 C-6.49193615 26.81350798 -9.55174049 25.21958695 -13.375 22 C-15.86824685 17.39708274 -15.99265776 13.1092679 -15 8 C-11.25785702 1.47406772 -7.48375194 -0.50737301 0 0 Z " fill="#F8F8F7" transform="translate(263,148)"/>
<path d="M0 0 C3.13180809 1.62390049 5.24339744 3.00266026 7.375 5.8125 C8 8 8 8 8 15 C1.73 15 -4.54 15 -11 15 C-8.83333333 20.83333333 -8.83333333 20.83333333 -6 22 C-1.94857881 22.25860135 -0.45662331 22.30441554 3 20 C5.1875 20.375 5.1875 20.375 7 21 C6.0114653 23.69600373 5.34022364 24.80558649 2.8125 26.25 C-2.1448359 27.57195624 -5.60545907 27.69727047 -10.25 25.375 C-13.78149384 22.3250735 -15.56117758 19.70878037 -16.31640625 15.046875 C-16.61962957 9.92142272 -15.35654809 7.00921021 -12 3 C-8.6224269 -0.61882833 -4.70501239 -0.82337717 0 0 Z " fill="#F8F8F8" transform="translate(156,148)"/>
<path d="M0 0 C1.65 0 3.3 0 5 0 C5.02505615 0.56509277 5.0501123 1.13018555 5.07592773 1.71240234 C5.19179956 4.26683742 5.31456537 6.8208955 5.4375 9.375 C5.47681641 10.26445312 5.51613281 11.15390625 5.55664062 12.0703125 C5.59853516 12.92109375 5.64042969 13.771875 5.68359375 14.6484375 C5.72025146 15.43395996 5.75690918 16.21948242 5.79467773 17.02880859 C5.890891 19.07523496 5.890891 19.07523496 7 21 C8.27875 21.061875 9.5575 21.12375 10.875 21.1875 C11.59429687 21.22230469 12.31359375 21.25710937 13.0546875 21.29296875 C14.01761719 21.14794922 14.01761719 21.14794922 15 21 C17.0140956 17.9788566 17.26836596 17.19339983 17.4140625 13.76953125 C17.45273437 12.96708984 17.49140625 12.16464844 17.53125 11.33789062 C17.57765625 10.08782227 17.57765625 10.08782227 17.625 8.8125 C17.66367187 7.96751953 17.70234375 7.12253906 17.7421875 6.25195312 C17.83636279 4.16832476 17.91926675 2.08419247 18 0 C19.65 0 21.3 0 23 0 C23 8.58 23 17.16 23 26 C21.35 26 19.7 26 18 26 C18 25.34 18 24.68 18 24 C17.319375 24.495 16.63875 24.99 15.9375 25.5 C12.25211716 27.38189762 10.09153627 27.58450518 6 27 C3.125 24.5625 3.125 24.5625 1 22 C0.67 21.67 0.34 21.34 0 21 C-0.08685603 19.43827255 -0.10702219 17.87270656 -0.09765625 16.30859375 C-0.09443359 15.36435547 -0.09121094 14.42011719 -0.08789062 13.44726562 C-0.07951172 12.45404297 -0.07113281 11.46082031 -0.0625 10.4375 C-0.05798828 9.44041016 -0.05347656 8.44332031 -0.04882812 7.41601562 C-0.03700007 4.94395151 -0.02051849 2.47200482 0 0 Z " fill="#E5E5E5" transform="translate(39,148)"/>
<path d="M0 0 C4.21998776 2.44748985 4.21998776 2.44748985 6 5 C6.73446275 8.63169659 6.56809646 12.12633808 6.375 15.8125 C6.34792969 16.79154297 6.32085937 17.77058594 6.29296875 18.77929688 C6.22245648 21.18846621 6.12398568 23.59308819 6 26 C4.68 26 3.36 26 2 26 C1.96261719 24.73542969 1.92523438 23.47085938 1.88671875 22.16796875 C1.82106167 20.5077827 1.75461424 18.84762778 1.6875 17.1875 C1.66494141 16.35412109 1.64238281 15.52074219 1.61914062 14.66210938 C1.5659668 13.45844727 1.5659668 13.45844727 1.51171875 12.23046875 C1.48553467 11.49207764 1.45935059 10.75368652 1.43237305 9.99291992 C0.88147685 7.45369595 0.09120465 6.51865245 -2 5 C-5.57756686 4.99917465 -5.57756686 4.99917465 -9 6 C-10.9756562 8.96348429 -11.26376859 9.68020373 -11.4140625 13.01171875 C-11.45273438 13.76904297 -11.49140625 14.52636719 -11.53125 15.30664062 C-11.5621875 16.09232422 -11.593125 16.87800781 -11.625 17.6875 C-11.66367188 18.48478516 -11.70234375 19.28207031 -11.7421875 20.10351562 C-11.83632494 22.06863475 -11.91924632 24.0342854 -12 26 C-13.32 26 -14.64 26 -16 26 C-16 17.75 -16 9.5 -16 1 C-14.68 1 -13.36 1 -12 1 C-12 1.66 -12 2.32 -12 3 C-11.319375 2.505 -10.63875 2.01 -9.9375 1.5 C-6.23381194 -0.39124497 -4.11607555 -0.57769481 0 0 Z " fill="#FDFDFD" transform="translate(86,148)"/>
<path d="M0 0 C0 2.31 0 4.62 0 7 C2.64 7 5.28 7 8 7 C8 8.65 8 10.3 8 12 C5.36 12 2.72 12 0 12 C0.33 17.28 0.66 22.56 1 28 C2.98 28.33 4.96 28.66 7 29 C7 30.32 7 31.64 7 33 C5.56416999 33.10836453 4.1259798 33.18576167 2.6875 33.25 C1.88699219 33.29640625 1.08648437 33.3428125 0.26171875 33.390625 C-2 33 -2 33 -3.78125 31.53125 C-5.58552241 27.78391499 -5.32002867 24.34819411 -5.1875 20.25 C-5.17396484 19.45722656 -5.16042969 18.66445312 -5.14648438 17.84765625 C-5.11125223 15.89814436 -5.05744821 13.94898374 -5 12 C-6.65 12 -8.3 12 -10 12 C-10 10.35 -10 8.7 -10 7 C-8.35 7 -6.7 7 -5 7 C-5 5.02 -5 3.04 -5 1 C-3 0 -3 0 0 0 Z " fill="#E5E5E5" transform="translate(236,141)"/>
<path d="M0 0 C12.625 -0.25 12.625 -0.25 16 2 C16.4375 8.125 16.4375 8.125 15 11 C14.34 11 13.68 11 13 11 C13.495 11.94875 13.99 12.8975 14.5 13.875 C16 17 16 17 16 19 C13.6875 18.75 13.6875 18.75 11 18 C9.9739266 16.68662604 8.97272675 15.35335895 8 14 C5.90584196 13.20376178 5.90584196 13.20376178 4 13 C4 14.98 4 16.96 4 19 C2.68 19 1.36 19 0 19 C0 12.73 0 6.46 0 0 Z " fill="#FAFAFA" transform="translate(82,183)"/>
<path d="M0 0 C2.5625 1.5 2.5625 1.5 4 3 C3.67 3.99 3.34 4.98 3 6 C-0.63 5.67 -4.26 5.34 -8 5 C-8 6.32 -8 7.64 -8 9 C-7.31292969 9.25394531 -6.62585938 9.50789062 -5.91796875 9.76953125 C-5.01691406 10.11371094 -4.11585938 10.45789063 -3.1875 10.8125 C-1.84751953 11.31716797 -1.84751953 11.31716797 -0.48046875 11.83203125 C1.95970663 12.98102721 3.3539572 13.88365926 5 16 C5.4375 18.9375 5.4375 18.9375 5 22 C3.1329009 24.30275556 1.64352259 25.67823871 -1 27 C-6.25905171 27.40454244 -9.45298292 26.66166853 -14 24 C-14 23.01 -14 22.02 -14 21 C-13.01 20.67 -12.02 20.34 -11 20 C-10.4225 20.33 -9.845 20.66 -9.25 21 C-5.98560017 22.45084437 -3.43155506 21.65991443 0 21 C0 20.01 0 19.02 0 18 C-0.68707031 17.74605469 -1.37414062 17.49210937 -2.08203125 17.23046875 C-2.98308594 16.88628906 -3.88414062 16.54210937 -4.8125 16.1875 C-5.70582031 15.85105469 -6.59914062 15.51460937 -7.51953125 15.16796875 C-9.96968093 14.01427622 -11.3668422 13.142194 -13 11 C-13.48686939 7.17459766 -13.53974912 4.91522677 -11.5625 1.5625 C-7.78254418 -0.74235111 -4.31892713 -0.68944341 0 0 Z " fill="#F3F3F3" transform="translate(204,148)"/>
<path d="M0 0 C1.65 0 3.3 0 5 0 C7.31 5.61 9.62 11.22 12 17 C15.24223539 10.54229221 15.24223539 10.54229221 18.25 4 C18.75273437 2.8553125 18.75273437 2.8553125 19.265625 1.6875 C19.50796875 1.130625 19.7503125 0.57375 20 0 C21.65 0 23.3 0 25 0 C21.81640303 8.3992771 18.50236667 16.72845318 15 25 C13.35 25 11.7 25 10 25 C8.32742736 21.21091124 6.66294885 17.41832115 5 13.625 C4.28457031 12.00464844 4.28457031 12.00464844 3.5546875 10.3515625 C3.10351562 9.3203125 2.65234375 8.2890625 2.1875 7.2265625 C1.76855469 6.27346191 1.34960938 5.32036133 0.91796875 4.33837891 C0 2 0 2 0 0 Z " fill="#F5F5F5" transform="translate(112,149)"/>
<path d="M0 0 C1.65 0 3.3 0 5 0 C6.17314026 2.76825188 7.33870215 5.53928486 8.5 8.3125 C8.83386719 9.09818359 9.16773438 9.88386719 9.51171875 10.69335938 C9.82753906 11.45068359 10.14335937 12.20800781 10.46875 12.98828125 C10.90864258 14.03302612 10.90864258 14.03302612 11.35742188 15.09887695 C12 17 12 17 12 20 C10.68 20 9.36 20 8 20 C7.67 18.68 7.34 17.36 7 16 C4.03 16.33 1.06 16.66 -2 17 C-2.33 17.99 -2.66 18.98 -3 20 C-4.65 20 -6.3 20 -8 20 C-2.81321185 6.3667426 -2.81321185 6.3667426 0 0 Z " fill="#EDEDED" transform="translate(175,182)"/>
<path d="M0 0 C11.625 -0.25 11.625 -0.25 15 2 C15.77821012 9.00389105 15.77821012 9.00389105 13.4375 12 C10.2014503 13.32761013 7.46093134 13.19966912 4 13 C4 14.98 4 16.96 4 19 C2.68 19 1.36 19 0 19 C0 12.73 0 6.46 0 0 Z " fill="#F3F3F3" transform="translate(39,183)"/>
<path d="M0 0 C1.65 0 3.3 0 5 0 C6.17314026 2.76825188 7.33870215 5.53928486 8.5 8.3125 C9.00080078 9.49102539 9.00080078 9.49102539 9.51171875 10.69335938 C9.82753906 11.45068359 10.14335937 12.20800781 10.46875 12.98828125 C10.90864258 14.03302612 10.90864258 14.03302612 11.35742188 15.09887695 C12 17 12 17 12 20 C10.68 20 9.36 20 8 20 C7.67 18.68 7.34 17.36 7 16 C4.03 16.33 1.06 16.66 -2 17 C-2.33 17.99 -2.66 18.98 -3 20 C-4.32 20 -5.64 20 -7 20 C-6.41161801 15.15888235 -4.92346884 11.03928805 -2.9375 6.625 C-2.65583984 5.98433594 -2.37417969 5.34367188 -2.08398438 4.68359375 C-1.39540579 3.11970341 -0.69855289 1.55946059 0 0 Z " fill="#EDEDED" transform="translate(240,182)"/>
<path d="M0 0 C1.32 0 2.64 0 4 0 C5.17578304 2.57952403 6.340791 5.16303938 7.5 7.75 C7.83386719 8.47960937 8.16773437 9.20921875 8.51171875 9.9609375 C8.82753906 10.66992188 9.14335938 11.37890625 9.46875 12.109375 C9.76201172 12.75874023 10.05527344 13.40810547 10.35742188 14.07714844 C11 16 11 16 11 20 C9.68 20 8.36 20 7 20 C6.67 19.01 6.34 18.02 6 17 C3.03 16.67 0.06 16.34 -3 16 C-3.33 17.32 -3.66 18.64 -4 20 C-5.32 20 -6.64 20 -8 20 C-7.45318976 14.99399078 -5.75859667 11.02818933 -3.4375 6.625 C-3.10814453 5.98433594 -2.77878906 5.34367188 -2.43945312 4.68359375 C-1.63360518 3.11861368 -0.81781507 1.55875979 0 0 Z " fill="#F0F0F0" transform="translate(65,182)"/>
<path d="M0 0 C2.375 1 2.375 1 4 2 C3.67 3.32 3.34 4.64 3 6 C0.36 5.34 -2.28 4.68 -5 4 C-5 5.32 -5 6.64 -5 8 C-3.63875 8.1546875 -3.63875 8.1546875 -2.25 8.3125 C1.07967451 9.01685422 2.69577196 9.51852364 5 12 C5.4375 14.5 5.4375 14.5 5 17 C3.37717542 19.13154701 2.51399547 19.91340294 -0.15625 20.36328125 C-0.9296875 20.34652344 -1.703125 20.32976562 -2.5 20.3125 C-3.2734375 20.30863281 -4.046875 20.30476563 -4.84375 20.30078125 C-7 20 -7 20 -10 18 C-9.505 16.515 -9.505 16.515 -9 15 C-5.7 15.33 -2.4 15.66 1 16 C-2.21264235 12.78735765 -4.84398888 11.69318971 -9 10 C-10 9 -10 9 -10.3125 6.6875 C-10 4 -10 4 -8.375 1.6875 C-5.32300431 -0.48102325 -3.67698395 -0.45962299 0 0 Z " fill="#EAEAEA" transform="translate(125,182)"/>
<path d="M0 0 C0 1.65 0 3.3 0 5 C-0.84884766 5.16435547 -0.84884766 5.16435547 -1.71484375 5.33203125 C-2.44832031 5.49058594 -3.18179688 5.64914063 -3.9375 5.8125 C-4.66839844 5.96332031 -5.39929688 6.11414063 -6.15234375 6.26953125 C-7.06693359 6.63111328 -7.06693359 6.63111328 -8 7 C-9.23759823 10.71279469 -9.35608897 14.31306346 -9.5625 18.1875 C-9.60568359 18.93708984 -9.64886719 19.68667969 -9.69335938 20.45898438 C-9.79922685 22.30578375 -9.9000976 24.15286834 -10 26 C-11.65 26 -13.3 26 -15 26 C-15 17.75 -15 9.5 -15 1 C-13.35 1 -11.7 1 -10 1 C-9.67 1.66 -9.34 2.32 -9 3 C-8.443125 2.505 -7.88625 2.01 -7.3125 1.5 C-4.61837017 -0.24754367 -3.14624993 -0.26218749 0 0 Z " fill="#E9E9E9" transform="translate(186,148)"/>
<path d="M0 0 C0.66 0.33 1.32 0.66 2 1 C1.67 2.32 1.34 3.64 1 5 C-1.31 4.67 -3.62 4.34 -6 4 C-6 4.66 -6 5.32 -6 6 C-5.15115234 6.30744141 -5.15115234 6.30744141 -4.28515625 6.62109375 C-3.55167969 6.89050781 -2.81820312 7.15992188 -2.0625 7.4375 C-1.33160156 7.70433594 -0.60070312 7.97117188 0.15234375 8.24609375 C2 9 2 9 3 10 C3.46665026 15.36647797 3.46665026 15.36647797 1.765625 17.67578125 C-0.46906539 19.35179904 -1.73189324 19.37247565 -4.5 19.3125 C-5.2734375 19.30863281 -6.046875 19.30476563 -6.84375 19.30078125 C-9 19 -9 19 -12 17 C-11.505 15.515 -11.505 15.515 -11 14 C-7.7 14.33 -4.4 14.66 -1 15 C-3.4317111 11.35243335 -4.93879054 11.26912796 -9 10 C-11 8 -11 8 -11.375 5.0625 C-11 2 -11 2 -9.4375 0.0625 C-6.00095987 -1.43547903 -3.60009693 -0.80002154 0 0 Z " fill="#F0F0F0" transform="translate(160,183)"/>
<path d="M0 0 C3.33388318 0.16951948 4.94441987 0.43192871 7.6875 2.1875 C7.3575 3.5075 7.0275 4.8275 6.6875 6.1875 C5.429375 5.960625 4.17125 5.73375 2.875 5.5 C-0.36653969 5.05783264 -0.36653969 5.05783264 -3.3125 6.3125 C-4.63140064 8.7854387 -4.66685046 10.42356641 -4.3125 13.1875 C-2.52592243 15.40120051 -2.52592243 15.40120051 -0.1484375 15.3828125 C0.66367188 15.35960937 1.47578125 15.33640625 2.3125 15.3125 C3.12976563 15.29445312 3.94703125 15.27640625 4.7890625 15.2578125 C5.41554687 15.23460937 6.04203125 15.21140625 6.6875 15.1875 C6.6875 16.5075 6.6875 17.8275 6.6875 19.1875 C3.18169924 20.94040038 -0.49629058 20.86520616 -4.3125 20.1875 C-7.48707096 17.5960135 -8.85830349 16.11314305 -9.78515625 12.18359375 C-10.08536653 8.12690613 -9.46371947 6.36973885 -6.875 3.25 C-6.029375 2.569375 -5.18375 1.88875 -4.3125 1.1875 C-3.3125 0.1875 -3.3125 0.1875 0 0 Z " fill="#F3F3F3" transform="translate(200.3125,181.8125)"/>
<path d="M0 0 C1.9375 1.125 1.9375 1.125 3 3 C3.54068562 6.63031776 3.46379841 8.32214079 1.375 11.375 C-1.69371124 13.47464453 -3.35392711 13.62060815 -7 13 C-9.59814888 10.74827097 -9.95716454 9.34982295 -10.375 5.9375 C-10 3 -10 3 -8.9375 1.125 C-5.8930714 -0.64273274 -3.4368988 -0.36823916 0 0 Z " fill="#FCFDFC" transform="translate(278,118)"/>
<path d="M0 0 C1.65 0 3.3 0 5 0 C5 5.28 5 10.56 5 16 C8.3 16 11.6 16 15 16 C15 17.32 15 18.64 15 20 C10.05 20 5.1 20 0 20 C0 13.4 0 6.8 0 0 Z " fill="#D5D5D5" transform="translate(214,182)"/>
<path d="M0 0 C3.67420866 0.30618405 4.78135513 0.75771784 7.3125 3.5625 C8.1478125 4.7690625 8.1478125 4.7690625 9 6 C9.86625 4.515 9.86625 4.515 10.75 3 C11.4925 2.01 12.235 1.02 13 0 C14.32 0 15.64 0 17 0 C16.01461122 2.65296979 15.05762201 4.91702431 13.4375 7.25 C11.44507706 11.06159171 11.26826514 14.7540104 11 19 C9.35 19 7.7 19 6 19 C5.98582031 18.443125 5.97164063 17.88625 5.95703125 17.3125 C5.60724155 11.71586475 4.31367331 8.19339458 1.05859375 3.62890625 C0 2 0 2 0 0 Z " fill="#F0F0F0" transform="translate(254,183)"/>
<path d="M0 0 C1.65 0 3.3 0 5 0 C5 8.58 5 17.16 5 26 C3.35 26 1.7 26 0 26 C0 17.42 0 8.84 0 0 Z " fill="#DBDBDB" transform="translate(216,148)"/>
<path d="M0 0 C1.32 0 2.64 0 4 0 C4 8.25 4 16.5 4 25 C2.68 25 1.36 25 0 25 C0 16.75 0 8.5 0 0 Z " fill="#FEFEFE" transform="translate(101,149)"/>
<path d="M0 0 C2.875 2.3125 2.875 2.3125 5 5 C5 5.99 5 6.98 5 8 C0.05 8 -4.9 8 -10 8 C-9 3 -9 3 -7.8125 1.1875 C-5.02372887 -0.63962591 -3.26191611 -0.52190658 0 0 Z " fill="#6C6C6C" transform="translate(155,152)"/>
<path d="M0 0 C2.375 1.75 2.375 1.75 4 4 C4 5.32 4 6.64 4 8 C-0.95 8 -5.9 8 -11 8 C-8.43343099 1.58357748 -7.25894985 -1.03699284 0 0 Z " fill="#696969" transform="translate(263,152)"/>
<path d="M0 0 C1.32 0 2.64 0 4 0 C4 6.27 4 12.54 4 19 C2.68 19 1.36 19 0 19 C0 12.73 0 6.46 0 0 Z " fill="#F9F9F9" transform="translate(105,183)"/>
<path d="M0 0 C2.5625 0.1875 2.5625 0.1875 4.5625 2.1875 C4.00694444 6.74305556 4.00694444 6.74305556 2.5625 8.1875 C0.0625 8.3125 0.0625 8.3125 -2.4375 8.1875 C-3.4375 7.1875 -3.4375 7.1875 -3.5625 4.1875 C-3.39891479 0.26145498 -3.39891479 0.26145498 0 0 Z " fill="#F5F5F5" transform="translate(259.4375,132.8125)"/>
<path d="M0 0 C2.875 -0.125 2.875 -0.125 6 0 C6.66 0.66 7.32 1.32 8 2 C7.625 4.125 7.625 4.125 7 6 C4.69 6 2.38 6 0 6 C0 4.02 0 2.04 0 0 Z " fill="#707070" transform="translate(86,186)"/>
<path d="M0 0 C1.98 0 3.96 0 6 0 C5.67 1.65 5.34 3.3 5 5 C3.35 5 1.7 5 0 5 C0 3.35 0 1.7 0 0 Z " fill="#5F5F5F" transform="translate(44,187)"/>
<path d="M0 0 C2.64 0 5.28 0 8 0 C8 0.99 8 1.98 8 3 C5.36 3 2.72 3 0 3 C0 2.01 0 1.02 0 0 Z " fill="#FEFEFE" transform="translate(135,192)"/>
<path d="M0 0 C3 3.75 3 3.75 3 6 C1.35 6 -0.3 6 -2 6 C-1.34 4.02 -0.68 2.04 0 0 Z " fill="#030303" transform="translate(242,188)"/>
<path d="M0 0 C3 3.75 3 3.75 3 6 C1.35 6 -0.3 6 -2 6 C-1.34 4.02 -0.68 2.04 0 0 Z " fill="#030303" transform="translate(177,188)"/>
<path d="M0 0 C0.66 0.33 1.32 0.66 2 1 C2.625 3.5625 2.625 3.5625 3 6 C1.35 6 -0.3 6 -2 6 C-1.34 4.02 -0.68 2.04 0 0 Z " fill="#030303" transform="translate(66,188)"/>
</svg>