<?xml version="1.0" encoding="UTF-8"?>
<svg version="1.1" xmlns="http://www.w3.org/2000/svg" width="1200" height="486">
<path d="M0 0 C0.66 0 1.32 0 2 0 C2.29132812 0.68964844 2.58265625 1.37929687 2.8828125 2.08984375 C17.55652013 35.72862634 51.53310447 52.9980421 84.109375 65.8515625 C105.17411107 73.9167897 126.74697298 79.73944528 148.63217163 85.11204529 C182.84189185 93.51369977 182.84189185 93.51369977 196 99 C196.87140625 99.36029297 197.7428125 99.72058594 198.640625 100.09179688 C232.91376236 114.47598371 263.84279713 135.90949648 279 171 C288.67960815 196.68121038 287.37492808 225.90466685 276.16845703 250.85107422 C263.69964552 277.6014653 239.21548183 295.74101366 212.01953125 305.9140625 C200.22924755 310.11731518 188.3476035 313.01329728 176 315 C175.31566895 315.11714355 174.63133789 315.23428711 173.92626953 315.35498047 C151.58750945 319.05337789 126.08601029 318.91983917 104 314 C103.22769043 313.83371094 102.45538086 313.66742188 101.65966797 313.49609375 C65.27426385 305.44193584 27.99846605 285.71039072 7 254 C6.56091309 253.40574219 6.12182617 252.81148437 5.66943359 252.19921875 C4.30420964 250.07660907 3.49130814 248.48245643 3 246 C3.95909546 242.14562809 5.77778374 238.92647673 7.75 235.5 C8.4925 234.12328125 8.4925 234.12328125 9.25 232.71875 C10.47241366 230.46198631 11.7218994 228.2255483 13 226 C16.02793696 227.3452468 18.00204508 228.81659955 20.2578125 231.23046875 C46.50471179 258.209937 85.73270327 273.5968197 122.98706055 274.35131836 C149.14851248 274.52767953 175.91331523 270.59534448 195.5625 251.66015625 C207.9731832 238.11580487 212.6333788 220.43890475 212.2421875 202.37890625 C211.06339967 185.93291482 205.44124161 171.17056602 193 160 C172.71473907 143.89587663 148.37439173 135.9880235 123.80786133 128.87890625 C80.10379834 116.20905012 34.40055606 95.25229222 11 54 C3.59145786 39.97316022 -0.19499649 26.42265882 -0.0625 10.625 C-0.05798828 9.60277344 -0.05347656 8.58054688 -0.04882812 7.52734375 C-0.037103 5.01816806 -0.02069176 2.5091151 0 0 Z " fill="#212121" transform="translate(3,167)"/>
<path d="M0 0 C-0.66 6.93 -1.32 13.86 -2 21 C-4.97 22.32 -7.94 23.64 -11 25 C-15.87443909 30.86702915 -16.76076465 35.51561877 -16.8125 43 C-16.83763672 43.87011719 -16.86277344 44.74023438 -16.88867188 45.63671875 C-16.94693062 47.75733699 -16.97647765 49.87871207 -17 52 C-20.3 52 -23.6 52 -27 52 C-27 53.98 -27 55.96 -27 58 C-28.52367188 58.78310547 -28.52367188 58.78310547 -30.078125 59.58203125 C-48.66638047 69.40660433 -61.79511402 82.53624833 -68.96875 102.7265625 C-73.35421759 117.46660633 -72.21055275 133.94044392 -65.375 147.6875 C-49.6221792 174.33729635 -11.68182062 180.68063029 16 188 C19.10209 188.79373794 22.20703018 189.57508001 25.31298828 190.35351562 C66.80976245 200.81597718 106.04688992 221.32472159 128.80664062 258.91992188 C138.00357738 274.95058905 144.27384809 293.90136844 144.0625 312.5 C144.05347656 313.5415625 144.04445313 314.583125 144.03515625 315.65625 C144.01775391 316.81640625 144.01775391 316.81640625 144 318 C141.79610665 315.79610665 140.75421178 313.54053788 139.43847656 310.74511719 C122.88819151 275.69080611 88.8289733 256.84345556 53.6171875 244.1953125 C37.02658326 238.57404149 20.34792618 233.95258911 3.23501587 230.22869873 C-22.40954874 224.62269794 -47.17920345 218.27843876 -71 207 C-71.69125977 206.67563965 -72.38251953 206.3512793 -73.09472656 206.01708984 C-98.55397737 193.86636979 -120.12242813 173.81055221 -130 147 C-138.79723564 121.18803427 -135.33776215 92.19966883 -123.91894531 67.85546875 C-119.74796098 59.43371505 -114.00873886 52.17210746 -108 45 C-107.44699219 44.31164063 -106.89398438 43.62328125 -106.32421875 42.9140625 C-85.56968679 17.85011698 -51.0024811 3.75289604 -19.34765625 0.19775391 C-12.88901232 -0.34628744 -6.47609676 -0.16605376 0 0 Z " fill="#212121" transform="translate(147,3)"/>
<path d="M0 0 C6.84988541 -0.16455083 13.41285295 0.24199654 20.1875 1.25 C21.10096191 1.38494873 22.01442383 1.51989746 22.95556641 1.65893555 C55.26154094 6.66157154 85.37552905 22.11196438 105.6015625 48.2578125 C120.89556782 69.64839726 130.26220799 95.06822066 130.09765625 121.53125 C130.09664917 122.30952148 130.09564209 123.08779297 130.09460449 123.88964844 C130.08942526 126.7597809 130.07546459 129.62989214 130.0625 132.5 C130.041875 138.935 130.02125 145.37 130 152 C110.2 152 90.4 152 70 152 C69.6875 135.8125 69.6875 135.8125 69.61206055 130.79223633 C69.36285726 118.85127486 68.01460203 107.57525826 62.3125 96.875 C61.78922119 95.8684436 61.78922119 95.8684436 61.25537109 94.84155273 C55.16058978 83.40323281 47.49633735 73.44437204 36.25 66.6875 C35.60885254 66.30029785 34.96770508 65.9130957 34.30712891 65.51416016 C33.04319945 64.76896243 31.7642359 64.04855982 30.47021484 63.35693359 C28.7109375 62.3359375 28.7109375 62.3359375 26 60 C25.6015625 56.2265625 25.6015625 56.2265625 26 53 C22.7 53 19.4 53 16 53 C15.97421875 51.7934375 15.9484375 50.586875 15.921875 49.34375 C15.86555114 47.72913262 15.8082048 46.11455067 15.75 44.5 C15.73582031 43.70851562 15.72164062 42.91703125 15.70703125 42.1015625 C15.42099849 35.12236322 13.63819533 29.5705493 8.5625 24.625 C6.093295 23.05916268 3.76149854 21.9467995 1 21 C0.14592644 13.96914447 -0.09757218 7.07820854 0 0 Z " fill="#212121" transform="translate(150,2)"/>
<path d="M0 0 C6.6 0 13.2 0 20 0 C23.41466593 3.70322925 24.96882738 5.69715711 26.96972656 9.99267578 C29.02128338 13.98980852 31.73394055 17.58061114 34.3125 21.25 C35.4406272 22.89327978 36.56693055 24.53781314 37.69140625 26.18359375 C39.77613544 29.22193054 41.86691797 32.25591818 43.96484375 35.28515625 C44.89348031 36.62743045 45.8218725 37.96987376 46.75 39.3125 C47.1936792 39.95413086 47.6373584 40.59576172 48.09448242 41.25683594 C51.61182325 46.37178486 54.9840515 51.57220479 58.27246094 56.8371582 C59.15689598 58.24067336 60.07482676 59.62299797 61 61 C61.33 61 61.66 61 62 61 C62 40.87 62 20.74 62 0 C68.27 0 74.54 0 81 0 C81 31.02 81 62.04 81 94 C74.73 94 68.46 94 62 94 C56.22931039 87.8121521 56.22931039 87.8121521 54.578125 84.58203125 C51.51175455 78.95742457 47.76488305 73.84329918 44.0625 68.625 C42.67836682 66.6372404 41.29682364 64.64767463 39.91796875 62.65625 C38.92095947 61.21765625 38.92095947 61.21765625 37.90380859 59.75 C35.22322146 55.87796442 32.54552142 52.00398549 29.875 48.125 C29.46258057 47.5263916 29.05016113 46.9277832 28.62524414 46.31103516 C25.36934613 41.57046893 22.19103037 36.78654556 19 32 C19 52.46 19 72.92 19 94 C12.73 94 6.46 94 0 94 C0 62.98 0 31.96 0 0 Z " fill="#212121" transform="translate(1022,128)"/>
<path d="M0 0 C19 0 19 0 23.3125 3.59375 C24.73291016 5.94213867 24.73291016 5.94213867 26 8.5 C27.02749788 10.25718218 28.05616252 12.01368257 29.0859375 13.76953125 C29.5715918 14.65334473 30.05724609 15.5371582 30.55761719 16.44775391 C32.67775604 20.19926569 35.13457627 23.67589649 37.625 27.1875 C38.52020806 28.4856167 39.41344496 29.78509501 40.3046875 31.0859375 C42.15941999 33.78188004 44.01964923 36.47394042 45.8828125 39.1640625 C46.36282715 39.85862549 46.8428418 40.55318848 47.33740234 41.26879883 C48.23448723 42.56667259 49.13307622 43.86350902 50.03369141 45.15893555 C53.85052621 50.68648545 57.3840374 56.31777306 61 62 C61 41.54 61 21.08 61 0 C67.27 0 73.54 0 80 0 C80 31.02 80 62.04 80 94 C61 94 61 94 56.20703125 89.77734375 C55.00801347 87.87156818 53.87857472 85.92070671 52.8125 83.9375 C51.51762364 81.8216922 50.22068681 79.70714426 48.921875 77.59375 C48.28185547 76.50191406 47.64183594 75.41007812 46.98242188 74.28515625 C43.78010505 68.97845979 40.15833271 63.98177118 36.5625 58.9375 C22.18055556 38.36111111 22.18055556 38.36111111 19 32 C18.67 52.46 18.34 72.92 18 94 C12.06 94 6.12 94 0 94 C0 62.98 0 31.96 0 0 Z " fill="#212121" transform="translate(908,128)"/>
<path d="M0 0 C19 0 19 0 23.75 4.25 C24.90206687 6.12615675 25.98396591 8.04682388 27 10 C28.21680877 12.04074581 29.4342604 14.08110845 30.65234375 16.12109375 C31.22065918 17.12897949 31.78897461 18.13686523 32.37451172 19.17529297 C34.55673358 22.96746884 37.02419566 26.50381885 39.5625 30.0625 C45.71956767 38.95292726 51.68127963 47.97637105 57.66235352 56.9855957 C58.77308063 58.65827492 59.88623017 60.32934526 61 62 C61.33 41.54 61.66 21.08 62 0 C67.94 0 73.88 0 80 0 C80 31.02 80 62.04 80 94 C61 94 61 94 56.64453125 90.43359375 C55.16503906 88.05737305 55.16503906 88.05737305 53.8125 85.4375 C52.70171444 83.59744945 51.58832485 81.75896895 50.47265625 79.921875 C49.63565186 78.4687793 49.63565186 78.4687793 48.78173828 76.98632812 C45.72188192 71.85777742 42.20949638 67.05109022 38.75 62.1875 C34.1546574 55.59884438 29.59365802 48.9878303 25.125 42.3125 C24.72635742 41.71912842 24.32771484 41.12575684 23.91699219 40.5144043 C22.06434651 37.72512498 20.50384495 35.00768989 19 32 C19 52.46 19 72.92 19 94 C12.73 94 6.46 94 0 94 C0 62.98 0 31.96 0 0 Z " fill="#212121" transform="translate(477,263)"/>
<path d="M0 0 C14.32865059 -0.72281027 27.8006316 4.31460787 38.6328125 13.4296875 C47.1501141 21.3915129 52.96058572 32.36736396 53.68359375 44.11328125 C54.0357254 58.47646281 51.88622767 69.9130893 42.4453125 81.2421875 C41.87167969 81.95117188 41.29804687 82.66015625 40.70703125 83.390625 C33.16306466 91.82306731 21.49848402 97.34990371 10.24072266 98.45947266 C-6.51888302 99.33323026 -19.00036233 95.69229938 -32.7421875 85.9921875 C-42.82950244 76.12903511 -48.13145238 63.7108256 -48.61328125 49.64453125 C-48.3852751 36.40497442 -44.09044287 24.73322881 -35.1171875 14.8671875 C-25.22522707 5.72918747 -13.21198881 1.2525127 0 0 Z M-20.63671875 26.35546875 C-28.08906892 35.43949138 -29.68178762 43.53071035 -28.5546875 55.2421875 C-26.86755263 63.47625454 -22.9547029 69.80326657 -16.5546875 75.2421875 C-8.80164046 80.10821402 -1.67862251 82.13794549 7.4453125 81.2421875 C17.34998103 78.96177838 23.96477045 73.98833662 29.8203125 65.8046875 C34.65608232 58.02540562 35.87660831 49.38733179 33.79296875 40.44140625 C31.03090109 31.87069844 25.96449774 25.29321427 18.46875 20.2734375 C5.10010704 13.46007506 -10.04785345 15.60767113 -20.63671875 26.35546875 Z " fill="#212121" transform="translate(824.5546875,125.7578125)"/>
<path d="M0 0 C15.31536289 -0.60103895 29.45305131 4.39408592 40.75 14.76953125 C50.27571014 25.0554365 54.07187409 36.49747316 54.375 50.20703125 C53.73655411 63.75120471 48.77307474 75.44279775 39.375 85.20703125 C27.52329822 95.88506936 13.64504104 99.02157472 -1.95703125 98.5546875 C-15.52476774 97.78732515 -27.23036982 91.57825655 -36.515625 81.83203125 C-46.86583897 68.95176497 -49.00095804 55.1612647 -47.625 39.20703125 C-46.09198724 31.21097606 -42.68496949 24.53793204 -37.625 18.20703125 C-36.83222656 17.19189453 -36.83222656 17.19189453 -36.0234375 16.15625 C-26.97387366 5.8907756 -13.28603529 1.04785695 0 0 Z M-21.625 28.20703125 C-27.58541694 36.37245793 -29.4854613 44.14518541 -28.625 54.20703125 C-27.20547829 62.84030421 -23.15915646 69.46595162 -16.4140625 75.03125 C-8.17837843 80.83558024 0.03234788 82.44582225 9.921875 80.77734375 C18.70943769 78.56680779 25.03444134 73.82644638 29.8125 66.14453125 C34.7835178 57.40630337 35.97556649 48.20351951 33.72265625 38.35546875 C30.63822125 29.80377343 25.57826759 24.10674065 17.625 19.76953125 C3.222812 13.20514668 -11.08545224 16.31625942 -21.625 28.20703125 Z " fill="#212121" transform="translate(504.625,125.79296875)"/>
<path d="M0 0 C51.81807325 0 51.81807325 0 61.37109375 9.08984375 C65.70548778 14.17262236 66.57855669 19.93884953 66.34765625 26.484375 C65.30166739 34.05310337 61.18709521 39.6227113 56 45 C56.721875 45.226875 57.44375 45.45375 58.1875 45.6875 C63.75931222 48.28767904 66.677975 52.42714 69 58 C71.14336653 65.59920859 70.03503129 72.83363333 67 80 C63.33067582 86.26086006 57.69915121 89.5531144 51 92 C34.39206426 95.69065239 17.01306687 94 0 94 C0 62.98 0 31.96 0 0 Z M18 16 C18 23.26 18 30.52 18 38 C22.764375 38.0928125 22.764375 38.0928125 27.625 38.1875 C28.6145166 38.21481201 29.6040332 38.24212402 30.62353516 38.27026367 C35.80749018 38.31899096 39.59621623 38.06319975 44 35 C46.71577872 31.28196961 47.09803809 27.73528565 46.5 23.25 C44.70684648 19.36483404 43.70456471 18.15673529 40 16 C36.21318432 15.51326277 32.4972419 15.6242237 28.6875 15.75 C23.3971875 15.87375 23.3971875 15.87375 18 16 Z M19 52 C19 60.58 19 69.16 19 78 C22.67125 78.0825 26.3425 78.165 30.125 78.25 C31.2711377 78.28641602 32.41727539 78.32283203 33.59814453 78.36035156 C39.70198216 78.42670926 43.46130922 78.25595266 48 74 C50.90849577 69.80164958 50.75856434 64.90744687 50 60 C48.32809652 56.6147409 46.06736957 54.51782729 42.6418457 52.85595703 C39.89167565 51.96490295 37.79806142 51.76934894 34.91796875 51.8046875 C34.0777417 51.80968262 33.23751465 51.81467773 32.37182617 51.81982422 C30.79558472 51.84713623 30.79558472 51.84713623 29.1875 51.875 C24.1446875 51.936875 24.1446875 51.936875 19 52 Z " fill="#212121" transform="translate(685,128)"/>
<path d="M0 0 C49.88235294 0 49.88235294 0 59.25 6.125 C65.71070381 12.87937217 68.42717876 21.23280666 68.2734375 30.47265625 C67.3261613 39.22819487 63.37511533 46.07226118 57 52 C55.67273185 53.00803622 54.34012074 54.00911445 53 55 C53.48879639 55.82612793 53.97759277 56.65225586 54.48120117 57.50341797 C56.32036647 60.6138916 58.15506319 63.72698219 59.98852539 66.84082031 C60.7777022 68.17973726 61.56803651 69.51797275 62.35961914 70.85546875 C66.85429495 78.4517836 71.17226921 86.03770629 75 94 C68.07 94 61.14 94 54 94 C53.13117187 92.45570313 52.26234375 90.91140625 51.3671875 89.3203125 C50.20319687 87.25516783 49.03913031 85.19006594 47.875 83.125 C47.30523438 82.11179687 46.73546875 81.09859375 46.1484375 80.0546875 C42.89413021 74.28568821 39.56955689 68.58121211 36.07080078 62.95654297 C35 61 35 61 35 59 C29.72 59 24.44 59 19 59 C19 70.55 19 82.1 19 94 C12.73 94 6.46 94 0 94 C0 62.98 0 31.96 0 0 Z M19 16 C19 25.24 19 34.48 19 44 C31.96947307 44.84118132 31.96947307 44.84118132 44 41 C47.62421958 37.37578042 48.27052499 34.3999972 48.4375 29.4375 C48.25886769 25.19066082 48.00831938 22.20887401 45 19 C39.59551775 15.46827347 34.83695828 15.64104145 28.625 15.8125 C25.44875 15.874375 22.2725 15.93625 19 16 Z " fill="#212121" transform="translate(586,128)"/>
<path d="M0 0 C50.98520085 0 50.98520085 0 60 8 C67.00565204 16.47434219 67.81464297 24.36157642 67.21337891 35.05566406 C66.31377042 43.25301183 61.06735623 48.47140568 54.93896484 53.45263672 C54.29910645 53.9632666 53.65924805 54.47389648 53 55 C57.77634918 63.89851193 62.81014508 72.63497765 67.92089844 81.3449707 C68.92766076 83.06237489 69.92877273 84.78308751 70.9296875 86.50390625 C71.51991699 87.51267822 72.11014648 88.5214502 72.71826172 89.56079102 C74 92 74 92 74 94 C67.07 94 60.14 94 53 94 C52.20335937 92.52789062 51.40671875 91.05578125 50.5859375 89.5390625 C49.51573994 87.56764594 48.44542093 85.59629529 47.375 83.625 C46.85292969 82.65949219 46.33085938 81.69398438 45.79296875 80.69921875 C42.70722783 75.02297929 39.50967825 69.45548645 36.08837891 63.97412109 C35 62 35 62 35 60 C29.39 60 23.78 60 18 60 C18 71.22 18 82.44 18 94 C12.06 94 6.12 94 0 94 C0 62.98 0 31.96 0 0 Z M18 16 C18 25.24 18 34.48 18 44 C22.764375 44.0928125 22.764375 44.0928125 27.625 44.1875 C28.6145166 44.21481201 29.6040332 44.24212402 30.62353516 44.27026367 C35.84778777 44.31936975 39.50207628 43.96581845 44 41 C47.26331306 37.47905697 48.28814732 34.69606784 48.5 30 C48.27301096 25.28288397 47.3825704 22.46713466 44 19 C37.96338235 16.20674052 33.08780659 15.60494736 26.5 15.8125 C23.695 15.874375 20.89 15.93625 18 16 Z " fill="#212121" transform="translate(819,263)"/>
<path d="M0 0 C5.94 0 11.88 0 18 0 C18.01458252 1.86132568 18.02916504 3.72265137 18.04418945 5.64038086 C18.09602455 11.81915972 18.16135896 17.99768309 18.23571491 24.17623043 C18.28027058 27.91897834 18.31955825 31.6616211 18.34643555 35.40454102 C18.37261767 39.02279425 18.41312244 42.6406396 18.46318626 46.25863838 C18.47975501 47.63273573 18.49133108 49.00690347 18.49761391 50.38108635 C18.53553539 63.53758831 18.53553539 63.53758831 24.375 74.9375 C30.25405962 79.55676113 37.05414008 80.36189219 44.40234375 79.82421875 C50.15625852 78.85047933 54.18165537 76.42124115 58 72 C61.08302312 67.02875857 61.12381007 61.33329529 61.20532227 55.62744141 C61.22526749 54.38660797 61.24521271 53.14577454 61.26576233 51.86734009 C61.28274121 50.52874879 61.29962021 49.19015623 61.31640625 47.8515625 C61.33700178 46.47007665 61.3579989 45.08859673 61.37937927 43.7071228 C61.43433178 40.08718702 61.48385824 36.46719692 61.53222656 32.84716797 C61.58263861 29.14676125 61.63822138 25.44643253 61.69335938 21.74609375 C61.80061243 14.49746029 61.90165062 7.24876073 62 0 C67.94 0 73.88 0 80 0 C80.09070046 8.82375956 80.16394485 17.64720485 80.20724869 26.47132683 C80.22804201 30.56960371 80.25620646 34.66754259 80.30175781 38.765625 C80.3455132 42.72733972 80.36919905 46.68873121 80.37950897 50.6506691 C80.38684752 52.15522467 80.40117683 53.6597644 80.42292023 55.16418076 C80.59407257 67.50736221 78.87146794 77.83281646 70 87 C60.04220152 95.28563986 48.69298838 97.43560303 36 97 C27.4507107 96.02293837 20.13264996 93.83673259 13 89 C12.113125 88.443125 11.22625 87.88625 10.3125 87.3125 C4.5953904 81.5953904 0.34385146 73.77661641 -0.24050903 65.65896606 C-0.23606781 64.44651215 -0.23162659 63.23405823 -0.22705078 61.98486328 C-0.22734283 61.31099075 -0.22763489 60.63711823 -0.22793579 59.94282532 C-0.22655235 57.73518596 -0.21103834 55.52789225 -0.1953125 53.3203125 C-0.19157885 51.78189274 -0.18873354 50.2434706 -0.18673706 48.70504761 C-0.17912829 44.6707087 -0.15950372 40.63651552 -0.1373291 36.60223389 C-0.11681108 32.4796343 -0.10772264 28.35701101 -0.09765625 24.234375 C-0.076255 16.15617592 -0.04109556 8.07812292 0 0 Z " fill="#212121" transform="translate(368,262)"/>
<path d="M0 0 C19.47 0 38.94 0 59 0 C59 5.28 59 10.56 59 16 C45.8 16 32.6 16 19 16 C19 23.59 19 31.18 19 39 C29.56 39 40.12 39 51 39 C51 44.28 51 49.56 51 55 C40.44 55 29.88 55 19 55 C19 62.92 19 70.84 19 79 C32.86 79 46.72 79 61 79 C61 84.28 61 89.56 61 95 C40.87 95 20.74 95 0 95 C0 63.65 0 32.3 0 0 Z " fill="#212121" transform="translate(733,263)"/>
<path d="M0 0 C19.8 0 39.6 0 60 0 C60 4.95 60 9.9 60 15 C46.47 15 32.94 15 19 15 C19 22.92 19 30.84 19 39 C29.89 39 40.78 39 52 39 C52 43.95 52 48.9 52 54 C41.11 54 30.22 54 19 54 C19 61.92 19 69.84 19 78 C33.19 78 47.38 78 62 78 C62 83.28 62 88.56 62 94 C41.54 94 21.08 94 0 94 C0 62.98 0 31.96 0 0 Z " fill="#212121" transform="translate(1137,128)"/>
<path d="M0 0 C19.47 0 38.94 0 59 0 C59 5.28 59 10.56 59 16 C45.47 16 31.94 16 18 16 C18 23.59 18 31.18 18 39 C28.89 39 39.78 39 51 39 C51 44.28 51 49.56 51 55 C40.11 55 29.22 55 18 55 C18 62.92 18 70.84 18 79 C32.19 79 46.38 79 61 79 C61 83.95 61 88.9 61 94 C40.87 94 20.74 94 0 94 C0 62.98 0 31.96 0 0 Z " fill="#212121" transform="translate(1138,263)"/>
<path d="M0 0 C0.60585938 0.39832031 1.21171875 0.79664063 1.8359375 1.20703125 C1.23759025 5.35001792 -0.17070535 8.38897502 -2.2265625 12.01953125 C-2.77441406 12.99535156 -3.32226562 13.97117188 -3.88671875 14.9765625 C-4.30824219 15.71261719 -4.72976563 16.44867188 -5.1640625 17.20703125 C-5.9375 16.79710937 -6.7109375 16.3871875 -7.5078125 15.96484375 C-16.30580878 11.41340508 -23.19216104 8.08187192 -33.1640625 10.20703125 C-36.71469338 11.90515906 -37.95754159 12.89724988 -40.1640625 16.20703125 C-40.7478821 19.12195675 -40.7478821 19.12195675 -40.1640625 22.20703125 C-35.76008483 28.13546273 -28.94909757 30.28669715 -22.3515625 33.14453125 C-1.42342069 42.23097937 -1.42342069 42.23097937 3.8359375 53.20703125 C4.6484375 55.76953125 4.6484375 55.76953125 4.8359375 58.20703125 C4.9184375 59.25890625 5.0009375 60.31078125 5.0859375 61.39453125 C4.53001597 69.87233453 2.14416225 76.41028418 -4.1640625 82.20703125 C-13.45630456 89.80977475 -24.70844969 90.04412808 -36.1640625 89.20703125 C-45.65564464 87.67459809 -54.98207681 83.67081837 -62.1640625 77.20703125 C-60.81476786 73.37040053 -59.08655225 70.55530556 -56.5390625 67.39453125 C-55.90742188 66.60433594 -55.27578125 65.81414062 -54.625 65 C-54.14289063 64.40832031 -53.66078125 63.81664062 -53.1640625 63.20703125 C-50.86511655 64.35097791 -48.57455945 65.50899137 -46.2890625 66.6796875 C-45.2578125 67.20433594 -44.2265625 67.72898437 -43.1640625 68.26953125 C-42.1328125 68.79675781 -41.1015625 69.32398438 -40.0390625 69.8671875 C-34.7803352 72.3179259 -29.92095581 72.77573648 -24.1640625 72.20703125 C-20.09743588 70.65431927 -18.58886648 69.84423723 -16.1640625 66.20703125 C-15.58036807 62.79164981 -15.58036807 62.79164981 -16.1640625 59.20703125 C-19.49425021 55.27301829 -22.84925459 53.08584157 -27.4765625 50.89453125 C-28.0754126 50.60312256 -28.6742627 50.31171387 -29.29125977 50.01147461 C-31.93553466 48.72627598 -34.59189625 47.4703502 -37.26269531 46.24121094 C-47.33677184 41.60408438 -55.78603289 37.71019215 -60.1640625 26.83203125 C-62.35864348 18.83552679 -60.66937856 11.6244576 -56.73046875 4.46484375 C-44.02570197 -13.84776273 -16.30035635 -10.30684071 0 0 Z " fill="#212121" transform="translate(429.1640625,133.79296875)"/>
<path d="M0 0 C1.87270737 1.38161278 3.65981548 2.87822929 5.421875 4.3984375 C3.111875 9.0184375 0.801875 13.6384375 -1.578125 18.3984375 C-5.03030571 18.3984375 -6.54939567 17.55192181 -9.578125 15.9609375 C-14.39877765 13.44300732 -17.97989343 12.23033124 -23.453125 12.1484375 C-24.48179687 12.12265625 -25.51046875 12.096875 -26.5703125 12.0703125 C-30.00333283 12.44482381 -31.80863245 13.37457756 -34.578125 15.3984375 C-36.76141873 18.16394289 -37.66544923 19.48153308 -37.328125 23.0234375 C-36.76072228 24.82021277 -36.1739729 26.61089379 -35.578125 28.3984375 C-33.29165344 29.52405891 -33.29165344 29.52405891 -30.578125 30.3984375 C-26.79552758 31.95446629 -23.02982098 33.54847564 -19.265625 35.1484375 C-18.25822266 35.56609375 -17.25082031 35.98375 -16.21289062 36.4140625 C-7.02695739 40.33977729 1.97040708 45.32475767 6.52734375 54.6640625 C8.83936077 61.73136342 8.50448548 70.04589601 5.484375 76.8359375 C1.67111803 83.34846626 -3.96918394 87.71174566 -11.015625 90.3359375 C-26.55484149 94.21468109 -41.07413291 91.02541014 -54.6171875 82.9609375 C-56.578125 81.3984375 -56.578125 81.3984375 -58.578125 77.3984375 C-54.618125 71.4584375 -54.618125 71.4584375 -50.578125 65.3984375 C-45.578125 67.3984375 -45.578125 67.3984375 -42.828125 69.3359375 C-35.60268361 73.92131377 -28.10268555 75.54470762 -19.578125 74.3984375 C-15.87241797 73.15273443 -15.87241797 73.15273443 -13.578125 70.3984375 C-12.43840773 67.62296022 -11.9337476 65.34266596 -12.578125 62.3984375 C-16.64225619 55.5569957 -23.23899383 53.46473974 -30.328125 50.4609375 C-51.59675395 41.39896523 -51.59675395 41.39896523 -56.578125 30.3984375 C-58.80905047 22.89167479 -57.94018279 15.41882637 -54.578125 8.3984375 C-50.27615961 1.01717057 -42.56374165 -2.53971125 -34.70703125 -5.24609375 C-23.13199311 -7.17880654 -10.1017025 -6.27530004 0 0 Z " fill="#212121" transform="translate(967.578125,267.6015625)"/>
<path d="M0 0 C6.6 0 13.2 0 20 0 C24.89826741 13.19060987 29.67133218 26.41770996 34.30908203 39.70214844 C35.02756024 41.75654192 35.74897807 43.80990939 36.47314453 45.86230469 C37.53785077 48.88000267 38.5940928 51.90054358 39.6484375 54.921875 C40.1327272 56.28756622 40.1327272 56.28756622 40.62680054 57.68084717 C42.28909237 62.47847436 43.48822083 66.94413788 44 72 C44.66 72 45.32 72 46 72 C46.09511368 71.42618088 46.19022736 70.85236176 46.28822327 70.26115417 C47.60493831 62.99453444 49.806824 56.19797393 52.24609375 49.23828125 C52.65787369 48.04824997 53.06965363 46.85821869 53.49391174 45.63212585 C54.36081778 43.13082568 55.23006254 40.6305105 56.10375977 38.1315918 C57.21723487 34.94659203 58.32270413 31.75888843 59.42535305 28.57012653 C60.48751161 25.50010431 61.5543068 22.4316977 62.62109375 19.36328125 C63.01493759 18.22772293 63.40878143 17.09216461 63.81455994 15.92219543 C64.18827225 14.85385971 64.56198456 13.78552399 64.94702148 12.68481445 C65.2718602 11.75345169 65.59669891 10.82208893 65.93138123 9.86250305 C67.17514657 6.53083588 68.59912204 3.26871524 70 0 C76.6 0 83.2 0 90 0 C87.53991436 8.69806582 84.43029546 17.09877027 81.23046875 25.54296875 C80.66595249 27.0396442 80.10169257 28.53641636 79.53767395 30.03327942 C78.35881412 33.15977415 77.17773445 36.28541745 75.99487305 39.41040039 C74.49568322 43.3712504 73.00071785 47.33367714 71.50728893 51.29670238 C70.34251124 54.38683331 69.17610708 57.47634826 68.00918007 60.56566811 C67.45837692 62.02404625 66.90789729 63.48254664 66.35777855 64.94118309 C62.68467735 74.67493183 58.88914222 84.35032236 55 94 C48.73 94 42.46 94 36 94 C32.64685915 86.77604812 29.57145128 79.53403804 26.77734375 72.078125 C26.39464325 71.06647278 26.01194275 70.05482056 25.61764526 69.01251221 C24.38766828 65.75956274 23.16254694 62.50480888 21.9375 59.25 C20.24394168 54.76496111 18.5479229 50.28085471 16.8515625 45.796875 C16.22714012 44.14498169 16.22714012 44.14498169 15.59010315 42.4597168 C13.1173239 35.92539649 10.62092521 29.40106324 8.0859375 22.890625 C7.79902542 22.15354309 7.51211334 21.41646118 7.21650696 20.65704346 C5.91709797 17.32298565 4.61247496 13.99104828 3.30249023 10.66113281 C2.85848877 9.52514648 2.4144873 8.38916016 1.95703125 7.21875 C1.57522705 6.24873047 1.19342285 5.27871094 0.80004883 4.27929688 C0 2 0 2 0 0 Z " fill="#212121" transform="translate(625,263)"/>
<path d="M0 0 C27.39 0 54.78 0 83 0 C83 4.95 83 9.9 83 15 C82.67 15.33 82.34 15.66 82 16 C71.44 16 60.88 16 50 16 C50 42.07 50 68.14 50 95 C44.06 95 38.12 95 32 95 C32 68.93 32 42.86 32 16 C21.44 16 10.88 16 0 16 C0 10.72 0 5.44 0 0 Z " fill="#212121" transform="translate(1036,263)"/>
<path d="M0 0 C6.27 0 12.54 0 19 0 C19 31.02 19 62.04 19 94 C12.73 94 6.46 94 0 94 C0 62.98 0 31.96 0 0 Z " fill="#212121" transform="translate(998,263)"/>
<path d="M0 0 C5.94 0 11.88 0 18 0 C18 31.02 18 62.04 18 94 C12.06 94 6.12 94 0 94 C0 62.98 0 31.96 0 0 Z " fill="#212121" transform="translate(588,263)"/>
<path d="M0 0 C3.23613354 1.74253345 3.82395315 2.47185944 5 6 C5.0853013 8.87694671 5.11585645 11.72900182 5.09765625 14.60546875 C5.0962413 15.44467361 5.09482635 16.28387848 5.09336853 17.14851379 C5.08777215 19.82821216 5.07522035 22.5078269 5.0625 25.1875 C5.05748453 27.00455608 5.05292171 28.82161348 5.04882812 30.63867188 C5.03865491 35.09250604 5.0190788 39.54615943 5 44 C-0.94 44 -6.88 44 -13 44 C-13.04598749 38.96436964 -13.08578988 33.92947208 -13.10986328 28.89379883 C-13.11990208 27.18185961 -13.13353595 25.46993745 -13.15087891 23.75805664 C-13.17522073 21.29308858 -13.18650438 18.82834785 -13.1953125 16.36328125 C-13.20563507 15.60163162 -13.21595764 14.83998199 -13.22659302 14.05525208 C-13.22764659 9.03108357 -12.51578496 5.44209798 -9.875 1.1875 C-6.78644114 -0.76858728 -3.49482969 -0.52845207 0 0 Z " fill="#212121" transform="translate(152,109)"/>
<path d="M0 0 C3.18256788 0.06931182 3.93424156 0.22826274 6.5625 2.25 C9.59366788 6.37238831 9.25378928 9.93123382 9.22265625 14.8828125 C9.2212413 15.72343231 9.21982635 16.56405212 9.21836853 17.43014526 C9.21276237 20.12013275 9.20020886 22.81003759 9.1875 25.5 C9.18248579 27.32161338 9.17792275 29.14322807 9.17382812 30.96484375 C9.163641 35.43495344 9.14406685 39.90488399 9.125 44.375 C3.185 44.375 -2.755 44.375 -8.875 44.375 C-8.94397612 39.19668151 -9.00367654 34.01996506 -9.03979492 28.84155273 C-9.05485553 27.08108104 -9.07530826 25.3206467 -9.10131836 23.56030273 C-9.13782229 21.02578497 -9.15475354 18.49176448 -9.16796875 15.95703125 C-9.19119453 14.78174614 -9.19119453 14.78174614 -9.21488953 13.5827179 C-9.21630162 8.96871615 -8.70625896 6.05550758 -5.875 2.375 C-3.875 0.375 -3.875 0.375 0 0 Z " fill="#212121" transform="translate(113.875,108.625)"/>
<path d="M0 0 C3.44172584 1.03187684 4.88084593 2.8346606 7.09765625 5.62890625 C7.77386077 8.64728587 7.68202875 11.56806153 7.5859375 14.6484375 C7.57886276 15.50700851 7.57178802 16.36557953 7.5644989 17.25016785 C7.53660027 19.98148228 7.47387316 22.71071583 7.41015625 25.44140625 C7.38506739 27.29749635 7.36225524 29.15361871 7.34179688 31.00976562 C7.2910464 35.55091768 7.19319576 40.08759471 7.09765625 44.62890625 C1.48765625 44.62890625 -4.12234375 44.62890625 -9.90234375 44.62890625 C-10.00126549 39.00558605 -10.07383717 33.38277292 -10.12207031 27.75878906 C-10.14217827 25.8459389 -10.16946882 23.93315014 -10.20410156 22.02050781 C-10.25265624 19.27002814 -10.27532033 16.52036148 -10.29296875 13.76953125 C-10.31361389 12.91522522 -10.33425903 12.06091919 -10.35552979 11.1807251 C-10.35775736 5.27838958 -10.35775736 5.27838958 -8.12402344 2.09277344 C-5.4557363 0.33463611 -3.16626187 0.10701084 0 0 Z " fill="#212121" transform="translate(183.90234375,108.37109375)"/>
<path d="M0 0 C-2.4145277 4.36914536 -5.38122236 7.99093476 -8.625 11.75 C-9.12773438 12.33910156 -9.63046875 12.92820313 -10.1484375 13.53515625 C-13.76971726 17.76971726 -13.76971726 17.76971726 -15 19 C-17.53049402 19.07313567 -20.03304837 19.09247527 -22.5625 19.0625 C-23.27341797 19.05798828 -23.98433594 19.05347656 -24.71679688 19.04882812 C-26.47790013 19.03700864 -28.23896036 19.01907263 -30 19 C-28.85826428 16.58012651 -27.6814104 14.19373286 -26.4375 11.82421875 C-24.96996617 9.0713651 -24.96996617 9.0713651 -24 6.33203125 C-19.5785458 -3.32454754 -9.0408401 -0.72505747 0 0 Z " fill="#212121" transform="translate(1190,239)"/>
<path d="M0 0 C2.203125 1.453125 2.203125 1.453125 4 4 C4.48641711 7.09865715 4.37702087 10.12333252 4.25 13.25 C4.23195312 14.09046875 4.21390625 14.9309375 4.1953125 15.796875 C4.14830798 17.86507395 4.07656724 19.93268441 4 22 C-0.95 22 -5.9 22 -11 22 C-11.10806144 19.08234109 -11.18732877 16.16868875 -11.25 13.25 C-11.28351563 12.425 -11.31703125 11.6 -11.3515625 10.75 C-11.45014269 4.63802833 -11.45014269 4.63802833 -9.203125 1.453125 C-5.97123932 -0.67854428 -3.78237235 -0.54033891 0 0 Z " fill="#212121" transform="translate(152,33)"/>
</svg>
