<?xml version="1.0" encoding="UTF-8"?>
<svg version="1.1" xmlns="http://www.w3.org/2000/svg" width="633" height="980">
<path d="M0 0 C8.5302964 -0.72897585 15.05867753 3.39789864 22.27661133 7.42163086 C24.1526082 8.39437894 26.03340812 9.14614969 28.0078125 9.89453125 C31.44580479 11.53490829 32.20864897 12.22487382 33.48046875 15.71484375 C33.78855469 16.51019531 34.09664063 17.30554688 34.4140625 18.125 C35.01771467 19.94846743 35.54361463 21.79759987 36.04296875 23.65234375 C37.57657381 27.40115612 39.97430086 28.99079861 43.16796875 31.40234375 C46.01966605 33.72594896 46.92469815 36.20245875 48.3046875 39.578125 C50.91716559 45.09861037 55.73308192 48.92340256 60.30078125 52.7890625 C60.91695313 53.32144531 61.533125 53.85382813 62.16796875 54.40234375 C62.76351563 54.86253906 63.3590625 55.32273437 63.97265625 55.796875 C65.16796875 57.40234375 65.16796875 57.40234375 65.00390625 59.79296875 C64.15487254 62.4432235 63.14030734 64.71896859 61.79296875 67.15234375 C61.16261719 68.32023437 61.16261719 68.32023437 60.51953125 69.51171875 C59.16796875 71.40234375 59.16796875 71.40234375 56.16796875 72.40234375 C56.12671875 73.45421875 56.08546875 74.50609375 56.04296875 75.58984375 C55.1999196 79.26312931 55.01022135 80.04272921 52.41796875 82.40234375 C49.16796875 84.40234375 49.16796875 84.40234375 46.66796875 84.33984375 C44.85288733 83.65918822 43.04075735 82.97064577 41.23046875 82.27734375 C37.50288455 81.21231969 35.79156718 80.93748481 32.16796875 82.40234375 C30.13608952 85.23950845 28.61504154 88.23287016 27.16796875 91.40234375 C25.84796875 91.40234375 24.52796875 91.40234375 23.16796875 91.40234375 C22.74837891 92.3459375 22.74837891 92.3459375 22.3203125 93.30859375 C19.48663998 99.35862125 16.33185653 105.02160483 11.16796875 109.40234375 C10.17796875 109.40234375 9.18796875 109.40234375 8.16796875 109.40234375 C6.1298319 110.7147429 6.1298319 110.7147429 4.10546875 112.40234375 C0.37630208 115.40234375 0.37630208 115.40234375 -1.83203125 115.40234375 C-2.17234375 116.48515625 -2.17234375 116.48515625 -2.51953125 117.58984375 C-3.83203125 120.40234375 -3.83203125 120.40234375 -6.51953125 122.77734375 C-9.12001908 125.21494426 -9.12001908 125.21494426 -9.14453125 128.52734375 C-6.97286114 137.66400989 2.22772417 146.00566402 8.09106445 153.11987305 C12.62610016 158.64668169 16.90877721 164.33541005 21.03417969 170.17456055 C25.48543031 176.30251191 30.26047672 179.28975784 37.48046875 181.65234375 C43.70167252 183.97549659 49.23844535 186.88956577 53.16796875 192.40234375 C54.81788457 203.95175451 53.58436994 215.74311045 53.16796875 227.40234375 C-62.99203125 227.40234375 -179.15203125 227.40234375 -298.83203125 227.40234375 C-299.16203125 218.49234375 -299.49203125 209.58234375 -299.83203125 200.40234375 C-300.82203125 199.08234375 -301.81203125 197.76234375 -302.83203125 196.40234375 C-304.14028598 193.87757167 -305.34307206 191.31631125 -306.55078125 188.7421875 C-307.67907636 186.3611487 -307.67907636 186.3611487 -309.55078125 184.90625 C-310.83203125 183.40234375 -310.83203125 183.40234375 -310.6953125 181.140625 C-309.66071942 177.85895192 -308.37349229 174.75365652 -307.01953125 171.58984375 C-304.13958274 164.68940739 -302.25462005 157.75071846 -300.59375 150.47265625 C-299.83203125 147.40234375 -299.83203125 147.40234375 -298.83203125 146.40234375 C-296.99315697 146.06899376 -295.14431668 145.79028698 -293.29296875 145.53515625 C-292.15472656 145.37144531 -291.01648438 145.20773437 -289.84375 145.0390625 C-287.44332717 144.70130161 -285.04228961 144.36787748 -282.640625 144.0390625 C-269.50104828 142.13241976 -263.72857326 138.44539984 -255.61621094 127.80810547 C-246.73164283 115.81499705 -240.29033609 102.25263965 -234.83203125 88.40234375 C-249.88604071 92.02645714 -262.34601222 97.70191321 -275.74633789 105.32983398 C-292.69416792 114.92598693 -306.8786146 118.01111422 -325.95703125 113.27734375 C-326.73828369 113.08986572 -327.51953613 112.9023877 -328.32446289 112.70922852 C-334.78566842 110.92036797 -339.88431574 107.82414996 -343.26171875 101.890625 C-343.91456329 99.04225533 -344.02739747 96.51004198 -343.95703125 93.58984375 C-343.93898438 92.61402344 -343.9209375 91.63820313 -343.90234375 90.6328125 C-343.87914062 89.89675781 -343.8559375 89.16070312 -343.83203125 88.40234375 C-337.01794054 89.50058548 -329.37566592 92.25056358 -324.953125 97.73046875 C-324.43878906 98.5296875 -323.92445313 99.32890625 -323.39453125 100.15234375 C-320.58040677 104.20577853 -318.43056369 105.24075128 -313.58203125 106.15234375 C-298.12662711 107.47709268 -286.55702774 98.53942855 -274.75097656 89.74121094 C-258.09066683 77.37870493 -241.4522548 68.58618518 -221.58203125 62.58984375 C-220.93650299 62.39453064 -220.29097473 62.19921753 -219.62588501 61.99798584 C-208.8719906 58.77104895 -198.36430041 56.00979217 -187.08203125 56.08984375 C-186.27024414 56.09113281 -185.45845703 56.09242188 -184.62207031 56.09375 C-178.4991129 56.18676872 -172.6227169 56.95596784 -166.58203125 57.90234375 C-155.60635516 59.57215573 -144.7205524 59.71277492 -133.64453125 59.71484375 C-132.38074646 59.71967773 -132.38074646 59.71967773 -131.09143066 59.72460938 C-121.48194044 59.747091 -112.27078279 59.45251147 -102.83203125 57.40234375 C-103.16203125 55.75234375 -103.49203125 54.10234375 -103.83203125 52.40234375 C-102.83300781 51.63148438 -101.83398438 50.860625 -100.8046875 50.06640625 C-99.50114776 49.05358401 -98.19777075 48.0405523 -96.89453125 47.02734375 C-96.23517578 46.51945312 -95.57582031 46.0115625 -94.89648438 45.48828125 C-93.95385742 44.75351562 -93.95385742 44.75351562 -92.9921875 44.00390625 C-92.41090088 43.55354004 -91.82961426 43.10317383 -91.23071289 42.63916016 C-89.69201395 41.43380002 -89.69201395 41.43380002 -88.83203125 39.40234375 C-90.15203125 38.74234375 -91.47203125 38.08234375 -92.83203125 37.40234375 C-76.33203125 26.40234375 -76.33203125 26.40234375 -69.83203125 26.40234375 C-70.16203125 24.75234375 -70.49203125 23.10234375 -70.83203125 21.40234375 C-66.21203125 19.42234375 -61.59203125 17.44234375 -56.83203125 15.40234375 C-56.83203125 14.08234375 -56.83203125 12.76234375 -56.83203125 11.40234375 C-49.27679633 8.85507961 -41.97475707 6.96889413 -34.07421875 5.8984375 C-30.80874312 5.39878039 -27.66419665 4.69041251 -24.45703125 3.90234375 C-16.35153754 1.97386276 -8.22599628 1.16865878 0 0 Z M-213.33203125 143.90234375 C-214.05132812 144.44890625 -214.770625 144.99546875 -215.51171875 145.55859375 C-217.06652787 146.79406497 -218.59305393 148.06593446 -220.08984375 149.37109375 C-226.74005218 155.07754323 -233.59555138 158.51075303 -241.83203125 161.40234375 C-242.6101416 161.67884766 -243.38825195 161.95535156 -244.18994141 162.24023438 C-255.01991093 165.98038366 -264.84746299 168.10768128 -276.34814453 167.44482422 C-281.0339732 167.19748696 -284.09440055 167.14651701 -287.83203125 170.40234375 C-289.15844861 175.29350778 -289.35414025 179.69312104 -287.390625 184.4375 C-283.87013846 188.87560709 -277.93586308 191.22760848 -272.83203125 193.40234375 C-272.17203125 193.40234375 -271.51203125 193.40234375 -270.83203125 193.40234375 C-270.50203125 195.38234375 -270.17203125 197.36234375 -269.83203125 199.40234375 C-233.53203125 199.40234375 -197.23203125 199.40234375 -159.83203125 199.40234375 C-164.99783645 191.65363594 -169.87471918 188.4550611 -178.83203125 186.40234375 C-178.80882812 185.70109375 -178.785625 184.99984375 -178.76171875 184.27734375 C-178.6090397 176.25078786 -178.53324475 169.15281968 -184.2890625 162.890625 C-186.68231266 160.5821989 -189.18721593 158.41662157 -191.71875 156.26171875 C-193.89409946 154.3477329 -195.92604448 152.34328058 -197.95703125 150.27734375 C-201.10839687 147.08875728 -204.26385779 144.1209521 -207.83203125 141.40234375 C-210.46995065 141.40234375 -211.2522158 142.29986299 -213.33203125 143.90234375 Z M-159.83203125 143.40234375 C-160.50471117 164.08732043 -160.50471117 164.08732043 -152.08203125 181.83984375 C-146.1211839 186.561307 -139.04050458 188.38846571 -131.83203125 190.40234375 C-128.83203125 191.40234375 -128.83203125 191.40234375 -127.76953125 193.21484375 C-127.46015625 193.93671875 -127.15078125 194.65859375 -126.83203125 195.40234375 C-126.17203125 196.72234375 -125.51203125 198.04234375 -124.83203125 199.40234375 C-117.57203125 199.40234375 -110.31203125 199.40234375 -102.83203125 199.40234375 C-104.5797367 195.44184225 -104.5797367 195.44184225 -107.14453125 192.90234375 C-110.93659521 188.3633581 -113.76715694 183.24782402 -114.83203125 177.40234375 C-113.79530067 174.62302347 -112.43180547 172.83509564 -110.54296875 170.55859375 C-107.18318714 166.32434843 -106.09092403 161.36253197 -105.39453125 156.08984375 C-105.98056972 152.48989313 -107.00144533 151.71231186 -109.83203125 149.40234375 C-112.71415532 147.9610984 -115.68769706 146.83428995 -118.70703125 145.71484375 C-119.49722656 145.40740234 -120.28742188 145.09996094 -121.1015625 144.78320312 C-133.81235357 139.95056459 -146.65626539 140.69962255 -159.83203125 143.40234375 Z M-50.76953125 151.71484375 C-55.95280671 153.65748313 -61.10688573 154.10616447 -66.59765625 154.58203125 C-70.6731325 155.61566653 -72.11606074 157.24350284 -74.83203125 160.40234375 C-75.55003906 161.19253906 -76.26804687 161.98273438 -77.0078125 162.796875 C-78.49523229 164.48007948 -79.98217577 166.16370494 -81.46875 167.84765625 C-83.69185088 170.25080993 -86.02601583 172.40150412 -88.45703125 174.58984375 C-91.27515325 177.39662521 -91.77884969 178.04780005 -92.39453125 182.15234375 C-90.3819043 186.33860781 -88.53450369 186.86477422 -84.32421875 188.4453125 C-81.85259893 189.3944455 -79.67143679 190.49288315 -77.39453125 191.83984375 C-76.75644531 192.20980469 -76.11835938 192.57976562 -75.4609375 192.9609375 C-73.83203125 194.40234375 -73.83203125 194.40234375 -71.83203125 199.40234375 C-38.83203125 199.40234375 -5.83203125 199.40234375 28.16796875 199.40234375 C23.56050585 194.73476579 23.56050585 194.73476579 18.1796875 192.203125 C11.39685852 189.50316395 5.21202632 185.9571239 -0.7265625 181.734375 C-2.81770558 180.29832812 -2.81770558 180.29832812 -5.37109375 179.52734375 C-8.50377441 178.09526116 -9.53805271 176.46286275 -11.39453125 173.58984375 C-16.53324027 165.72145069 -16.53324027 165.72145069 -24.078125 160.32421875 C-25.58149414 159.54304687 -25.58149414 159.54304687 -27.11523438 158.74609375 C-28.67661133 157.9571875 -28.67661133 157.9571875 -30.26953125 157.15234375 C-31.30658203 156.6109375 -32.34363281 156.06953125 -33.41210938 155.51171875 C-41.75484659 150.80297257 -41.75484659 150.80297257 -50.76953125 151.71484375 Z " fill="#212121" transform="translate(441.83203125,229.59765625)"/>
<path d="M0 0 C9.57 0 19.14 0 29 0 C29.01458252 3.81876709 29.02916504 7.63753418 29.04418945 11.57202148 C29.09470326 24.24067187 29.16118085 36.90919729 29.23571491 49.57772732 C29.28048576 57.25273188 29.31994228 64.92769198 29.34643555 72.6027832 C29.36956854 79.30035584 29.4031336 85.9977855 29.44870156 92.69524437 C29.47242998 96.23428869 29.49129092 99.77319323 29.49761391 103.31231499 C29.52689591 117.82505366 29.62303336 131.82495986 33 146 C33.22019302 146.96032639 33.44038605 147.92065277 33.66725159 148.91007996 C38.31760143 168.44314476 47.31259969 187.43149257 60 203 C60.68908447 203.85392334 60.68908447 203.85392334 61.39208984 204.72509766 C85.4566227 234.35245127 119.65087621 254.68922258 158 259 C159.43279297 259.16435547 159.43279297 259.16435547 160.89453125 259.33203125 C199.61008717 263.13762325 238.48176902 252.33186525 269 228 C273.16219923 224.50132181 277.08449941 220.76985965 281 217 C281.76699219 216.30777344 282.53398437 215.61554688 283.32421875 214.90234375 C308.83253636 191.13427043 322.87758891 153.41674948 324.10524178 119.05423927 C324.16101772 115.88662979 324.18876493 112.72005837 324.20532227 109.55200195 C324.21522186 108.36046005 324.22512146 107.16891815 324.23532104 105.94126892 C324.26128076 102.71063063 324.2832348 99.47999654 324.30332303 96.24931741 C324.32537686 92.85939812 324.3526695 89.46952085 324.37937927 86.07963562 C324.42904658 79.6768182 324.47408032 73.27397712 324.51740164 66.87111396 C324.56699772 59.57471841 324.62183197 52.27836507 324.67708123 44.98201048 C324.79050207 29.98804511 324.89673481 14.9940394 325 0 C334.24 0 343.48 0 353 0 C353.06810727 16.17879485 353.12320648 32.35746451 353.15543652 48.5363636 C353.17080901 56.05098787 353.19171077 63.56551578 353.22631836 71.08007812 C353.25651931 77.64100878 353.27564455 84.20186956 353.28226548 90.76286781 C353.28612669 94.22668559 353.29499116 97.69030373 353.31719017 101.15405655 C353.43049963 121.07243319 352.92189237 140.91968863 347.3125 160.1875 C347.05903809 161.083479 346.80557617 161.97945801 346.54443359 162.90258789 C338.36536026 190.72959114 323.49113362 214.73450111 304 236 C303.30390625 236.76828125 302.6078125 237.5365625 301.890625 238.328125 C295.90892402 244.61657987 288.91274177 249.7888247 282 255 C281.154375 255.64066406 280.30875 256.28132813 279.4375 256.94140625 C241.36436313 284.6601934 192.57290502 294.10782822 146.44140625 286.9765625 C110.78014969 280.87619526 79.06547065 263.94203406 53 239 C51.59041016 237.6696875 51.59041016 237.6696875 50.15234375 236.3125 C25.01521056 211.98852302 8.89032316 178.7022611 2.625 144.5 C2.46926514 143.67274414 2.31353027 142.84548828 2.15307617 141.99316406 C-0.94913016 123.17749249 -0.14090409 103.5693871 -0.09765625 84.5703125 C-0.09578531 82.11310861 -0.09436461 79.65590435 -0.09336853 77.19869995 C-0.0895965 70.81045455 -0.07981331 64.4222328 -0.06866455 58.03399658 C-0.05833448 51.48360514 -0.05384637 44.93320978 -0.04882812 38.3828125 C-0.03818486 25.58852973 -0.02063285 12.79427056 0 0 Z " fill="#212121" transform="translate(142,592)"/>
<path d="M0 0 C9.24 0 18.48 0 28 0 C28.01458252 3.54613037 28.02916504 7.09226074 28.04418945 10.74584961 C28.09472697 22.51644046 28.1612089 34.28690538 28.23571491 46.05736446 C28.28046533 53.18756051 28.31992623 60.31770891 28.34643555 67.44799805 C28.36958544 73.67093755 28.40316837 79.8937236 28.44870156 86.11654097 C28.47240793 89.40408585 28.48972488 92.6914522 28.49761391 95.97907829 C28.57982831 127.11645098 33.13809892 156.08355451 56 179 C74.96918062 197.30869383 98.37332641 205.39079732 124.49975586 205.37304688 C138.06809549 205.10575853 150.80185661 201.97674074 163 196 C163.92039062 195.55914063 164.84078125 195.11828125 165.7890625 194.6640625 C172.97489615 191.00029943 178.98798718 186.3499757 185 181 C185.78375 180.31164062 186.5675 179.62328125 187.375 178.9140625 C202.12151233 165.14041036 213.26721708 142.67154676 214.10524178 122.46202469 C214.16323012 119.2558947 214.18923577 116.05085574 214.20532227 112.84423828 C214.21522186 111.6241658 214.22512146 110.40409332 214.23532104 109.14704895 C214.26143026 105.81487121 214.28332445 102.48271642 214.30332303 99.15049982 C214.32525669 95.66312292 214.35260912 92.17578856 214.37937927 88.68844604 C214.42920671 82.09067448 214.47418226 75.49287918 214.51740164 68.89506137 C214.56685928 61.38113145 214.62174567 53.86724422 214.67708123 46.35335565 C214.79074846 30.90227511 214.8969039 15.45115524 215 0 C224.57 0 234.14 0 244 0 C244.04536245 15.20479371 244.0821136 30.40955635 244.10362434 45.61440086 C244.11388309 52.676227 244.12783838 59.73800773 244.15087891 66.79980469 C244.17314442 73.62739104 244.18460205 80.4549304 244.18975449 87.28255081 C244.19342174 89.8745561 244.20058209 92.4665591 244.21146011 95.05854416 C244.35646368 131.07429481 244.35646368 131.07429481 239.8125 146.125 C239.49321533 147.22146851 239.49321533 147.22146851 239.16748047 148.34008789 C229.8736999 178.98578437 208.70737257 204.68809876 180.77050781 220.24121094 C153.47368857 234.7553562 118.00924207 239.65652515 88.03369141 230.64599609 C87.36257324 230.43281738 86.69145508 230.21963867 86 230 C85.30181152 229.78037598 84.60362305 229.56075195 83.88427734 229.33447266 C53.30027662 219.3930894 27.47341621 197.88958911 12.75 169.25 C10.00373561 163.64153754 7.7153772 157.90417343 5.6875 152 C5.45708008 151.33774414 5.22666016 150.67548828 4.98925781 149.99316406 C4.24058465 147.67898345 3.61585876 145.35338738 3 143 C2.74416138 142.0263147 2.48832275 141.05262939 2.22473145 140.04943848 C-0.76077225 126.71788297 -0.39021307 113.32838176 -0.30418181 99.73270226 C-0.2851916 96.21606606 -0.28364725 92.69941883 -0.28010559 89.18273926 C-0.27084976 82.54978882 -0.24632543 75.91699 -0.21605712 69.28410578 C-0.18230948 61.72162688 -0.16597638 54.15914003 -0.15097082 46.59660435 C-0.11976854 31.06430062 -0.06483944 15.53220527 0 0 Z " fill="#212121" transform="translate(197,592)"/>
<path d="M0 0 C9.24 0 18.48 0 28 0 C28.01458252 3.52220215 28.02916504 7.0444043 28.04418945 10.67333984 C28.09459176 22.32822741 28.16104837 33.98299321 28.23571491 45.63774681 C28.2805824 52.70200478 28.3200176 59.76621336 28.34643555 66.83056641 C28.37195968 73.65175051 28.41292495 80.47270469 28.46318626 87.29375076 C28.47983377 89.8923327 28.49136118 92.49095279 28.49761391 95.08958054 C28.50727764 98.73752571 28.5353658 102.38490895 28.56762695 106.03271484 C28.56547432 107.63386642 28.56547432 107.63386642 28.5632782 109.2673645 C28.70885494 120.95489698 31.87042553 131.76288913 40.2265625 140.265625 C49.40538644 148.13318838 58.3190772 150.74916516 70.34765625 150.3828125 C81.62594252 149.20070335 90.58253093 143.63671275 97.68359375 134.9296875 C101.8231479 128.86161702 104.10461583 122.28389528 104.15821838 114.96331787 C104.1680072 113.94812073 104.17779602 112.93292358 104.18788147 111.88696289 C104.19363693 110.77925537 104.1993924 109.67154785 104.20532227 108.53027344 C104.21522186 107.35926086 104.22512146 106.18824829 104.23532104 104.98175049 C104.26693132 101.10764596 104.29169175 97.23352916 104.31640625 93.359375 C104.33643954 90.67465455 104.3579251 87.98994624 104.37937927 85.30523682 C104.4292622 78.95885325 104.47421732 72.61244473 104.51740164 66.26601243 C104.56681165 59.03990909 104.6217158 51.81385075 104.67708123 44.58779097 C104.79083372 29.72523486 104.89696212 14.86263472 105 0 C114.57 0 124.14 0 134 0 C134.06794458 15.40425547 134.12311353 30.80843576 134.15543652 46.21280098 C134.17084926 53.36669436 134.19183054 60.52048744 134.22631836 67.67431641 C134.25639337 73.91581384 134.27561555 80.15723856 134.28226548 86.39880645 C134.28614742 89.69806355 134.29677053 92.99706651 134.31719017 96.29626846 C134.51061672 128.86171934 134.51061672 128.86171934 127.25 142.3125 C126.89856934 142.98418213 126.54713867 143.65586426 126.18505859 144.34790039 C117.74664493 160.07438065 104.61285868 171.13706284 87.83984375 177.12890625 C85.23535608 177.87048664 82.65749078 178.48450012 80 179 C78.88625 179.226875 77.7725 179.45375 76.625 179.6875 C56.99615971 181.3796414 39.68125326 177.06467593 24 165 C22.989375 164.278125 21.97875 163.55625 20.9375 162.8125 C13.41815634 156.31852138 7.77758174 147.09589485 4 138 C3.64528625 137.15476776 3.29057251 136.30953552 2.92510986 135.43869019 C-1.35328679 123.1561401 -0.51614155 110.3812422 -0.40557575 97.54127741 C-0.38029917 94.10338702 -0.3781997 90.66547752 -0.37347412 87.22750854 C-0.36112045 80.73963796 -0.32840397 74.25204212 -0.28807616 67.76429164 C-0.24311903 60.36874164 -0.22131171 52.97317741 -0.20129442 45.57752442 C-0.15966284 30.38483882 -0.08640794 15.19250934 0 0 Z " fill="#212121" transform="translate(252,592)"/>
<path d="M0 0 C116.16 0 232.32 0 352 0 C352 9.24 352 18.48 352 28 C235.84 28 119.68 28 0 28 C0 18.76 0 9.52 0 0 Z " fill="#212121" transform="translate(143,538)"/>
<path d="M0 0 C116.16 0 232.32 0 352 0 C352 9.24 352 18.48 352 28 C235.84 28 119.68 28 0 28 C0 18.76 0 9.52 0 0 Z " fill="#212121" transform="translate(143,484)"/>
<path d="M0 0 C3.63 0 7.26 0 11 0 C15.72661722 9.20152111 20.00764356 18.45729435 24 28 C24.33 18.76 24.66 9.52 25 0 C28.63 0 32.26 0 36 0 C36 17.82 36 35.64 36 54 C32.37 54 28.74 54 25 54 C20.71 44.43 16.42 34.86 12 25 C11.67 34.57 11.34 44.14 11 54 C7.37 54 3.74 54 0 54 C0 36.18 0 18.36 0 0 Z " fill="#212121" transform="translate(345,175)"/>
<path d="M0 0 C3.63 0 7.26 0 11 0 C15.29 9.57 19.58 19.14 24 29 C24.33 19.43 24.66 9.86 25 0 C28.63 0 32.26 0 36 0 C36 17.49 36 34.98 36 53 C32.04 53 28.08 53 24 53 C17.565 38.645 17.565 38.645 11 24 C10.67 33.57 10.34 43.14 10 53 C6.7 53 3.4 53 0 53 C0 35.51 0 18.02 0 0 Z " fill="#212121" transform="translate(186,112)"/>
<path d="M0 0 C23 0 23 0 30 4 C33.81754395 9.04900975 33.83560658 14.91326574 33 21 C31.92675839 23.6947192 30.69631068 25.61456311 29 28 C29.63550781 28.64710938 30.27101563 29.29421875 30.92578125 29.9609375 C33.59733428 33.87519033 33.8355477 36.99030227 34.1875 41.625 C34.64595902 47.39348242 34.64595902 47.39348242 36 53 C34.02090602 53.02686553 32.04171029 53.04633375 30.0625 53.0625 C28.96035156 53.07410156 27.85820312 53.08570313 26.72265625 53.09765625 C24 53 24 53 23 52 C22.71272465 48.4751771 22.55094075 44.95016645 22.37890625 41.41796875 C22.17419604 37.77182414 22.17419604 37.77182414 20 34 C17.03 33.34 14.06 32.68 11 32 C11 38.93 11 45.86 11 53 C7.37 53 3.74 53 0 53 C0 35.51 0 18.02 0 0 Z M11 9 C11 13.62 11 18.24 11 23 C16.17446776 23.40914759 16.17446776 23.40914759 21 22 C22.63102777 18.73794446 22.51981506 15.56444611 22 12 C21.16666667 9.83333333 21.16666667 9.83333333 19 9 C16.28114681 8.76940693 13.74008408 8.86524177 11 9 Z " fill="#212121" transform="translate(328,112)"/>
<path d="M0 0 C21 0 21 0 29 5 C33.97611986 12.27279056 34.22787177 18.15133228 34.3125 26.6875 C34.34150391 27.64333984 34.37050781 28.59917969 34.40039062 29.58398438 C34.46727941 37.13212651 33.10452089 43.24189577 28.21875 49.15625 C27.6515625 49.5996875 27.084375 50.043125 26.5 50.5 C25.9328125 50.9640625 25.365625 51.428125 24.78125 51.90625 C17.71889557 56.24278342 7.01488573 54 0 54 C0 36.18 0 18.36 0 0 Z M11 9 C11 20.55 11 32.1 11 44 C17.57049098 44.70778554 17.57049098 44.70778554 20.375 42.1875 C23.87042432 37.48212111 23.25534765 32.29986114 23.3125 26.6875 C23.34150391 25.74970703 23.37050781 24.81191406 23.40039062 23.84570312 C23.4548496 17.90129646 22.97240981 14.51778704 19 10 C16.47825081 8.5527864 16.47825081 8.5527864 11 9 Z " fill="#212121" transform="translate(144,175)"/>
<path d="M0 0 C4.34043819 2.44312089 6.85871634 5.93819134 8.75 10.5 C9.9784066 15.7557143 9.93351197 21.00711573 9.9375 26.375 C9.94974609 27.23480469 9.96199219 28.09460938 9.97460938 28.98046875 C9.99101771 36.18919863 9.44120742 43.67643217 4.75 49.5 C-0.66841801 53.85829275 -5.32674885 53.94171407 -12.1640625 53.93359375 C-16.88576477 53.2701647 -20.04291526 51.186755 -23 47.5 C-27.30500037 41.7599995 -26.50508735 35.82118245 -26.54516602 28.89575195 C-26.55664839 27.51576453 -26.57704102 26.1358202 -26.60668945 24.75610352 C-26.78090132 16.64211269 -26.8974944 10.33750076 -22.25 3.5 C-15.54019976 -1.84045325 -8.02908404 -3.45844796 0 0 Z M-14.25 10.5 C-17.0175452 15.26738094 -16.58105666 20.53068248 -16.5625 25.875 C-16.57861328 26.79539063 -16.59472656 27.71578125 -16.61132812 28.6640625 C-16.61538862 34.34875999 -16.13684381 38.54447317 -13.25 43.5 C-9.85581779 44.91349769 -9.85581779 44.91349769 -6.25 44.5 C-3.30427395 42.32946501 -2.40939059 40.97817177 -1.25 37.5 C-1.01937281 33.87895931 -1.06483438 30.25262315 -1.0625 26.625 C-1.05025391 25.63113281 -1.03800781 24.63726562 -1.02539062 23.61328125 C-1.02345703 22.65035156 -1.02152344 21.68742187 -1.01953125 20.6953125 C-1.01542236 19.81891113 -1.01131348 18.94250977 -1.00708008 18.03955078 C-1.28150691 15.17061817 -1.96141009 13.0738849 -3.25 10.5 C-8.19061262 7.00542034 -9.30938738 7.00542034 -14.25 10.5 Z " fill="#212121" transform="translate(328.25,175.5)"/>
<path d="M0 0 C3.63 0 7.26 0 11 0 C11.01458252 1.19077148 11.02916504 2.38154297 11.04418945 3.60839844 C11.10219235 8.02927577 11.17942515 12.44964481 11.26245117 16.87011719 C11.29569114 18.78279364 11.32372599 20.69556797 11.34643555 22.60839844 C11.37999869 25.35914794 11.43231489 28.10900132 11.48828125 30.859375 C11.49467117 31.71368103 11.5010611 32.56798706 11.50764465 33.44818115 C11.64297987 39.30179376 11.64297987 39.30179376 15 44 C17.97065509 43.65772428 17.97065509 43.65772428 21 43 C22.71688134 39.56623732 22.24509002 35.61885635 22.31640625 31.8359375 C22.33718735 30.92872955 22.35796844 30.02152161 22.37937927 29.08682251 C22.44487135 26.1829602 22.50375814 23.27900595 22.5625 20.375 C22.60568555 18.40884458 22.64929985 16.44269853 22.69335938 14.4765625 C22.80055239 9.65113638 22.90182081 4.8256176 23 0 C26.63 0 30.26 0 34 0 C34.09933715 5.83491118 34.17168936 11.66932337 34.21972656 17.50488281 C34.23976497 19.48739199 34.26700353 21.46984263 34.30175781 23.45214844 C34.35061954 26.31199641 34.37304673 29.17105881 34.390625 32.03125 C34.41127014 32.90865845 34.43191528 33.78606689 34.45318604 34.69006348 C34.4553008 40.57165457 33.42104922 45.12829276 30 50 C24.89088775 54.25759355 20.37949358 54.6246165 13.80859375 54.38671875 C8.66608058 53.67863975 6.09677356 51.18570114 2.6875 47.5 C0.29651694 43.95780287 -0.12654122 40.9993547 -0.11352539 36.78222656 C-0.11344986 35.96167786 -0.11337433 35.14112915 -0.11329651 34.29571533 C-0.10813522 33.41953552 -0.10297394 32.54335571 -0.09765625 31.640625 C-0.0962413 30.73624695 -0.09482635 29.8318689 -0.09336853 28.90008545 C-0.08777911 26.01668973 -0.07522853 23.13337218 -0.0625 20.25 C-0.05748363 18.29296987 -0.05292096 16.33593853 -0.04882812 14.37890625 C-0.03781313 9.58590747 -0.02055574 4.79296698 0 0 Z " fill="#212121" transform="translate(144,112)"/>
<path d="M0 0 C4.82498097 2.44912266 6.7980026 5.56011603 8.86328125 10.3515625 C9.11328125 13.7890625 9.11328125 13.7890625 8.86328125 16.3515625 C5.23328125 16.3515625 1.60328125 16.3515625 -2.13671875 16.3515625 C-2.79671875 14.3715625 -3.45671875 12.3915625 -4.13671875 10.3515625 C-7.03745056 9.67355216 -7.03745056 9.67355216 -10.13671875 9.3515625 C-12.48645693 11.24911394 -12.48645693 11.24911394 -12.26171875 14.4765625 C-12.19984375 15.8996875 -12.19984375 15.8996875 -12.13671875 17.3515625 C-11.028125 17.94324219 -9.91953125 18.53492188 -8.77734375 19.14453125 C-7.31349338 19.94214203 -5.84996872 20.74035079 -4.38671875 21.5390625 C-3.65710938 21.92642578 -2.9275 22.31378906 -2.17578125 22.71289062 C2.79937682 25.44922756 6.25798537 28.14097074 8.86328125 33.3515625 C9.58154289 40.45175539 9.35848773 45.67340695 4.86328125 51.3515625 C-0.39389458 55.42587377 -6.78335069 55.0852848 -13.13671875 54.3515625 C-17.79036452 53.08649375 -20.99425322 51.11286352 -23.63671875 47.0390625 C-25.2165831 43.15522931 -25.47535685 40.49987919 -25.13671875 36.3515625 C-21.83671875 36.3515625 -18.53671875 36.3515625 -15.13671875 36.3515625 C-14.78609375 37.4859375 -14.43546875 38.6203125 -14.07421875 39.7890625 C-13.3336447 41.74243716 -13.3336447 41.74243716 -12.13671875 43.3515625 C-8.96282715 44.18679713 -6.38658509 44.3515625 -3.13671875 44.3515625 C-3.13671875 41.0515625 -3.13671875 37.7515625 -3.13671875 34.3515625 C-4.21953125 33.92810547 -4.21953125 33.92810547 -5.32421875 33.49609375 C-12.08328019 30.74553125 -18.44815586 28.09883314 -23.13671875 22.3515625 C-24.58604858 18.00357302 -24.6534094 13.89560905 -24.13671875 9.3515625 C-19.27863842 -0.19109528 -10.15624248 -3.08215037 0 0 Z " fill="#212121" transform="translate(393.13671875,111.6484375)"/>
<path d="M0 0 C10.23 0 20.46 0 31 0 C31 2.97 31 5.94 31 9 C24.4 9 17.8 9 11 9 C11 12.96 11 16.92 11 21 C16.61 21 22.22 21 28 21 C28 23.97 28 26.94 28 30 C22.39 30 16.78 30 11 30 C11 34.62 11 39.24 11 44 C17.6 44 24.2 44 31 44 C31 46.97 31 49.94 31 53 C20.77 53 10.54 53 0 53 C0 35.51 0 18.02 0 0 Z " fill="#212121" transform="translate(464,112)"/>
<path d="M0 0 C9.9 0 19.8 0 30 0 C30 2.97 30 5.94 30 9 C23.4 9 16.8 9 10 9 C10 12.96 10 16.92 10 21 C15.61 21 21.22 21 27 21 C27 24.3 27 27.6 27 31 C21.39 31 15.78 31 10 31 C10 35.29 10 39.58 10 44 C16.6 44 23.2 44 30 44 C30 47.3 30 50.6 30 54 C20.1 54 10.2 54 0 54 C0 36.18 0 18.36 0 0 Z " fill="#212121" transform="translate(186,175)"/>
<path d="M0 0 C9.9 0 19.8 0 30 0 C30 2.97 30 5.94 30 9 C23.73 9 17.46 9 11 9 C11 12.96 11 16.92 11 21 C16.28 21 21.56 21 27 21 C27 23.97 27 26.94 27 30 C21.72 30 16.44 30 11 30 C11 34.62 11 39.24 11 44 C17.27 44 23.54 44 30 44 C30 46.97 30 49.94 30 53 C20.1 53 10.2 53 0 53 C0 35.51 0 18.02 0 0 Z " fill="#212121" transform="translate(291,112)"/>
<path d="M0 0 C3.63 0 7.26 0 11 0 C14.00842042 11.6016213 16.60052618 23.25789405 19 35 C22.00842042 23.3983787 24.60052618 11.74210595 27 0 C30.96 0 34.92 0 39 0 C36.48185217 10.949485 33.79835034 21.84177016 30.90795898 32.69897461 C30.29910266 34.98786498 29.69527481 37.27804572 29.09179688 39.56835938 C28.70341653 41.03393145 28.314756 42.49942932 27.92578125 43.96484375 C27.74662674 44.64489975 27.56747223 45.32495575 27.38288879 46.02561951 C26.11511934 50.76976132 26.11511934 50.76976132 25 53 C21.04 53 17.08 53 13 53 C11.14226227 46.09657363 9.29102121 39.19145065 7.44580078 32.28466797 C6.81705496 29.93490495 6.18653094 27.58561699 5.55419922 25.23681641 C4.64604177 21.86223448 3.74427563 18.48600038 2.84375 15.109375 C2.55939087 14.05820496 2.27503174 13.00703491 1.98205566 11.92401123 C1.72178589 10.94329651 1.46151611 9.96258179 1.19335938 8.95214844 C0.96241577 8.09055115 0.73147217 7.22895386 0.49353027 6.34124756 C0 4 0 4 0 0 Z " fill="#212121" transform="translate(247,112)"/>
<path d="M0 0 C3.96 0 7.92 0 12 0 C14.31 6.27 16.62 12.54 19 19 C22.23265082 11.75438899 22.23265082 11.75438899 25.25 4.4375 C25.8275 2.973125 26.405 1.50875 27 0 C30.96 0 34.92 0 39 0 C37.4570078 4.96618683 35.75373278 9.67622188 33.5546875 14.390625 C27.32419669 27.89423205 24.472835 39.11534109 25 54 C21.37 54 17.74 54 14 54 C14.07863281 52.91589844 14.15726562 51.83179688 14.23828125 50.71484375 C14.72570181 34.10837136 8.03537387 20.59368929 1.17749023 5.86889648 C0 3 0 3 0 0 Z " fill="#212121" transform="translate(261,175)"/>
<path d="M0 0 C11.22 0 22.44 0 34 0 C34 2.97 34 5.94 34 9 C30.04 9 26.08 9 22 9 C22 23.52 22 38.04 22 53 C18.7 53 15.4 53 12 53 C12 38.48 12 23.96 12 9 C8.04 9 4.08 9 0 9 C0 6.03 0 3.06 0 0 Z " fill="#212121" transform="translate(425,112)"/>
<path d="M0 0 C3.3 0 6.6 0 10 0 C10 14.52 10 29.04 10 44 C15.94 44 21.88 44 28 44 C28 47.3 28 50.6 28 54 C18.76 54 9.52 54 0 54 C0 36.18 0 18.36 0 0 Z " fill="#212121" transform="translate(239,175)"/>
<path d="M0 0 C3.63 0 7.26 0 11 0 C11 17.49 11 34.98 11 53 C7.37 53 3.74 53 0 53 C0 35.51 0 18.02 0 0 Z " fill="#212121" transform="translate(230,112)"/>
<path d="M0 0 C3.3 0 6.6 0 10 0 C10 17.49 10 34.98 10 53 C6.7 53 3.4 53 0 53 C0 35.51 0 18.02 0 0 Z " fill="#212121" transform="translate(410,112)"/>
<path d="M0 0 C3.04515108 0.00358253 6.03672495 0.1213375 9.0703125 0.37890625 C6.97936085 4.94465575 4.25160273 8.53656851 0.0703125 11.37890625 C-3.02655173 11.94420686 -5.82316032 11.82269585 -8.9296875 11.37890625 C-8.3322571 9.6861868 -7.64542277 8.02509738 -6.9296875 6.37890625 C-6.4759375 5.28578125 -6.0221875 4.19265625 -5.5546875 3.06640625 C-2.9296875 0.37890625 -2.9296875 0.37890625 0 0 Z " fill="#212121" transform="translate(481.9296875,97.62109375)"/>
</svg>
